solid solarmount_53
facet normal -0.9914448613738115 -0.13052619222004472 -0.0
  outer loop
    vertex 148.4288200720171 -0.02252918392630678 50.0
    vertex 148.47993133258348 -0.41075775158008787 45.00000000000002
    vertex 148.47993133258348 -0.41075775158008787 50.0
  endloop
endfacet
facet normal -0.9914448613738115 -0.13052619222004472 -0.0
  outer loop
    vertex 148.47993133258348 -0.41075775158008787 45.00000000000002
    vertex 148.4288200720171 -0.02252918392630678 50.0
    vertex 148.4288200720171 -0.02252918392630678 45.00000000000002
  endloop
endfacet
facet normal 0.9486809028189993 0.3162269676063328 -0.002247128174375394
  outer loop
    vertex 151.8976579035212 -3.517719712309599 -1.2993725659199688e-17
    vertex 152.90950133879906 -6.517719712309598 5.0
    vertex 152.8976579035212 -6.517719712309598 0.0
  endloop
endfacet
facet normal 0.9486809028189993 0.3162269676063328 -0.002247128174375394
  outer loop
    vertex 152.90950133879906 -6.517719712309598 5.0
    vertex 151.8976579035212 -3.517719712309599 -1.2993725659199688e-17
    vertex 151.90950133879906 -3.517719712309599 5.0
  endloop
endfacet
facet normal 0.7933533402912312 -0.608761429008726 -0.0
  outer loop
    vertex 144.62551921311797 5.2807716749728 0.0
    vertex 143.43362954363377 3.727470816073694 50.0
    vertex 143.43362954363377 3.727470816073694 0.0
  endloop
endfacet
facet normal 0.7933533402912312 -0.608761429008726 -0.0
  outer loop
    vertex 143.43362954363377 3.727470816073694 50.0
    vertex 144.62551921311797 5.2807716749728 0.0
    vertex 144.62551921311797 5.2807716749728 50.0
  endloop
endfacet
facet normal -0.923879532511288 0.3826834323650872 -0.0
  outer loop
    vertex 157.1732637691851 -1.9636720221952177 50.0
    vertex 156.42401060040038 -3.7725291839263106 0.0
    vertex 156.42401060040038 -3.7725291839263106 50.0
  endloop
endfacet
facet normal -0.923879532511288 0.3826834323650872 -0.0
  outer loop
    vertex 156.42401060040038 -3.7725291839263106 0.0
    vertex 157.1732637691851 -1.9636720221952177 50.0
    vertex 157.1732637691851 -1.9636720221952177 0.0
  endloop
endfacet
facet normal -0.7933533402912312 0.608761429008726 -0.0
  outer loop
    vertex 156.42401060040038 -3.7725291839263106 50.0
    vertex 155.23212093091618 -5.325830042825417 0.0
    vertex 155.23212093091618 -5.325830042825417 50.0
  endloop
endfacet
facet normal -0.7933533402912312 0.608761429008726 -0.0
  outer loop
    vertex 155.23212093091618 -5.325830042825417 0.0
    vertex 156.42401060040038 -3.7725291839263106 50.0
    vertex 156.42401060040038 -3.7725291839263106 0.0
  endloop
endfacet
facet normal 0.0 0.0 -1.0
  outer loop
    vertex 153.6788200720171 6.472661344456982 5.0
    vertex 146.17882007201706 -6.517719712309597 5.0
    vertex 146.17882007201706 6.472661344456984 5.0
  endloop
endfacet
facet normal 0.0 0.0 -1.0
  outer loop
    vertex 146.17882007201706 -6.517719712309597 5.0
    vertex 153.6788200720171 6.472661344456982 5.0
    vertex 148.48057566068772 -3.5177197123095976 5.0
  endloop
endfacet
facet normal 0.0 0.0 -1.0
  outer loop
    vertex 146.17882007201706 -6.517719712309597 5.0
    vertex 148.48057566068772 -3.5177197123095976 5.0
    vertex 147.48057566068772 -6.517719712309597 5.0
  endloop
endfacet
facet normal 0.0 0.0 -1.0
  outer loop
    vertex 148.48057566068772 -3.5177197123095976 5.0
    vertex 153.6788200720171 6.472661344456982 5.0
    vertex 151.90950133879906 -3.517719712309599 5.0
  endloop
endfacet
facet normal 0.0 0.0 -1.0
  outer loop
    vertex 151.90950133879906 -3.517719712309599 5.0
    vertex 153.6788200720171 6.472661344456982 5.0
    vertex 152.90950133879906 -6.517719712309598 5.0
  endloop
endfacet
facet normal 0.0 0.0 -1.0
  outer loop
    vertex 152.90950133879906 -6.517719712309598 5.0
    vertex 153.6788200720171 6.472661344456982 5.0
    vertex 153.6788200720171 -6.517719712309598 5.0
  endloop
endfacet
facet normal 0.9914448613738114 -0.13052619222004438 0.0
  outer loop
    vertex 151.4288200720171 -0.022529183926307147 45.00000000000002
    vertex 151.37770881145067 -0.4107577515800891 50.0
    vertex 151.37770881145067 -0.4107577515800891 45.00000000000002
  endloop
endfacet
facet normal 0.9914448613738114 -0.13052619222004438 0.0
  outer loop
    vertex 151.37770881145067 -0.4107577515800891 50.0
    vertex 151.4288200720171 -0.022529183926307147 45.00000000000002
    vertex 151.4288200720171 -0.022529183926307147 50.0
  endloop
endfacet
facet normal 0.38268343236507874 0.9238795325112914 0.0
  outer loop
    vertex 150.31704863967084 1.4263595555072952 50.0
    vertex 150.6788200720171 1.2765089217503507 45.00000000000002
    vertex 150.31704863967084 1.4263595555072952 45.00000000000002
  endloop
endfacet
facet normal 0.38268343236507874 0.9238795325112914 0.0
  outer loop
    vertex 150.6788200720171 1.2765089217503507 45.00000000000002
    vertex 150.31704863967084 1.4263595555072952 50.0
    vertex 150.6788200720171 1.2765089217503507 50.0
  endloop
endfacet
facet normal -0.6087614290087294 -0.7933533402912284 -0.0
  outer loop
    vertex 149.17882007201706 -1.3215672896029647 50.0
    vertex 148.86815990023726 -1.083189355706128 45.00000000000002
    vertex 149.17882007201706 -1.3215672896029647 45.00000000000002
  endloop
endfacet
facet normal -0.6087614290087294 -0.7933533402912284 -0.0
  outer loop
    vertex 148.86815990023726 -1.083189355706128 45.00000000000002
    vertex 149.17882007201706 -1.3215672896029647 50.0
    vertex 148.86815990023726 -1.083189355706128 50.0
  endloop
endfacet
facet normal 0.6087614290087241 0.7933533402912326 -2.690607842914077e-19
  outer loop
    vertex 144.62551921311797 -5.325830042825413 50.0
    vertex 146.17882007201706 -6.517719712309597 0.0
    vertex 144.62551921311797 -5.325830042825413 0.0
  endloop
endfacet
facet normal 0.6087614290087241 0.7933533402912326 -2.690607842914077e-19
  outer loop
    vertex 146.17882007201706 -6.517719712309597 0.0
    vertex 144.62551921311797 -5.325830042825413 50.0
    vertex 146.17882007201706 -6.517719712309597 5.0
  endloop
endfacet
facet normal 0.6087614290087241 0.7933533402912326 -2.690607842914077e-19
  outer loop
    vertex 146.17882007201706 -6.517719712309597 5.0
    vertex 144.62551921311797 -5.325830042825413 50.0
    vertex 146.17882007201706 -6.517719712309597 45.0
  endloop
endfacet
facet normal 0.6087614290087241 0.7933533402912326 -2.690607842914077e-19
  outer loop
    vertex 146.17882007201706 -6.517719712309597 45.0
    vertex 144.62551921311797 -5.325830042825413 50.0
    vertex 146.17882007201706 -6.517719712309597 50.0
  endloop
endfacet
facet normal 0.38268343236507874 -0.9238795325112914 0.0
  outer loop
    vertex 150.6788200720171 -1.3215672896029649 50.0
    vertex 150.31704863967084 -1.4714179233599094 45.00000000000002
    vertex 150.6788200720171 -1.3215672896029649 45.00000000000002
  endloop
endfacet
facet normal 0.38268343236507874 -0.9238795325112914 0.0
  outer loop
    vertex 150.31704863967084 -1.4714179233599094 45.00000000000002
    vertex 150.6788200720171 -1.3215672896029649 50.0
    vertex 150.31704863967084 -1.4714179233599094 50.0
  endloop
endfacet
facet normal -0.9238795325112799 -0.3826834323651068 -0.0
  outer loop
    vertex 148.47993133258348 -0.41075775158008787 50.0
    vertex 148.62978196634043 -0.7725291839263064 45.00000000000002
    vertex 148.62978196634043 -0.7725291839263064 50.0
  endloop
endfacet
facet normal -0.9238795325112799 -0.3826834323651068 -0.0
  outer loop
    vertex 148.62978196634043 -0.7725291839263064 45.00000000000002
    vertex 148.47993133258348 -0.41075775158008787 50.0
    vertex 148.47993133258348 -0.41075775158008787 45.00000000000002
  endloop
endfacet
facet normal -0.13052619222005218 0.9914448613738104 0.0
  outer loop
    vertex 149.5405915043633 1.4263595555072957 50.0
    vertex 149.9288200720171 1.4774708160736931 45.00000000000002
    vertex 149.5405915043633 1.4263595555072957 45.00000000000002
  endloop
endfacet
facet normal -0.13052619222005218 0.9914448613738104 0.0
  outer loop
    vertex 149.9288200720171 1.4774708160736931 45.00000000000002
    vertex 149.5405915043633 1.4263595555072957 50.0
    vertex 149.9288200720171 1.4774708160736931 50.0
  endloop
endfacet
facet normal -0.6087614290087233 -0.7933533402912331 -2.690607842913844e-19
  outer loop
    vertex 155.23212093091618 5.280771674972799 50.0
    vertex 153.6788200720171 6.472661344456982 0.0
    vertex 155.23212093091618 5.280771674972799 0.0
  endloop
endfacet
facet normal -0.6087614290087233 -0.7933533402912331 -2.690607842913844e-19
  outer loop
    vertex 153.6788200720171 6.472661344456982 0.0
    vertex 155.23212093091618 5.280771674972799 50.0
    vertex 153.6788200720171 6.472661344456982 5.0
  endloop
endfacet
facet normal -0.6087614290087233 -0.7933533402912331 -2.690607842913844e-19
  outer loop
    vertex 153.6788200720171 6.472661344456982 5.0
    vertex 155.23212093091618 5.280771674972799 50.0
    vertex 153.6788200720171 6.472661344456982 45.0
  endloop
endfacet
facet normal -0.6087614290087233 -0.7933533402912331 -2.690607842913844e-19
  outer loop
    vertex 153.6788200720171 6.472661344456982 45.0
    vertex 155.23212093091618 5.280771674972799 50.0
    vertex 153.6788200720171 6.472661344456982 50.0
  endloop
endfacet
facet normal -0.9914448613738099 -0.13052619222005613 -0.0
  outer loop
    vertex 157.1732637691851 1.9186136543425956 50.0
    vertex 157.4288200720171 -0.02252918392630825 0.0
    vertex 157.4288200720171 -0.02252918392630825 50.0
  endloop
endfacet
facet normal -0.9914448613738099 -0.13052619222005613 -0.0
  outer loop
    vertex 157.4288200720171 -0.02252918392630825 0.0
    vertex 157.1732637691851 1.9186136543425956 50.0
    vertex 157.1732637691851 1.9186136543425956 0.0
  endloop
endfacet
facet normal 1.8799776550319295e-16 1.0 -0.0
  outer loop
    vertex 146.17882007201706 -6.517719712309597 50.0
    vertex 153.6788200720171 -6.517719712309598 45.0
    vertex 146.17882007201706 -6.517719712309597 45.0
  endloop
endfacet
facet normal 1.8799776550319295e-16 1.0 -0.0
  outer loop
    vertex 153.6788200720171 -6.517719712309598 45.0
    vertex 146.17882007201706 -6.517719712309597 50.0
    vertex 153.6788200720171 -6.517719712309598 50.0
  endloop
endfacet
facet normal 1.0 -0.0 -0.0
  outer loop
    vertex 153.6788200720171 6.472661344456982 5.0
    vertex 153.6788200720171 -6.517719712309598 45.0
    vertex 153.6788200720171 -6.517719712309598 5.0
  endloop
endfacet
facet normal 1.0 -0.0 -0.0
  outer loop
    vertex 153.6788200720171 -6.517719712309598 45.0
    vertex 153.6788200720171 6.472661344456982 5.0
    vertex 153.6788200720171 6.472661344456982 45.0
  endloop
endfacet
facet normal 0.923879532511288 -0.382683432365087 -0.0
  outer loop
    vertex 143.43362954363377 3.727470816073694 0.0
    vertex 142.68437637484908 1.9186136543426004 50.0
    vertex 142.68437637484908 1.9186136543426004 0.0
  endloop
endfacet
facet normal 0.923879532511288 -0.382683432365087 -0.0
  outer loop
    vertex 142.68437637484908 1.9186136543426004 50.0
    vertex 143.43362954363377 3.727470816073694 0.0
    vertex 143.43362954363377 3.727470816073694 50.0
  endloop
endfacet
facet normal -1.0 0.0 0.0
  outer loop
    vertex 146.17882007201706 6.472661344456984 45.0
    vertex 146.17882007201706 -6.517719712309597 5.0
    vertex 146.17882007201706 -6.517719712309597 45.0
  endloop
endfacet
facet normal -1.0 0.0 0.0
  outer loop
    vertex 146.17882007201706 -6.517719712309597 5.0
    vertex 146.17882007201706 6.472661344456984 45.0
    vertex 146.17882007201706 6.472661344456984 5.0
  endloop
endfacet
facet normal 0.6087614290087243 -0.7933533402912325 -5.381215685827915e-19
  outer loop
    vertex 146.17882007201706 6.472661344456984 5.0
    vertex 144.62551921311797 5.2807716749728 0.0
    vertex 146.17882007201706 6.472661344456984 0.0
  endloop
endfacet
facet normal 0.6087614290087243 -0.7933533402912325 -5.381215685827915e-19
  outer loop
    vertex 144.62551921311797 5.2807716749728 0.0
    vertex 146.17882007201706 6.472661344456984 5.0
    vertex 144.62551921311797 5.2807716749728 50.0
  endloop
endfacet
facet normal 0.6087614290087243 -0.7933533402912325 -5.381215685827915e-19
  outer loop
    vertex 144.62551921311797 5.2807716749728 50.0
    vertex 146.17882007201706 6.472661344456984 5.0
    vertex 146.17882007201706 6.472661344456984 45.0
  endloop
endfacet
facet normal 0.6087614290087243 -0.7933533402912325 -5.381215685827915e-19
  outer loop
    vertex 144.62551921311797 5.2807716749728 50.0
    vertex 146.17882007201706 6.472661344456984 45.0
    vertex 146.17882007201706 6.472661344456984 50.0
  endloop
endfacet
facet normal -3.759955310063859e-16 -1.0 -0.0
  outer loop
    vertex 153.6788200720171 6.472661344456982 5.0
    vertex 146.17882007201706 6.472661344456984 0.0
    vertex 153.6788200720171 6.472661344456982 0.0
  endloop
endfacet
facet normal -3.759955310063859e-16 -1.0 -0.0
  outer loop
    vertex 146.17882007201706 6.472661344456984 0.0
    vertex 153.6788200720171 6.472661344456982 5.0
    vertex 146.17882007201706 6.472661344456984 5.0
  endloop
endfacet
facet normal -0.6087614290087298 0.7933533402912283 0.0
  outer loop
    vertex 148.86815990023726 1.0381309878535143 50.0
    vertex 149.17882007201706 1.2765089217503511 45.00000000000002
    vertex 148.86815990023726 1.0381309878535143 45.00000000000002
  endloop
endfacet
facet normal -0.6087614290087298 0.7933533402912283 0.0
  outer loop
    vertex 149.17882007201706 1.2765089217503511 45.00000000000002
    vertex 148.86815990023726 1.0381309878535143 50.0
    vertex 149.17882007201706 1.2765089217503511 50.0
  endloop
endfacet
facet normal -0.9914448613738114 0.1305261922200446 0.0
  outer loop
    vertex 148.47993133258348 0.36569938372747457 50.0
    vertex 148.4288200720171 -0.02252918392630678 45.00000000000002
    vertex 148.4288200720171 -0.02252918392630678 50.0
  endloop
endfacet
facet normal -0.9914448613738114 0.1305261922200446 0.0
  outer loop
    vertex 148.4288200720171 -0.02252918392630678 45.00000000000002
    vertex 148.47993133258348 0.36569938372747457 50.0
    vertex 148.47993133258348 0.36569938372747457 45.00000000000002
  endloop
endfacet
facet normal 0.6087614290087292 0.7933533402912288 0.0
  outer loop
    vertex 150.6788200720171 1.2765089217503507 50.0
    vertex 150.9894802437969 1.0381309878535143 45.00000000000002
    vertex 150.6788200720171 1.2765089217503507 45.00000000000002
  endloop
endfacet
facet normal 0.6087614290087292 0.7933533402912288 0.0
  outer loop
    vertex 150.9894802437969 1.0381309878535143 45.00000000000002
    vertex 150.6788200720171 1.2765089217503507 50.0
    vertex 150.9894802437969 1.0381309878535143 50.0
  endloop
endfacet
facet normal -0.7933533402912483 -0.6087614290087039 -0.0
  outer loop
    vertex 148.62978196634043 -0.7725291839263064 50.0
    vertex 148.86815990023726 -1.083189355706128 45.00000000000002
    vertex 148.86815990023726 -1.083189355706128 50.0
  endloop
endfacet
facet normal -0.7933533402912483 -0.6087614290087039 -0.0
  outer loop
    vertex 148.86815990023726 -1.083189355706128 45.00000000000002
    vertex 148.62978196634043 -0.7725291839263064 50.0
    vertex 148.62978196634043 -0.7725291839263064 45.00000000000002
  endloop
endfacet
facet normal 0.7933533402912479 -0.6087614290087042 0.0
  outer loop
    vertex 151.22785817769372 -0.7725291839263075 45.00000000000002
    vertex 150.9894802437969 -1.0831893557061287 50.0
    vertex 150.9894802437969 -1.0831893557061287 45.00000000000002
  endloop
endfacet
facet normal 0.7933533402912479 -0.6087614290087042 0.0
  outer loop
    vertex 150.9894802437969 -1.0831893557061287 50.0
    vertex 151.22785817769372 -0.7725291839263075 45.00000000000002
    vertex 151.22785817769372 -0.7725291839263075 50.0
  endloop
endfacet
facet normal 0.9914448613738114 0.13052619222004483 0.0
  outer loop
    vertex 151.37770881145067 0.3656993837274735 45.00000000000002
    vertex 151.4288200720171 -0.022529183926307147 50.0
    vertex 151.4288200720171 -0.022529183926307147 45.00000000000002
  endloop
endfacet
facet normal 0.9914448613738114 0.13052619222004483 0.0
  outer loop
    vertex 151.4288200720171 -0.022529183926307147 50.0
    vertex 151.37770881145067 0.3656993837274735 45.00000000000002
    vertex 151.37770881145067 0.3656993837274735 50.0
  endloop
endfacet
facet normal -0.38268343236507874 -0.9238795325112914 -0.0
  outer loop
    vertex 149.5405915043633 -1.4714179233599092 50.0
    vertex 149.17882007201706 -1.3215672896029647 45.00000000000002
    vertex 149.5405915043633 -1.4714179233599092 45.00000000000002
  endloop
endfacet
facet normal -0.38268343236507874 -0.9238795325112914 -0.0
  outer loop
    vertex 149.17882007201706 -1.3215672896029647 45.00000000000002
    vertex 149.5405915043633 -1.4714179233599092 50.0
    vertex 149.17882007201706 -1.3215672896029647 50.0
  endloop
endfacet
facet normal 0.13052619222005174 -0.9914448613738104 0.0
  outer loop
    vertex 150.31704863967084 -1.4714179233599094 50.0
    vertex 149.9288200720171 -1.5225291839263069 45.00000000000002
    vertex 150.31704863967084 -1.4714179233599094 45.00000000000002
  endloop
endfacet
facet normal 0.13052619222005174 -0.9914448613738104 0.0
  outer loop
    vertex 149.9288200720171 -1.5225291839263069 45.00000000000002
    vertex 150.31704863967084 -1.4714179233599094 50.0
    vertex 149.9288200720171 -1.5225291839263069 50.0
  endloop
endfacet
facet normal 5.868784623977181e-21 -1.516322926138589e-19 1.0
  outer loop
    vertex 142.68437637484908 -1.9636720221952118 0.0
    vertex 142.68437637484908 1.9186136543426004 0.0
    vertex 142.42882007201706 -0.02252918392630641 0.0
  endloop
endfacet
facet normal 5.868784623977181e-21 -1.516322926138589e-19 1.0
  outer loop
    vertex 142.68437637484908 1.9186136543426004 0.0
    vertex 142.68437637484908 -1.9636720221952118 0.0
    vertex 143.43362954363377 -3.7725291839263058 0.0
  endloop
endfacet
facet normal 5.868784623977181e-21 -1.516322926138589e-19 1.0
  outer loop
    vertex 142.68437637484908 1.9186136543426004 0.0
    vertex 143.43362954363377 -3.7725291839263058 0.0
    vertex 143.43362954363377 3.727470816073694 0.0
  endloop
endfacet
facet normal 5.868784623977181e-21 -1.516322926138589e-19 1.0
  outer loop
    vertex 143.43362954363377 3.727470816073694 0.0
    vertex 143.43362954363377 -3.7725291839263058 0.0
    vertex 144.62551921311797 -5.325830042825413 0.0
  endloop
endfacet
facet normal 5.868784623977181e-21 -1.516322926138589e-19 1.0
  outer loop
    vertex 143.43362954363377 3.727470816073694 0.0
    vertex 144.62551921311797 -5.325830042825413 0.0
    vertex 144.62551921311797 5.2807716749728 0.0
  endloop
endfacet
facet normal 5.868784623977181e-21 -1.516322926138589e-19 1.0
  outer loop
    vertex 144.62551921311797 5.2807716749728 0.0
    vertex 144.62551921311797 -5.325830042825413 0.0
    vertex 146.17882007201706 -6.517719712309597 0.0
  endloop
endfacet
facet normal 5.868784623977181e-21 -1.516322926138589e-19 1.0
  outer loop
    vertex 144.62551921311797 5.2807716749728 0.0
    vertex 146.17882007201706 -6.517719712309597 0.0
    vertex 146.17882007201706 6.472661344456984 0.0
  endloop
endfacet
facet normal 5.868784623977181e-21 -1.516322926138589e-19 1.0
  outer loop
    vertex 146.17882007201706 6.472661344456984 0.0
    vertex 146.17882007201706 -6.517719712309597 0.0
    vertex 147.38579900281698 -6.517719712309597 0.0
  endloop
endfacet
facet normal 5.868784623977181e-21 -1.516322926138589e-19 1.0
  outer loop
    vertex 146.17882007201706 6.472661344456984 0.0
    vertex 147.38579900281698 -6.517719712309597 0.0
    vertex 148.38579900281698 -3.5177197123095976 -1.2993725659199688e-17
  endloop
endfacet
facet normal 5.868784623977181e-21 -1.516322926138589e-19 1.0
  outer loop
    vertex 146.17882007201706 6.472661344456984 0.0
    vertex 148.38579900281698 -3.5177197123095976 -1.2993725659199688e-17
    vertex 153.6788200720171 6.472661344456982 0.0
  endloop
endfacet
facet normal 5.868784623977181e-21 -1.516322926138589e-19 1.0
  outer loop
    vertex 153.6788200720171 6.472661344456982 0.0
    vertex 148.38579900281698 -3.5177197123095976 -1.2993725659199688e-17
    vertex 151.8976579035212 -3.517719712309599 -1.2993725659199688e-17
  endloop
endfacet
facet normal 5.868784623977181e-21 -1.516322926138589e-19 1.0
  outer loop
    vertex 153.6788200720171 6.472661344456982 0.0
    vertex 151.8976579035212 -3.517719712309599 -1.2993725659199688e-17
    vertex 152.8976579035212 -6.517719712309598 0.0
  endloop
endfacet
facet normal 5.868784623977181e-21 -1.516322926138589e-19 1.0
  outer loop
    vertex 153.6788200720171 6.472661344456982 0.0
    vertex 152.8976579035212 -6.517719712309598 0.0
    vertex 153.6788200720171 -6.517719712309598 0.0
  endloop
endfacet
facet normal 5.868784623977181e-21 -1.516322926138589e-19 1.0
  outer loop
    vertex 153.6788200720171 6.472661344456982 0.0
    vertex 153.6788200720171 -6.517719712309598 0.0
    vertex 155.23212093091618 -5.325830042825417 0.0
  endloop
endfacet
facet normal 5.868784623977181e-21 -1.516322926138589e-19 1.0
  outer loop
    vertex 153.6788200720171 6.472661344456982 0.0
    vertex 155.23212093091618 -5.325830042825417 0.0
    vertex 155.23212093091618 5.280771674972799 0.0
  endloop
endfacet
facet normal 5.868784623977181e-21 -1.516322926138589e-19 1.0
  outer loop
    vertex 155.23212093091618 5.280771674972799 0.0
    vertex 155.23212093091618 -5.325830042825417 0.0
    vertex 156.42401060040038 -3.7725291839263106 0.0
  endloop
endfacet
facet normal 5.868784623977181e-21 -1.516322926138589e-19 1.0
  outer loop
    vertex 155.23212093091618 5.280771674972799 0.0
    vertex 156.42401060040038 -3.7725291839263106 0.0
    vertex 156.42401060040038 3.7274708160736876 0.0
  endloop
endfacet
facet normal 5.868784623977181e-21 -1.516322926138589e-19 1.0
  outer loop
    vertex 156.42401060040038 3.7274708160736876 0.0
    vertex 156.42401060040038 -3.7725291839263106 0.0
    vertex 157.1732637691851 -1.9636720221952177 0.0
  endloop
endfacet
facet normal 5.868784623977181e-21 -1.516322926138589e-19 1.0
  outer loop
    vertex 156.42401060040038 3.7274708160736876 0.0
    vertex 157.1732637691851 -1.9636720221952177 0.0
    vertex 157.1732637691851 1.9186136543425956 0.0
  endloop
endfacet
facet normal 5.868784623977181e-21 -1.516322926138589e-19 1.0
  outer loop
    vertex 157.1732637691851 1.9186136543425956 0.0
    vertex 157.1732637691851 -1.9636720221952177 0.0
    vertex 157.4288200720171 -0.02252918392630825 0.0
  endloop
endfacet
facet normal 0.13052619222005307 0.9914448613738104 0.0
  outer loop
    vertex 149.9288200720171 1.4774708160736931 50.0
    vertex 150.31704863967084 1.4263595555072952 45.00000000000002
    vertex 149.9288200720171 1.4774708160736931 45.00000000000002
  endloop
endfacet
facet normal 0.13052619222005307 0.9914448613738104 0.0
  outer loop
    vertex 150.31704863967084 1.4263595555072952 45.00000000000002
    vertex 149.9288200720171 1.4774708160736931 50.0
    vertex 150.31704863967084 1.4263595555072952 50.0
  endloop
endfacet
facet normal -0.7933533402912479 0.6087614290087042 0.0
  outer loop
    vertex 148.86815990023726 1.0381309878535143 50.0
    vertex 148.62978196634043 0.7274708160736932 45.00000000000002
    vertex 148.62978196634043 0.7274708160736932 50.0
  endloop
endfacet
facet normal -0.7933533402912479 0.6087614290087042 0.0
  outer loop
    vertex 148.62978196634043 0.7274708160736932 45.00000000000002
    vertex 148.86815990023726 1.0381309878535143 50.0
    vertex 148.86815990023726 1.0381309878535143 45.00000000000002
  endloop
endfacet
facet normal -0.13052619222005263 -0.9914448613738104 -0.0
  outer loop
    vertex 149.9288200720171 -1.5225291839263069 50.0
    vertex 149.5405915043633 -1.4714179233599092 45.00000000000002
    vertex 149.9288200720171 -1.5225291839263069 45.00000000000002
  endloop
endfacet
facet normal -0.13052619222005263 -0.9914448613738104 -0.0
  outer loop
    vertex 149.5405915043633 -1.4714179233599092 45.00000000000002
    vertex 149.9288200720171 -1.5225291839263069 50.0
    vertex 149.5405915043633 -1.4714179233599092 50.0
  endloop
endfacet
facet normal 0.9238795325112797 0.3826834323651069 0.0
  outer loop
    vertex 151.22785817769372 0.727470816073692 45.00000000000002
    vertex 151.37770881145067 0.3656993837274735 50.0
    vertex 151.37770881145067 0.3656993837274735 45.00000000000002
  endloop
endfacet
facet normal 0.9238795325112797 0.3826834323651069 0.0
  outer loop
    vertex 151.37770881145067 0.3656993837274735 50.0
    vertex 151.22785817769372 0.727470816073692 45.00000000000002
    vertex 151.22785817769372 0.727470816073692 50.0
  endloop
endfacet
facet normal -0.38268343236507835 0.9238795325112916 0.0
  outer loop
    vertex 149.17882007201706 1.2765089217503511 50.0
    vertex 149.5405915043633 1.4263595555072957 45.00000000000002
    vertex 149.17882007201706 1.2765089217503511 45.00000000000002
  endloop
endfacet
facet normal -0.38268343236507835 0.9238795325112916 0.0
  outer loop
    vertex 149.5405915043633 1.4263595555072957 45.00000000000002
    vertex 149.17882007201706 1.2765089217503511 50.0
    vertex 149.5405915043633 1.4263595555072957 50.0
  endloop
endfacet
facet normal 0.7933533402912313 0.6087614290087255 0.0
  outer loop
    vertex 143.43362954363377 -3.7725291839263058 0.0
    vertex 144.62551921311797 -5.325830042825413 50.0
    vertex 144.62551921311797 -5.325830042825413 0.0
  endloop
endfacet
facet normal 0.7933533402912313 0.6087614290087255 0.0
  outer loop
    vertex 144.62551921311797 -5.325830042825413 50.0
    vertex 143.43362954363377 -3.7725291839263058 0.0
    vertex 143.43362954363377 -3.7725291839263058 50.0
  endloop
endfacet
facet normal 0.9914448613738099 0.13052619222005604 0.0
  outer loop
    vertex 142.42882007201706 -0.02252918392630641 0.0
    vertex 142.68437637484908 -1.9636720221952118 50.0
    vertex 142.68437637484908 -1.9636720221952118 0.0
  endloop
endfacet
facet normal 0.9914448613738099 0.13052619222005604 0.0
  outer loop
    vertex 142.68437637484908 -1.9636720221952118 50.0
    vertex 142.42882007201706 -0.02252918392630641 0.0
    vertex 142.42882007201706 -0.02252918392630641 50.0
  endloop
endfacet
facet normal -0.6087614290087233 0.7933533402912331 -5.381215685827919e-19
  outer loop
    vertex 153.6788200720171 -6.517719712309598 5.0
    vertex 155.23212093091618 -5.325830042825417 0.0
    vertex 153.6788200720171 -6.517719712309598 0.0
  endloop
endfacet
facet normal -0.6087614290087233 0.7933533402912331 -5.381215685827919e-19
  outer loop
    vertex 155.23212093091618 -5.325830042825417 0.0
    vertex 153.6788200720171 -6.517719712309598 5.0
    vertex 155.23212093091618 -5.325830042825417 50.0
  endloop
endfacet
facet normal -0.6087614290087233 0.7933533402912331 -5.381215685827919e-19
  outer loop
    vertex 155.23212093091618 -5.325830042825417 50.0
    vertex 153.6788200720171 -6.517719712309598 5.0
    vertex 153.6788200720171 -6.517719712309598 45.0
  endloop
endfacet
facet normal -0.6087614290087233 0.7933533402912331 -5.381215685827919e-19
  outer loop
    vertex 155.23212093091618 -5.325830042825417 50.0
    vertex 153.6788200720171 -6.517719712309598 45.0
    vertex 153.6788200720171 -6.517719712309598 50.0
  endloop
endfacet
facet normal -0.9238795325112878 -0.3826834323650873 -0.0
  outer loop
    vertex 156.42401060040038 3.7274708160736876 50.0
    vertex 157.1732637691851 1.9186136543425956 0.0
    vertex 157.1732637691851 1.9186136543425956 50.0
  endloop
endfacet
facet normal -0.9238795325112878 -0.3826834323650873 -0.0
  outer loop
    vertex 157.1732637691851 1.9186136543425956 0.0
    vertex 156.42401060040038 3.7274708160736876 50.0
    vertex 156.42401060040038 3.7274708160736876 0.0
  endloop
endfacet
facet normal 0.923879532511288 0.38268343236508695 0.0
  outer loop
    vertex 142.68437637484908 -1.9636720221952118 0.0
    vertex 143.43362954363377 -3.7725291839263058 50.0
    vertex 143.43362954363377 -3.7725291839263058 0.0
  endloop
endfacet
facet normal 0.923879532511288 0.38268343236508695 0.0
  outer loop
    vertex 143.43362954363377 -3.7725291839263058 50.0
    vertex 142.68437637484908 -1.9636720221952118 0.0
    vertex 142.68437637484908 -1.9636720221952118 50.0
  endloop
endfacet
facet normal -3.759955310063859e-16 -1.0 0.0
  outer loop
    vertex 153.6788200720171 6.472661344456982 50.0
    vertex 146.17882007201706 6.472661344456984 45.0
    vertex 153.6788200720171 6.472661344456982 45.0
  endloop
endfacet
facet normal -3.759955310063859e-16 -1.0 0.0
  outer loop
    vertex 146.17882007201706 6.472661344456984 45.0
    vertex 153.6788200720171 6.472661344456982 50.0
    vertex 146.17882007201706 6.472661344456984 50.0
  endloop
endfacet
facet normal 0.9914448613738098 -0.1305261922200559 -0.0
  outer loop
    vertex 142.68437637484908 1.9186136543426004 0.0
    vertex 142.42882007201706 -0.02252918392630641 50.0
    vertex 142.42882007201706 -0.02252918392630641 0.0
  endloop
endfacet
facet normal 0.9914448613738098 -0.1305261922200559 -0.0
  outer loop
    vertex 142.42882007201706 -0.02252918392630641 50.0
    vertex 142.68437637484908 1.9186136543426004 0.0
    vertex 142.68437637484908 1.9186136543426004 50.0
  endloop
endfacet
facet normal 0.608761429008729 -0.793353340291229 0.0
  outer loop
    vertex 150.9894802437969 -1.0831893557061287 50.0
    vertex 150.6788200720171 -1.3215672896029649 45.00000000000002
    vertex 150.9894802437969 -1.0831893557061287 45.00000000000002
  endloop
endfacet
facet normal 0.608761429008729 -0.793353340291229 0.0
  outer loop
    vertex 150.6788200720171 -1.3215672896029649 45.00000000000002
    vertex 150.9894802437969 -1.0831893557061287 50.0
    vertex 150.6788200720171 -1.3215672896029649 50.0
  endloop
endfacet
facet normal 0.7933533402912488 0.608761429008703 0.0
  outer loop
    vertex 150.9894802437969 1.0381309878535143 45.00000000000002
    vertex 151.22785817769372 0.727470816073692 50.0
    vertex 151.22785817769372 0.727470816073692 45.00000000000002
  endloop
endfacet
facet normal 0.7933533402912488 0.608761429008703 0.0
  outer loop
    vertex 151.22785817769372 0.727470816073692 50.0
    vertex 150.9894802437969 1.0381309878535143 45.00000000000002
    vertex 150.9894802437969 1.0381309878535143 50.0
  endloop
endfacet
facet normal 0.9238795325112796 -0.3826834323651069 0.0
  outer loop
    vertex 151.37770881145067 -0.4107577515800891 45.00000000000002
    vertex 151.22785817769372 -0.7725291839263075 50.0
    vertex 151.22785817769372 -0.7725291839263075 45.00000000000002
  endloop
endfacet
facet normal 0.9238795325112796 -0.3826834323651069 0.0
  outer loop
    vertex 151.22785817769372 -0.7725291839263075 50.0
    vertex 151.37770881145067 -0.4107577515800891 45.00000000000002
    vertex 151.37770881145067 -0.4107577515800891 50.0
  endloop
endfacet
facet normal -0.9238795325112797 0.38268343236510666 0.0
  outer loop
    vertex 148.62978196634043 0.7274708160736932 50.0
    vertex 148.47993133258348 0.36569938372747457 45.00000000000002
    vertex 148.47993133258348 0.36569938372747457 50.0
  endloop
endfacet
facet normal -0.9238795325112797 0.38268343236510666 0.0
  outer loop
    vertex 148.47993133258348 0.36569938372747457 45.00000000000002
    vertex 148.62978196634043 0.7274708160736932 50.0
    vertex 148.62978196634043 0.7274708160736932 45.00000000000002
  endloop
endfacet
facet normal -0.9485299454214954 0.3161766484738313 0.017979699623476533
  outer loop
    vertex 148.48057566068772 -3.5177197123095976 5.0
    vertex 147.38579900281698 -6.517719712309597 0.0
    vertex 147.48057566068772 -6.517719712309597 5.0
  endloop
endfacet
facet normal -0.9485299454214954 0.3161766484738313 0.017979699623476533
  outer loop
    vertex 147.38579900281698 -6.517719712309597 0.0
    vertex 148.48057566068772 -3.5177197123095976 5.0
    vertex 148.38579900281698 -3.5177197123095976 -1.2993725659199688e-17
  endloop
endfacet
facet normal -0.0 1.0 -0.0
  outer loop
    vertex 152.90950133879906 -6.517719712309598 5.0
    vertex 153.6788200720171 -6.517719712309598 0.0
    vertex 152.8976579035212 -6.517719712309598 0.0
  endloop
endfacet
facet normal -0.0 1.0 -0.0
  outer loop
    vertex 153.6788200720171 -6.517719712309598 0.0
    vertex 152.90950133879906 -6.517719712309598 5.0
    vertex 153.6788200720171 -6.517719712309598 5.0
  endloop
endfacet
facet normal 4.0623129829408505e-16 1.0 -4.331241886399896e-18
  outer loop
    vertex 148.48057566068772 -3.5177197123095976 5.0
    vertex 151.8976579035212 -3.517719712309599 -1.2993725659199688e-17
    vertex 148.38579900281698 -3.5177197123095976 -1.2993725659199688e-17
  endloop
endfacet
facet normal 4.0623129829408505e-16 1.0 -4.331241886399896e-18
  outer loop
    vertex 151.8976579035212 -3.517719712309599 -1.2993725659199688e-17
    vertex 148.48057566068772 -3.5177197123095976 5.0
    vertex 151.90950133879906 -3.517719712309599 5.0
  endloop
endfacet
facet normal -0.9914448613738099 0.13052619222005574 -0.0
  outer loop
    vertex 157.4288200720171 -0.02252918392630825 50.0
    vertex 157.1732637691851 -1.9636720221952177 0.0
    vertex 157.1732637691851 -1.9636720221952177 50.0
  endloop
endfacet
facet normal -0.9914448613738099 0.13052619222005574 -0.0
  outer loop
    vertex 157.1732637691851 -1.9636720221952177 0.0
    vertex 157.4288200720171 -0.02252918392630825 50.0
    vertex 157.4288200720171 -0.02252918392630825 0.0
  endloop
endfacet
facet normal 0.0 0.0 -1.0
  outer loop
    vertex 142.68437637484908 1.9186136543426004 50.0
    vertex 142.68437637484908 -1.9636720221952118 50.0
    vertex 142.42882007201706 -0.02252918392630641 50.0
  endloop
endfacet
facet normal 0.0 0.0 -1.0
  outer loop
    vertex 142.68437637484908 -1.9636720221952118 50.0
    vertex 142.68437637484908 1.9186136543426004 50.0
    vertex 143.43362954363377 3.727470816073694 50.0
  endloop
endfacet
facet normal 0.0 0.0 -1.0
  outer loop
    vertex 142.68437637484908 -1.9636720221952118 50.0
    vertex 143.43362954363377 3.727470816073694 50.0
    vertex 143.43362954363377 -3.7725291839263058 50.0
  endloop
endfacet
facet normal 0.0 0.0 -1.0
  outer loop
    vertex 143.43362954363377 -3.7725291839263058 50.0
    vertex 143.43362954363377 3.727470816073694 50.0
    vertex 144.62551921311797 5.2807716749728 50.0
  endloop
endfacet
facet normal 0.0 0.0 -1.0
  outer loop
    vertex 143.43362954363377 -3.7725291839263058 50.0
    vertex 144.62551921311797 5.2807716749728 50.0
    vertex 144.62551921311797 -5.325830042825413 50.0
  endloop
endfacet
facet normal 0.0 0.0 -1.0
  outer loop
    vertex 144.62551921311797 -5.325830042825413 50.0
    vertex 144.62551921311797 5.2807716749728 50.0
    vertex 146.17882007201706 6.472661344456984 50.0
  endloop
endfacet
facet normal 0.0 0.0 -1.0
  outer loop
    vertex 144.62551921311797 -5.325830042825413 50.0
    vertex 146.17882007201706 6.472661344456984 50.0
    vertex 146.17882007201706 -6.517719712309597 50.0
  endloop
endfacet
facet normal 0.0 0.0 -1.0
  outer loop
    vertex 146.17882007201706 -6.517719712309597 50.0
    vertex 146.17882007201706 6.472661344456984 50.0
    vertex 148.47993133258348 0.36569938372747457 50.0
  endloop
endfacet
facet normal 0.0 0.0 -1.0
  outer loop
    vertex 148.47993133258348 0.36569938372747457 50.0
    vertex 146.17882007201706 6.472661344456984 50.0
    vertex 148.62978196634043 0.7274708160736932 50.0
  endloop
endfacet
facet normal 0.0 0.0 -1.0
  outer loop
    vertex 148.62978196634043 0.7274708160736932 50.0
    vertex 146.17882007201706 6.472661344456984 50.0
    vertex 148.86815990023726 1.0381309878535143 50.0
  endloop
endfacet
facet normal 0.0 0.0 -1.0
  outer loop
    vertex 148.86815990023726 1.0381309878535143 50.0
    vertex 146.17882007201706 6.472661344456984 50.0
    vertex 153.6788200720171 6.472661344456982 50.0
  endloop
endfacet
facet normal 0.0 0.0 -1.0
  outer loop
    vertex 146.17882007201706 -6.517719712309597 50.0
    vertex 148.47993133258348 0.36569938372747457 50.0
    vertex 148.4288200720171 -0.02252918392630678 50.0
  endloop
endfacet
facet normal 0.0 0.0 -1.0
  outer loop
    vertex 148.86815990023726 1.0381309878535143 50.0
    vertex 153.6788200720171 6.472661344456982 50.0
    vertex 149.17882007201706 1.2765089217503511 50.0
  endloop
endfacet
facet normal 0.0 0.0 -1.0
  outer loop
    vertex 149.17882007201706 1.2765089217503511 50.0
    vertex 153.6788200720171 6.472661344456982 50.0
    vertex 149.5405915043633 1.4263595555072957 50.0
  endloop
endfacet
facet normal 0.0 0.0 -1.0
  outer loop
    vertex 149.5405915043633 1.4263595555072957 50.0
    vertex 153.6788200720171 6.472661344456982 50.0
    vertex 149.9288200720171 1.4774708160736931 50.0
  endloop
endfacet
facet normal 0.0 0.0 -1.0
  outer loop
    vertex 149.9288200720171 1.4774708160736931 50.0
    vertex 153.6788200720171 6.472661344456982 50.0
    vertex 150.31704863967084 1.4263595555072952 50.0
  endloop
endfacet
facet normal 0.0 0.0 -1.0
  outer loop
    vertex 150.31704863967084 1.4263595555072952 50.0
    vertex 153.6788200720171 6.472661344456982 50.0
    vertex 150.6788200720171 1.2765089217503507 50.0
  endloop
endfacet
facet normal 0.0 0.0 -1.0
  outer loop
    vertex 150.6788200720171 1.2765089217503507 50.0
    vertex 153.6788200720171 6.472661344456982 50.0
    vertex 150.9894802437969 1.0381309878535143 50.0
  endloop
endfacet
facet normal 0.0 0.0 -1.0
  outer loop
    vertex 150.9894802437969 1.0381309878535143 50.0
    vertex 153.6788200720171 6.472661344456982 50.0
    vertex 151.22785817769372 0.727470816073692 50.0
  endloop
endfacet
facet normal 0.0 0.0 -1.0
  outer loop
    vertex 151.22785817769372 0.727470816073692 50.0
    vertex 153.6788200720171 6.472661344456982 50.0
    vertex 151.37770881145067 0.3656993837274735 50.0
  endloop
endfacet
facet normal 0.0 0.0 -1.0
  outer loop
    vertex 151.37770881145067 0.3656993837274735 50.0
    vertex 153.6788200720171 6.472661344456982 50.0
    vertex 151.4288200720171 -0.022529183926307147 50.0
  endloop
endfacet
facet normal 0.0 0.0 -1.0
  outer loop
    vertex 146.17882007201706 -6.517719712309597 50.0
    vertex 148.86815990023726 -1.083189355706128 50.0
    vertex 153.6788200720171 -6.517719712309598 50.0
  endloop
endfacet
facet normal 0.0 0.0 -1.0
  outer loop
    vertex 148.86815990023726 -1.083189355706128 50.0
    vertex 146.17882007201706 -6.517719712309597 50.0
    vertex 148.62978196634043 -0.7725291839263064 50.0
  endloop
endfacet
facet normal 0.0 0.0 -1.0
  outer loop
    vertex 148.62978196634043 -0.7725291839263064 50.0
    vertex 146.17882007201706 -6.517719712309597 50.0
    vertex 148.47993133258348 -0.41075775158008787 50.0
  endloop
endfacet
facet normal 0.0 0.0 -1.0
  outer loop
    vertex 148.47993133258348 -0.41075775158008787 50.0
    vertex 146.17882007201706 -6.517719712309597 50.0
    vertex 148.4288200720171 -0.02252918392630678 50.0
  endloop
endfacet
facet normal 0.0 0.0 -1.0
  outer loop
    vertex 153.6788200720171 -6.517719712309598 50.0
    vertex 148.86815990023726 -1.083189355706128 50.0
    vertex 149.17882007201706 -1.3215672896029647 50.0
  endloop
endfacet
facet normal 0.0 0.0 -1.0
  outer loop
    vertex 153.6788200720171 -6.517719712309598 50.0
    vertex 149.17882007201706 -1.3215672896029647 50.0
    vertex 149.5405915043633 -1.4714179233599092 50.0
  endloop
endfacet
facet normal 0.0 0.0 -1.0
  outer loop
    vertex 153.6788200720171 -6.517719712309598 50.0
    vertex 149.5405915043633 -1.4714179233599092 50.0
    vertex 149.9288200720171 -1.5225291839263069 50.0
  endloop
endfacet
facet normal 0.0 0.0 -1.0
  outer loop
    vertex 153.6788200720171 -6.517719712309598 50.0
    vertex 149.9288200720171 -1.5225291839263069 50.0
    vertex 150.31704863967084 -1.4714179233599094 50.0
  endloop
endfacet
facet normal 0.0 0.0 -1.0
  outer loop
    vertex 153.6788200720171 -6.517719712309598 50.0
    vertex 150.31704863967084 -1.4714179233599094 50.0
    vertex 150.6788200720171 -1.3215672896029649 50.0
  endloop
endfacet
facet normal 0.0 0.0 -1.0
  outer loop
    vertex 153.6788200720171 -6.517719712309598 50.0
    vertex 150.6788200720171 -1.3215672896029649 50.0
    vertex 150.9894802437969 -1.0831893557061287 50.0
  endloop
endfacet
facet normal 0.0 0.0 -1.0
  outer loop
    vertex 153.6788200720171 -6.517719712309598 50.0
    vertex 150.9894802437969 -1.0831893557061287 50.0
    vertex 151.22785817769372 -0.7725291839263075 50.0
  endloop
endfacet
facet normal 0.0 0.0 -1.0
  outer loop
    vertex 153.6788200720171 -6.517719712309598 50.0
    vertex 151.22785817769372 -0.7725291839263075 50.0
    vertex 151.37770881145067 -0.4107577515800891 50.0
  endloop
endfacet
facet normal 0.0 0.0 -1.0
  outer loop
    vertex 153.6788200720171 -6.517719712309598 50.0
    vertex 151.37770881145067 -0.4107577515800891 50.0
    vertex 151.4288200720171 -0.022529183926307147 50.0
  endloop
endfacet
facet normal 0.0 0.0 -1.0
  outer loop
    vertex 153.6788200720171 -6.517719712309598 50.0
    vertex 151.4288200720171 -0.022529183926307147 50.0
    vertex 153.6788200720171 6.472661344456982 50.0
  endloop
endfacet
facet normal 0.0 0.0 -1.0
  outer loop
    vertex 153.6788200720171 -6.517719712309598 50.0
    vertex 153.6788200720171 6.472661344456982 50.0
    vertex 155.23212093091618 5.280771674972799 50.0
  endloop
endfacet
facet normal 0.0 0.0 -1.0
  outer loop
    vertex 153.6788200720171 -6.517719712309598 50.0
    vertex 155.23212093091618 5.280771674972799 50.0
    vertex 155.23212093091618 -5.325830042825417 50.0
  endloop
endfacet
facet normal 0.0 0.0 -1.0
  outer loop
    vertex 155.23212093091618 -5.325830042825417 50.0
    vertex 155.23212093091618 5.280771674972799 50.0
    vertex 156.42401060040038 3.7274708160736876 50.0
  endloop
endfacet
facet normal 0.0 0.0 -1.0
  outer loop
    vertex 155.23212093091618 -5.325830042825417 50.0
    vertex 156.42401060040038 3.7274708160736876 50.0
    vertex 156.42401060040038 -3.7725291839263106 50.0
  endloop
endfacet
facet normal 0.0 0.0 -1.0
  outer loop
    vertex 156.42401060040038 -3.7725291839263106 50.0
    vertex 156.42401060040038 3.7274708160736876 50.0
    vertex 157.1732637691851 1.9186136543425956 50.0
  endloop
endfacet
facet normal 0.0 0.0 -1.0
  outer loop
    vertex 156.42401060040038 -3.7725291839263106 50.0
    vertex 157.1732637691851 1.9186136543425956 50.0
    vertex 157.1732637691851 -1.9636720221952177 50.0
  endloop
endfacet
facet normal 0.0 0.0 -1.0
  outer loop
    vertex 157.1732637691851 -1.9636720221952177 50.0
    vertex 157.1732637691851 1.9186136543425956 50.0
    vertex 157.4288200720171 -0.02252918392630825 50.0
  endloop
endfacet
facet normal -0.7933533402912323 -0.6087614290087245 -0.0
  outer loop
    vertex 155.23212093091618 5.280771674972799 50.0
    vertex 156.42401060040038 3.7274708160736876 0.0
    vertex 156.42401060040038 3.7274708160736876 50.0
  endloop
endfacet
facet normal -0.7933533402912323 -0.6087614290087245 -0.0
  outer loop
    vertex 156.42401060040038 3.7274708160736876 0.0
    vertex 155.23212093091618 5.280771674972799 50.0
    vertex 155.23212093091618 5.280771674972799 0.0
  endloop
endfacet
facet normal 0.0 0.0 -1.0
  outer loop
    vertex 146.17882007201706 6.472661344456984 45.0
    vertex 148.47993133258348 0.36569938372747457 45.00000000000002
    vertex 146.17882007201706 -6.517719712309597 45.0
  endloop
endfacet
facet normal 0.0 0.0 -1.0
  outer loop
    vertex 148.47993133258348 0.36569938372747457 45.00000000000002
    vertex 146.17882007201706 6.472661344456984 45.0
    vertex 148.62978196634043 0.7274708160736932 45.00000000000002
  endloop
endfacet
facet normal 0.0 0.0 -1.0
  outer loop
    vertex 148.62978196634043 0.7274708160736932 45.00000000000002
    vertex 146.17882007201706 6.472661344456984 45.0
    vertex 148.86815990023726 1.0381309878535143 45.00000000000002
  endloop
endfacet
facet normal 0.0 0.0 -1.0
  outer loop
    vertex 148.86815990023726 1.0381309878535143 45.00000000000002
    vertex 146.17882007201706 6.472661344456984 45.0
    vertex 153.6788200720171 6.472661344456982 45.0
  endloop
endfacet
facet normal 0.0 0.0 -1.0
  outer loop
    vertex 146.17882007201706 -6.517719712309597 45.0
    vertex 148.47993133258348 0.36569938372747457 45.00000000000002
    vertex 148.4288200720171 -0.02252918392630678 45.00000000000002
  endloop
endfacet
facet normal 0.0 0.0 -1.0
  outer loop
    vertex 148.86815990023726 1.0381309878535143 45.00000000000002
    vertex 153.6788200720171 6.472661344456982 45.0
    vertex 149.17882007201706 1.2765089217503511 45.00000000000002
  endloop
endfacet
facet normal 0.0 0.0 -1.0
  outer loop
    vertex 149.17882007201706 1.2765089217503511 45.00000000000002
    vertex 153.6788200720171 6.472661344456982 45.0
    vertex 149.5405915043633 1.4263595555072957 45.00000000000002
  endloop
endfacet
facet normal 0.0 0.0 -1.0
  outer loop
    vertex 149.5405915043633 1.4263595555072957 45.00000000000002
    vertex 153.6788200720171 6.472661344456982 45.0
    vertex 149.9288200720171 1.4774708160736931 45.00000000000002
  endloop
endfacet
facet normal 0.0 0.0 -1.0
  outer loop
    vertex 149.9288200720171 1.4774708160736931 45.00000000000002
    vertex 153.6788200720171 6.472661344456982 45.0
    vertex 150.31704863967084 1.4263595555072952 45.00000000000002
  endloop
endfacet
facet normal 0.0 0.0 -1.0
  outer loop
    vertex 150.31704863967084 1.4263595555072952 45.00000000000002
    vertex 153.6788200720171 6.472661344456982 45.0
    vertex 150.6788200720171 1.2765089217503507 45.00000000000002
  endloop
endfacet
facet normal 0.0 0.0 -1.0
  outer loop
    vertex 150.6788200720171 1.2765089217503507 45.00000000000002
    vertex 153.6788200720171 6.472661344456982 45.0
    vertex 150.9894802437969 1.0381309878535143 45.00000000000002
  endloop
endfacet
facet normal 0.0 0.0 -1.0
  outer loop
    vertex 150.9894802437969 1.0381309878535143 45.00000000000002
    vertex 153.6788200720171 6.472661344456982 45.0
    vertex 151.22785817769372 0.727470816073692 45.00000000000002
  endloop
endfacet
facet normal 0.0 0.0 -1.0
  outer loop
    vertex 151.22785817769372 0.727470816073692 45.00000000000002
    vertex 153.6788200720171 6.472661344456982 45.0
    vertex 151.37770881145067 0.3656993837274735 45.00000000000002
  endloop
endfacet
facet normal 0.0 0.0 -1.0
  outer loop
    vertex 151.37770881145067 0.3656993837274735 45.00000000000002
    vertex 153.6788200720171 6.472661344456982 45.0
    vertex 151.4288200720171 -0.022529183926307147 45.00000000000002
  endloop
endfacet
facet normal 0.0 0.0 -1.0
  outer loop
    vertex 146.17882007201706 -6.517719712309597 45.0
    vertex 148.86815990023726 -1.083189355706128 45.00000000000002
    vertex 153.6788200720171 -6.517719712309598 45.0
  endloop
endfacet
facet normal 0.0 0.0 -1.0
  outer loop
    vertex 148.86815990023726 -1.083189355706128 45.00000000000002
    vertex 146.17882007201706 -6.517719712309597 45.0
    vertex 148.62978196634043 -0.7725291839263064 45.00000000000002
  endloop
endfacet
facet normal 0.0 0.0 -1.0
  outer loop
    vertex 148.62978196634043 -0.7725291839263064 45.00000000000002
    vertex 146.17882007201706 -6.517719712309597 45.0
    vertex 148.47993133258348 -0.41075775158008787 45.00000000000002
  endloop
endfacet
facet normal 0.0 0.0 -1.0
  outer loop
    vertex 148.47993133258348 -0.41075775158008787 45.00000000000002
    vertex 146.17882007201706 -6.517719712309597 45.0
    vertex 148.4288200720171 -0.02252918392630678 45.00000000000002
  endloop
endfacet
facet normal 0.0 0.0 -1.0
  outer loop
    vertex 153.6788200720171 -6.517719712309598 45.0
    vertex 148.86815990023726 -1.083189355706128 45.00000000000002
    vertex 149.17882007201706 -1.3215672896029647 45.00000000000002
  endloop
endfacet
facet normal 0.0 0.0 -1.0
  outer loop
    vertex 153.6788200720171 -6.517719712309598 45.0
    vertex 149.17882007201706 -1.3215672896029647 45.00000000000002
    vertex 149.5405915043633 -1.4714179233599092 45.00000000000002
  endloop
endfacet
facet normal 0.0 0.0 -1.0
  outer loop
    vertex 153.6788200720171 -6.517719712309598 45.0
    vertex 149.5405915043633 -1.4714179233599092 45.00000000000002
    vertex 149.9288200720171 -1.5225291839263069 45.00000000000002
  endloop
endfacet
facet normal 0.0 0.0 -1.0
  outer loop
    vertex 153.6788200720171 -6.517719712309598 45.0
    vertex 149.9288200720171 -1.5225291839263069 45.00000000000002
    vertex 150.31704863967084 -1.4714179233599094 45.00000000000002
  endloop
endfacet
facet normal 0.0 0.0 -1.0
  outer loop
    vertex 153.6788200720171 -6.517719712309598 45.0
    vertex 150.31704863967084 -1.4714179233599094 45.00000000000002
    vertex 150.6788200720171 -1.3215672896029649 45.00000000000002
  endloop
endfacet
facet normal 0.0 0.0 -1.0
  outer loop
    vertex 153.6788200720171 -6.517719712309598 45.0
    vertex 150.6788200720171 -1.3215672896029649 45.00000000000002
    vertex 150.9894802437969 -1.0831893557061287 45.00000000000002
  endloop
endfacet
facet normal 0.0 0.0 -1.0
  outer loop
    vertex 153.6788200720171 -6.517719712309598 45.0
    vertex 150.9894802437969 -1.0831893557061287 45.00000000000002
    vertex 151.22785817769372 -0.7725291839263075 45.00000000000002
  endloop
endfacet
facet normal 0.0 0.0 -1.0
  outer loop
    vertex 153.6788200720171 -6.517719712309598 45.0
    vertex 151.22785817769372 -0.7725291839263075 45.00000000000002
    vertex 151.37770881145067 -0.4107577515800891 45.00000000000002
  endloop
endfacet
facet normal 0.0 0.0 -1.0
  outer loop
    vertex 153.6788200720171 -6.517719712309598 45.0
    vertex 151.37770881145067 -0.4107577515800891 45.00000000000002
    vertex 151.4288200720171 -0.022529183926307147 45.00000000000002
  endloop
endfacet
facet normal 0.0 0.0 -1.0
  outer loop
    vertex 153.6788200720171 -6.517719712309598 45.0
    vertex 151.4288200720171 -0.022529183926307147 45.00000000000002
    vertex 153.6788200720171 6.472661344456982 45.0
  endloop
endfacet
facet normal -0.0 1.0 -0.0
  outer loop
    vertex 146.17882007201706 -6.517719712309597 5.0
    vertex 147.38579900281698 -6.517719712309597 0.0
    vertex 146.17882007201706 -6.517719712309597 0.0
  endloop
endfacet
facet normal -0.0 1.0 -0.0
  outer loop
    vertex 147.38579900281698 -6.517719712309597 0.0
    vertex 146.17882007201706 -6.517719712309597 5.0
    vertex 147.48057566068772 -6.517719712309597 5.0
  endloop
endfacet
endsolid solarmount_53
