solid solarmount_53
facet normal -0.0 1.0 -8.459899447643689e-16
  outer loop
    vertex 135.5169214101951 9.032577610423106 50.0
    vertex 155.31591128341844 9.032577610423102 45.0
    vertex 135.5169214101951 9.032577610423102 45.0
  endloop
endfacet
facet normal -0.0 1.0 -8.459899447643689e-16
  outer loop
    vertex 155.31591128341844 9.032577610423102 45.0
    vertex 135.5169214101951 9.032577610423106 50.0
    vertex 155.31591128341844 9.032577610423106 50.0
  endloop
endfacet
facet normal -0.8772846199841678 -0.4799705152811307 -1.2593550767746626e-17
  outer loop
    vertex 147.64522116093246 -6.7664122628002366 5.0
    vertex 149.83365809165076 -10.766412262800236 0.0
    vertex 149.83365809165076 -10.766412262800236 5.000000000000001
  endloop
endfacet
facet normal -0.8772846199841678 -0.4799705152811307 -1.2593550767746626e-17
  outer loop
    vertex 149.83365809165076 -10.766412262800236 0.0
    vertex 147.64522116093246 -6.7664122628002366 5.0
    vertex 147.64522116093246 -6.7664122628002366 0.0
  endloop
endfacet
facet normal 0.7933533402912375 0.6087614290087177 1.6516608095485853e-17
  outer loop
    vertex 155.31591128341844 9.032577610423106 0.0
    vertex 157.54077199978892 6.133082673811425 50.0
    vertex 157.54077199978892 6.133082673811425 0.0
  endloop
endfacet
facet normal 0.7933533402912375 0.6087614290087177 1.6516608095485853e-17
  outer loop
    vertex 157.54077199978892 6.133082673811425 50.0
    vertex 155.31591128341844 9.032577610423106 0.0
    vertex 155.31591128341844 9.032577610423102 45.0
  endloop
endfacet
facet normal 0.7933533402912375 0.6087614290087177 1.6516608095485853e-17
  outer loop
    vertex 155.31591128341844 9.032577610423102 45.0
    vertex 155.31591128341844 9.032577610423106 0.0
    vertex 155.31591128341844 9.032577610423106 4.999999999999999
  endloop
endfacet
facet normal 0.7933533402912375 0.6087614290087177 1.6516608095485853e-17
  outer loop
    vertex 155.31591128341844 9.032577610423106 50.0
    vertex 157.54077199978892 6.133082673811425 50.0
    vertex 155.31591128341844 9.032577610423102 45.0
  endloop
endfacet
facet normal -0.0 1.0 -0.0
  outer loop
    vertex 135.5169214101951 9.032577610423106 4.999999999999999
    vertex 155.31591128341844 9.032577610423106 0.0
    vertex 135.5169214101951 9.032577610423106 0.0
  endloop
endfacet
facet normal -0.0 1.0 -0.0
  outer loop
    vertex 155.31591128341844 9.032577610423106 0.0
    vertex 135.5169214101951 9.032577610423106 4.999999999999999
    vertex 155.31591128341844 9.032577610423106 4.999999999999999
  endloop
endfacet
facet normal -0.7933533402912375 0.6087614290087177 1.5565571324515902e-17
  outer loop
    vertex 135.5169214101951 9.032577610423106 50.0
    vertex 133.29206069382462 6.133082673811425 0.0
    vertex 133.29206069382462 6.133082673811425 50.0
  endloop
endfacet
facet normal -0.7933533402912375 0.6087614290087177 1.5565571324515902e-17
  outer loop
    vertex 133.29206069382462 6.133082673811425 0.0
    vertex 135.5169214101951 9.032577610423106 50.0
    vertex 135.5169214101951 9.032577610423102 45.0
  endloop
endfacet
facet normal -0.7933533402912375 0.6087614290087177 1.5565571324515902e-17
  outer loop
    vertex 135.5169214101951 9.032577610423102 45.0
    vertex 135.5169214101951 9.032577610423106 0.0
    vertex 133.29206069382462 6.133082673811425 0.0
  endloop
endfacet
facet normal -0.7933533402912375 0.6087614290087177 1.5565571324515902e-17
  outer loop
    vertex 135.5169214101951 9.032577610423106 0.0
    vertex 135.5169214101951 9.032577610423102 45.0
    vertex 135.5169214101951 9.032577610423106 4.999999999999999
  endloop
endfacet
facet normal -0.9914448613738108 0.13052619222004852 0.0
  outer loop
    vertex 131.8934547787598 2.7565493052467285 50.0
    vertex 131.41641634680678 -0.8669173261885675 0.0
    vertex 131.41641634680678 -0.8669173261885675 50.0
  endloop
endfacet
facet normal -0.9914448613738108 0.13052619222004852 0.0
  outer loop
    vertex 131.41641634680678 -0.8669173261885675 0.0
    vertex 131.8934547787598 2.7565493052467285 50.0
    vertex 131.8934547787598 2.7565493052467285 0.0
  endloop
endfacet
facet normal -0.9238795325112852 0.3826834323650937 0.0
  outer loop
    vertex 133.29206069382462 6.133082673811425 50.0
    vertex 131.8934547787598 2.7565493052467285 0.0
    vertex 131.8934547787598 2.7565493052467285 50.0
  endloop
endfacet
facet normal -0.9238795325112852 0.3826834323650937 0.0
  outer loop
    vertex 131.8934547787598 2.7565493052467285 0.0
    vertex 133.29206069382462 6.133082673811425 50.0
    vertex 133.29206069382462 6.133082673811425 0.0
  endloop
endfacet
facet normal 0.9238795325112882 -0.38268343236508684 0.0
  outer loop
    vertex 158.9393779148537 -4.490383957623863 0.0
    vertex 157.54077199978892 -7.866917326188577 50.0
    vertex 157.54077199978892 -7.866917326188577 0.0
  endloop
endfacet
facet normal 0.9238795325112882 -0.38268343236508684 0.0
  outer loop
    vertex 157.54077199978892 -7.866917326188577 50.0
    vertex 158.9393779148537 -4.490383957623863 0.0
    vertex 158.9393779148537 -4.490383957623863 50.0
  endloop
endfacet
facet normal 0.8944271909999162 -0.44721359549995743 -0.0
  outer loop
    vertex 142.53723667861806 -6.7664122628002366 0.0
    vertex 140.53723667861806 -10.766412262800236 5.0
    vertex 140.53723667861806 -10.766412262800236 0.0
  endloop
endfacet
facet normal 0.8944271909999162 -0.44721359549995743 -0.0
  outer loop
    vertex 140.53723667861806 -10.766412262800236 5.0
    vertex 142.53723667861806 -6.7664122628002366 0.0
    vertex 142.53723667861806 -6.7664122628002366 5.0
  endloop
endfacet
facet normal 0.0 0.0 -1.0
  outer loop
    vertex 155.31591128341844 9.032577610423102 45.0
    vertex 135.5169214101951 3.2335877371997674 45.0
    vertex 135.5169214101951 9.032577610423102 45.0
  endloop
endfacet
facet normal 0.0 0.0 -1.0
  outer loop
    vertex 135.5169214101951 3.2335877371997674 45.0
    vertex 155.31591128341844 9.032577610423102 45.0
    vertex 155.31591128341844 3.2335877371997674 45.0
  endloop
endfacet
facet normal -1.0 0.0 -0.0
  outer loop
    vertex 146.90358363886747 -0.6711280378584963 50.0
    vertex 146.90358363886747 -1.0627066145186512 45.0
    vertex 146.90358363886747 -1.0627066145186512 50.0
  endloop
endfacet
facet normal -1.0 0.0 -0.0
  outer loop
    vertex 146.90358363886747 -1.0627066145186512 45.0
    vertex 146.90358363886747 -0.6711280378584963 50.0
    vertex 146.90358363886747 -0.6711280378584963 45.0
  endloop
endfacet
facet normal 0.0 0.0 -1.0
  outer loop
    vertex 135.5169214101951 3.2335877371997674 45.0
    vertex 144.22638633636993 0.04622481732451773 45.0
    vertex 135.5169214101951 -10.766412262800236 45.0
  endloop
endfacet
facet normal 0.0 0.0 -1.0
  outer loop
    vertex 144.22638633636993 0.04622481732451773 45.0
    vertex 135.5169214101951 3.2335877371997674 45.0
    vertex 144.5032742032937 0.3231126842482894 45.0
  endloop
endfacet
facet normal 0.0 0.0 -1.0
  outer loop
    vertex 144.5032742032937 0.3231126842482894 45.0
    vertex 135.5169214101951 3.2335877371997674 45.0
    vertex 144.84239119825912 0.5189019725783649 45.0
  endloop
endfacet
facet normal 0.0 0.0 -1.0
  outer loop
    vertex 144.84239119825912 0.5189019725783649 45.0
    vertex 135.5169214101951 3.2335877371997674 45.0
    vertex 145.2206270584767 0.620249965872149 45.0
  endloop
endfacet
facet normal 0.0 0.0 -1.0
  outer loop
    vertex 145.2206270584767 0.620249965872149 45.0
    vertex 135.5169214101951 3.2335877371997674 45.0
    vertex 155.31591128341844 3.2335877371997674 45.0
  endloop
endfacet
facet normal 0.0 0.0 -1.0
  outer loop
    vertex 135.5169214101951 -10.766412262800236 45.0
    vertex 144.22638633636993 0.04622481732451773 45.0
    vertex 144.03059704803985 -0.2928921776409275 45.0
  endloop
endfacet
facet normal 0.0 0.0 -1.0
  outer loop
    vertex 135.5169214101951 -10.766412262800236 45.0
    vertex 144.03059704803985 -0.2928921776409275 45.0
    vertex 143.92924905474607 -0.6711280378584839 45.0
  endloop
endfacet
facet normal 0.0 0.0 -1.0
  outer loop
    vertex 145.2206270584767 0.620249965872149 45.0
    vertex 155.31591128341844 3.2335877371997674 45.0
    vertex 145.61220563513686 0.6202499658721473 45.0
  endloop
endfacet
facet normal 0.0 0.0 -1.0
  outer loop
    vertex 145.61220563513686 0.6202499658721473 45.0
    vertex 155.31591128341844 3.2335877371997674 45.0
    vertex 145.9904414953544 0.5189019725783602 45.0
  endloop
endfacet
facet normal 0.0 0.0 -1.0
  outer loop
    vertex 145.9904414953544 0.5189019725783602 45.0
    vertex 155.31591128341844 3.2335877371997674 45.0
    vertex 146.32955849031984 0.32311268424828127 45.0
  endloop
endfacet
facet normal 0.0 0.0 -1.0
  outer loop
    vertex 146.32955849031984 0.32311268424828127 45.0
    vertex 155.31591128341844 3.2335877371997674 45.0
    vertex 146.60644635724364 0.04622481732450838 45.0
  endloop
endfacet
facet normal 0.0 0.0 -1.0
  outer loop
    vertex 146.60644635724364 0.04622481732450838 45.0
    vertex 155.31591128341844 3.2335877371997674 45.0
    vertex 146.8022356455737 -0.29289217764093867 45.0
  endloop
endfacet
facet normal 0.0 0.0 -1.0
  outer loop
    vertex 146.8022356455737 -0.29289217764093867 45.0
    vertex 155.31591128341844 3.2335877371997674 45.0
    vertex 146.90358363886747 -0.6711280378584963 45.0
  endloop
endfacet
facet normal 0.0 0.0 -1.0
  outer loop
    vertex 146.90358363886747 -0.6711280378584963 45.0
    vertex 155.31591128341844 3.2335877371997674 45.0
    vertex 146.90358363886747 -1.0627066145186512 45.0
  endloop
endfacet
facet normal 0.0 0.0 -1.0
  outer loop
    vertex 135.5169214101951 -10.766412262800236 45.0
    vertex 144.5032742032937 -2.0569473366254165 45.0
    vertex 155.31591128341844 -10.766412262800236 45.0
  endloop
endfacet
facet normal 0.0 0.0 -1.0
  outer loop
    vertex 144.5032742032937 -2.0569473366254165 45.0
    vertex 135.5169214101951 -10.766412262800236 45.0
    vertex 144.22638633636993 -1.780059469701644 45.0
  endloop
endfacet
facet normal 0.0 0.0 -1.0
  outer loop
    vertex 144.22638633636993 -1.780059469701644 45.0
    vertex 135.5169214101951 -10.766412262800236 45.0
    vertex 144.03059704803985 -1.4409424747361967 45.0
  endloop
endfacet
facet normal 0.0 0.0 -1.0
  outer loop
    vertex 144.03059704803985 -1.4409424747361967 45.0
    vertex 135.5169214101951 -10.766412262800236 45.0
    vertex 143.92924905474607 -1.0627066145186395 45.0
  endloop
endfacet
facet normal 0.0 0.0 -1.0
  outer loop
    vertex 143.92924905474607 -1.0627066145186395 45.0
    vertex 135.5169214101951 -10.766412262800236 45.0
    vertex 143.92924905474607 -0.6711280378584839 45.0
  endloop
endfacet
facet normal 0.0 0.0 -1.0
  outer loop
    vertex 155.31591128341844 -10.766412262800236 45.0
    vertex 144.5032742032937 -2.0569473366254165 45.0
    vertex 144.84239119825912 -2.2527366249554954 45.0
  endloop
endfacet
facet normal 0.0 0.0 -1.0
  outer loop
    vertex 155.31591128341844 -10.766412262800236 45.0
    vertex 144.84239119825912 -2.2527366249554954 45.0
    vertex 145.22062705847668 -2.3540846182492823 45.0
  endloop
endfacet
facet normal 0.0 0.0 -1.0
  outer loop
    vertex 155.31591128341844 -10.766412262800236 45.0
    vertex 145.22062705847668 -2.3540846182492823 45.0
    vertex 145.61220563513683 -2.354084618249284 45.0
  endloop
endfacet
facet normal 0.0 0.0 -1.0
  outer loop
    vertex 155.31591128341844 -10.766412262800236 45.0
    vertex 145.61220563513683 -2.354084618249284 45.0
    vertex 145.9904414953544 -2.2527366249555 45.0
  endloop
endfacet
facet normal 0.0 0.0 -1.0
  outer loop
    vertex 155.31591128341844 -10.766412262800236 45.0
    vertex 145.9904414953544 -2.2527366249555 45.0
    vertex 146.32955849031984 -2.056947336625424 45.0
  endloop
endfacet
facet normal 0.0 0.0 -1.0
  outer loop
    vertex 155.31591128341844 -10.766412262800236 45.0
    vertex 146.32955849031984 -2.056947336625424 45.0
    vertex 146.6064463572436 -1.7800594697016536 45.0
  endloop
endfacet
facet normal 0.0 0.0 -1.0
  outer loop
    vertex 155.31591128341844 -10.766412262800236 45.0
    vertex 146.6064463572436 -1.7800594697016536 45.0
    vertex 146.8022356455737 -1.440942474736208 45.0
  endloop
endfacet
facet normal 0.0 0.0 -1.0
  outer loop
    vertex 155.31591128341844 -10.766412262800236 45.0
    vertex 146.8022356455737 -1.440942474736208 45.0
    vertex 146.90358363886747 -1.0627066145186512 45.0
  endloop
endfacet
facet normal 0.0 0.0 -1.0
  outer loop
    vertex 155.31591128341844 -10.766412262800236 45.0
    vertex 146.90358363886747 -1.0627066145186512 45.0
    vertex 155.31591128341844 3.2335877371997674 45.0
  endloop
endfacet
facet normal 0.2588190451025287 0.9659258262890663 0.0
  outer loop
    vertex 144.84239119825912 -2.2527366249554954 50.0
    vertex 145.22062705847668 -2.3540846182492823 45.0
    vertex 144.84239119825912 -2.2527366249554954 45.0
  endloop
endfacet
facet normal 0.2588190451025287 0.9659258262890663 0.0
  outer loop
    vertex 145.22062705847668 -2.3540846182492823 45.0
    vertex 144.84239119825912 -2.2527366249554954 50.0
    vertex 145.22062705847668 -2.3540846182492823 50.0
  endloop
endfacet
facet normal -4.050862945471853e-15 -1.0 -0.0
  outer loop
    vertex 145.61220563513686 0.6202499658721473 50.0
    vertex 145.2206270584767 0.620249965872149 45.0
    vertex 145.61220563513686 0.6202499658721473 45.0
  endloop
endfacet
facet normal -4.050862945471853e-15 -1.0 -0.0
  outer loop
    vertex 145.2206270584767 0.620249965872149 45.0
    vertex 145.61220563513686 0.6202499658721473 50.0
    vertex 145.2206270584767 0.620249965872149 50.0
  endloop
endfacet
facet normal -0.5000000000000071 -0.8660254037844347 -0.0
  outer loop
    vertex 146.32955849031984 0.32311268424828127 50.0
    vertex 145.9904414953544 0.5189019725783602 45.0
    vertex 146.32955849031984 0.32311268424828127 45.0
  endloop
endfacet
facet normal -0.5000000000000071 -0.8660254037844347 -0.0
  outer loop
    vertex 145.9904414953544 0.5189019725783602 45.0
    vertex 146.32955849031984 0.32311268424828127 50.0
    vertex 145.9904414953544 0.5189019725783602 50.0
  endloop
endfacet
facet normal 0.25881904510250797 -0.9659258262890719 -0.0
  outer loop
    vertex 145.2206270584767 0.620249965872149 50.0
    vertex 144.84239119825912 0.5189019725783649 45.0
    vertex 145.2206270584767 0.620249965872149 45.0
  endloop
endfacet
facet normal 0.25881904510250797 -0.9659258262890719 -0.0
  outer loop
    vertex 144.84239119825912 0.5189019725783649 45.0
    vertex 145.2206270584767 0.620249965872149 50.0
    vertex 144.84239119825912 0.5189019725783649 50.0
  endloop
endfacet
facet normal -0.2588190451025295 -0.9659258262890661 -0.0
  outer loop
    vertex 145.9904414953544 0.5189019725783602 50.0
    vertex 145.61220563513686 0.6202499658721473 45.0
    vertex 145.9904414953544 0.5189019725783602 45.0
  endloop
endfacet
facet normal -0.2588190451025295 -0.9659258262890661 -0.0
  outer loop
    vertex 145.61220563513686 0.6202499658721473 45.0
    vertex 145.9904414953544 0.5189019725783602 50.0
    vertex 145.61220563513686 0.6202499658721473 50.0
  endloop
endfacet
facet normal 0.8660254037844308 -0.5000000000000139 -0.0
  outer loop
    vertex 144.22638633636993 0.04622481732451773 45.0
    vertex 144.03059704803985 -0.2928921776409275 50.0
    vertex 144.03059704803985 -0.2928921776409275 45.0
  endloop
endfacet
facet normal 0.8660254037844308 -0.5000000000000139 -0.0
  outer loop
    vertex 144.03059704803985 -0.2928921776409275 50.0
    vertex 144.22638633636993 0.04622481732451773 45.0
    vertex 144.22638633636993 0.04622481732451773 50.0
  endloop
endfacet
facet normal 0.99144486137381 -0.1305261922200546 0.0
  outer loop
    vertex 159.41641634680676 -0.8669173261885675 0.0
    vertex 158.9393779148537 -4.490383957623863 50.0
    vertex 158.9393779148537 -4.490383957623863 0.0
  endloop
endfacet
facet normal 0.99144486137381 -0.1305261922200546 0.0
  outer loop
    vertex 158.9393779148537 -4.490383957623863 50.0
    vertex 159.41641634680676 -0.8669173261885675 0.0
    vertex 159.41641634680676 -0.8669173261885675 50.0
  endloop
endfacet
facet normal -0.9914448613738108 -0.13052619222004894 -0.0
  outer loop
    vertex 131.41641634680678 -0.8669173261885675 50.0
    vertex 131.8934547787598 -4.490383957623852 0.0
    vertex 131.8934547787598 -4.490383957623852 50.0
  endloop
endfacet
facet normal -0.9914448613738108 -0.13052619222004894 -0.0
  outer loop
    vertex 131.8934547787598 -4.490383957623852 0.0
    vertex 131.41641634680678 -0.8669173261885675 50.0
    vertex 131.41641634680678 -0.8669173261885675 0.0
  endloop
endfacet
facet normal 0.0 -1.0 0.0
  outer loop
    vertex 140.53723667861806 -10.766412262800236 5.0
    vertex 135.5169214101951 -10.766412262800236 0.0
    vertex 140.53723667861806 -10.766412262800236 0.0
  endloop
endfacet
facet normal 0.0 -1.0 0.0
  outer loop
    vertex 135.5169214101951 -10.766412262800236 0.0
    vertex 140.53723667861806 -10.766412262800236 5.0
    vertex 135.5169214101951 -10.766412262800236 5.0
  endloop
endfacet
facet normal -0.8660254037844309 0.5000000000000134 -0.0
  outer loop
    vertex 146.8022356455737 -1.440942474736208 50.0
    vertex 146.6064463572436 -1.7800594697016536 45.0
    vertex 146.6064463572436 -1.7800594697016536 50.0
  endloop
endfacet
facet normal -0.8660254037844309 0.5000000000000134 -0.0
  outer loop
    vertex 146.6064463572436 -1.7800594697016536 45.0
    vertex 146.8022356455737 -1.440942474736208 50.0
    vertex 146.8022356455737 -1.440942474736208 45.0
  endloop
endfacet
facet normal -0.7071067811865235 -0.7071067811865717 -0.0
  outer loop
    vertex 146.60644635724364 0.04622481732450838 50.0
    vertex 146.32955849031984 0.32311268424828127 45.0
    vertex 146.60644635724364 0.04622481732450838 45.0
  endloop
endfacet
facet normal -0.7071067811865235 -0.7071067811865717 -0.0
  outer loop
    vertex 146.32955849031984 0.32311268424828127 45.0
    vertex 146.60644635724364 0.04622481732450838 50.0
    vertex 146.32955849031984 0.32311268424828127 50.0
  endloop
endfacet
facet normal 0.9914448613738108 0.1305261922200489 0.0
  outer loop
    vertex 158.93937791485374 2.7565493052467174 0.0
    vertex 159.41641634680676 -0.8669173261885675 50.0
    vertex 159.41641634680676 -0.8669173261885675 0.0
  endloop
endfacet
facet normal 0.9914448613738108 0.1305261922200489 0.0
  outer loop
    vertex 159.41641634680676 -0.8669173261885675 50.0
    vertex 158.93937791485374 2.7565493052467174 0.0
    vertex 158.93937791485374 2.7565493052467174 50.0
  endloop
endfacet
facet normal -0.0 -0.0 1.0
  outer loop
    vertex 131.8934547787598 -4.490383957623852 50.0
    vertex 131.8934547787598 2.7565493052467285 50.0
    vertex 131.41641634680678 -0.8669173261885675 50.0
  endloop
endfacet
facet normal -0.0 -0.0 1.0
  outer loop
    vertex 131.8934547787598 2.7565493052467285 50.0
    vertex 131.8934547787598 -4.490383957623852 50.0
    vertex 133.29206069382462 -7.866917326188566 50.0
  endloop
endfacet
facet normal -0.0 -0.0 1.0
  outer loop
    vertex 131.8934547787598 2.7565493052467285 50.0
    vertex 133.29206069382462 -7.866917326188566 50.0
    vertex 133.29206069382462 6.133082673811425 50.0
  endloop
endfacet
facet normal -0.0 -0.0 1.0
  outer loop
    vertex 133.29206069382462 6.133082673811425 50.0
    vertex 133.29206069382462 -7.866917326188566 50.0
    vertex 135.5169214101951 -10.766412262800236 50.0
  endloop
endfacet
facet normal -0.0 -0.0 1.0
  outer loop
    vertex 133.29206069382462 6.133082673811425 50.0
    vertex 135.5169214101951 -10.766412262800236 50.0
    vertex 135.5169214101951 9.032577610423106 50.0
  endloop
endfacet
facet normal -0.0 -0.0 1.0
  outer loop
    vertex 135.5169214101951 9.032577610423106 50.0
    vertex 135.5169214101951 -10.766412262800236 50.0
    vertex 144.22638633636993 -1.780059469701644 50.0
  endloop
endfacet
facet normal -0.0 -0.0 1.0
  outer loop
    vertex 144.22638633636993 -1.780059469701644 50.0
    vertex 135.5169214101951 -10.766412262800236 50.0
    vertex 144.5032742032937 -2.0569473366254165 50.0
  endloop
endfacet
facet normal -0.0 -0.0 1.0
  outer loop
    vertex 144.5032742032937 -2.0569473366254165 50.0
    vertex 135.5169214101951 -10.766412262800236 50.0
    vertex 155.31591128341844 -10.766412262800236 50.0
  endloop
endfacet
facet normal -0.0 -0.0 1.0
  outer loop
    vertex 135.5169214101951 9.032577610423106 50.0
    vertex 144.22638633636993 -1.780059469701644 50.0
    vertex 144.03059704803985 -1.4409424747361967 50.0
  endloop
endfacet
facet normal -0.0 -0.0 1.0
  outer loop
    vertex 135.5169214101951 9.032577610423106 50.0
    vertex 144.03059704803985 -1.4409424747361967 50.0
    vertex 143.92924905474607 -1.0627066145186395 50.0
  endloop
endfacet
facet normal -0.0 -0.0 1.0
  outer loop
    vertex 144.5032742032937 -2.0569473366254165 50.0
    vertex 155.31591128341844 -10.766412262800236 50.0
    vertex 144.84239119825912 -2.2527366249554954 50.0
  endloop
endfacet
facet normal -0.0 -0.0 1.0
  outer loop
    vertex 144.84239119825912 -2.2527366249554954 50.0
    vertex 155.31591128341844 -10.766412262800236 50.0
    vertex 145.22062705847668 -2.3540846182492823 50.0
  endloop
endfacet
facet normal -0.0 -0.0 1.0
  outer loop
    vertex 145.22062705847668 -2.3540846182492823 50.0
    vertex 155.31591128341844 -10.766412262800236 50.0
    vertex 145.61220563513683 -2.354084618249284 50.0
  endloop
endfacet
facet normal -0.0 -0.0 1.0
  outer loop
    vertex 145.61220563513683 -2.354084618249284 50.0
    vertex 155.31591128341844 -10.766412262800236 50.0
    vertex 145.9904414953544 -2.2527366249555 50.0
  endloop
endfacet
facet normal -0.0 -0.0 1.0
  outer loop
    vertex 145.9904414953544 -2.2527366249555 50.0
    vertex 155.31591128341844 -10.766412262800236 50.0
    vertex 146.32955849031984 -2.056947336625424 50.0
  endloop
endfacet
facet normal -0.0 -0.0 1.0
  outer loop
    vertex 146.32955849031984 -2.056947336625424 50.0
    vertex 155.31591128341844 -10.766412262800236 50.0
    vertex 146.6064463572436 -1.7800594697016536 50.0
  endloop
endfacet
facet normal -0.0 -0.0 1.0
  outer loop
    vertex 146.6064463572436 -1.7800594697016536 50.0
    vertex 155.31591128341844 -10.766412262800236 50.0
    vertex 146.8022356455737 -1.440942474736208 50.0
  endloop
endfacet
facet normal -0.0 -0.0 1.0
  outer loop
    vertex 146.8022356455737 -1.440942474736208 50.0
    vertex 155.31591128341844 -10.766412262800236 50.0
    vertex 146.90358363886747 -1.0627066145186512 50.0
  endloop
endfacet
facet normal -0.0 -0.0 1.0
  outer loop
    vertex 146.90358363886747 -1.0627066145186512 50.0
    vertex 155.31591128341844 -10.766412262800236 50.0
    vertex 146.90358363886747 -0.6711280378584963 50.0
  endloop
endfacet
facet normal -0.0 -0.0 1.0
  outer loop
    vertex 135.5169214101951 9.032577610423106 50.0
    vertex 144.5032742032937 0.3231126842482894 50.0
    vertex 155.31591128341844 9.032577610423106 50.0
  endloop
endfacet
facet normal -0.0 -0.0 1.0
  outer loop
    vertex 144.5032742032937 0.3231126842482894 50.0
    vertex 135.5169214101951 9.032577610423106 50.0
    vertex 144.22638633636993 0.04622481732451773 50.0
  endloop
endfacet
facet normal -0.0 -0.0 1.0
  outer loop
    vertex 144.22638633636993 0.04622481732451773 50.0
    vertex 135.5169214101951 9.032577610423106 50.0
    vertex 144.03059704803985 -0.2928921776409275 50.0
  endloop
endfacet
facet normal -0.0 -0.0 1.0
  outer loop
    vertex 144.03059704803985 -0.2928921776409275 50.0
    vertex 135.5169214101951 9.032577610423106 50.0
    vertex 143.92924905474607 -0.6711280378584839 50.0
  endloop
endfacet
facet normal -0.0 -0.0 1.0
  outer loop
    vertex 143.92924905474607 -0.6711280378584839 50.0
    vertex 135.5169214101951 9.032577610423106 50.0
    vertex 143.92924905474607 -1.0627066145186395 50.0
  endloop
endfacet
facet normal -0.0 -0.0 1.0
  outer loop
    vertex 155.31591128341844 9.032577610423106 50.0
    vertex 144.5032742032937 0.3231126842482894 50.0
    vertex 144.84239119825912 0.5189019725783649 50.0
  endloop
endfacet
facet normal -0.0 -0.0 1.0
  outer loop
    vertex 155.31591128341844 9.032577610423106 50.0
    vertex 144.84239119825912 0.5189019725783649 50.0
    vertex 145.2206270584767 0.620249965872149 50.0
  endloop
endfacet
facet normal -0.0 -0.0 1.0
  outer loop
    vertex 155.31591128341844 9.032577610423106 50.0
    vertex 145.2206270584767 0.620249965872149 50.0
    vertex 145.61220563513686 0.6202499658721473 50.0
  endloop
endfacet
facet normal -0.0 -0.0 1.0
  outer loop
    vertex 155.31591128341844 9.032577610423106 50.0
    vertex 145.61220563513686 0.6202499658721473 50.0
    vertex 145.9904414953544 0.5189019725783602 50.0
  endloop
endfacet
facet normal -0.0 -0.0 1.0
  outer loop
    vertex 155.31591128341844 9.032577610423106 50.0
    vertex 145.9904414953544 0.5189019725783602 50.0
    vertex 146.32955849031984 0.32311268424828127 50.0
  endloop
endfacet
facet normal -0.0 -0.0 1.0
  outer loop
    vertex 155.31591128341844 9.032577610423106 50.0
    vertex 146.32955849031984 0.32311268424828127 50.0
    vertex 146.60644635724364 0.04622481732450838 50.0
  endloop
endfacet
facet normal -0.0 -0.0 1.0
  outer loop
    vertex 155.31591128341844 9.032577610423106 50.0
    vertex 146.60644635724364 0.04622481732450838 50.0
    vertex 146.8022356455737 -0.29289217764093867 50.0
  endloop
endfacet
facet normal -0.0 -0.0 1.0
  outer loop
    vertex 155.31591128341844 9.032577610423106 50.0
    vertex 146.8022356455737 -0.29289217764093867 50.0
    vertex 146.90358363886747 -0.6711280378584963 50.0
  endloop
endfacet
facet normal -0.0 -0.0 1.0
  outer loop
    vertex 155.31591128341844 9.032577610423106 50.0
    vertex 146.90358363886747 -0.6711280378584963 50.0
    vertex 155.31591128341844 -10.766412262800236 50.0
  endloop
endfacet
facet normal -0.0 -0.0 1.0
  outer loop
    vertex 155.31591128341844 9.032577610423106 50.0
    vertex 155.31591128341844 -10.766412262800236 50.0
    vertex 157.54077199978892 -7.866917326188577 50.0
  endloop
endfacet
facet normal -0.0 -0.0 1.0
  outer loop
    vertex 155.31591128341844 9.032577610423106 50.0
    vertex 157.54077199978892 -7.866917326188577 50.0
    vertex 157.54077199978892 6.133082673811425 50.0
  endloop
endfacet
facet normal -0.0 -0.0 1.0
  outer loop
    vertex 157.54077199978892 6.133082673811425 50.0
    vertex 157.54077199978892 -7.866917326188577 50.0
    vertex 158.9393779148537 -4.490383957623863 50.0
  endloop
endfacet
facet normal -0.0 -0.0 1.0
  outer loop
    vertex 157.54077199978892 6.133082673811425 50.0
    vertex 158.9393779148537 -4.490383957623863 50.0
    vertex 158.93937791485374 2.7565493052467174 50.0
  endloop
endfacet
facet normal -0.0 -0.0 1.0
  outer loop
    vertex 158.93937791485374 2.7565493052467174 50.0
    vertex 158.9393779148537 -4.490383957623863 50.0
    vertex 159.41641634680676 -0.8669173261885675 50.0
  endloop
endfacet
facet normal 0.9238795325112857 0.3826834323650927 0.0
  outer loop
    vertex 157.54077199978892 6.133082673811425 0.0
    vertex 158.93937791485374 2.7565493052467174 50.0
    vertex 158.93937791485374 2.7565493052467174 0.0
  endloop
endfacet
facet normal 0.9238795325112857 0.3826834323650927 0.0
  outer loop
    vertex 158.93937791485374 2.7565493052467174 50.0
    vertex 157.54077199978892 6.133082673811425 0.0
    vertex 157.54077199978892 6.133082673811425 50.0
  endloop
endfacet
facet normal -5.030705441002036e-18 3.553190668762458e-17 1.0
  outer loop
    vertex 140.53723667861806 -10.766412262800236 5.0
    vertex 135.5169214101951 3.2335877371997674 5.0
    vertex 135.5169214101951 -10.766412262800236 5.0
  endloop
endfacet
facet normal -5.030705441002036e-18 3.553190668762458e-17 1.0
  outer loop
    vertex 135.5169214101951 3.2335877371997674 5.0
    vertex 140.53723667861806 -10.766412262800236 5.0
    vertex 135.5169214101951 9.032577610423106 4.999999999999999
  endloop
endfacet
facet normal -5.030705441002036e-18 3.553190668762458e-17 1.0
  outer loop
    vertex 135.5169214101951 9.032577610423106 4.999999999999999
    vertex 140.53723667861806 -10.766412262800236 5.0
    vertex 142.53723667861806 -6.7664122628002366 5.0
  endloop
endfacet
facet normal -5.030705441002036e-18 3.553190668762458e-17 1.0
  outer loop
    vertex 135.5169214101951 9.032577610423106 4.999999999999999
    vertex 142.53723667861806 -6.7664122628002366 5.0
    vertex 155.31591128341844 9.032577610423106 4.999999999999999
  endloop
endfacet
facet normal -5.030705441002036e-18 3.553190668762458e-17 1.0
  outer loop
    vertex 155.31591128341844 9.032577610423106 4.999999999999999
    vertex 142.53723667861806 -6.7664122628002366 5.0
    vertex 147.64522116093246 -6.7664122628002366 5.0
  endloop
endfacet
facet normal -5.030705441002036e-18 3.553190668762458e-17 1.0
  outer loop
    vertex 155.31591128341844 9.032577610423106 4.999999999999999
    vertex 147.64522116093246 -6.7664122628002366 5.0
    vertex 149.83365809165076 -10.766412262800236 5.000000000000001
  endloop
endfacet
facet normal -5.030705441002036e-18 3.553190668762458e-17 1.0
  outer loop
    vertex 155.31591128341844 9.032577610423106 4.999999999999999
    vertex 149.83365809165076 -10.766412262800236 5.000000000000001
    vertex 155.31591128341844 -10.766412262800236 5.0
  endloop
endfacet
facet normal -5.030705441002036e-18 3.553190668762458e-17 1.0
  outer loop
    vertex 155.31591128341844 9.032577610423106 4.999999999999999
    vertex 155.31591128341844 -10.766412262800236 5.0
    vertex 155.31591128341844 3.2335877371997674 5.0
  endloop
endfacet
facet normal 1.0 -0.0 -0.0
  outer loop
    vertex 135.5169214101951 3.2335877371997674 5.0
    vertex 135.5169214101951 -10.766412262800236 45.0
    vertex 135.5169214101951 -10.766412262800236 5.0
  endloop
endfacet
facet normal 1.0 -0.0 -0.0
  outer loop
    vertex 135.5169214101951 -10.766412262800236 45.0
    vertex 135.5169214101951 3.2335877371997674 5.0
    vertex 135.5169214101951 3.2335877371997674 45.0
  endloop
endfacet
facet normal 1.0 -0.0 -0.0
  outer loop
    vertex 135.5169214101951 3.2335877371997674 45.0
    vertex 135.5169214101951 3.2335877371997674 5.0
    vertex 135.5169214101951 9.032577610423106 4.999999999999999
  endloop
endfacet
facet normal 1.0 -0.0 -0.0
  outer loop
    vertex 135.5169214101951 3.2335877371997674 45.0
    vertex 135.5169214101951 9.032577610423106 4.999999999999999
    vertex 135.5169214101951 9.032577610423102 45.0
  endloop
endfacet
facet normal -0.9238795325112859 -0.382683432365092 -0.0
  outer loop
    vertex 131.8934547787598 -4.490383957623852 50.0
    vertex 133.29206069382462 -7.866917326188566 0.0
    vertex 133.29206069382462 -7.866917326188566 50.0
  endloop
endfacet
facet normal -0.9238795325112859 -0.382683432365092 -0.0
  outer loop
    vertex 133.29206069382462 -7.866917326188566 0.0
    vertex 131.8934547787598 -4.490383957623852 50.0
    vertex 131.8934547787598 -4.490383957623852 0.0
  endloop
endfacet
facet normal 0.0 0.0 -1.0
  outer loop
    vertex 131.8934547787598 2.7565493052467285 0.0
    vertex 131.8934547787598 -4.490383957623852 0.0
    vertex 131.41641634680678 -0.8669173261885675 0.0
  endloop
endfacet
facet normal 0.0 0.0 -1.0
  outer loop
    vertex 131.8934547787598 -4.490383957623852 0.0
    vertex 131.8934547787598 2.7565493052467285 0.0
    vertex 133.29206069382462 6.133082673811425 0.0
  endloop
endfacet
facet normal 0.0 0.0 -1.0
  outer loop
    vertex 131.8934547787598 -4.490383957623852 0.0
    vertex 133.29206069382462 6.133082673811425 0.0
    vertex 133.29206069382462 -7.866917326188566 0.0
  endloop
endfacet
facet normal 0.0 0.0 -1.0
  outer loop
    vertex 133.29206069382462 -7.866917326188566 0.0
    vertex 133.29206069382462 6.133082673811425 0.0
    vertex 135.5169214101951 9.032577610423106 0.0
  endloop
endfacet
facet normal 0.0 0.0 -1.0
  outer loop
    vertex 133.29206069382462 -7.866917326188566 0.0
    vertex 135.5169214101951 9.032577610423106 0.0
    vertex 135.5169214101951 -10.766412262800236 0.0
  endloop
endfacet
facet normal 0.0 0.0 -1.0
  outer loop
    vertex 135.5169214101951 -10.766412262800236 0.0
    vertex 135.5169214101951 9.032577610423106 0.0
    vertex 155.31591128341844 9.032577610423106 0.0
  endloop
endfacet
facet normal 0.0 0.0 -1.0
  outer loop
    vertex 135.5169214101951 -10.766412262800236 0.0
    vertex 155.31591128341844 9.032577610423106 0.0
    vertex 142.53723667861806 -6.7664122628002366 0.0
  endloop
endfacet
facet normal 0.0 0.0 -1.0
  outer loop
    vertex 135.5169214101951 -10.766412262800236 0.0
    vertex 142.53723667861806 -6.7664122628002366 0.0
    vertex 140.53723667861806 -10.766412262800236 0.0
  endloop
endfacet
facet normal 0.0 0.0 -1.0
  outer loop
    vertex 142.53723667861806 -6.7664122628002366 0.0
    vertex 155.31591128341844 9.032577610423106 0.0
    vertex 147.64522116093246 -6.7664122628002366 0.0
  endloop
endfacet
facet normal 0.0 0.0 -1.0
  outer loop
    vertex 147.64522116093246 -6.7664122628002366 0.0
    vertex 155.31591128341844 9.032577610423106 0.0
    vertex 149.83365809165076 -10.766412262800236 0.0
  endloop
endfacet
facet normal 0.0 0.0 -1.0
  outer loop
    vertex 149.83365809165076 -10.766412262800236 0.0
    vertex 155.31591128341844 9.032577610423106 0.0
    vertex 155.31591128341844 -10.766412262800236 0.0
  endloop
endfacet
facet normal 0.0 0.0 -1.0
  outer loop
    vertex 155.31591128341844 -10.766412262800236 0.0
    vertex 155.31591128341844 9.032577610423106 0.0
    vertex 157.54077199978892 6.133082673811425 0.0
  endloop
endfacet
facet normal 0.0 0.0 -1.0
  outer loop
    vertex 155.31591128341844 -10.766412262800236 0.0
    vertex 157.54077199978892 6.133082673811425 0.0
    vertex 157.54077199978892 -7.866917326188577 0.0
  endloop
endfacet
facet normal 0.0 0.0 -1.0
  outer loop
    vertex 157.54077199978892 -7.866917326188577 0.0
    vertex 157.54077199978892 6.133082673811425 0.0
    vertex 158.93937791485374 2.7565493052467174 0.0
  endloop
endfacet
facet normal 0.0 0.0 -1.0
  outer loop
    vertex 157.54077199978892 -7.866917326188577 0.0
    vertex 158.93937791485374 2.7565493052467174 0.0
    vertex 158.9393779148537 -4.490383957623863 0.0
  endloop
endfacet
facet normal 0.0 0.0 -1.0
  outer loop
    vertex 158.9393779148537 -4.490383957623863 0.0
    vertex 158.93937791485374 2.7565493052467174 0.0
    vertex 159.41641634680676 -0.8669173261885675 0.0
  endloop
endfacet
facet normal 0.7071067811865516 0.7071067811865435 0.0
  outer loop
    vertex 144.22638633636993 -1.780059469701644 45.0
    vertex 144.5032742032937 -2.0569473366254165 50.0
    vertex 144.5032742032937 -2.0569473366254165 45.0
  endloop
endfacet
facet normal 0.7071067811865516 0.7071067811865435 0.0
  outer loop
    vertex 144.5032742032937 -2.0569473366254165 50.0
    vertex 144.22638633636993 -1.780059469701644 45.0
    vertex 144.22638633636993 -1.780059469701644 50.0
  endloop
endfacet
facet normal 1.0 0.0 0.0
  outer loop
    vertex 143.92924905474607 -0.6711280378584839 45.0
    vertex 143.92924905474607 -1.0627066145186395 50.0
    vertex 143.92924905474607 -1.0627066145186395 45.0
  endloop
endfacet
facet normal 1.0 0.0 0.0
  outer loop
    vertex 143.92924905474607 -1.0627066145186395 50.0
    vertex 143.92924905474607 -0.6711280378584839 45.0
    vertex 143.92924905474607 -0.6711280378584839 50.0
  endloop
endfacet
facet normal -0.7071067811865493 0.7071067811865457 -0.0
  outer loop
    vertex 146.6064463572436 -1.7800594697016536 50.0
    vertex 146.32955849031984 -2.056947336625424 45.0
    vertex 146.32955849031984 -2.056947336625424 50.0
  endloop
endfacet
facet normal -0.7071067811865493 0.7071067811865457 -0.0
  outer loop
    vertex 146.32955849031984 -2.056947336625424 45.0
    vertex 146.6064463572436 -1.7800594697016536 50.0
    vertex 146.6064463572436 -1.7800594697016536 45.0
  endloop
endfacet
facet normal -0.8660254037844569 -0.49999999999996864 -0.0
  outer loop
    vertex 146.60644635724364 0.04622481732450838 50.0
    vertex 146.8022356455737 -0.29289217764093867 45.0
    vertex 146.8022356455737 -0.29289217764093867 50.0
  endloop
endfacet
facet normal -0.8660254037844569 -0.49999999999996864 -0.0
  outer loop
    vertex 146.8022356455737 -0.29289217764093867 45.0
    vertex 146.60644635724364 0.04622481732450838 50.0
    vertex 146.60644635724364 0.04622481732450838 45.0
  endloop
endfacet
facet normal -0.500000000000001 0.8660254037844382 -0.0
  outer loop
    vertex 145.9904414953544 -2.2527366249555 50.0
    vertex 146.32955849031984 -2.056947336625424 45.0
    vertex 145.9904414953544 -2.2527366249555 45.0
  endloop
endfacet
facet normal -0.500000000000001 0.8660254037844382 -0.0
  outer loop
    vertex 146.32955849031984 -2.056947336625424 45.0
    vertex 145.9904414953544 -2.2527366249555 50.0
    vertex 146.32955849031984 -2.056947336625424 50.0
  endloop
endfacet
facet normal 0.5000000000000071 0.8660254037844347 0.0
  outer loop
    vertex 144.5032742032937 -2.0569473366254165 50.0
    vertex 144.84239119825912 -2.2527366249554954 45.0
    vertex 144.5032742032937 -2.0569473366254165 45.0
  endloop
endfacet
facet normal 0.5000000000000071 0.8660254037844347 0.0
  outer loop
    vertex 144.84239119825912 -2.2527366249554954 45.0
    vertex 144.5032742032937 -2.0569473366254165 50.0
    vertex 144.84239119825912 -2.2527366249554954 50.0
  endloop
endfacet
facet normal 0.9659258262890715 0.2588190451025085 0.0
  outer loop
    vertex 143.92924905474607 -1.0627066145186395 45.0
    vertex 144.03059704803985 -1.4409424747361967 50.0
    vertex 144.03059704803985 -1.4409424747361967 45.0
  endloop
endfacet
facet normal 0.9659258262890715 0.2588190451025085 0.0
  outer loop
    vertex 144.03059704803985 -1.4409424747361967 50.0
    vertex 143.92924905474607 -1.0627066145186395 45.0
    vertex 143.92924905474607 -1.0627066145186395 50.0
  endloop
endfacet
facet normal -0.9659258262890718 -0.25881904510250836 -0.0
  outer loop
    vertex 146.8022356455737 -0.29289217764093867 50.0
    vertex 146.90358363886747 -0.6711280378584963 45.0
    vertex 146.90358363886747 -0.6711280378584963 50.0
  endloop
endfacet
facet normal -0.9659258262890718 -0.25881904510250836 -0.0
  outer loop
    vertex 146.90358363886747 -0.6711280378584963 45.0
    vertex 146.8022356455737 -0.29289217764093867 50.0
    vertex 146.8022356455737 -0.29289217764093867 45.0
  endloop
endfacet
facet normal 0.9659258262890714 -0.2588190451025091 -0.0
  outer loop
    vertex 144.03059704803985 -0.2928921776409275 45.0
    vertex 143.92924905474607 -0.6711280378584839 50.0
    vertex 143.92924905474607 -0.6711280378584839 45.0
  endloop
endfacet
facet normal 0.9659258262890714 -0.2588190451025091 -0.0
  outer loop
    vertex 143.92924905474607 -0.6711280378584839 50.0
    vertex 144.03059704803985 -0.2928921776409275 45.0
    vertex 144.03059704803985 -0.2928921776409275 50.0
  endloop
endfacet
facet normal 0.0 -1.0 0.0
  outer loop
    vertex 155.31591128341844 -10.766412262800236 50.0
    vertex 135.5169214101951 -10.766412262800236 45.0
    vertex 155.31591128341844 -10.766412262800236 45.0
  endloop
endfacet
facet normal 0.0 -1.0 0.0
  outer loop
    vertex 135.5169214101951 -10.766412262800236 45.0
    vertex 155.31591128341844 -10.766412262800236 50.0
    vertex 135.5169214101951 -10.766412262800236 50.0
  endloop
endfacet
facet normal -1.0 0.0 0.0
  outer loop
    vertex 155.31591128341844 3.2335877371997674 45.0
    vertex 155.31591128341844 -10.766412262800236 5.0
    vertex 155.31591128341844 -10.766412262800236 45.0
  endloop
endfacet
facet normal -1.0 0.0 0.0
  outer loop
    vertex 155.31591128341844 -10.766412262800236 5.0
    vertex 155.31591128341844 3.2335877371997674 45.0
    vertex 155.31591128341844 3.2335877371997674 5.0
  endloop
endfacet
facet normal -1.0 0.0 0.0
  outer loop
    vertex 155.31591128341844 3.2335877371997674 5.0
    vertex 155.31591128341844 3.2335877371997674 45.0
    vertex 155.31591128341844 9.032577610423102 45.0
  endloop
endfacet
facet normal -1.0 0.0 0.0
  outer loop
    vertex 155.31591128341844 3.2335877371997674 5.0
    vertex 155.31591128341844 9.032577610423102 45.0
    vertex 155.31591128341844 9.032577610423106 4.999999999999999
  endloop
endfacet
facet normal 0.7071067811865507 -0.7071067811865445 -0.0
  outer loop
    vertex 144.5032742032937 0.3231126842482894 45.0
    vertex 144.22638633636993 0.04622481732451773 50.0
    vertex 144.22638633636993 0.04622481732451773 45.0
  endloop
endfacet
facet normal 0.7071067811865507 -0.7071067811865445 -0.0
  outer loop
    vertex 144.22638633636993 0.04622481732451773 50.0
    vertex 144.5032742032937 0.3231126842482894 45.0
    vertex 144.5032742032937 0.3231126842482894 50.0
  endloop
endfacet
facet normal 0.5000000000000003 -0.8660254037844385 -0.0
  outer loop
    vertex 144.84239119825912 0.5189019725783649 50.0
    vertex 144.5032742032937 0.3231126842482894 45.0
    vertex 144.84239119825912 0.5189019725783649 45.0
  endloop
endfacet
facet normal 0.5000000000000003 -0.8660254037844385 -0.0
  outer loop
    vertex 144.5032742032937 0.3231126842482894 45.0
    vertex 144.84239119825912 0.5189019725783649 50.0
    vertex 144.5032742032937 0.3231126842482894 50.0
  endloop
endfacet
facet normal -0.9659258262890716 0.2588190451025089 -0.0
  outer loop
    vertex 146.90358363886747 -1.0627066145186512 50.0
    vertex 146.8022356455737 -1.440942474736208 45.0
    vertex 146.8022356455737 -1.440942474736208 50.0
  endloop
endfacet
facet normal -0.9659258262890716 0.2588190451025089 -0.0
  outer loop
    vertex 146.8022356455737 -1.440942474736208 45.0
    vertex 146.90358363886747 -1.0627066145186512 50.0
    vertex 146.90358363886747 -1.0627066145186512 45.0
  endloop
endfacet
facet normal 4.50095882830206e-15 1.0 0.0
  outer loop
    vertex 145.22062705847668 -2.3540846182492823 50.0
    vertex 145.61220563513683 -2.354084618249284 45.0
    vertex 145.22062705847668 -2.3540846182492823 45.0
  endloop
endfacet
facet normal 4.50095882830206e-15 1.0 0.0
  outer loop
    vertex 145.61220563513683 -2.354084618249284 45.0
    vertex 145.22062705847668 -2.3540846182492823 50.0
    vertex 145.61220563513683 -2.354084618249284 50.0
  endloop
endfacet
facet normal 0.8660254037844322 0.5000000000000115 0.0
  outer loop
    vertex 144.03059704803985 -1.4409424747361967 45.0
    vertex 144.22638633636993 -1.780059469701644 50.0
    vertex 144.22638633636993 -1.780059469701644 45.0
  endloop
endfacet
facet normal 0.8660254037844322 0.5000000000000115 0.0
  outer loop
    vertex 144.22638633636993 -1.780059469701644 50.0
    vertex 144.03059704803985 -1.4409424747361967 45.0
    vertex 144.03059704803985 -1.4409424747361967 50.0
  endloop
endfacet
facet normal -0.25881904510250753 0.9659258262890719 -0.0
  outer loop
    vertex 145.61220563513683 -2.354084618249284 50.0
    vertex 145.9904414953544 -2.2527366249555 45.0
    vertex 145.61220563513683 -2.354084618249284 45.0
  endloop
endfacet
facet normal -0.25881904510250753 0.9659258262890719 -0.0
  outer loop
    vertex 145.9904414953544 -2.2527366249555 45.0
    vertex 145.61220563513683 -2.354084618249284 50.0
    vertex 145.9904414953544 -2.2527366249555 50.0
  endloop
endfacet
facet normal 0.0 -1.0 0.0
  outer loop
    vertex 147.64522116093246 -6.7664122628002366 5.0
    vertex 142.53723667861806 -6.7664122628002366 0.0
    vertex 147.64522116093246 -6.7664122628002366 0.0
  endloop
endfacet
facet normal 0.0 -1.0 0.0
  outer loop
    vertex 142.53723667861806 -6.7664122628002366 0.0
    vertex 147.64522116093246 -6.7664122628002366 5.0
    vertex 142.53723667861806 -6.7664122628002366 5.0
  endloop
endfacet
facet normal 0.0 -1.0 0.0
  outer loop
    vertex 155.31591128341844 -10.766412262800236 5.0
    vertex 149.83365809165076 -10.766412262800236 0.0
    vertex 155.31591128341844 -10.766412262800236 0.0
  endloop
endfacet
facet normal 0.0 -1.0 0.0
  outer loop
    vertex 149.83365809165076 -10.766412262800236 0.0
    vertex 155.31591128341844 -10.766412262800236 5.0
    vertex 149.83365809165076 -10.766412262800236 5.000000000000001
  endloop
endfacet
facet normal 1.0 -0.0 -0.0
  outer loop
    vertex 135.5169214101951 3.2335877371997674 0.0
    vertex 135.5169214101951 -10.766412262800236 5.0
    vertex 135.5169214101951 -10.766412262800236 0.0
  endloop
endfacet
facet normal 1.0 -0.0 -0.0
  outer loop
    vertex 135.5169214101951 -10.766412262800236 5.0
    vertex 135.5169214101951 3.2335877371997674 0.0
    vertex 135.5169214101951 3.2335877371997674 5.0
  endloop
endfacet
facet normal -0.7933533402912364 -0.608761429008719 0.0
  outer loop
    vertex 133.29206069382462 -7.866917326188566 50.0
    vertex 135.5169214101951 -10.766412262800236 45.0
    vertex 135.5169214101951 -10.766412262800236 50.0
  endloop
endfacet
facet normal -0.7933533402912364 -0.608761429008719 0.0
  outer loop
    vertex 135.5169214101951 -10.766412262800236 45.0
    vertex 133.29206069382462 -7.866917326188566 50.0
    vertex 135.5169214101951 -10.766412262800236 5.0
  endloop
endfacet
facet normal -0.7933533402912364 -0.608761429008719 0.0
  outer loop
    vertex 135.5169214101951 -10.766412262800236 5.0
    vertex 133.29206069382462 -7.866917326188566 50.0
    vertex 135.5169214101951 -10.766412262800236 0.0
  endloop
endfacet
facet normal -0.7933533402912364 -0.608761429008719 0.0
  outer loop
    vertex 135.5169214101951 -10.766412262800236 0.0
    vertex 133.29206069382462 -7.866917326188566 50.0
    vertex 133.29206069382462 -7.866917326188566 0.0
  endloop
endfacet
facet normal 0.7933533402912353 -0.6087614290087205 -1.252063661956505e-19
  outer loop
    vertex 157.54077199978892 -7.866917326188577 0.0
    vertex 155.31591128341844 -10.766412262800236 5.0
    vertex 155.31591128341844 -10.766412262800236 0.0
  endloop
endfacet
facet normal 0.7933533402912353 -0.6087614290087205 -1.252063661956505e-19
  outer loop
    vertex 155.31591128341844 -10.766412262800236 5.0
    vertex 157.54077199978892 -7.866917326188577 0.0
    vertex 155.31591128341844 -10.766412262800236 45.0
  endloop
endfacet
facet normal 0.7933533402912353 -0.6087614290087205 -1.252063661956505e-19
  outer loop
    vertex 155.31591128341844 -10.766412262800236 45.0
    vertex 157.54077199978892 -7.866917326188577 0.0
    vertex 155.31591128341844 -10.766412262800236 50.0
  endloop
endfacet
facet normal 0.7933533402912353 -0.6087614290087205 -1.252063661956505e-19
  outer loop
    vertex 155.31591128341844 -10.766412262800236 50.0
    vertex 157.54077199978892 -7.866917326188577 0.0
    vertex 157.54077199978892 -7.866917326188577 50.0
  endloop
endfacet
endsolid solarmount_53
