solid solarmount_53
facet normal 0.8967639363472929 0.4425092569279301 -0.0
  outer loop
    vertex 116.54160662907135 -3.1550371031495748 7.331099749528636e-18
    vertex 117.52848783438408 -5.15499407699325 5.0
    vertex 117.52848783438408 -5.15499407699325 0.0
  endloop
endfacet
facet normal 0.8967639363472929 0.4425092569279301 -0.0
  outer loop
    vertex 117.52848783438408 -5.15499407699325 5.0
    vertex 116.54160662907135 -3.1550371031495748 7.331099749528636e-18
    vertex 116.54160662907135 -3.1550371031495748 5.0
  endloop
endfacet
facet normal 0.00655939734363605 0.999978486921838 3.1808159544630216e-31
  outer loop
    vertex 109.79136735504702 5.074535431097812 48.0
    vertex 119.32273197471072 5.012014078303613 42.99999999999999
    vertex 109.79136735504702 5.074535431097812 42.99999999999999
  endloop
endfacet
facet normal 0.00655939734363605 0.999978486921838 3.1808159544630216e-31
  outer loop
    vertex 119.32273197471072 5.012014078303613 42.99999999999999
    vertex 109.79136735504702 5.074535431097812 48.0
    vertex 119.32273197471072 5.012014078303613 48.0
  endloop
endfacet
facet normal 0.006559397343636198 0.999978486921838 3.1808159544630216e-31
  outer loop
    vertex 109.79136735504702 -5.117361214562255 48.0
    vertex 119.32273197471072 -5.179882567356454 42.99999999999999
    vertex 109.79136735504702 -5.117361214562255 42.99999999999999
  endloop
endfacet
facet normal 0.006559397343636198 0.999978486921838 3.1808159544630216e-31
  outer loop
    vertex 119.32273197471072 -5.179882567356454 42.99999999999999
    vertex 109.79136735504702 -5.117361214562255 48.0
    vertex 119.32273197471072 -5.179882567356454 48.0
  endloop
endfacet
facet normal -0.7933533402912472 0.608761429008705 -0.0
  outer loop
    vertex 115.85608777055552 -0.8026735681293198 48.0
    vertex 115.61770983665869 -1.1133337399091403 43.000000000000014
    vertex 115.61770983665869 -1.1133337399091403 48.0
  endloop
endfacet
facet normal -0.7933533402912472 0.608761429008705 -0.0
  outer loop
    vertex 115.61770983665869 -1.1133337399091403 43.000000000000014
    vertex 115.85608777055552 -0.8026735681293198 48.0
    vertex 115.85608777055552 -0.8026735681293198 43.000000000000014
  endloop
endfacet
facet normal 0.0 0.0 -1.0
  outer loop
    vertex 109.79136735504702 5.074535431097812 42.99999999999999
    vertex 113.25801155920222 0.6973264318706771 43.000000000000014
    vertex 109.79136735504702 -5.117361214562255 42.99999999999999
  endloop
endfacet
facet normal 0.0 0.0 -1.0
  outer loop
    vertex 113.25801155920222 0.6973264318706771 43.000000000000014
    vertex 109.79136735504702 5.074535431097812 42.99999999999999
    vertex 113.49638949309904 1.0079866036504976 43.000000000000014
  endloop
endfacet
facet normal 0.0 0.0 -1.0
  outer loop
    vertex 113.49638949309904 1.0079866036504976 43.000000000000014
    vertex 109.79136735504702 5.074535431097812 42.99999999999999
    vertex 113.80704966487886 1.246364537547334 43.000000000000014
  endloop
endfacet
facet normal 0.0 0.0 -1.0
  outer loop
    vertex 113.80704966487886 1.246364537547334 43.000000000000014
    vertex 109.79136735504702 5.074535431097812 42.99999999999999
    vertex 119.32273197471072 5.012014078303613 42.99999999999999
  endloop
endfacet
facet normal 0.0 0.0 -1.0
  outer loop
    vertex 109.79136735504702 -5.117361214562255 42.99999999999999
    vertex 113.25801155920222 0.6973264318706771 43.000000000000014
    vertex 113.10816092544526 0.33555499952445866 43.000000000000014
  endloop
endfacet
facet normal 0.0 0.0 -1.0
  outer loop
    vertex 109.79136735504702 -5.117361214562255 42.99999999999999
    vertex 113.10816092544526 0.33555499952445866 43.000000000000014
    vertex 113.05704966487887 -0.05267356812932134 43.000000000000014
  endloop
endfacet
facet normal 0.0 0.0 -1.0
  outer loop
    vertex 113.80704966487886 1.246364537547334 43.000000000000014
    vertex 119.32273197471072 5.012014078303613 42.99999999999999
    vertex 114.16882109722509 1.3962151713042783 43.000000000000014
  endloop
endfacet
facet normal 0.0 0.0 -1.0
  outer loop
    vertex 114.16882109722509 1.3962151713042783 43.000000000000014
    vertex 119.32273197471072 5.012014078303613 42.99999999999999
    vertex 114.55704966487887 1.447326431870676 43.000000000000014
  endloop
endfacet
facet normal 0.0 0.0 -1.0
  outer loop
    vertex 114.55704966487887 1.447326431870676 43.000000000000014
    vertex 119.32273197471072 5.012014078303613 42.99999999999999
    vertex 114.94527823253264 1.3962151713042787 43.000000000000014
  endloop
endfacet
facet normal 0.0 0.0 -1.0
  outer loop
    vertex 114.94527823253264 1.3962151713042787 43.000000000000014
    vertex 119.32273197471072 5.012014078303613 42.99999999999999
    vertex 115.30704966487886 1.246364537547335 43.000000000000014
  endloop
endfacet
facet normal 0.0 0.0 -1.0
  outer loop
    vertex 115.30704966487886 1.246364537547335 43.000000000000014
    vertex 119.32273197471072 5.012014078303613 42.99999999999999
    vertex 115.61770983665869 1.0079866036504983 43.000000000000014
  endloop
endfacet
facet normal 0.0 0.0 -1.0
  outer loop
    vertex 115.61770983665869 1.0079866036504983 43.000000000000014
    vertex 119.32273197471072 5.012014078303613 42.99999999999999
    vertex 115.85608777055552 0.6973264318706782 43.000000000000014
  endloop
endfacet
facet normal 0.0 0.0 -1.0
  outer loop
    vertex 115.85608777055552 0.6973264318706782 43.000000000000014
    vertex 119.32273197471072 5.012014078303613 42.99999999999999
    vertex 116.00593840431247 0.3355549995244604 43.000000000000014
  endloop
endfacet
facet normal 0.0 0.0 -1.0
  outer loop
    vertex 116.00593840431247 0.3355549995244604 43.000000000000014
    vertex 119.32273197471072 5.012014078303613 42.99999999999999
    vertex 116.05704966487886 -0.052673568129321155 43.000000000000014
  endloop
endfacet
facet normal 0.0 0.0 -1.0
  outer loop
    vertex 109.79136735504702 -5.117361214562255 42.99999999999999
    vertex 113.80704966487889 -1.3517116738059771 43.000000000000014
    vertex 119.32273197471072 -5.179882567356454 42.99999999999999
  endloop
endfacet
facet normal 0.0 0.0 -1.0
  outer loop
    vertex 113.80704966487889 -1.3517116738059771 43.000000000000014
    vertex 109.79136735504702 -5.117361214562255 42.99999999999999
    vertex 113.49638949309904 -1.1133337399091405 43.000000000000014
  endloop
endfacet
facet normal 0.0 0.0 -1.0
  outer loop
    vertex 113.49638949309904 -1.1133337399091405 43.000000000000014
    vertex 109.79136735504702 -5.117361214562255 42.99999999999999
    vertex 113.25801155920222 -0.8026735681293203 43.000000000000014
  endloop
endfacet
facet normal 0.0 0.0 -1.0
  outer loop
    vertex 113.25801155920222 -0.8026735681293203 43.000000000000014
    vertex 109.79136735504702 -5.117361214562255 42.99999999999999
    vertex 113.10816092544526 -0.44090213578310194 43.000000000000014
  endloop
endfacet
facet normal 0.0 0.0 -1.0
  outer loop
    vertex 113.10816092544526 -0.44090213578310194 43.000000000000014
    vertex 109.79136735504702 -5.117361214562255 42.99999999999999
    vertex 113.05704966487887 -0.05267356812932134 43.000000000000014
  endloop
endfacet
facet normal 0.0 0.0 -1.0
  outer loop
    vertex 119.32273197471072 -5.179882567356454 42.99999999999999
    vertex 113.80704966487889 -1.3517116738059771 43.000000000000014
    vertex 114.16882109722509 -1.501562307562921 43.000000000000014
  endloop
endfacet
facet normal 0.0 0.0 -1.0
  outer loop
    vertex 119.32273197471072 -5.179882567356454 42.99999999999999
    vertex 114.16882109722509 -1.501562307562921 43.000000000000014
    vertex 114.55704966487887 -1.5526735681293184 43.000000000000014
  endloop
endfacet
facet normal 0.0 0.0 -1.0
  outer loop
    vertex 119.32273197471072 -5.179882567356454 42.99999999999999
    vertex 114.55704966487887 -1.5526735681293184 43.000000000000014
    vertex 114.94527823253264 -1.5015623075629208 43.000000000000014
  endloop
endfacet
facet normal 0.0 0.0 -1.0
  outer loop
    vertex 119.32273197471072 -5.179882567356454 42.99999999999999
    vertex 114.94527823253264 -1.5015623075629208 43.000000000000014
    vertex 115.30704966487887 -1.3517116738059767 43.000000000000014
  endloop
endfacet
facet normal 0.0 0.0 -1.0
  outer loop
    vertex 119.32273197471072 -5.179882567356454 42.99999999999999
    vertex 115.30704966487887 -1.3517116738059767 43.000000000000014
    vertex 115.61770983665869 -1.1133337399091403 43.000000000000014
  endloop
endfacet
facet normal 0.0 0.0 -1.0
  outer loop
    vertex 119.32273197471072 -5.179882567356454 42.99999999999999
    vertex 115.61770983665869 -1.1133337399091403 43.000000000000014
    vertex 115.85608777055552 -0.8026735681293198 43.000000000000014
  endloop
endfacet
facet normal 0.0 0.0 -1.0
  outer loop
    vertex 119.32273197471072 -5.179882567356454 42.99999999999999
    vertex 115.85608777055552 -0.8026735681293198 43.000000000000014
    vertex 116.00593840431247 -0.4409021357831016 43.000000000000014
  endloop
endfacet
facet normal 0.0 0.0 -1.0
  outer loop
    vertex 119.32273197471072 -5.179882567356454 42.99999999999999
    vertex 116.00593840431247 -0.4409021357831016 43.000000000000014
    vertex 116.05704966487886 -0.052673568129321155 43.000000000000014
  endloop
endfacet
facet normal 0.0 0.0 -1.0
  outer loop
    vertex 119.32273197471072 -5.179882567356454 42.99999999999999
    vertex 116.05704966487886 -0.052673568129321155 43.000000000000014
    vertex 119.32273197471072 5.012014078303613 42.99999999999999
  endloop
endfacet
facet normal -0.6087614290087292 0.7933533402912288 -0.0
  outer loop
    vertex 115.30704966487887 -1.3517116738059767 48.0
    vertex 115.61770983665869 -1.1133337399091403 43.000000000000014
    vertex 115.30704966487887 -1.3517116738059767 43.000000000000014
  endloop
endfacet
facet normal -0.6087614290087292 0.7933533402912288 -0.0
  outer loop
    vertex 115.61770983665869 -1.1133337399091403 43.000000000000014
    vertex 115.30704966487887 -1.3517116738059767 48.0
    vertex 115.61770983665869 -1.1133337399091403 48.0
  endloop
endfacet
facet normal -0.909287754683168 0.41616796991508487 -0.0
  outer loop
    vertex 121.24785611117292 -2.110125657056283 48.0
    vertex 120.48736462505542 -3.7717278125718816 0.0
    vertex 120.48736462505542 -3.7717278125718816 48.0
  endloop
endfacet
facet normal -0.909287754683168 0.41616796991508487 -0.0
  outer loop
    vertex 120.48736462505542 -3.7717278125718816 0.0
    vertex 121.24785611117292 -2.110125657056283 48.0
    vertex 121.24785611117292 -2.110125657056283 0.0
  endloop
endfacet
facet normal 0.9372387310259527 0.34868834374676505 0.0
  outer loop
    vertex 107.73391526612005 -1.616271015196243 0.0
    vertex 108.37109673105098 -3.3289498538638345 48.0
    vertex 108.37109673105098 -3.3289498538638345 0.0
  endloop
endfacet
facet normal 0.9372387310259527 0.34868834374676505 0.0
  outer loop
    vertex 108.37109673105098 -3.3289498538638345 48.0
    vertex 107.73391526612005 -1.616271015196243 0.0
    vertex 107.73391526612005 -1.616271015196243 48.0
  endloop
endfacet
facet normal -1.0 0.0 0.0
  outer loop
    vertex 109.79136735504702 5.074535431097812 42.99999999999999
    vertex 109.79136735504702 -5.117361214562255 5.0
    vertex 109.79136735504702 -5.117361214562255 42.99999999999999
  endloop
endfacet
facet normal -1.0 0.0 0.0
  outer loop
    vertex 109.79136735504702 -5.117361214562255 5.0
    vertex 109.79136735504702 5.074535431097812 42.99999999999999
    vertex 109.79136735504702 5.074535431097812 5.0
  endloop
endfacet
facet normal 0.01386996101415393 0.999903807464231 -0.0
  outer loop
    vertex 117.52848783438408 -5.15499407699325 5.0
    vertex 119.32273197471072 -5.179882567356454 0.0
    vertex 117.52848783438408 -5.15499407699325 0.0
  endloop
endfacet
facet normal 0.01386996101415393 0.999903807464231 -0.0
  outer loop
    vertex 119.32273197471072 -5.179882567356454 0.0
    vertex 117.52848783438408 -5.15499407699325 5.0
    vertex 119.32273197471072 -5.179882567356454 5.0
  endloop
endfacet
facet normal 0.13052619222005307 -0.9914448613738104 -0.0
  outer loop
    vertex 114.55704966487887 1.447326431870676 48.0
    vertex 114.16882109722509 1.3962151713042783 43.000000000000014
    vertex 114.55704966487887 1.447326431870676 43.000000000000014
  endloop
endfacet
facet normal 0.13052619222005307 -0.9914448613738104 -0.0
  outer loop
    vertex 114.16882109722509 1.3962151713042783 43.000000000000014
    vertex 114.55704966487887 1.447326431870676 48.0
    vertex 114.16882109722509 1.3962151713042783 48.0
  endloop
endfacet
facet normal 0.382683432365078 -0.9238795325112918 -0.0
  outer loop
    vertex 114.16882109722509 1.3962151713042783 48.0
    vertex 113.80704966487886 1.246364537547334 43.000000000000014
    vertex 114.16882109722509 1.3962151713042783 43.000000000000014
  endloop
endfacet
facet normal 0.382683432365078 -0.9238795325112918 -0.0
  outer loop
    vertex 113.80704966487886 1.246364537547334 43.000000000000014
    vertex 114.16882109722509 1.3962151713042783 48.0
    vertex 113.80704966487886 1.246364537547334 48.0
  endloop
endfacet
facet normal -0.793353340291247 -0.6087614290087054 -0.0
  outer loop
    vertex 115.61770983665869 1.0079866036504983 48.0
    vertex 115.85608777055552 0.6973264318706782 43.000000000000014
    vertex 115.85608777055552 0.6973264318706782 48.0
  endloop
endfacet
facet normal -0.793353340291247 -0.6087614290087054 -0.0
  outer loop
    vertex 115.85608777055552 0.6973264318706782 43.000000000000014
    vertex 115.61770983665869 1.0079866036504983 48.0
    vertex 115.61770983665869 1.0079866036504983 43.000000000000014
  endloop
endfacet
facet normal -0.9914448613738113 -0.13052619222004452 -0.0
  outer loop
    vertex 116.00593840431247 0.3355549995244604 48.0
    vertex 116.05704966487886 -0.052673568129321155 43.000000000000014
    vertex 116.05704966487886 -0.052673568129321155 48.0
  endloop
endfacet
facet normal -0.9914448613738113 -0.13052619222004452 -0.0
  outer loop
    vertex 116.05704966487886 -0.052673568129321155 43.000000000000014
    vertex 116.00593840431247 0.3355549995244604 48.0
    vertex 116.00593840431247 0.3355549995244604 43.000000000000014
  endloop
endfacet
facet normal 0.7933533402912472 -0.608761429008705 -0.0
  outer loop
    vertex 113.49638949309904 1.0079866036504976 43.000000000000014
    vertex 113.25801155920222 0.6973264318706771 48.0
    vertex 113.25801155920222 0.6973264318706771 43.000000000000014
  endloop
endfacet
facet normal 0.7933533402912472 -0.608761429008705 -0.0
  outer loop
    vertex 113.25801155920222 0.6973264318706771 48.0
    vertex 113.49638949309904 1.0079866036504976 43.000000000000014
    vertex 113.49638949309904 1.0079866036504976 48.0
  endloop
endfacet
facet normal -0.7705923292011949 0.6373283786057837 0.0
  outer loop
    vertex 120.48736462505542 -3.7717278125718816 48.0
    vertex 119.32273197471072 -5.179882567356454 42.99999999999999
    vertex 119.32273197471072 -5.179882567356454 48.0
  endloop
endfacet
facet normal -0.7705923292011949 0.6373283786057837 0.0
  outer loop
    vertex 119.32273197471072 -5.179882567356454 42.99999999999999
    vertex 120.48736462505542 -3.7717278125718816 48.0
    vertex 119.32273197471072 -5.179882567356454 5.0
  endloop
endfacet
facet normal -0.7705923292011949 0.6373283786057837 0.0
  outer loop
    vertex 119.32273197471072 -5.179882567356454 5.0
    vertex 120.48736462505542 -3.7717278125718816 48.0
    vertex 119.32273197471072 -5.179882567356454 0.0
  endloop
endfacet
facet normal -0.7705923292011949 0.6373283786057837 0.0
  outer loop
    vertex 119.32273197471072 -5.179882567356454 0.0
    vertex 120.48736462505542 -3.7717278125718816 48.0
    vertex 120.48736462505542 -3.7717278125718816 0.0
  endloop
endfacet
facet normal 0.6087614290087017 0.7933533402912499 0.0
  outer loop
    vertex 113.49638949309904 -1.1133337399091405 48.0
    vertex 113.80704966487889 -1.3517116738059771 43.000000000000014
    vertex 113.49638949309904 -1.1133337399091405 43.000000000000014
  endloop
endfacet
facet normal 0.6087614290087017 0.7933533402912499 0.0
  outer loop
    vertex 113.80704966487889 -1.3517116738059771 43.000000000000014
    vertex 113.49638949309904 -1.1133337399091405 48.0
    vertex 113.80704966487889 -1.3517116738059771 48.0
  endloop
endfacet
facet normal -0.9955502798632794 -0.09423184315371365 -0.0
  outer loop
    vertex 121.3801840636377 1.5109238789375992 48.0
    vertex 121.55238019505593 -0.3083115417806441 0.0
    vertex 121.55238019505593 -0.3083115417806441 48.0
  endloop
endfacet
facet normal -0.9955502798632794 -0.09423184315371365 -0.0
  outer loop
    vertex 121.55238019505593 -0.3083115417806441 0.0
    vertex 121.3801840636377 1.5109238789375992 48.0
    vertex 121.3801840636377 1.5109238789375992 0.0
  endloop
endfacet
facet normal -0.38268343236509755 -0.9238795325112836 -0.0
  outer loop
    vertex 115.30704966487886 1.246364537547335 48.0
    vertex 114.94527823253264 1.3962151713042787 43.000000000000014
    vertex 115.30704966487886 1.246364537547335 43.000000000000014
  endloop
endfacet
facet normal -0.38268343236509755 -0.9238795325112836 -0.0
  outer loop
    vertex 114.94527823253264 1.3962151713042787 43.000000000000014
    vertex 115.30704966487886 1.246364537547335 48.0
    vertex 114.94527823253264 1.3962151713042787 48.0
  endloop
endfacet
facet normal -0.9860167223525487 0.166646401824753 -0.0
  outer loop
    vertex 121.55238019505593 -0.3083115417806441 48.0
    vertex 121.24785611117292 -2.110125657056283 0.0
    vertex 121.24785611117292 -2.110125657056283 48.0
  endloop
endfacet
facet normal -0.9860167223525487 0.166646401824753 -0.0
  outer loop
    vertex 121.24785611117292 -2.110125657056283 0.0
    vertex 121.55238019505593 -0.3083115417806441 48.0
    vertex 121.55238019505593 -0.3083115417806441 0.0
  endloop
endfacet
facet normal -0.9238795325112795 -0.3826834323651076 -0.0
  outer loop
    vertex 115.85608777055552 0.6973264318706782 48.0
    vertex 116.00593840431247 0.3355549995244604 43.000000000000014
    vertex 116.00593840431247 0.3355549995244604 48.0
  endloop
endfacet
facet normal -0.9238795325112795 -0.3826834323651076 -0.0
  outer loop
    vertex 116.00593840431247 0.3355549995244604 43.000000000000014
    vertex 115.85608777055552 0.6973264318706782 48.0
    vertex 115.85608777055552 0.6973264318706782 43.000000000000014
  endloop
endfacet
facet normal -0.9372387310259526 -0.34868834374676544 -0.0
  outer loop
    vertex 120.74300259870675 3.2236027176051882 48.0
    vertex 121.3801840636377 1.5109238789375992 0.0
    vertex 121.3801840636377 1.5109238789375992 48.0
  endloop
endfacet
facet normal -0.9372387310259526 -0.34868834374676544 -0.0
  outer loop
    vertex 121.3801840636377 1.5109238789375992 0.0
    vertex 120.74300259870675 3.2236027176051882 48.0
    vertex 120.74300259870675 3.2236027176051882 0.0
  endloop
endfacet
facet normal 0.9238795325112796 -0.3826834323651069 -0.0
  outer loop
    vertex 113.25801155920222 0.6973264318706771 43.000000000000014
    vertex 113.10816092544526 0.33555499952445866 48.0
    vertex 113.10816092544526 0.33555499952445866 43.000000000000014
  endloop
endfacet
facet normal 0.9238795325112796 -0.3826834323651069 -0.0
  outer loop
    vertex 113.10816092544526 0.33555499952445866 48.0
    vertex 113.25801155920222 0.6973264318706771 43.000000000000014
    vertex 113.25801155920222 0.6973264318706771 48.0
  endloop
endfacet
facet normal -0.8150559115294435 -0.5793823099481965 -0.0
  outer loop
    vertex 119.68425866410601 4.713008741702536 48.0
    vertex 120.74300259870675 3.2236027176051882 0.0
    vertex 120.74300259870675 3.2236027176051882 48.0
  endloop
endfacet
facet normal -0.8150559115294435 -0.5793823099481965 -0.0
  outer loop
    vertex 120.74300259870675 3.2236027176051882 0.0
    vertex 119.68425866410601 4.713008741702536 48.0
    vertex 119.68425866410601 4.713008741702536 0.0
  endloop
endfacet
facet normal -0.6087614290087017 -0.7933533402912499 -0.0
  outer loop
    vertex 115.61770983665869 1.0079866036504983 48.0
    vertex 115.30704966487886 1.246364537547335 43.000000000000014
    vertex 115.61770983665869 1.0079866036504983 43.000000000000014
  endloop
endfacet
facet normal -0.6087614290087017 -0.7933533402912499 -0.0
  outer loop
    vertex 115.30704966487886 1.246364537547335 43.000000000000014
    vertex 115.61770983665869 1.0079866036504983 48.0
    vertex 115.30704966487886 1.246364537547335 48.0
  endloop
endfacet
facet normal -0.9914448613738113 0.13052619222004488 -0.0
  outer loop
    vertex 116.05704966487886 -0.052673568129321155 48.0
    vertex 116.00593840431247 -0.4409021357831016 43.000000000000014
    vertex 116.00593840431247 -0.4409021357831016 48.0
  endloop
endfacet
facet normal -0.9914448613738113 0.13052619222004488 -0.0
  outer loop
    vertex 116.00593840431247 -0.4409021357831016 43.000000000000014
    vertex 116.05704966487886 -0.052673568129321155 48.0
    vertex 116.05704966487886 -0.052673568129321155 43.000000000000014
  endloop
endfacet
facet normal 0.0 0.0 -1.0
  outer loop
    vertex 119.32273197471072 5.012014078303613 5.0
    vertex 109.79136735504702 -5.117361214562255 5.0
    vertex 109.79136735504702 5.074535431097812 5.0
  endloop
endfacet
facet normal 0.0 0.0 -1.0
  outer loop
    vertex 109.79136735504702 -5.117361214562255 5.0
    vertex 119.32273197471072 5.012014078303613 5.0
    vertex 112.52403622560817 -3.1418027724933095 5.0
  endloop
endfacet
facet normal 0.0 0.0 -1.0
  outer loop
    vertex 109.79136735504702 -5.117361214562255 5.0
    vertex 112.52403622560817 -3.1418027724933095 5.0
    vertex 111.5109174309209 -5.1417597463369855 5.0
  endloop
endfacet
facet normal 0.0 0.0 -1.0
  outer loop
    vertex 112.52403622560817 -3.1418027724933095 5.0
    vertex 119.32273197471072 5.012014078303613 5.0
    vertex 116.54160662907135 -3.1550371031495748 5.0
  endloop
endfacet
facet normal 0.0 0.0 -1.0
  outer loop
    vertex 116.54160662907135 -3.1550371031495748 5.0
    vertex 119.32273197471072 5.012014078303613 5.0
    vertex 117.52848783438408 -5.15499407699325 5.0
  endloop
endfacet
facet normal 0.0 0.0 -1.0
  outer loop
    vertex 117.52848783438408 -5.15499407699325 5.0
    vertex 119.32273197471072 5.012014078303613 5.0
    vertex 119.32273197471072 -5.179882567356454 5.0
  endloop
endfacet
facet normal 0.6373283786057847 0.7705923292011944 4.273756832109183e-20
  outer loop
    vertex 109.42984066565174 -4.818355877961178 48.0
    vertex 109.79136735504702 -5.117361214562255 0.0
    vertex 109.42984066565174 -4.818355877961178 0.0
  endloop
endfacet
facet normal 0.6373283786057847 0.7705923292011944 4.273756832109183e-20
  outer loop
    vertex 109.79136735504702 -5.117361214562255 0.0
    vertex 109.42984066565174 -4.818355877961178 48.0
    vertex 109.79136735504702 -5.117361214562255 5.0
  endloop
endfacet
facet normal 0.6373283786057847 0.7705923292011944 4.273756832109183e-20
  outer loop
    vertex 109.79136735504702 -5.117361214562255 5.0
    vertex 109.42984066565174 -4.818355877961178 48.0
    vertex 109.79136735504702 -5.117361214562255 42.99999999999999
  endloop
endfacet
facet normal 0.6373283786057847 0.7705923292011944 4.273756832109183e-20
  outer loop
    vertex 109.79136735504702 -5.117361214562255 42.99999999999999
    vertex 109.42984066565174 -4.818355877961178 48.0
    vertex 109.79136735504702 -5.117361214562255 48.0
  endloop
endfacet
facet normal 0.014179514261115304 0.9998994656303369 2.7359588470666454e-06
  outer loop
    vertex 109.79136735504702 -5.117361214562255 5.0
    vertex 111.51450762878954 -5.141783296377982 0.0
    vertex 109.79136735504702 -5.117361214562255 0.0
  endloop
endfacet
facet normal 0.014179514261115304 0.9998994656303369 2.7359588470666454e-06
  outer loop
    vertex 111.51450762878954 -5.141783296377982 0.0
    vertex 109.79136735504702 -5.117361214562255 5.0
    vertex 111.5109174309209 -5.1417597463369855 5.0
  endloop
endfacet
facet normal -6.959654925527635e-21 1.2472406122463446e-19 1.0
  outer loop
    vertex 107.73391526612005 -1.616271015196243 0.0
    vertex 107.86624321858481 2.0047785207976374 0.0
    vertex 107.5617191347018 0.2029644055220018 0.0
  endloop
endfacet
facet normal -6.959654925527635e-21 1.2472406122463446e-19 1.0
  outer loop
    vertex 107.86624321858481 2.0047785207976374 0.0
    vertex 107.73391526612005 -1.616271015196243 0.0
    vertex 108.37109673105098 -3.3289498538638345 0.0
  endloop
endfacet
facet normal -6.959654925527635e-21 1.2472406122463446e-19 1.0
  outer loop
    vertex 107.86624321858481 2.0047785207976374 0.0
    vertex 108.37109673105098 -3.3289498538638345 0.0
    vertex 108.62673470470232 3.666380676313238 0.0
  endloop
endfacet
facet normal -6.959654925527635e-21 1.2472406122463446e-19 1.0
  outer loop
    vertex 108.62673470470232 3.666380676313238 0.0
    vertex 108.37109673105098 -3.3289498538638345 0.0
    vertex 109.42984066565174 -4.818355877961178 0.0
  endloop
endfacet
facet normal -6.959654925527635e-21 1.2472406122463446e-19 1.0
  outer loop
    vertex 108.62673470470232 3.666380676313238 0.0
    vertex 109.42984066565174 -4.818355877961178 0.0
    vertex 109.79136735504702 5.074535431097812 0.0
  endloop
endfacet
facet normal -6.959654925527635e-21 1.2472406122463446e-19 1.0
  outer loop
    vertex 109.79136735504702 5.074535431097812 0.0
    vertex 109.42984066565174 -4.818355877961178 0.0
    vertex 109.79136735504702 -5.117361214562255 0.0
  endloop
endfacet
facet normal -6.959654925527635e-21 1.2472406122463446e-19 1.0
  outer loop
    vertex 109.79136735504702 5.074535431097812 0.0
    vertex 109.79136735504702 -5.117361214562255 0.0
    vertex 111.51450762878954 -5.141783296377982 0.0
  endloop
endfacet
facet normal -6.959654925527635e-21 1.2472406122463446e-19 1.0
  outer loop
    vertex 109.79136735504702 5.074535431097812 0.0
    vertex 111.51450762878954 -5.141783296377982 0.0
    vertex 112.52762642347682 -3.1418263225343064 7.331099749528636e-18
  endloop
endfacet
facet normal -6.959654925527635e-21 1.2472406122463446e-19 1.0
  outer loop
    vertex 109.79136735504702 5.074535431097812 0.0
    vertex 112.52762642347682 -3.1418263225343064 7.331099749528636e-18
    vertex 119.32273197471072 5.012014078303613 0.0
  endloop
endfacet
facet normal -6.959654925527635e-21 1.2472406122463446e-19 1.0
  outer loop
    vertex 119.32273197471072 5.012014078303613 0.0
    vertex 112.52762642347682 -3.1418263225343064 7.331099749528636e-18
    vertex 116.54160662907135 -3.1550371031495748 7.331099749528636e-18
  endloop
endfacet
facet normal -6.959654925527635e-21 1.2472406122463446e-19 1.0
  outer loop
    vertex 119.32273197471072 5.012014078303613 0.0
    vertex 116.54160662907135 -3.1550371031495748 7.331099749528636e-18
    vertex 117.52848783438408 -5.15499407699325 0.0
  endloop
endfacet
facet normal -6.959654925527635e-21 1.2472406122463446e-19 1.0
  outer loop
    vertex 119.32273197471072 5.012014078303613 0.0
    vertex 117.52848783438408 -5.15499407699325 0.0
    vertex 119.32273197471072 -5.179882567356454 0.0
  endloop
endfacet
facet normal -6.959654925527635e-21 1.2472406122463446e-19 1.0
  outer loop
    vertex 119.32273197471072 5.012014078303613 0.0
    vertex 119.32273197471072 -5.179882567356454 0.0
    vertex 120.48736462505542 -3.7717278125718816 0.0
  endloop
endfacet
facet normal -6.959654925527635e-21 1.2472406122463446e-19 1.0
  outer loop
    vertex 119.32273197471072 5.012014078303613 0.0
    vertex 120.48736462505542 -3.7717278125718816 0.0
    vertex 119.68425866410601 4.713008741702536 0.0
  endloop
endfacet
facet normal -6.959654925527635e-21 1.2472406122463446e-19 1.0
  outer loop
    vertex 119.68425866410601 4.713008741702536 0.0
    vertex 120.48736462505542 -3.7717278125718816 0.0
    vertex 120.74300259870675 3.2236027176051882 0.0
  endloop
endfacet
facet normal -6.959654925527635e-21 1.2472406122463446e-19 1.0
  outer loop
    vertex 120.74300259870675 3.2236027176051882 0.0
    vertex 120.48736462505542 -3.7717278125718816 0.0
    vertex 121.24785611117292 -2.110125657056283 0.0
  endloop
endfacet
facet normal -6.959654925527635e-21 1.2472406122463446e-19 1.0
  outer loop
    vertex 120.74300259870675 3.2236027176051882 0.0
    vertex 121.24785611117292 -2.110125657056283 0.0
    vertex 121.3801840636377 1.5109238789375992 0.0
  endloop
endfacet
facet normal -6.959654925527635e-21 1.2472406122463446e-19 1.0
  outer loop
    vertex 121.3801840636377 1.5109238789375992 0.0
    vertex 121.24785611117292 -2.110125657056283 0.0
    vertex 121.55238019505593 -0.3083115417806441 0.0
  endloop
endfacet
facet normal 0.8150559115294427 0.5793823099481976 0.0
  outer loop
    vertex 108.37109673105098 -3.3289498538638345 0.0
    vertex 109.42984066565174 -4.818355877961178 48.0
    vertex 109.42984066565174 -4.818355877961178 0.0
  endloop
endfacet
facet normal 0.8150559115294427 0.5793823099481976 0.0
  outer loop
    vertex 109.42984066565174 -4.818355877961178 48.0
    vertex 108.37109673105098 -3.3289498538638345 0.0
    vertex 108.37109673105098 -3.3289498538638345 48.0
  endloop
endfacet
facet normal 0.9955502798632794 0.09423184315371357 0.0
  outer loop
    vertex 107.5617191347018 0.2029644055220018 0.0
    vertex 107.73391526612005 -1.616271015196243 48.0
    vertex 107.73391526612005 -1.616271015196243 0.0
  endloop
endfacet
facet normal 0.9955502798632794 0.09423184315371357 0.0
  outer loop
    vertex 107.73391526612005 -1.616271015196243 48.0
    vertex 107.5617191347018 0.2029644055220018 0.0
    vertex 107.5617191347018 0.2029644055220018 48.0
  endloop
endfacet
facet normal 0.7705923292011949 -0.6373283786057837 -0.0
  outer loop
    vertex 109.79136735504702 5.074535431097812 0.0
    vertex 108.62673470470232 3.666380676313238 48.0
    vertex 108.62673470470232 3.666380676313238 0.0
  endloop
endfacet
facet normal 0.7705923292011949 -0.6373283786057837 -0.0
  outer loop
    vertex 108.62673470470232 3.666380676313238 48.0
    vertex 109.79136735504702 5.074535431097812 0.0
    vertex 109.79136735504702 5.074535431097812 48.0
  endloop
endfacet
facet normal 0.7705923292011949 -0.6373283786057837 -0.0
  outer loop
    vertex 109.79136735504702 5.074535431097812 48.0
    vertex 109.79136735504702 5.074535431097812 0.0
    vertex 109.79136735504702 5.074535431097812 5.0
  endloop
endfacet
facet normal 0.7705923292011949 -0.6373283786057837 -0.0
  outer loop
    vertex 109.79136735504702 5.074535431097812 48.0
    vertex 109.79136735504702 5.074535431097812 5.0
    vertex 109.79136735504702 5.074535431097812 42.99999999999999
  endloop
endfacet
facet normal 0.13052619222005218 0.9914448613738104 0.0
  outer loop
    vertex 114.16882109722509 -1.501562307562921 48.0
    vertex 114.55704966487887 -1.5526735681293184 43.000000000000014
    vertex 114.16882109722509 -1.501562307562921 43.000000000000014
  endloop
endfacet
facet normal 0.13052619222005218 0.9914448613738104 0.0
  outer loop
    vertex 114.55704966487887 -1.5526735681293184 43.000000000000014
    vertex 114.16882109722509 -1.501562307562921 48.0
    vertex 114.55704966487887 -1.5526735681293184 48.0
  endloop
endfacet
facet normal 0.793353340291247 0.6087614290087054 0.0
  outer loop
    vertex 113.25801155920222 -0.8026735681293203 43.000000000000014
    vertex 113.49638949309904 -1.1133337399091405 48.0
    vertex 113.49638949309904 -1.1133337399091405 43.000000000000014
  endloop
endfacet
facet normal 0.793353340291247 0.6087614290087054 0.0
  outer loop
    vertex 113.49638949309904 -1.1133337399091405 48.0
    vertex 113.25801155920222 -0.8026735681293203 43.000000000000014
    vertex 113.25801155920222 -0.8026735681293203 48.0
  endloop
endfacet
facet normal 0.9914448613738114 -0.13052619222004505 -0.0
  outer loop
    vertex 113.10816092544526 0.33555499952445866 43.000000000000014
    vertex 113.05704966487887 -0.05267356812932134 48.0
    vertex 113.05704966487887 -0.05267356812932134 43.000000000000014
  endloop
endfacet
facet normal 0.9914448613738114 -0.13052619222004505 -0.0
  outer loop
    vertex 113.05704966487887 -0.05267356812932134 48.0
    vertex 113.10816092544526 0.33555499952445866 43.000000000000014
    vertex 113.10816092544526 0.33555499952445866 48.0
  endloop
endfacet
facet normal 0.38268343236509755 0.9238795325112836 0.0
  outer loop
    vertex 113.80704966487889 -1.3517116738059771 48.0
    vertex 114.16882109722509 -1.501562307562921 43.000000000000014
    vertex 113.80704966487889 -1.3517116738059771 43.000000000000014
  endloop
endfacet
facet normal 0.38268343236509755 0.9238795325112836 0.0
  outer loop
    vertex 114.16882109722509 -1.501562307562921 43.000000000000014
    vertex 113.80704966487889 -1.3517116738059771 48.0
    vertex 114.16882109722509 -1.501562307562921 48.0
  endloop
endfacet
facet normal -0.13052619222005263 0.9914448613738104 -0.0
  outer loop
    vertex 114.55704966487887 -1.5526735681293184 48.0
    vertex 114.94527823253264 -1.5015623075629208 43.000000000000014
    vertex 114.55704966487887 -1.5526735681293184 43.000000000000014
  endloop
endfacet
facet normal -0.13052619222005263 0.9914448613738104 -0.0
  outer loop
    vertex 114.94527823253264 -1.5015623075629208 43.000000000000014
    vertex 114.55704966487887 -1.5526735681293184 48.0
    vertex 114.94527823253264 -1.5015623075629208 48.0
  endloop
endfacet
facet normal 0.6087614290087292 -0.7933533402912288 -0.0
  outer loop
    vertex 113.80704966487886 1.246364537547334 48.0
    vertex 113.49638949309904 1.0079866036504976 43.000000000000014
    vertex 113.80704966487886 1.246364537547334 43.000000000000014
  endloop
endfacet
facet normal 0.6087614290087292 -0.7933533402912288 -0.0
  outer loop
    vertex 113.49638949309904 1.0079866036504976 43.000000000000014
    vertex 113.80704966487886 1.246364537547334 48.0
    vertex 113.49638949309904 1.0079866036504976 48.0
  endloop
endfacet
facet normal -0.13052619222005174 -0.9914448613738104 -0.0
  outer loop
    vertex 114.94527823253264 1.3962151713042787 48.0
    vertex 114.55704966487887 1.447326431870676 43.000000000000014
    vertex 114.94527823253264 1.3962151713042787 43.000000000000014
  endloop
endfacet
facet normal -0.13052619222005174 -0.9914448613738104 -0.0
  outer loop
    vertex 114.55704966487887 1.447326431870676 43.000000000000014
    vertex 114.94527823253264 1.3962151713042787 48.0
    vertex 114.55704966487887 1.447326431870676 48.0
  endloop
endfacet
facet normal 0.9238795325112796 0.382683432365107 0.0
  outer loop
    vertex 113.10816092544526 -0.44090213578310194 43.000000000000014
    vertex 113.25801155920222 -0.8026735681293203 48.0
    vertex 113.25801155920222 -0.8026735681293203 43.000000000000014
  endloop
endfacet
facet normal 0.9238795325112796 0.382683432365107 0.0
  outer loop
    vertex 113.25801155920222 -0.8026735681293203 48.0
    vertex 113.10816092544526 -0.44090213578310194 43.000000000000014
    vertex 113.10816092544526 -0.44090213578310194 48.0
  endloop
endfacet
facet normal -0.38268343236507757 0.9238795325112918 -0.0
  outer loop
    vertex 114.94527823253264 -1.5015623075629208 48.0
    vertex 115.30704966487887 -1.3517116738059767 43.000000000000014
    vertex 114.94527823253264 -1.5015623075629208 43.000000000000014
  endloop
endfacet
facet normal -0.38268343236507757 0.9238795325112918 -0.0
  outer loop
    vertex 115.30704966487887 -1.3517116738059767 43.000000000000014
    vertex 114.94527823253264 -1.5015623075629208 48.0
    vertex 115.30704966487887 -1.3517116738059767 48.0
  endloop
endfacet
facet normal -0.9238795325112795 0.38268343236510716 -0.0
  outer loop
    vertex 116.00593840431247 -0.4409021357831016 48.0
    vertex 115.85608777055552 -0.8026735681293198 43.000000000000014
    vertex 115.85608777055552 -0.8026735681293198 48.0
  endloop
endfacet
facet normal -0.9238795325112795 0.38268343236510716 -0.0
  outer loop
    vertex 115.85608777055552 -0.8026735681293198 43.000000000000014
    vertex 116.00593840431247 -0.4409021357831016 48.0
    vertex 116.00593840431247 -0.4409021357831016 43.000000000000014
  endloop
endfacet
facet normal 1.0 -0.0 -0.0
  outer loop
    vertex 119.32273197471072 5.012014078303613 5.0
    vertex 119.32273197471072 -5.179882567356454 42.99999999999999
    vertex 119.32273197471072 -5.179882567356454 5.0
  endloop
endfacet
facet normal 1.0 -0.0 -0.0
  outer loop
    vertex 119.32273197471072 -5.179882567356454 42.99999999999999
    vertex 119.32273197471072 5.012014078303613 5.0
    vertex 119.32273197471072 5.012014078303613 42.99999999999999
  endloop
endfacet
facet normal -0.6373283786057847 -0.7705923292011941 4.2737568321092314e-20
  outer loop
    vertex 119.68425866410601 4.713008741702536 48.0
    vertex 119.32273197471072 5.012014078303613 0.0
    vertex 119.68425866410601 4.713008741702536 0.0
  endloop
endfacet
facet normal -0.6373283786057847 -0.7705923292011941 4.2737568321092314e-20
  outer loop
    vertex 119.32273197471072 5.012014078303613 0.0
    vertex 119.68425866410601 4.713008741702536 48.0
    vertex 119.32273197471072 5.012014078303613 5.0
  endloop
endfacet
facet normal -0.6373283786057847 -0.7705923292011941 4.2737568321092314e-20
  outer loop
    vertex 119.32273197471072 5.012014078303613 5.0
    vertex 119.68425866410601 4.713008741702536 48.0
    vertex 119.32273197471072 5.012014078303613 42.99999999999999
  endloop
endfacet
facet normal -0.6373283786057847 -0.7705923292011941 4.2737568321092314e-20
  outer loop
    vertex 119.32273197471072 5.012014078303613 42.99999999999999
    vertex 119.68425866410601 4.713008741702536 48.0
    vertex 119.32273197471072 5.012014078303613 48.0
  endloop
endfacet
facet normal 0.9914448613738113 0.13052619222004483 0.0
  outer loop
    vertex 113.05704966487887 -0.05267356812932134 43.000000000000014
    vertex 113.10816092544526 -0.44090213578310194 48.0
    vertex 113.10816092544526 -0.44090213578310194 43.000000000000014
  endloop
endfacet
facet normal 0.9914448613738113 0.13052619222004483 0.0
  outer loop
    vertex 113.10816092544526 -0.44090213578310194 48.0
    vertex 113.05704966487887 -0.05267356812932134 43.000000000000014
    vertex 113.05704966487887 -0.05267356812932134 48.0
  endloop
endfacet
facet normal 0.0 0.0 -1.0
  outer loop
    vertex 107.86624321858481 2.0047785207976374 48.0
    vertex 107.73391526612005 -1.616271015196243 48.0
    vertex 107.5617191347018 0.2029644055220018 48.0
  endloop
endfacet
facet normal 0.0 0.0 -1.0
  outer loop
    vertex 107.73391526612005 -1.616271015196243 48.0
    vertex 107.86624321858481 2.0047785207976374 48.0
    vertex 108.37109673105098 -3.3289498538638345 48.0
  endloop
endfacet
facet normal 0.0 0.0 -1.0
  outer loop
    vertex 108.37109673105098 -3.3289498538638345 48.0
    vertex 107.86624321858481 2.0047785207976374 48.0
    vertex 108.62673470470232 3.666380676313238 48.0
  endloop
endfacet
facet normal 0.0 0.0 -1.0
  outer loop
    vertex 108.37109673105098 -3.3289498538638345 48.0
    vertex 108.62673470470232 3.666380676313238 48.0
    vertex 109.42984066565174 -4.818355877961178 48.0
  endloop
endfacet
facet normal 0.0 0.0 -1.0
  outer loop
    vertex 109.42984066565174 -4.818355877961178 48.0
    vertex 108.62673470470232 3.666380676313238 48.0
    vertex 109.79136735504702 5.074535431097812 48.0
  endloop
endfacet
facet normal 0.0 0.0 -1.0
  outer loop
    vertex 109.42984066565174 -4.818355877961178 48.0
    vertex 109.79136735504702 5.074535431097812 48.0
    vertex 109.79136735504702 -5.117361214562255 48.0
  endloop
endfacet
facet normal 0.0 0.0 -1.0
  outer loop
    vertex 109.79136735504702 -5.117361214562255 48.0
    vertex 109.79136735504702 5.074535431097812 48.0
    vertex 113.25801155920222 0.6973264318706771 48.0
  endloop
endfacet
facet normal 0.0 0.0 -1.0
  outer loop
    vertex 113.25801155920222 0.6973264318706771 48.0
    vertex 109.79136735504702 5.074535431097812 48.0
    vertex 113.49638949309904 1.0079866036504976 48.0
  endloop
endfacet
facet normal 0.0 0.0 -1.0
  outer loop
    vertex 113.49638949309904 1.0079866036504976 48.0
    vertex 109.79136735504702 5.074535431097812 48.0
    vertex 113.80704966487886 1.246364537547334 48.0
  endloop
endfacet
facet normal 0.0 0.0 -1.0
  outer loop
    vertex 113.80704966487886 1.246364537547334 48.0
    vertex 109.79136735504702 5.074535431097812 48.0
    vertex 119.32273197471072 5.012014078303613 48.0
  endloop
endfacet
facet normal 0.0 0.0 -1.0
  outer loop
    vertex 109.79136735504702 -5.117361214562255 48.0
    vertex 113.25801155920222 0.6973264318706771 48.0
    vertex 113.10816092544526 0.33555499952445866 48.0
  endloop
endfacet
facet normal 0.0 0.0 -1.0
  outer loop
    vertex 109.79136735504702 -5.117361214562255 48.0
    vertex 113.10816092544526 0.33555499952445866 48.0
    vertex 113.05704966487887 -0.05267356812932134 48.0
  endloop
endfacet
facet normal 0.0 0.0 -1.0
  outer loop
    vertex 113.80704966487886 1.246364537547334 48.0
    vertex 119.32273197471072 5.012014078303613 48.0
    vertex 114.16882109722509 1.3962151713042783 48.0
  endloop
endfacet
facet normal 0.0 0.0 -1.0
  outer loop
    vertex 114.16882109722509 1.3962151713042783 48.0
    vertex 119.32273197471072 5.012014078303613 48.0
    vertex 114.55704966487887 1.447326431870676 48.0
  endloop
endfacet
facet normal 0.0 0.0 -1.0
  outer loop
    vertex 114.55704966487887 1.447326431870676 48.0
    vertex 119.32273197471072 5.012014078303613 48.0
    vertex 114.94527823253264 1.3962151713042787 48.0
  endloop
endfacet
facet normal 0.0 0.0 -1.0
  outer loop
    vertex 114.94527823253264 1.3962151713042787 48.0
    vertex 119.32273197471072 5.012014078303613 48.0
    vertex 115.30704966487886 1.246364537547335 48.0
  endloop
endfacet
facet normal 0.0 0.0 -1.0
  outer loop
    vertex 115.30704966487886 1.246364537547335 48.0
    vertex 119.32273197471072 5.012014078303613 48.0
    vertex 115.61770983665869 1.0079866036504983 48.0
  endloop
endfacet
facet normal 0.0 0.0 -1.0
  outer loop
    vertex 115.61770983665869 1.0079866036504983 48.0
    vertex 119.32273197471072 5.012014078303613 48.0
    vertex 115.85608777055552 0.6973264318706782 48.0
  endloop
endfacet
facet normal 0.0 0.0 -1.0
  outer loop
    vertex 115.85608777055552 0.6973264318706782 48.0
    vertex 119.32273197471072 5.012014078303613 48.0
    vertex 116.00593840431247 0.3355549995244604 48.0
  endloop
endfacet
facet normal 0.0 0.0 -1.0
  outer loop
    vertex 116.00593840431247 0.3355549995244604 48.0
    vertex 119.32273197471072 5.012014078303613 48.0
    vertex 116.05704966487886 -0.052673568129321155 48.0
  endloop
endfacet
facet normal 0.0 0.0 -1.0
  outer loop
    vertex 109.79136735504702 -5.117361214562255 48.0
    vertex 113.80704966487889 -1.3517116738059771 48.0
    vertex 119.32273197471072 -5.179882567356454 48.0
  endloop
endfacet
facet normal 0.0 0.0 -1.0
  outer loop
    vertex 113.80704966487889 -1.3517116738059771 48.0
    vertex 109.79136735504702 -5.117361214562255 48.0
    vertex 113.49638949309904 -1.1133337399091405 48.0
  endloop
endfacet
facet normal 0.0 0.0 -1.0
  outer loop
    vertex 113.49638949309904 -1.1133337399091405 48.0
    vertex 109.79136735504702 -5.117361214562255 48.0
    vertex 113.25801155920222 -0.8026735681293203 48.0
  endloop
endfacet
facet normal 0.0 0.0 -1.0
  outer loop
    vertex 113.25801155920222 -0.8026735681293203 48.0
    vertex 109.79136735504702 -5.117361214562255 48.0
    vertex 113.10816092544526 -0.44090213578310194 48.0
  endloop
endfacet
facet normal 0.0 0.0 -1.0
  outer loop
    vertex 113.10816092544526 -0.44090213578310194 48.0
    vertex 109.79136735504702 -5.117361214562255 48.0
    vertex 113.05704966487887 -0.05267356812932134 48.0
  endloop
endfacet
facet normal 0.0 0.0 -1.0
  outer loop
    vertex 119.32273197471072 -5.179882567356454 48.0
    vertex 113.80704966487889 -1.3517116738059771 48.0
    vertex 114.16882109722509 -1.501562307562921 48.0
  endloop
endfacet
facet normal 0.0 0.0 -1.0
  outer loop
    vertex 119.32273197471072 -5.179882567356454 48.0
    vertex 114.16882109722509 -1.501562307562921 48.0
    vertex 114.55704966487887 -1.5526735681293184 48.0
  endloop
endfacet
facet normal 0.0 0.0 -1.0
  outer loop
    vertex 119.32273197471072 -5.179882567356454 48.0
    vertex 114.55704966487887 -1.5526735681293184 48.0
    vertex 114.94527823253264 -1.5015623075629208 48.0
  endloop
endfacet
facet normal 0.0 0.0 -1.0
  outer loop
    vertex 119.32273197471072 -5.179882567356454 48.0
    vertex 114.94527823253264 -1.5015623075629208 48.0
    vertex 115.30704966487887 -1.3517116738059767 48.0
  endloop
endfacet
facet normal 0.0 0.0 -1.0
  outer loop
    vertex 119.32273197471072 -5.179882567356454 48.0
    vertex 115.30704966487887 -1.3517116738059767 48.0
    vertex 115.61770983665869 -1.1133337399091403 48.0
  endloop
endfacet
facet normal 0.0 0.0 -1.0
  outer loop
    vertex 119.32273197471072 -5.179882567356454 48.0
    vertex 115.61770983665869 -1.1133337399091403 48.0
    vertex 115.85608777055552 -0.8026735681293198 48.0
  endloop
endfacet
facet normal 0.0 0.0 -1.0
  outer loop
    vertex 119.32273197471072 -5.179882567356454 48.0
    vertex 115.85608777055552 -0.8026735681293198 48.0
    vertex 116.00593840431247 -0.4409021357831016 48.0
  endloop
endfacet
facet normal 0.0 0.0 -1.0
  outer loop
    vertex 119.32273197471072 -5.179882567356454 48.0
    vertex 116.00593840431247 -0.4409021357831016 48.0
    vertex 116.05704966487886 -0.052673568129321155 48.0
  endloop
endfacet
facet normal 0.0 0.0 -1.0
  outer loop
    vertex 119.32273197471072 -5.179882567356454 48.0
    vertex 116.05704966487886 -0.052673568129321155 48.0
    vertex 119.32273197471072 5.012014078303613 48.0
  endloop
endfacet
facet normal 0.0 0.0 -1.0
  outer loop
    vertex 119.32273197471072 -5.179882567356454 48.0
    vertex 119.32273197471072 5.012014078303613 48.0
    vertex 119.68425866410601 4.713008741702536 48.0
  endloop
endfacet
facet normal 0.0 0.0 -1.0
  outer loop
    vertex 119.32273197471072 -5.179882567356454 48.0
    vertex 119.68425866410601 4.713008741702536 48.0
    vertex 120.48736462505542 -3.7717278125718816 48.0
  endloop
endfacet
facet normal 0.0 0.0 -1.0
  outer loop
    vertex 120.48736462505542 -3.7717278125718816 48.0
    vertex 119.68425866410601 4.713008741702536 48.0
    vertex 120.74300259870675 3.2236027176051882 48.0
  endloop
endfacet
facet normal 0.0 0.0 -1.0
  outer loop
    vertex 120.48736462505542 -3.7717278125718816 48.0
    vertex 120.74300259870675 3.2236027176051882 48.0
    vertex 121.24785611117292 -2.110125657056283 48.0
  endloop
endfacet
facet normal 0.0 0.0 -1.0
  outer loop
    vertex 121.24785611117292 -2.110125657056283 48.0
    vertex 120.74300259870675 3.2236027176051882 48.0
    vertex 121.3801840636377 1.5109238789375992 48.0
  endloop
endfacet
facet normal 0.0 0.0 -1.0
  outer loop
    vertex 121.24785611117292 -2.110125657056283 48.0
    vertex 121.3801840636377 1.5109238789375992 48.0
    vertex 121.55238019505593 -0.3083115417806441 48.0
  endloop
endfacet
facet normal 0.9860167223525486 -0.16664640182475335 -0.0
  outer loop
    vertex 107.86624321858481 2.0047785207976374 0.0
    vertex 107.5617191347018 0.2029644055220018 48.0
    vertex 107.5617191347018 0.2029644055220018 0.0
  endloop
endfacet
facet normal 0.9860167223525486 -0.16664640182475335 -0.0
  outer loop
    vertex 107.5617191347018 0.2029644055220018 48.0
    vertex 107.86624321858481 2.0047785207976374 0.0
    vertex 107.86624321858481 2.0047785207976374 48.0
  endloop
endfacet
facet normal -0.8920702496462983 0.4518962897292196 -0.0006426701770221862
  outer loop
    vertex 111.5109174309209 -5.1417597463369855 5.0
    vertex 112.52762642347682 -3.1418263225343064 7.331099749528636e-18
    vertex 111.51450762878954 -5.141783296377982 0.0
  endloop
endfacet
facet normal -0.8920702496462983 0.4518962897292196 -0.0006426701770221862
  outer loop
    vertex 112.52762642347682 -3.1418263225343064 7.331099749528636e-18
    vertex 111.5109174309209 -5.1417597463369855 5.0
    vertex 112.52403622560817 -3.1418027724933095 5.0
  endloop
endfacet
facet normal 0.9092877546831684 -0.41616796991508437 -0.0
  outer loop
    vertex 108.62673470470232 3.666380676313238 0.0
    vertex 107.86624321858481 2.0047785207976374 48.0
    vertex 107.86624321858481 2.0047785207976374 0.0
  endloop
endfacet
facet normal 0.9092877546831684 -0.41616796991508437 -0.0
  outer loop
    vertex 107.86624321858481 2.0047785207976374 48.0
    vertex 108.62673470470232 3.666380676313238 0.0
    vertex 108.62673470470232 3.666380676313238 48.0
  endloop
endfacet
facet normal 0.0032926360611442015 0.9999945792585044 -1.1728698368907611e-06
  outer loop
    vertex 112.52403622560817 -3.1418027724933095 5.0
    vertex 116.54160662907135 -3.1550371031495748 7.331099749528636e-18
    vertex 112.52762642347682 -3.1418263225343064 7.331099749528636e-18
  endloop
endfacet
facet normal 0.0032926360611442015 0.9999945792585044 -1.1728698368907611e-06
  outer loop
    vertex 116.54160662907135 -3.1550371031495748 7.331099749528636e-18
    vertex 112.52403622560817 -3.1418027724933095 5.0
    vertex 116.54160662907135 -3.1550371031495748 5.0
  endloop
endfacet
facet normal -0.006559397343636049 -0.9999784869218379 -0.0
  outer loop
    vertex 119.32273197471072 5.012014078303613 5.0
    vertex 109.79136735504702 5.074535431097812 0.0
    vertex 119.32273197471072 5.012014078303613 0.0
  endloop
endfacet
facet normal -0.006559397343636049 -0.9999784869218379 -0.0
  outer loop
    vertex 109.79136735504702 5.074535431097812 0.0
    vertex 119.32273197471072 5.012014078303613 5.0
    vertex 109.79136735504702 5.074535431097812 5.0
  endloop
endfacet
endsolid solarmount_53
