solid FirstFloorV8
facet normal -0.0 -1.0 -0.0
  outer loop
    vertex -287.00113910814855 391.3324634867254 1.7163924539794625e-15
    vertex -292.65094504604906 391.3324634867254 17.000000000000004
    vertex -380.33598275671386 391.3324634867254 1.7163924539794625e-15
  endloop
endfacet
facet normal -0.0 -1.0 -0.0
  outer loop
    vertex -292.65094504604906 391.3324634867254 17.000000000000004
    vertex -287.00113910814855 391.3324634867254 1.7163924539794625e-15
    vertex -287.00113910814855 391.3324634867254 51.0
  endloop
endfacet
facet normal -0.0 -1.0 -0.0
  outer loop
    vertex -380.33598275671386 391.3324634867254 1.7163924539794625e-15
    vertex -292.65094504604906 391.3324634867254 17.000000000000004
    vertex -322.57960244529255 391.3324634867254 17.0
  endloop
endfacet
facet normal -0.0 -1.0 -0.0
  outer loop
    vertex -292.65094504604906 391.3324634867254 17.000000000000004
    vertex -287.00113910814855 391.3324634867254 51.0
    vertex -292.65094504604906 391.3324634867254 45.0
  endloop
endfacet
facet normal -0.0 -1.0 -0.0
  outer loop
    vertex -292.65094504604906 391.3324634867254 45.0
    vertex -287.00113910814855 391.3324634867254 51.0
    vertex -322.57960244529255 391.3324634867254 45.0
  endloop
endfacet
facet normal -0.0 -1.0 -0.0
  outer loop
    vertex -322.57960244529255 391.3324634867254 17.0
    vertex -380.33598275671386 391.3324634867254 51.0
    vertex -380.33598275671386 391.3324634867254 1.7163924539794625e-15
  endloop
endfacet
facet normal -0.0 -1.0 -0.0
  outer loop
    vertex -380.33598275671386 391.3324634867254 51.0
    vertex -322.57960244529255 391.3324634867254 17.0
    vertex -322.57960244529255 391.3324634867254 45.0
  endloop
endfacet
facet normal -0.0 -1.0 -0.0
  outer loop
    vertex -380.33598275671386 391.3324634867254 51.0
    vertex -322.57960244529255 391.3324634867254 45.0
    vertex -287.00113910814855 391.3324634867254 51.0
  endloop
endfacet
facet normal 0.0 1.0 0.0
  outer loop
    vertex -287.00113910814855 353.42902702870424 41.0
    vertex -285.00113910814855 353.42902702870424 1.7163924539794625e-15
    vertex -287.00113910814855 353.42902702870424 1.7163924539794625e-15
  endloop
endfacet
facet normal 0.0 1.0 0.0
  outer loop
    vertex -285.00113910814855 353.42902702870424 1.7163924539794625e-15
    vertex -287.00113910814855 353.42902702870424 41.0
    vertex -285.00113910814855 353.42902702870424 41.0
  endloop
endfacet
facet normal 0.0 0.0 -1.0
  outer loop
    vertex -289.5020110715521 321.6799370723258 41.0
    vertex -304.5020110715521 319.6799370723258 41.0
    vertex -304.5020110715521 321.6799370723258 41.0
  endloop
endfacet
facet normal 0.0 0.0 -1.0
  outer loop
    vertex -304.5020110715521 319.6799370723258 41.0
    vertex -289.5020110715521 321.6799370723258 41.0
    vertex -289.5020110715521 319.6799370723258 41.0
  endloop
endfacet
facet normal -0.0 -1.0 -0.0
  outer loop
    vertex -253.3359827567139 324.6787505795412 51.0
    vertex -285.00113910814855 324.6787505795412 1.7163924539794625e-15
    vertex -253.3359827567139 324.6787505795412 1.7163924539794625e-15
  endloop
endfacet
facet normal -0.0 -1.0 -0.0
  outer loop
    vertex -285.00113910814855 324.6787505795412 1.7163924539794625e-15
    vertex -253.3359827567139 324.6787505795412 51.0
    vertex -285.00113910814855 324.6787505795412 51.0
  endloop
endfacet
facet normal 0.0 0.0 1.0
  outer loop
    vertex -264.70934764668885 391.3324634867254 17.0
    vertex -278.80804350082195 398.98249889823325 17.0
    vertex -278.80804350082195 391.3324634867254 17.0
  endloop
endfacet
facet normal 0.0 0.0 1.0
  outer loop
    vertex -278.80804350082195 398.98249889823325 17.0
    vertex -264.70934764668885 391.3324634867254 17.0
    vertex -264.70934764668885 398.98249889823325 17.0
  endloop
endfacet
facet normal 0.0 0.0 1.0
  outer loop
    vertex -306.907794297126 290.68381850917325 51.0
    vertex -308.907794297126 319.6799370723258 51.0
    vertex -308.907794297126 290.68381850917325 51.0
  endloop
endfacet
facet normal 0.0 0.0 1.0
  outer loop
    vertex -246.09079826314397 290.68381850917325 51.0
    vertex -253.3359827567139 304.5810140887845 51.0
    vertex -253.3359827567139 290.68381850917325 51.0
  endloop
endfacet
facet normal 0.0 0.0 1.0
  outer loop
    vertex -253.3359827567139 304.5810140887845 51.0
    vertex -246.09079826314397 290.68381850917325 51.0
    vertex -253.3359827567139 306.58101408878457 51.0
  endloop
endfacet
facet normal 0.0 0.0 1.0
  outer loop
    vertex -253.3359827567139 306.58101408878457 51.0
    vertex -246.09079826314397 290.68381850917325 51.0
    vertex -253.3359827567139 324.6787505795412 51.0
  endloop
endfacet
facet normal 0.0 0.0 1.0
  outer loop
    vertex -253.3359827567139 324.6787505795412 51.0
    vertex -246.09079826314397 290.68381850917325 51.0
    vertex -253.3359827567139 326.67993707232574 51.0
  endloop
endfacet
facet normal 0.0 0.0 1.0
  outer loop
    vertex -253.3359827567139 326.67993707232574 51.0
    vertex -246.09079826314397 290.68381850917325 51.0
    vertex -253.3359827567139 391.3324634867254 51.0
  endloop
endfacet
facet normal 0.0 0.0 1.0
  outer loop
    vertex -380.33598275671386 290.68381850917325 51.0
    vertex -389.090798263144 398.98249889823325 51.0
    vertex -389.090798263144 290.68381850917325 51.0
  endloop
endfacet
facet normal 0.0 0.0 1.0
  outer loop
    vertex -389.090798263144 398.98249889823325 51.0
    vertex -380.33598275671386 290.68381850917325 51.0
    vertex -380.33598275671386 391.3324634867254 51.0
  endloop
endfacet
facet normal 0.0 0.0 1.0
  outer loop
    vertex -389.090798263144 398.98249889823325 51.0
    vertex -380.33598275671386 391.3324634867254 51.0
    vertex -246.09079826314397 398.98249889823325 51.0
  endloop
endfacet
facet normal 0.0 0.0 1.0
  outer loop
    vertex -380.33598275671386 391.3324634867254 51.0
    vertex -380.33598275671386 290.68381850917325 51.0
    vertex -380.33598275671386 319.6799370723258 51.0
  endloop
endfacet
facet normal 0.0 0.0 1.0
  outer loop
    vertex -380.33598275671386 391.3324634867254 51.0
    vertex -380.33598275671386 319.6799370723258 51.0
    vertex -380.33598275671386 321.6799370723258 51.0
  endloop
endfacet
facet normal 0.0 0.0 1.0
  outer loop
    vertex -246.09079826314397 398.98249889823325 51.0
    vertex -380.33598275671386 391.3324634867254 51.0
    vertex -287.00113910814855 391.3324634867254 51.0
  endloop
endfacet
facet normal 0.0 0.0 1.0
  outer loop
    vertex -246.09079826314397 398.98249889823325 51.0
    vertex -287.00113910814855 391.3324634867254 51.0
    vertex -285.00113910814855 391.3324634867254 51.0
  endloop
endfacet
facet normal 0.0 0.0 1.0
  outer loop
    vertex -285.00113910814855 391.3324634867254 51.0
    vertex -287.00113910814855 391.3324634867254 51.0
    vertex -285.00113910814855 348.6799370723258 51.0
  endloop
endfacet
facet normal 0.0 0.0 1.0
  outer loop
    vertex -246.09079826314397 398.98249889823325 51.0
    vertex -285.00113910814855 391.3324634867254 51.0
    vertex -253.3359827567139 391.3324634867254 51.0
  endloop
endfacet
facet normal 0.0 0.0 1.0
  outer loop
    vertex -246.09079826314397 398.98249889823325 51.0
    vertex -253.3359827567139 391.3324634867254 51.0
    vertex -246.09079826314397 290.68381850917325 51.0
  endloop
endfacet
facet normal 0.0 0.0 1.0
  outer loop
    vertex -285.3359827567139 299.5810140887845 51.0
    vertex -287.3359827567139 319.67875057954126 51.0
    vertex -287.3359827567139 299.5810140887845 51.0
  endloop
endfacet
facet normal 0.0 0.0 1.0
  outer loop
    vertex -287.3359827567139 319.67875057954126 51.0
    vertex -285.3359827567139 299.5810140887845 51.0
    vertex -287.00113910814855 321.6799370723258 51.0
  endloop
endfacet
facet normal 0.0 0.0 1.0
  outer loop
    vertex -287.00113910814855 321.6799370723258 51.0
    vertex -285.3359827567139 299.5810140887845 51.0
    vertex -287.00113910814855 326.67993707232574 51.0
  endloop
endfacet
facet normal 0.0 0.0 1.0
  outer loop
    vertex -287.00113910814855 326.67993707232574 51.0
    vertex -285.3359827567139 299.5810140887845 51.0
    vertex -285.3359827567139 304.5810140887845 51.0
  endloop
endfacet
facet normal 0.0 0.0 1.0
  outer loop
    vertex -287.00113910814855 326.67993707232574 51.0
    vertex -285.3359827567139 304.5810140887845 51.0
    vertex -285.00113910814855 324.6787505795412 51.0
  endloop
endfacet
facet normal 0.0 0.0 1.0
  outer loop
    vertex -287.00113910814855 326.67993707232574 51.0
    vertex -285.00113910814855 324.6787505795412 51.0
    vertex -275.00113910814855 326.67993707232574 51.0
  endloop
endfacet
facet normal 0.0 0.0 1.0
  outer loop
    vertex -285.00113910814855 324.6787505795412 51.0
    vertex -285.3359827567139 304.5810140887845 51.0
    vertex -285.00113910814855 306.58101408878457 51.0
  endloop
endfacet
facet normal 0.0 0.0 1.0
  outer loop
    vertex -275.00113910814855 326.67993707232574 51.0
    vertex -285.00113910814855 324.6787505795412 51.0
    vertex -253.3359827567139 324.6787505795412 51.0
  endloop
endfacet
facet normal 0.0 0.0 1.0
  outer loop
    vertex -275.00113910814855 326.67993707232574 51.0
    vertex -253.3359827567139 324.6787505795412 51.0
    vertex -273.00113910814855 326.67993707232574 51.0
  endloop
endfacet
facet normal 0.0 0.0 1.0
  outer loop
    vertex -275.00113910814855 326.67993707232574 51.0
    vertex -273.00113910814855 326.67993707232574 51.0
    vertex -275.00113910814855 346.6799370723258 51.0
  endloop
endfacet
facet normal 0.0 0.0 1.0
  outer loop
    vertex -273.00113910814855 326.67993707232574 51.0
    vertex -253.3359827567139 324.6787505795412 51.0
    vertex -253.3359827567139 326.67993707232574 51.0
  endloop
endfacet
facet normal 0.0 0.0 1.0
  outer loop
    vertex -253.3359827567139 304.5810140887845 51.0
    vertex -285.00113910814855 306.58101408878457 51.0
    vertex -285.3359827567139 304.5810140887845 51.0
  endloop
endfacet
facet normal 0.0 0.0 1.0
  outer loop
    vertex -285.00113910814855 306.58101408878457 51.0
    vertex -253.3359827567139 304.5810140887845 51.0
    vertex -253.3359827567139 306.58101408878457 51.0
  endloop
endfacet
facet normal 0.0 0.0 1.0
  outer loop
    vertex -287.00113910814855 346.6799370723258 51.0
    vertex -285.00113910814855 348.6799370723258 51.0
    vertex -287.00113910814855 391.3324634867254 51.0
  endloop
endfacet
facet normal 0.0 0.0 1.0
  outer loop
    vertex -285.00113910814855 348.6799370723258 51.0
    vertex -287.00113910814855 346.6799370723258 51.0
    vertex -275.00113910814855 346.6799370723258 51.0
  endloop
endfacet
facet normal 0.0 0.0 1.0
  outer loop
    vertex -285.00113910814855 348.6799370723258 51.0
    vertex -275.00113910814855 346.6799370723258 51.0
    vertex -273.00113910814855 348.6799370723258 51.0
  endloop
endfacet
facet normal 0.0 0.0 1.0
  outer loop
    vertex -273.00113910814855 348.6799370723258 51.0
    vertex -275.00113910814855 346.6799370723258 51.0
    vertex -273.00113910814855 326.67993707232574 51.0
  endloop
endfacet
facet normal 0.0 0.0 1.0
  outer loop
    vertex -308.907794297126 319.6799370723258 51.0
    vertex -380.33598275671386 321.6799370723258 51.0
    vertex -380.33598275671386 319.6799370723258 51.0
  endloop
endfacet
facet normal 0.0 0.0 1.0
  outer loop
    vertex -380.33598275671386 321.6799370723258 51.0
    vertex -308.907794297126 319.6799370723258 51.0
    vertex -287.00113910814855 321.6799370723258 51.0
  endloop
endfacet
facet normal 0.0 0.0 1.0
  outer loop
    vertex -287.00113910814855 321.6799370723258 51.0
    vertex -308.907794297126 319.6799370723258 51.0
    vertex -306.907794297126 319.6799370723258 51.0
  endloop
endfacet
facet normal 0.0 0.0 1.0
  outer loop
    vertex -306.907794297126 319.6799370723258 51.0
    vertex -308.907794297126 319.6799370723258 51.0
    vertex -306.907794297126 290.68381850917325 51.0
  endloop
endfacet
facet normal 0.0 0.0 1.0
  outer loop
    vertex -287.00113910814855 321.6799370723258 51.0
    vertex -306.907794297126 319.6799370723258 51.0
    vertex -287.3359827567139 319.67875057954126 51.0
  endloop
endfacet
facet normal 1.0 0.0 0.0
  outer loop
    vertex -285.3359827567139 304.5810140887845 1.5187119827495183e-15
    vertex -285.3359827567139 299.5810140887845 51.0
    vertex -285.3359827567139 299.5810140887845 1.5187119827495183e-15
  endloop
endfacet
facet normal 1.0 0.0 0.0
  outer loop
    vertex -285.3359827567139 299.5810140887845 51.0
    vertex -285.3359827567139 304.5810140887845 1.5187119827495183e-15
    vertex -285.3359827567139 304.5810140887845 51.0
  endloop
endfacet
facet normal -1.0 0.0 0.0
  outer loop
    vertex -287.00113910814855 346.6799370723258 51.0
    vertex -287.00113910814855 353.42902702870424 41.0
    vertex -287.00113910814855 346.6799370723258 1.7163924539794625e-15
  endloop
endfacet
facet normal -1.0 0.0 0.0
  outer loop
    vertex -287.00113910814855 353.42902702870424 41.0
    vertex -287.00113910814855 346.6799370723258 51.0
    vertex -287.00113910814855 391.3324634867254 51.0
  endloop
endfacet
facet normal -1.0 0.0 0.0
  outer loop
    vertex -287.00113910814855 353.42902702870424 41.0
    vertex -287.00113910814855 391.3324634867254 51.0
    vertex -287.00113910814855 368.4290270287042 41.0
  endloop
endfacet
facet normal -1.0 0.0 0.0
  outer loop
    vertex -287.00113910814855 368.4290270287042 41.0
    vertex -287.00113910814855 391.3324634867254 51.0
    vertex -287.00113910814855 368.4290270287042 1.7163924539794625e-15
  endloop
endfacet
facet normal -1.0 0.0 0.0
  outer loop
    vertex -287.00113910814855 368.4290270287042 1.7163924539794625e-15
    vertex -287.00113910814855 391.3324634867254 51.0
    vertex -287.00113910814855 391.3324634867254 1.7163924539794625e-15
  endloop
endfacet
facet normal -1.0 0.0 0.0
  outer loop
    vertex -287.00113910814855 353.42902702870424 1.7163924539794625e-15
    vertex -287.00113910814855 346.6799370723258 1.7163924539794625e-15
    vertex -287.00113910814855 353.42902702870424 41.0
  endloop
endfacet
facet normal 0.0 -1.0 0.0
  outer loop
    vertex -306.907794297126 290.68381850917325 1.2365047676102796e-15
    vertex -308.907794297126 290.68381850917325 51.0
    vertex -308.907794297126 290.68381850917325 1.2064132716089516e-15
  endloop
endfacet
facet normal 0.0 -1.0 0.0
  outer loop
    vertex -308.907794297126 290.68381850917325 51.0
    vertex -306.907794297126 290.68381850917325 1.2365047676102796e-15
    vertex -306.907794297126 290.68381850917325 51.0
  endloop
endfacet
facet normal -1.0 -0.0 -0.0
  outer loop
    vertex -292.65094504604906 398.98249889823325 45.0
    vertex -292.65094504604906 391.3324634867254 17.000000000000004
    vertex -292.65094504604906 391.3324634867254 45.0
  endloop
endfacet
facet normal -1.0 -0.0 -0.0
  outer loop
    vertex -292.65094504604906 391.3324634867254 17.000000000000004
    vertex -292.65094504604906 398.98249889823325 45.0
    vertex -292.65094504604906 398.98249889823325 17.000000000000004
  endloop
endfacet
facet normal 0.0 0.0010949451538328305 0.9999994005473755
  outer loop
    vertex -389.090798263144 290.68381850917325 47.9570618049605
    vertex -399.090798263144 356.56689366322865 47.884923407857414
    vertex -399.090798263144 290.68381850917325 47.9570618049605
  endloop
endfacet
facet normal 0.0 0.0010949451538328305 0.9999994005473755
  outer loop
    vertex -399.090798263144 356.56689366322865 47.884923407857414
    vertex -389.090798263144 290.68381850917325 47.9570618049605
    vertex -389.090798263144 356.56689366322865 47.884923407857414
  endloop
endfacet
facet normal 0.0 -4.280259347266238e-17 -1.0
  outer loop
    vertex -389.090798263144 356.56689366322865 12.884923407857421
    vertex -399.090798263144 290.68381850917325 12.884923407857425
    vertex -399.090798263144 356.56689366322865 12.884923407857421
  endloop
endfacet
facet normal 0.0 -4.280259347266238e-17 -1.0
  outer loop
    vertex -399.090798263144 290.68381850917325 12.884923407857425
    vertex -389.090798263144 356.56689366322865 12.884923407857421
    vertex -389.090798263144 290.68381850917325 12.884923407857425
  endloop
endfacet
facet normal -1.0 0.0 0.0
  outer loop
    vertex -253.3359827567139 391.3324634867254 51.0
    vertex -253.3359827567139 326.67993707232574 1.7163924539794625e-15
    vertex -253.3359827567139 326.67993707232574 51.0
  endloop
endfacet
facet normal -1.0 0.0 0.0
  outer loop
    vertex -253.3359827567139 326.67993707232574 1.7163924539794625e-15
    vertex -253.3359827567139 391.3324634867254 51.0
    vertex -253.3359827567139 391.3324634867254 1.7163924539794625e-15
  endloop
endfacet
facet normal -1.0 0.0 0.0
  outer loop
    vertex -287.00113910814855 326.67993707232574 51.0
    vertex -287.00113910814855 321.6799370723258 1.7163924539794625e-15
    vertex -287.00113910814855 321.6799370723258 51.0
  endloop
endfacet
facet normal -1.0 0.0 0.0
  outer loop
    vertex -287.00113910814855 321.6799370723258 1.7163924539794625e-15
    vertex -287.00113910814855 326.67993707232574 51.0
    vertex -287.00113910814855 326.67993707232574 1.7163924539794625e-15
  endloop
endfacet
facet normal 4.5162518748758166e-18 4.398396544387951e-18 -1.0
  outer loop
    vertex -285.00113910814855 353.42902702870424 1.7163924539794625e-15
    vertex -287.00113910814855 346.6799370723258 1.7163924539794625e-15
    vertex -287.00113910814855 353.42902702870424 1.7163924539794625e-15
  endloop
endfacet
facet normal 4.5162518748758166e-18 4.398396544387951e-18 -1.0
  outer loop
    vertex -287.00113910814855 346.6799370723258 1.7163924539794625e-15
    vertex -285.00113910814855 353.42902702870424 1.7163924539794625e-15
    vertex -285.00113910814855 348.6799370723258 1.7163924539794625e-15
  endloop
endfacet
facet normal 4.5162518748758166e-18 4.398396544387951e-18 -1.0
  outer loop
    vertex -287.00113910814855 346.6799370723258 1.7163924539794625e-15
    vertex -285.00113910814855 348.6799370723258 1.7163924539794625e-15
    vertex -275.00113910814855 346.6799370723258 1.7163924539794625e-15
  endloop
endfacet
facet normal 4.5162518748758166e-18 4.398396544387951e-18 -1.0
  outer loop
    vertex -275.00113910814855 346.6799370723258 1.7163924539794625e-15
    vertex -285.00113910814855 348.6799370723258 1.7163924539794625e-15
    vertex -273.00113910814855 348.6799370723258 1.7163924539794625e-15
  endloop
endfacet
facet normal 4.5162518748758166e-18 4.398396544387951e-18 -1.0
  outer loop
    vertex -275.00113910814855 346.6799370723258 1.7163924539794625e-15
    vertex -273.00113910814855 348.6799370723258 1.7163924539794625e-15
    vertex -275.00113910814855 326.67993707232574 1.7163924539794625e-15
  endloop
endfacet
facet normal 4.5162518748758166e-18 4.398396544387951e-18 -1.0
  outer loop
    vertex -389.090798263144 398.98249889823325 1.7163924539794625e-15
    vertex -380.33598275671386 391.3324634867254 1.7163924539794625e-15
    vertex -389.090798263144 290.68381850917325 0.0
  endloop
endfacet
facet normal 4.5162518748758166e-18 4.398396544387951e-18 -1.0
  outer loop
    vertex -380.33598275671386 391.3324634867254 1.7163924539794625e-15
    vertex -389.090798263144 398.98249889823325 1.7163924539794625e-15
    vertex -246.09079826314397 398.98249889823325 1.7163924539794625e-15
  endloop
endfacet
facet normal 4.5162518748758166e-18 4.398396544387951e-18 -1.0
  outer loop
    vertex -380.33598275671386 391.3324634867254 1.7163924539794625e-15
    vertex -246.09079826314397 398.98249889823325 1.7163924539794625e-15
    vertex -287.00113910814855 391.3324634867254 1.7163924539794625e-15
  endloop
endfacet
facet normal 4.5162518748758166e-18 4.398396544387951e-18 -1.0
  outer loop
    vertex -287.00113910814855 391.3324634867254 1.7163924539794625e-15
    vertex -246.09079826314397 398.98249889823325 1.7163924539794625e-15
    vertex -285.00113910814855 391.3324634867254 1.7163924539794625e-15
  endloop
endfacet
facet normal 4.5162518748758166e-18 4.398396544387951e-18 -1.0
  outer loop
    vertex -287.00113910814855 391.3324634867254 1.7163924539794625e-15
    vertex -285.00113910814855 391.3324634867254 1.7163924539794625e-15
    vertex -287.00113910814855 368.4290270287042 1.7163924539794625e-15
  endloop
endfacet
facet normal 4.5162518748758166e-18 4.398396544387951e-18 -1.0
  outer loop
    vertex -285.00113910814855 391.3324634867254 1.7163924539794625e-15
    vertex -246.09079826314397 398.98249889823325 1.7163924539794625e-15
    vertex -253.3359827567139 391.3324634867254 1.7163924539794625e-15
  endloop
endfacet
facet normal 4.5162518748758166e-18 4.398396544387951e-18 -1.0
  outer loop
    vertex -253.3359827567139 391.3324634867254 1.7163924539794625e-15
    vertex -246.09079826314397 398.98249889823325 1.7163924539794625e-15
    vertex -253.3359827567139 326.67993707232574 1.7163924539794625e-15
  endloop
endfacet
facet normal 4.5162518748758166e-18 4.398396544387951e-18 -1.0
  outer loop
    vertex -253.3359827567139 326.67993707232574 1.7163924539794625e-15
    vertex -246.09079826314397 398.98249889823325 1.7163924539794625e-15
    vertex -253.3359827567139 324.6787505795412 1.7163924539794625e-15
  endloop
endfacet
facet normal 4.5162518748758166e-18 4.398396544387951e-18 -1.0
  outer loop
    vertex -253.3359827567139 324.6787505795412 1.7163924539794625e-15
    vertex -246.09079826314397 398.98249889823325 1.7163924539794625e-15
    vertex -253.3359827567139 306.58101408878457 1.7163924539794625e-15
  endloop
endfacet
facet normal 4.5162518748758166e-18 4.398396544387951e-18 -1.0
  outer loop
    vertex -253.3359827567139 306.58101408878457 1.7163924539794625e-15
    vertex -246.09079826314397 398.98249889823325 1.7163924539794625e-15
    vertex -253.3359827567139 304.5810140887845 1.7163924539794625e-15
  endloop
endfacet
facet normal 4.5162518748758166e-18 4.398396544387951e-18 -1.0
  outer loop
    vertex -253.3359827567139 304.5810140887845 1.7163924539794625e-15
    vertex -246.09079826314397 398.98249889823325 1.7163924539794625e-15
    vertex -253.3359827567139 296.3540357222054 1.7163924539794625e-15
  endloop
endfacet
facet normal 4.5162518748758166e-18 4.398396544387951e-18 -1.0
  outer loop
    vertex -253.3359827567139 296.3540357222054 1.7163924539794625e-15
    vertex -246.09079826314397 398.98249889823325 1.7163924539794625e-15
    vertex -246.09079826314397 296.3540357222054 1.7163924539794625e-15
  endloop
endfacet
facet normal 4.5162518748758166e-18 4.398396544387951e-18 -1.0
  outer loop
    vertex -285.3359827567139 304.5810140887845 1.5187119827495183e-15
    vertex -285.00113910814855 306.58101408878457 1.5187119827495183e-15
    vertex -253.3359827567139 304.5810140887845 1.7163924539794625e-15
  endloop
endfacet
facet normal 4.5162518748758166e-18 4.398396544387951e-18 -1.0
  outer loop
    vertex -285.00113910814855 306.58101408878457 1.5187119827495183e-15
    vertex -285.3359827567139 304.5810140887845 1.5187119827495183e-15
    vertex -285.00113910814855 324.6787505795412 1.7163924539794625e-15
  endloop
endfacet
facet normal 4.5162518748758166e-18 4.398396544387951e-18 -1.0
  outer loop
    vertex -253.3359827567139 304.5810140887845 1.7163924539794625e-15
    vertex -285.00113910814855 306.58101408878457 1.5187119827495183e-15
    vertex -253.3359827567139 306.58101408878457 1.7163924539794625e-15
  endloop
endfacet
facet normal 4.5162518748758166e-18 4.398396544387951e-18 -1.0
  outer loop
    vertex -287.00113910814855 326.67993707232574 1.7163924539794625e-15
    vertex -285.00113910814855 324.6787505795412 1.7163924539794625e-15
    vertex -287.00113910814855 321.6799370723258 1.7163924539794625e-15
  endloop
endfacet
facet normal 4.5162518748758166e-18 4.398396544387951e-18 -1.0
  outer loop
    vertex -285.00113910814855 324.6787505795412 1.7163924539794625e-15
    vertex -287.00113910814855 326.67993707232574 1.7163924539794625e-15
    vertex -275.00113910814855 326.67993707232574 1.7163924539794625e-15
  endloop
endfacet
facet normal 4.5162518748758166e-18 4.398396544387951e-18 -1.0
  outer loop
    vertex -287.00113910814855 321.6799370723258 1.7163924539794625e-15
    vertex -285.00113910814855 324.6787505795412 1.7163924539794625e-15
    vertex -285.3359827567139 304.5810140887845 1.5187119827495183e-15
  endloop
endfacet
facet normal 4.5162518748758166e-18 4.398396544387951e-18 -1.0
  outer loop
    vertex -285.00113910814855 324.6787505795412 1.7163924539794625e-15
    vertex -275.00113910814855 326.67993707232574 1.7163924539794625e-15
    vertex -253.3359827567139 324.6787505795412 1.7163924539794625e-15
  endloop
endfacet
facet normal 4.5162518748758166e-18 4.398396544387951e-18 -1.0
  outer loop
    vertex -253.3359827567139 324.6787505795412 1.7163924539794625e-15
    vertex -275.00113910814855 326.67993707232574 1.7163924539794625e-15
    vertex -273.00113910814855 326.67993707232574 1.7163924539794625e-15
  endloop
endfacet
facet normal 4.5162518748758166e-18 4.398396544387951e-18 -1.0
  outer loop
    vertex -273.00113910814855 326.67993707232574 1.7163924539794625e-15
    vertex -275.00113910814855 326.67993707232574 1.7163924539794625e-15
    vertex -273.00113910814855 348.6799370723258 1.7163924539794625e-15
  endloop
endfacet
facet normal 4.5162518748758166e-18 4.398396544387951e-18 -1.0
  outer loop
    vertex -253.3359827567139 324.6787505795412 1.7163924539794625e-15
    vertex -273.00113910814855 326.67993707232574 1.7163924539794625e-15
    vertex -253.3359827567139 326.67993707232574 1.7163924539794625e-15
  endloop
endfacet
facet normal 4.5162518748758166e-18 4.398396544387951e-18 -1.0
  outer loop
    vertex -285.00113910814855 368.4290270287042 1.7163924539794625e-15
    vertex -287.00113910814855 368.4290270287042 1.7163924539794625e-15
    vertex -285.00113910814855 391.3324634867254 1.7163924539794625e-15
  endloop
endfacet
facet normal 4.5162518748758166e-18 4.398396544387951e-18 -1.0
  outer loop
    vertex -287.00113910814855 321.6799370723258 1.7163924539794625e-15
    vertex -289.5020110715521 319.6799370723258 1.7163924539794625e-15
    vertex -289.5020110715521 321.6799370723258 1.7163924539794625e-15
  endloop
endfacet
facet normal 4.5162518748758166e-18 4.398396544387951e-18 -1.0
  outer loop
    vertex -289.5020110715521 319.6799370723258 1.7163924539794625e-15
    vertex -287.00113910814855 321.6799370723258 1.7163924539794625e-15
    vertex -287.3359827567139 319.67875057954126 1.7163924539794625e-15
  endloop
endfacet
facet normal 4.5162518748758166e-18 4.398396544387951e-18 -1.0
  outer loop
    vertex -287.3359827567139 319.67875057954126 1.7163924539794625e-15
    vertex -287.00113910814855 321.6799370723258 1.7163924539794625e-15
    vertex -287.3359827567139 299.5810140887845 1.7163924539794625e-15
  endloop
endfacet
facet normal 4.5162518748758166e-18 4.398396544387951e-18 -1.0
  outer loop
    vertex -287.3359827567139 299.5810140887845 1.7163924539794625e-15
    vertex -287.00113910814855 321.6799370723258 1.7163924539794625e-15
    vertex -285.3359827567139 299.5810140887845 1.5187119827495183e-15
  endloop
endfacet
facet normal 4.5162518748758166e-18 4.398396544387951e-18 -1.0
  outer loop
    vertex -285.3359827567139 299.5810140887845 1.5187119827495183e-15
    vertex -287.00113910814855 321.6799370723258 1.7163924539794625e-15
    vertex -285.3359827567139 304.5810140887845 1.5187119827495183e-15
  endloop
endfacet
facet normal 4.5162518748758166e-18 4.398396544387951e-18 -1.0
  outer loop
    vertex -306.907794297126 290.68381850917325 1.2365047676102796e-15
    vertex -308.907794297126 290.68381850917325 1.2064132716089516e-15
    vertex -306.907794297126 319.6799370723258 1.7163924539794625e-15
  endloop
endfacet
facet normal 4.5162518748758166e-18 4.398396544387951e-18 -1.0
  outer loop
    vertex -304.5020110715521 321.6799370723258 1.7163924539794625e-15
    vertex -380.33598275671386 319.6799370723258 1.7163924539794625e-15
    vertex -380.33598275671386 321.6799370723258 1.7163924539794625e-15
  endloop
endfacet
facet normal 4.5162518748758166e-18 4.398396544387951e-18 -1.0
  outer loop
    vertex -380.33598275671386 319.6799370723258 1.7163924539794625e-15
    vertex -304.5020110715521 321.6799370723258 1.7163924539794625e-15
    vertex -308.907794297126 319.6799370723258 1.7163924539794625e-15
  endloop
endfacet
facet normal 4.5162518748758166e-18 4.398396544387951e-18 -1.0
  outer loop
    vertex -308.907794297126 319.6799370723258 1.7163924539794625e-15
    vertex -304.5020110715521 321.6799370723258 1.7163924539794625e-15
    vertex -306.907794297126 319.6799370723258 1.7163924539794625e-15
  endloop
endfacet
facet normal 4.5162518748758166e-18 4.398396544387951e-18 -1.0
  outer loop
    vertex -308.907794297126 319.6799370723258 1.7163924539794625e-15
    vertex -306.907794297126 319.6799370723258 1.7163924539794625e-15
    vertex -308.907794297126 290.68381850917325 1.2064132716089516e-15
  endloop
endfacet
facet normal 4.5162518748758166e-18 4.398396544387951e-18 -1.0
  outer loop
    vertex -306.907794297126 319.6799370723258 1.7163924539794625e-15
    vertex -304.5020110715521 321.6799370723258 1.7163924539794625e-15
    vertex -304.5020110715521 319.6799370723258 1.7163924539794625e-15
  endloop
endfacet
facet normal 4.5162518748758166e-18 4.398396544387951e-18 -1.0
  outer loop
    vertex -380.33598275671386 391.3324634867254 1.7163924539794625e-15
    vertex -380.33598275671386 290.68381850917325 1.3172274790205284e-16
    vertex -389.090798263144 290.68381850917325 0.0
  endloop
endfacet
facet normal 4.5162518748758166e-18 4.398396544387951e-18 -1.0
  outer loop
    vertex -380.33598275671386 290.68381850917325 1.3172274790205284e-16
    vertex -380.33598275671386 391.3324634867254 1.7163924539794625e-15
    vertex -380.33598275671386 321.6799370723258 1.7163924539794625e-15
  endloop
endfacet
facet normal 4.5162518748758166e-18 4.398396544387951e-18 -1.0
  outer loop
    vertex -380.33598275671386 290.68381850917325 1.3172274790205284e-16
    vertex -380.33598275671386 321.6799370723258 1.7163924539794625e-15
    vertex -380.33598275671386 319.6799370723258 1.7163924539794625e-15
  endloop
endfacet
facet normal 0.0 1.0 0.0
  outer loop
    vertex -273.00113910814855 326.67993707232574 51.0
    vertex -253.3359827567139 326.67993707232574 1.7163924539794625e-15
    vertex -273.00113910814855 326.67993707232574 1.7163924539794625e-15
  endloop
endfacet
facet normal 0.0 1.0 0.0
  outer loop
    vertex -253.3359827567139 326.67993707232574 1.7163924539794625e-15
    vertex -273.00113910814855 326.67993707232574 51.0
    vertex -253.3359827567139 326.67993707232574 51.0
  endloop
endfacet
facet normal 1.0 0.0 0.0
  outer loop
    vertex -278.80804350082195 398.98249889823325 17.0
    vertex -278.80804350082195 391.3324634867254 45.0
    vertex -278.80804350082195 391.3324634867254 17.0
  endloop
endfacet
facet normal 1.0 0.0 0.0
  outer loop
    vertex -278.80804350082195 391.3324634867254 45.0
    vertex -278.80804350082195 398.98249889823325 17.0
    vertex -278.80804350082195 398.98249889823325 45.0
  endloop
endfacet
facet normal 0.0 -1.0 0.0
  outer loop
    vertex -246.09079826314397 290.68381850917325 51.0
    vertex -253.3359827567139 290.68381850917325 36.0
    vertex -246.09079826314397 290.68381850917325 36.0
  endloop
endfacet
facet normal 0.0 -1.0 0.0
  outer loop
    vertex -253.3359827567139 290.68381850917325 36.0
    vertex -246.09079826314397 290.68381850917325 51.0
    vertex -253.3359827567139 290.68381850917325 51.0
  endloop
endfacet
facet normal 0.0 -1.0 0.0
  outer loop
    vertex -246.09079826314397 296.3540357222054 36.0
    vertex -253.3359827567139 296.3540357222054 1.7163924539794625e-15
    vertex -246.09079826314397 296.3540357222054 1.7163924539794625e-15
  endloop
endfacet
facet normal 0.0 -1.0 0.0
  outer loop
    vertex -253.3359827567139 296.3540357222054 1.7163924539794625e-15
    vertex -246.09079826314397 296.3540357222054 36.0
    vertex -253.3359827567139 296.3540357222054 36.0
  endloop
endfacet
facet normal -1.0 0.0 0.0
  outer loop
    vertex -253.3359827567139 324.6787505795412 51.0
    vertex -253.3359827567139 306.58101408878457 1.7163924539794625e-15
    vertex -253.3359827567139 306.58101408878457 51.0
  endloop
endfacet
facet normal -1.0 0.0 0.0
  outer loop
    vertex -253.3359827567139 306.58101408878457 1.7163924539794625e-15
    vertex -253.3359827567139 324.6787505795412 51.0
    vertex -253.3359827567139 324.6787505795412 1.7163924539794625e-15
  endloop
endfacet
facet normal 0.0 1.0 0.0
  outer loop
    vertex -285.00113910814855 306.58101408878457 51.0
    vertex -253.3359827567139 306.58101408878457 1.7163924539794625e-15
    vertex -285.00113910814855 306.58101408878457 1.5187119827495183e-15
  endloop
endfacet
facet normal 0.0 1.0 0.0
  outer loop
    vertex -253.3359827567139 306.58101408878457 1.7163924539794625e-15
    vertex -285.00113910814855 306.58101408878457 51.0
    vertex -253.3359827567139 306.58101408878457 51.0
  endloop
endfacet
facet normal 0.0 0.0 -1.0
  outer loop
    vertex -246.09079826314397 296.3540357222054 36.0
    vertex -253.3359827567139 290.68381850917325 36.0
    vertex -253.3359827567139 296.3540357222054 36.0
  endloop
endfacet
facet normal 0.0 0.0 -1.0
  outer loop
    vertex -253.3359827567139 290.68381850917325 36.0
    vertex -246.09079826314397 296.3540357222054 36.0
    vertex -246.09079826314397 290.68381850917325 36.0
  endloop
endfacet
facet normal 0.0 0.0 -1.0
  outer loop
    vertex -292.65094504604906 398.98249889823325 45.0
    vertex -322.57960244529255 391.3324634867254 45.0
    vertex -322.57960244529255 398.98249889823325 45.0
  endloop
endfacet
facet normal 0.0 0.0 -1.0
  outer loop
    vertex -322.57960244529255 391.3324634867254 45.0
    vertex -292.65094504604906 398.98249889823325 45.0
    vertex -292.65094504604906 391.3324634867254 45.0
  endloop
endfacet
facet normal 7.701012907278089e-17 8.81126584283321e-17 -1.0
  outer loop
    vertex -389.090798263144 290.68381850917325 42.999999999999986
    vertex -399.090798263144 290.68381850917325 42.999999999999986
    vertex -389.090798263144 322.436106596062 42.99999999999999
  endloop
endfacet
facet normal 7.701012907278089e-17 8.81126584283321e-17 -1.0
  outer loop
    vertex -380.33598275671386 351.56689366322865 42.99999999999999
    vertex -399.090798263144 290.68381850917325 42.999999999999986
    vertex -399.090798263144 351.56689366322865 42.99999999999999
  endloop
endfacet
facet normal 7.701012907278089e-17 8.81126584283321e-17 -1.0
  outer loop
    vertex -399.090798263144 290.68381850917325 42.999999999999986
    vertex -380.33598275671386 351.56689366322865 42.99999999999999
    vertex -389.090798263144 322.436106596062 42.99999999999999
  endloop
endfacet
facet normal 7.701012907278089e-17 8.81126584283321e-17 -1.0
  outer loop
    vertex -389.090798263144 322.436106596062 42.99999999999999
    vertex -380.33598275671386 351.56689366322865 42.99999999999999
    vertex -380.33598275671386 322.436106596062 42.99999999999999
  endloop
endfacet
facet normal -4.67152732880263e-05 -0.9999999988916071 -5.871044114573937e-06
  outer loop
    vertex -287.3359827567139 319.67875057954126 51.0
    vertex -289.5020110715521 319.6799370723258 1.7163924539794625e-15
    vertex -287.3359827567139 319.67875057954126 1.7163924539794625e-15
  endloop
endfacet
facet normal -4.67152732880263e-05 -0.9999999988916071 -5.871044114573937e-06
  outer loop
    vertex -289.5020110715521 319.6799370723258 1.7163924539794625e-15
    vertex -287.3359827567139 319.67875057954126 51.0
    vertex -289.5020110715521 319.6799370723258 41.0
  endloop
endfacet
facet normal -4.67152732880263e-05 -0.9999999988916071 -5.871044114573937e-06
  outer loop
    vertex -289.5020110715521 319.6799370723258 41.0
    vertex -287.3359827567139 319.67875057954126 51.0
    vertex -304.5020110715521 319.6799370723258 41.0
  endloop
endfacet
facet normal -4.67152732880263e-05 -0.9999999988916071 -5.871044114573937e-06
  outer loop
    vertex -304.5020110715521 319.6799370723258 41.0
    vertex -306.907794297126 319.6799370723258 1.7163924539794625e-15
    vertex -304.5020110715521 319.6799370723258 1.7163924539794625e-15
  endloop
endfacet
facet normal -4.67152732880263e-05 -0.9999999988916071 -5.871044114573937e-06
  outer loop
    vertex -306.907794297126 319.6799370723258 1.7163924539794625e-15
    vertex -304.5020110715521 319.6799370723258 41.0
    vertex -306.907794297126 319.6799370723258 51.0
  endloop
endfacet
facet normal -4.67152732880263e-05 -0.9999999988916071 -5.871044114573937e-06
  outer loop
    vertex -306.907794297126 319.6799370723258 51.0
    vertex -304.5020110715521 319.6799370723258 41.0
    vertex -287.3359827567139 319.67875057954126 51.0
  endloop
endfacet
facet normal -0.0 -1.0 -0.0
  outer loop
    vertex -253.3359827567139 391.3324634867254 1.7163924539794625e-15
    vertex -264.70934764668885 391.3324634867254 17.0
    vertex -285.00113910814855 391.3324634867254 1.7163924539794625e-15
  endloop
endfacet
facet normal -0.0 -1.0 -0.0
  outer loop
    vertex -264.70934764668885 391.3324634867254 17.0
    vertex -253.3359827567139 391.3324634867254 1.7163924539794625e-15
    vertex -253.3359827567139 391.3324634867254 51.0
  endloop
endfacet
facet normal -0.0 -1.0 -0.0
  outer loop
    vertex -264.70934764668885 391.3324634867254 17.0
    vertex -253.3359827567139 391.3324634867254 51.0
    vertex -264.70934764668885 391.3324634867254 45.0
  endloop
endfacet
facet normal -0.0 -1.0 -0.0
  outer loop
    vertex -264.70934764668885 391.3324634867254 45.0
    vertex -253.3359827567139 391.3324634867254 51.0
    vertex -278.80804350082195 391.3324634867254 45.0
  endloop
endfacet
facet normal -0.0 -1.0 -0.0
  outer loop
    vertex -285.00113910814855 391.3324634867254 1.7163924539794625e-15
    vertex -278.80804350082195 391.3324634867254 17.0
    vertex -285.00113910814855 391.3324634867254 51.0
  endloop
endfacet
facet normal -0.0 -1.0 -0.0
  outer loop
    vertex -278.80804350082195 391.3324634867254 17.0
    vertex -285.00113910814855 391.3324634867254 1.7163924539794625e-15
    vertex -264.70934764668885 391.3324634867254 17.0
  endloop
endfacet
facet normal -0.0 -1.0 -0.0
  outer loop
    vertex -285.00113910814855 391.3324634867254 51.0
    vertex -278.80804350082195 391.3324634867254 17.0
    vertex -278.80804350082195 391.3324634867254 45.0
  endloop
endfacet
facet normal -0.0 -1.0 -0.0
  outer loop
    vertex -285.00113910814855 391.3324634867254 51.0
    vertex -278.80804350082195 391.3324634867254 45.0
    vertex -253.3359827567139 391.3324634867254 51.0
  endloop
endfacet
facet normal 0.0 1.0 0.0
  outer loop
    vertex -389.090798263144 398.98249889823325 1.7163924539794625e-15
    vertex -322.57960244529255 398.98249889823325 17.0
    vertex -246.09079826314397 398.98249889823325 1.7163924539794625e-15
  endloop
endfacet
facet normal 0.0 1.0 0.0
  outer loop
    vertex -322.57960244529255 398.98249889823325 17.0
    vertex -389.090798263144 398.98249889823325 1.7163924539794625e-15
    vertex -389.090798263144 398.98249889823325 51.0
  endloop
endfacet
facet normal 0.0 1.0 0.0
  outer loop
    vertex -322.57960244529255 398.98249889823325 17.0
    vertex -389.090798263144 398.98249889823325 51.0
    vertex -322.57960244529255 398.98249889823325 45.0
  endloop
endfacet
facet normal 0.0 1.0 0.0
  outer loop
    vertex -322.57960244529255 398.98249889823325 45.0
    vertex -389.090798263144 398.98249889823325 51.0
    vertex -292.65094504604906 398.98249889823325 45.0
  endloop
endfacet
facet normal 0.0 1.0 0.0
  outer loop
    vertex -292.65094504604906 398.98249889823325 45.0
    vertex -389.090798263144 398.98249889823325 51.0
    vertex -278.80804350082195 398.98249889823325 45.0
  endloop
endfacet
facet normal 0.0 1.0 0.0
  outer loop
    vertex -278.80804350082195 398.98249889823325 45.0
    vertex -389.090798263144 398.98249889823325 51.0
    vertex -264.70934764668885 398.98249889823325 45.0
  endloop
endfacet
facet normal 0.0 1.0 0.0
  outer loop
    vertex -246.09079826314397 398.98249889823325 1.7163924539794625e-15
    vertex -264.70934764668885 398.98249889823325 17.0
    vertex -246.09079826314397 398.98249889823325 51.0
  endloop
endfacet
facet normal 0.0 1.0 0.0
  outer loop
    vertex -264.70934764668885 398.98249889823325 17.0
    vertex -246.09079826314397 398.98249889823325 1.7163924539794625e-15
    vertex -322.57960244529255 398.98249889823325 17.0
  endloop
endfacet
facet normal 0.0 1.0 0.0
  outer loop
    vertex -264.70934764668885 398.98249889823325 17.0
    vertex -322.57960244529255 398.98249889823325 17.0
    vertex -278.80804350082195 398.98249889823325 17.0
  endloop
endfacet
facet normal 0.0 1.0 0.0
  outer loop
    vertex -246.09079826314397 398.98249889823325 51.0
    vertex -264.70934764668885 398.98249889823325 17.0
    vertex -264.70934764668885 398.98249889823325 45.0
  endloop
endfacet
facet normal 0.0 1.0 0.0
  outer loop
    vertex -246.09079826314397 398.98249889823325 51.0
    vertex -264.70934764668885 398.98249889823325 45.0
    vertex -389.090798263144 398.98249889823325 51.0
  endloop
endfacet
facet normal 0.0 1.0 0.0
  outer loop
    vertex -292.65094504604906 398.98249889823325 17.000000000000004
    vertex -278.80804350082195 398.98249889823325 17.0
    vertex -322.57960244529255 398.98249889823325 17.0
  endloop
endfacet
facet normal 0.0 1.0 0.0
  outer loop
    vertex -278.80804350082195 398.98249889823325 17.0
    vertex -292.65094504604906 398.98249889823325 17.000000000000004
    vertex -278.80804350082195 398.98249889823325 45.0
  endloop
endfacet
facet normal 0.0 1.0 0.0
  outer loop
    vertex -278.80804350082195 398.98249889823325 45.0
    vertex -292.65094504604906 398.98249889823325 17.000000000000004
    vertex -292.65094504604906 398.98249889823325 45.0
  endloop
endfacet
facet normal -1.0 0.0 0.0
  outer loop
    vertex -389.090798263144 322.436106596062 42.99999999999999
    vertex -389.090798263144 290.68381850917325 17.88492340785742
    vertex -389.090798263144 290.68381850917325 42.999999999999986
  endloop
endfacet
facet normal -1.0 0.0 0.0
  outer loop
    vertex -389.090798263144 290.68381850917325 17.88492340785742
    vertex -389.090798263144 322.436106596062 42.99999999999999
    vertex -389.090798263144 322.436106596062 17.88492340785742
  endloop
endfacet
facet normal -0.0 -0.0 -1.0
  outer loop
    vertex -285.00113910814855 368.4290270287042 41.0
    vertex -287.00113910814855 353.42902702870424 41.0
    vertex -287.00113910814855 368.4290270287042 41.0
  endloop
endfacet
facet normal -0.0 -0.0 -1.0
  outer loop
    vertex -287.00113910814855 353.42902702870424 41.0
    vertex -285.00113910814855 368.4290270287042 41.0
    vertex -285.00113910814855 353.42902702870424 41.0
  endloop
endfacet
facet normal 0.0 0.0 1.0
  outer loop
    vertex -389.090798263144 290.68381850917325 17.88492340785742
    vertex -399.090798263144 351.56689366322865 17.88492340785742
    vertex -399.090798263144 290.68381850917325 17.88492340785742
  endloop
endfacet
facet normal 0.0 0.0 1.0
  outer loop
    vertex -399.090798263144 351.56689366322865 17.88492340785742
    vertex -389.090798263144 290.68381850917325 17.88492340785742
    vertex -389.090798263144 322.436106596062 17.88492340785742
  endloop
endfacet
facet normal 0.0 0.0 1.0
  outer loop
    vertex -399.090798263144 351.56689366322865 17.88492340785742
    vertex -389.090798263144 322.436106596062 17.88492340785742
    vertex -380.33598275671386 351.56689366322865 17.88492340785742
  endloop
endfacet
facet normal 0.0 0.0 1.0
  outer loop
    vertex -380.33598275671386 351.56689366322865 17.88492340785742
    vertex -389.090798263144 322.436106596062 17.88492340785742
    vertex -380.33598275671386 322.436106596062 17.88492340785742
  endloop
endfacet
facet normal 1.0 0.0 0.0
  outer loop
    vertex -246.09079826314397 398.98249889823325 1.7163924539794625e-15
    vertex -246.09079826314397 296.3540357222054 36.0
    vertex -246.09079826314397 296.3540357222054 1.7163924539794625e-15
  endloop
endfacet
facet normal 1.0 0.0 0.0
  outer loop
    vertex -246.09079826314397 296.3540357222054 36.0
    vertex -246.09079826314397 290.68381850917325 51.0
    vertex -246.09079826314397 290.68381850917325 36.0
  endloop
endfacet
facet normal 1.0 0.0 0.0
  outer loop
    vertex -246.09079826314397 290.68381850917325 51.0
    vertex -246.09079826314397 296.3540357222054 36.0
    vertex -246.09079826314397 398.98249889823325 51.0
  endloop
endfacet
facet normal 1.0 0.0 0.0
  outer loop
    vertex -246.09079826314397 398.98249889823325 51.0
    vertex -246.09079826314397 296.3540357222054 36.0
    vertex -246.09079826314397 398.98249889823325 1.7163924539794625e-15
  endloop
endfacet
facet normal 0.0 -1.0 0.0
  outer loop
    vertex -380.33598275671386 290.68381850917325 1.3172274790205284e-16
    vertex -389.090798263144 290.68381850917325 12.884923407857425
    vertex -389.090798263144 290.68381850917325 0.0
  endloop
endfacet
facet normal 0.0 -1.0 0.0
  outer loop
    vertex -389.090798263144 290.68381850917325 12.884923407857425
    vertex -380.33598275671386 290.68381850917325 1.3172274790205284e-16
    vertex -380.33598275671386 290.68381850917325 51.0
  endloop
endfacet
facet normal 0.0 -1.0 0.0
  outer loop
    vertex -389.090798263144 290.68381850917325 12.884923407857425
    vertex -380.33598275671386 290.68381850917325 51.0
    vertex -389.090798263144 290.68381850917325 17.88492340785742
  endloop
endfacet
facet normal 0.0 -1.0 0.0
  outer loop
    vertex -389.090798263144 290.68381850917325 12.884923407857425
    vertex -389.090798263144 290.68381850917325 17.88492340785742
    vertex -399.090798263144 290.68381850917325 12.884923407857425
  endloop
endfacet
facet normal 0.0 -1.0 0.0
  outer loop
    vertex -389.090798263144 290.68381850917325 17.88492340785742
    vertex -380.33598275671386 290.68381850917325 51.0
    vertex -389.090798263144 290.68381850917325 42.999999999999986
  endloop
endfacet
facet normal 0.0 -1.0 0.0
  outer loop
    vertex -389.090798263144 290.68381850917325 42.999999999999986
    vertex -380.33598275671386 290.68381850917325 51.0
    vertex -399.090798263144 290.68381850917325 42.999999999999986
  endloop
endfacet
facet normal 0.0 -1.0 0.0
  outer loop
    vertex -399.090798263144 290.68381850917325 42.999999999999986
    vertex -380.33598275671386 290.68381850917325 51.0
    vertex -389.090798263144 290.68381850917325 47.9570618049605
  endloop
endfacet
facet normal 0.0 -1.0 0.0
  outer loop
    vertex -389.090798263144 290.68381850917325 47.9570618049605
    vertex -380.33598275671386 290.68381850917325 51.0
    vertex -389.090798263144 290.68381850917325 51.0
  endloop
endfacet
facet normal 0.0 -1.0 0.0
  outer loop
    vertex -399.090798263144 290.68381850917325 47.9570618049605
    vertex -399.090798263144 290.68381850917325 42.999999999999986
    vertex -389.090798263144 290.68381850917325 47.9570618049605
  endloop
endfacet
facet normal 0.0 -1.0 0.0
  outer loop
    vertex -399.090798263144 290.68381850917325 17.88492340785742
    vertex -399.090798263144 290.68381850917325 12.884923407857425
    vertex -389.090798263144 290.68381850917325 17.88492340785742
  endloop
endfacet
facet normal 0.0 1.0 0.0
  outer loop
    vertex -399.090798263144 356.56689366322865 47.884923407857414
    vertex -389.090798263144 356.56689366322865 12.884923407857421
    vertex -399.090798263144 356.56689366322865 12.884923407857421
  endloop
endfacet
facet normal 0.0 1.0 0.0
  outer loop
    vertex -389.090798263144 356.56689366322865 12.884923407857421
    vertex -399.090798263144 356.56689366322865 47.884923407857414
    vertex -389.090798263144 356.56689366322865 47.884923407857414
  endloop
endfacet
facet normal -1.0 0.0 0.0
  outer loop
    vertex -308.907794297126 319.6799370723258 51.0
    vertex -308.907794297126 290.68381850917325 1.2064132716089516e-15
    vertex -308.907794297126 290.68381850917325 51.0
  endloop
endfacet
facet normal -1.0 0.0 0.0
  outer loop
    vertex -308.907794297126 290.68381850917325 1.2064132716089516e-15
    vertex -308.907794297126 319.6799370723258 51.0
    vertex -308.907794297126 319.6799370723258 1.7163924539794625e-15
  endloop
endfacet
facet normal -1.0 -0.0 -0.0
  outer loop
    vertex -264.70934764668885 398.98249889823325 45.0
    vertex -264.70934764668885 391.3324634867254 17.0
    vertex -264.70934764668885 391.3324634867254 45.0
  endloop
endfacet
facet normal -1.0 -0.0 -0.0
  outer loop
    vertex -264.70934764668885 391.3324634867254 17.0
    vertex -264.70934764668885 398.98249889823325 45.0
    vertex -264.70934764668885 398.98249889823325 17.0
  endloop
endfacet
facet normal 1.0 0.0 0.0
  outer loop
    vertex -273.00113910814855 348.6799370723258 1.7163924539794625e-15
    vertex -273.00113910814855 326.67993707232574 51.0
    vertex -273.00113910814855 326.67993707232574 1.7163924539794625e-15
  endloop
endfacet
facet normal 1.0 0.0 0.0
  outer loop
    vertex -273.00113910814855 326.67993707232574 51.0
    vertex -273.00113910814855 348.6799370723258 1.7163924539794625e-15
    vertex -273.00113910814855 348.6799370723258 51.0
  endloop
endfacet
facet normal -1.0 0.0 0.0
  outer loop
    vertex -287.3359827567139 319.67875057954126 51.0
    vertex -287.3359827567139 299.5810140887845 1.7163924539794625e-15
    vertex -287.3359827567139 299.5810140887845 51.0
  endloop
endfacet
facet normal -1.0 0.0 0.0
  outer loop
    vertex -287.3359827567139 299.5810140887845 1.7163924539794625e-15
    vertex -287.3359827567139 319.67875057954126 51.0
    vertex -287.3359827567139 319.67875057954126 1.7163924539794625e-15
  endloop
endfacet
facet normal 1.0 0.0 0.0
  outer loop
    vertex -306.907794297126 319.6799370723258 1.7163924539794625e-15
    vertex -306.907794297126 290.68381850917325 51.0
    vertex -306.907794297126 290.68381850917325 1.2365047676102796e-15
  endloop
endfacet
facet normal 1.0 0.0 0.0
  outer loop
    vertex -306.907794297126 290.68381850917325 51.0
    vertex -306.907794297126 319.6799370723258 1.7163924539794625e-15
    vertex -306.907794297126 319.6799370723258 51.0
  endloop
endfacet
facet normal 0.0 -1.0 0.0
  outer loop
    vertex -253.3359827567139 304.5810140887845 1.7163924539794625e-15
    vertex -285.3359827567139 304.5810140887845 51.0
    vertex -285.3359827567139 304.5810140887845 1.5187119827495183e-15
  endloop
endfacet
facet normal 0.0 -1.0 0.0
  outer loop
    vertex -285.3359827567139 304.5810140887845 51.0
    vertex -253.3359827567139 304.5810140887845 1.7163924539794625e-15
    vertex -253.3359827567139 304.5810140887845 51.0
  endloop
endfacet
facet normal 0.0 1.0 0.0
  outer loop
    vertex -285.00113910814855 348.6799370723258 51.0
    vertex -273.00113910814855 348.6799370723258 1.7163924539794625e-15
    vertex -285.00113910814855 348.6799370723258 1.7163924539794625e-15
  endloop
endfacet
facet normal 0.0 1.0 0.0
  outer loop
    vertex -273.00113910814855 348.6799370723258 1.7163924539794625e-15
    vertex -285.00113910814855 348.6799370723258 51.0
    vertex -273.00113910814855 348.6799370723258 51.0
  endloop
endfacet
facet normal -1.0 0.0 0.0
  outer loop
    vertex -389.090798263144 398.98249889823325 51.0
    vertex -389.090798263144 290.68381850917325 47.9570618049605
    vertex -389.090798263144 290.68381850917325 51.0
  endloop
endfacet
facet normal -1.0 0.0 0.0
  outer loop
    vertex -389.090798263144 290.68381850917325 47.9570618049605
    vertex -389.090798263144 398.98249889823325 51.0
    vertex -389.090798263144 356.56689366322865 47.884923407857414
  endloop
endfacet
facet normal -1.0 0.0 0.0
  outer loop
    vertex -389.090798263144 356.56689366322865 47.884923407857414
    vertex -389.090798263144 398.98249889823325 51.0
    vertex -389.090798263144 356.56689366322865 12.884923407857421
  endloop
endfacet
facet normal -1.0 0.0 0.0
  outer loop
    vertex -389.090798263144 356.56689366322865 12.884923407857421
    vertex -389.090798263144 290.68381850917325 0.0
    vertex -389.090798263144 290.68381850917325 12.884923407857425
  endloop
endfacet
facet normal -1.0 0.0 0.0
  outer loop
    vertex -389.090798263144 290.68381850917325 0.0
    vertex -389.090798263144 356.56689366322865 12.884923407857421
    vertex -389.090798263144 398.98249889823325 1.7163924539794625e-15
  endloop
endfacet
facet normal -1.0 0.0 0.0
  outer loop
    vertex -389.090798263144 398.98249889823325 1.7163924539794625e-15
    vertex -389.090798263144 356.56689366322865 12.884923407857421
    vertex -389.090798263144 398.98249889823325 51.0
  endloop
endfacet
facet normal 0.0 1.0 0.0
  outer loop
    vertex -389.090798263144 322.436106596062 42.99999999999999
    vertex -380.33598275671386 322.436106596062 17.88492340785742
    vertex -389.090798263144 322.436106596062 17.88492340785742
  endloop
endfacet
facet normal 0.0 1.0 0.0
  outer loop
    vertex -380.33598275671386 322.436106596062 17.88492340785742
    vertex -389.090798263144 322.436106596062 42.99999999999999
    vertex -380.33598275671386 322.436106596062 42.99999999999999
  endloop
endfacet
facet normal 1.0 0.0 0.0
  outer loop
    vertex -304.5020110715521 321.6799370723258 1.7163924539794625e-15
    vertex -304.5020110715521 319.6799370723258 41.0
    vertex -304.5020110715521 319.6799370723258 1.7163924539794625e-15
  endloop
endfacet
facet normal 1.0 0.0 0.0
  outer loop
    vertex -304.5020110715521 319.6799370723258 41.0
    vertex -304.5020110715521 321.6799370723258 1.7163924539794625e-15
    vertex -304.5020110715521 321.6799370723258 41.0
  endloop
endfacet
facet normal -1.0 0.0 0.0
  outer loop
    vertex -275.00113910814855 346.6799370723258 51.0
    vertex -275.00113910814855 326.67993707232574 1.7163924539794625e-15
    vertex -275.00113910814855 326.67993707232574 51.0
  endloop
endfacet
facet normal -1.0 0.0 0.0
  outer loop
    vertex -275.00113910814855 326.67993707232574 1.7163924539794625e-15
    vertex -275.00113910814855 346.6799370723258 51.0
    vertex -275.00113910814855 346.6799370723258 1.7163924539794625e-15
  endloop
endfacet
facet normal -9.422295310243957e-17 0.0 1.0
  outer loop
    vertex -292.65094504604906 391.3324634867254 17.000000000000004
    vertex -322.57960244529255 398.98249889823325 17.0
    vertex -322.57960244529255 391.3324634867254 17.0
  endloop
endfacet
facet normal -9.422295310243957e-17 0.0 1.0
  outer loop
    vertex -322.57960244529255 398.98249889823325 17.0
    vertex -292.65094504604906 391.3324634867254 17.000000000000004
    vertex -292.65094504604906 398.98249889823325 17.000000000000004
  endloop
endfacet
facet normal -1.0 0.0 0.0
  outer loop
    vertex -289.5020110715521 321.6799370723258 41.0
    vertex -289.5020110715521 319.6799370723258 1.7163924539794625e-15
    vertex -289.5020110715521 319.6799370723258 41.0
  endloop
endfacet
facet normal -1.0 0.0 0.0
  outer loop
    vertex -289.5020110715521 319.6799370723258 1.7163924539794625e-15
    vertex -289.5020110715521 321.6799370723258 41.0
    vertex -289.5020110715521 321.6799370723258 1.7163924539794625e-15
  endloop
endfacet
facet normal 0.0 -1.0 0.0
  outer loop
    vertex -285.00113910814855 368.4290270287042 41.0
    vertex -287.00113910814855 368.4290270287042 1.7163924539794625e-15
    vertex -285.00113910814855 368.4290270287042 1.7163924539794625e-15
  endloop
endfacet
facet normal 0.0 -1.0 0.0
  outer loop
    vertex -287.00113910814855 368.4290270287042 1.7163924539794625e-15
    vertex -285.00113910814855 368.4290270287042 41.0
    vertex -287.00113910814855 368.4290270287042 41.0
  endloop
endfacet
facet normal 1.0 0.0 0.0
  outer loop
    vertex -285.00113910814855 391.3324634867254 1.7163924539794625e-15
    vertex -285.00113910814855 368.4290270287042 41.0
    vertex -285.00113910814855 368.4290270287042 1.7163924539794625e-15
  endloop
endfacet
facet normal 1.0 0.0 0.0
  outer loop
    vertex -285.00113910814855 353.42902702870424 1.7163924539794625e-15
    vertex -285.00113910814855 348.6799370723258 51.0
    vertex -285.00113910814855 348.6799370723258 1.7163924539794625e-15
  endloop
endfacet
facet normal 1.0 0.0 0.0
  outer loop
    vertex -285.00113910814855 348.6799370723258 51.0
    vertex -285.00113910814855 353.42902702870424 1.7163924539794625e-15
    vertex -285.00113910814855 353.42902702870424 41.0
  endloop
endfacet
facet normal 1.0 0.0 0.0
  outer loop
    vertex -285.00113910814855 348.6799370723258 51.0
    vertex -285.00113910814855 353.42902702870424 41.0
    vertex -285.00113910814855 391.3324634867254 51.0
  endloop
endfacet
facet normal 1.0 0.0 0.0
  outer loop
    vertex -285.00113910814855 391.3324634867254 51.0
    vertex -285.00113910814855 353.42902702870424 41.0
    vertex -285.00113910814855 368.4290270287042 41.0
  endloop
endfacet
facet normal 1.0 0.0 0.0
  outer loop
    vertex -285.00113910814855 391.3324634867254 51.0
    vertex -285.00113910814855 368.4290270287042 41.0
    vertex -285.00113910814855 391.3324634867254 1.7163924539794625e-15
  endloop
endfacet
facet normal 1.0 0.0 0.0
  outer loop
    vertex -285.00113910814855 324.6787505795412 1.7163924539794625e-15
    vertex -285.00113910814855 306.58101408878457 51.0
    vertex -285.00113910814855 306.58101408878457 1.5187119827495183e-15
  endloop
endfacet
facet normal 1.0 0.0 0.0
  outer loop
    vertex -285.00113910814855 306.58101408878457 51.0
    vertex -285.00113910814855 324.6787505795412 1.7163924539794625e-15
    vertex -285.00113910814855 324.6787505795412 51.0
  endloop
endfacet
facet normal -1.0 0.0 0.0
  outer loop
    vertex -253.3359827567139 304.5810140887845 51.0
    vertex -253.3359827567139 290.68381850917325 36.0
    vertex -253.3359827567139 290.68381850917325 51.0
  endloop
endfacet
facet normal -1.0 0.0 0.0
  outer loop
    vertex -253.3359827567139 290.68381850917325 36.0
    vertex -253.3359827567139 304.5810140887845 51.0
    vertex -253.3359827567139 296.3540357222054 36.0
  endloop
endfacet
facet normal -1.0 0.0 0.0
  outer loop
    vertex -253.3359827567139 296.3540357222054 36.0
    vertex -253.3359827567139 304.5810140887845 51.0
    vertex -253.3359827567139 296.3540357222054 1.7163924539794625e-15
  endloop
endfacet
facet normal -1.0 0.0 0.0
  outer loop
    vertex -253.3359827567139 296.3540357222054 1.7163924539794625e-15
    vertex -253.3359827567139 304.5810140887845 51.0
    vertex -253.3359827567139 304.5810140887845 1.7163924539794625e-15
  endloop
endfacet
facet normal 0.0 1.0 0.0
  outer loop
    vertex -380.33598275671386 321.6799370723258 51.0
    vertex -304.5020110715521 321.6799370723258 1.7163924539794625e-15
    vertex -380.33598275671386 321.6799370723258 1.7163924539794625e-15
  endloop
endfacet
facet normal 0.0 1.0 0.0
  outer loop
    vertex -304.5020110715521 321.6799370723258 1.7163924539794625e-15
    vertex -380.33598275671386 321.6799370723258 51.0
    vertex -304.5020110715521 321.6799370723258 41.0
  endloop
endfacet
facet normal 0.0 1.0 0.0
  outer loop
    vertex -304.5020110715521 321.6799370723258 41.0
    vertex -380.33598275671386 321.6799370723258 51.0
    vertex -289.5020110715521 321.6799370723258 41.0
  endloop
endfacet
facet normal 0.0 1.0 0.0
  outer loop
    vertex -289.5020110715521 321.6799370723258 41.0
    vertex -287.00113910814855 321.6799370723258 1.7163924539794625e-15
    vertex -289.5020110715521 321.6799370723258 1.7163924539794625e-15
  endloop
endfacet
facet normal 0.0 1.0 0.0
  outer loop
    vertex -287.00113910814855 321.6799370723258 1.7163924539794625e-15
    vertex -289.5020110715521 321.6799370723258 41.0
    vertex -287.00113910814855 321.6799370723258 51.0
  endloop
endfacet
facet normal 0.0 1.0 0.0
  outer loop
    vertex -287.00113910814855 321.6799370723258 51.0
    vertex -289.5020110715521 321.6799370723258 41.0
    vertex -380.33598275671386 321.6799370723258 51.0
  endloop
endfacet
facet normal -0.0 -1.0 -0.0
  outer loop
    vertex -275.00113910814855 346.6799370723258 51.0
    vertex -287.00113910814855 346.6799370723258 1.7163924539794625e-15
    vertex -275.00113910814855 346.6799370723258 1.7163924539794625e-15
  endloop
endfacet
facet normal -0.0 -1.0 -0.0
  outer loop
    vertex -287.00113910814855 346.6799370723258 1.7163924539794625e-15
    vertex -275.00113910814855 346.6799370723258 51.0
    vertex -287.00113910814855 346.6799370723258 51.0
  endloop
endfacet
facet normal 0.0 -1.0 0.0
  outer loop
    vertex -380.33598275671386 351.56689366322865 42.99999999999999
    vertex -399.090798263144 351.56689366322865 17.88492340785742
    vertex -380.33598275671386 351.56689366322865 17.88492340785742
  endloop
endfacet
facet normal 0.0 -1.0 0.0
  outer loop
    vertex -399.090798263144 351.56689366322865 17.88492340785742
    vertex -380.33598275671386 351.56689366322865 42.99999999999999
    vertex -399.090798263144 351.56689366322865 42.99999999999999
  endloop
endfacet
facet normal 0.0 1.0 0.0
  outer loop
    vertex -287.00113910814855 326.67993707232574 51.0
    vertex -275.00113910814855 326.67993707232574 1.7163924539794625e-15
    vertex -287.00113910814855 326.67993707232574 1.7163924539794625e-15
  endloop
endfacet
facet normal 0.0 1.0 0.0
  outer loop
    vertex -275.00113910814855 326.67993707232574 1.7163924539794625e-15
    vertex -287.00113910814855 326.67993707232574 51.0
    vertex -275.00113910814855 326.67993707232574 51.0
  endloop
endfacet
facet normal 1.0 0.0 0.0
  outer loop
    vertex -322.57960244529255 398.98249889823325 17.0
    vertex -322.57960244529255 391.3324634867254 45.0
    vertex -322.57960244529255 391.3324634867254 17.0
  endloop
endfacet
facet normal 1.0 0.0 0.0
  outer loop
    vertex -322.57960244529255 391.3324634867254 45.0
    vertex -322.57960244529255 398.98249889823325 17.0
    vertex -322.57960244529255 398.98249889823325 45.0
  endloop
endfacet
facet normal 1.0 0.0 0.0
  outer loop
    vertex -380.33598275671386 319.6799370723258 1.7163924539794625e-15
    vertex -380.33598275671386 290.68381850917325 51.0
    vertex -380.33598275671386 290.68381850917325 1.3172274790205284e-16
  endloop
endfacet
facet normal 1.0 0.0 0.0
  outer loop
    vertex -380.33598275671386 290.68381850917325 51.0
    vertex -380.33598275671386 319.6799370723258 1.7163924539794625e-15
    vertex -380.33598275671386 319.6799370723258 51.0
  endloop
endfacet
facet normal -0.0 -1.0 -0.0
  outer loop
    vertex -285.3359827567139 299.5810140887845 51.0
    vertex -287.3359827567139 299.5810140887845 1.7163924539794625e-15
    vertex -285.3359827567139 299.5810140887845 1.5187119827495183e-15
  endloop
endfacet
facet normal -0.0 -1.0 -0.0
  outer loop
    vertex -287.3359827567139 299.5810140887845 1.7163924539794625e-15
    vertex -285.3359827567139 299.5810140887845 51.0
    vertex -287.3359827567139 299.5810140887845 51.0
  endloop
endfacet
facet normal 1.0 0.0 0.0
  outer loop
    vertex -380.33598275671386 321.6799370723258 1.7163924539794625e-15
    vertex -380.33598275671386 322.436106596062 17.88492340785742
    vertex -380.33598275671386 321.6799370723258 51.0
  endloop
endfacet
facet normal 1.0 0.0 0.0
  outer loop
    vertex -380.33598275671386 322.436106596062 17.88492340785742
    vertex -380.33598275671386 321.6799370723258 1.7163924539794625e-15
    vertex -380.33598275671386 391.3324634867254 1.7163924539794625e-15
  endloop
endfacet
facet normal 1.0 0.0 0.0
  outer loop
    vertex -380.33598275671386 322.436106596062 17.88492340785742
    vertex -380.33598275671386 391.3324634867254 1.7163924539794625e-15
    vertex -380.33598275671386 351.56689366322865 17.88492340785742
  endloop
endfacet
facet normal 1.0 0.0 0.0
  outer loop
    vertex -380.33598275671386 351.56689366322865 17.88492340785742
    vertex -380.33598275671386 391.3324634867254 1.7163924539794625e-15
    vertex -380.33598275671386 351.56689366322865 42.99999999999999
  endloop
endfacet
facet normal 1.0 0.0 0.0
  outer loop
    vertex -380.33598275671386 321.6799370723258 51.0
    vertex -380.33598275671386 322.436106596062 42.99999999999999
    vertex -380.33598275671386 391.3324634867254 51.0
  endloop
endfacet
facet normal 1.0 0.0 0.0
  outer loop
    vertex -380.33598275671386 322.436106596062 42.99999999999999
    vertex -380.33598275671386 321.6799370723258 51.0
    vertex -380.33598275671386 322.436106596062 17.88492340785742
  endloop
endfacet
facet normal 1.0 0.0 0.0
  outer loop
    vertex -380.33598275671386 391.3324634867254 51.0
    vertex -380.33598275671386 322.436106596062 42.99999999999999
    vertex -380.33598275671386 351.56689366322865 42.99999999999999
  endloop
endfacet
facet normal 1.0 0.0 0.0
  outer loop
    vertex -380.33598275671386 391.3324634867254 51.0
    vertex -380.33598275671386 351.56689366322865 42.99999999999999
    vertex -380.33598275671386 391.3324634867254 1.7163924539794625e-15
  endloop
endfacet
facet normal -1.0 0.0 0.0
  outer loop
    vertex -399.090798263144 356.56689366322865 47.884923407857414
    vertex -399.090798263144 290.68381850917325 42.999999999999986
    vertex -399.090798263144 290.68381850917325 47.9570618049605
  endloop
endfacet
facet normal -1.0 0.0 0.0
  outer loop
    vertex -399.090798263144 290.68381850917325 42.999999999999986
    vertex -399.090798263144 356.56689366322865 47.884923407857414
    vertex -399.090798263144 351.56689366322865 42.99999999999999
  endloop
endfacet
facet normal -1.0 0.0 0.0
  outer loop
    vertex -399.090798263144 351.56689366322865 42.99999999999999
    vertex -399.090798263144 356.56689366322865 47.884923407857414
    vertex -399.090798263144 351.56689366322865 17.88492340785742
  endloop
endfacet
facet normal -1.0 0.0 0.0
  outer loop
    vertex -399.090798263144 351.56689366322865 17.88492340785742
    vertex -399.090798263144 290.68381850917325 12.884923407857425
    vertex -399.090798263144 290.68381850917325 17.88492340785742
  endloop
endfacet
facet normal -1.0 0.0 0.0
  outer loop
    vertex -399.090798263144 290.68381850917325 12.884923407857425
    vertex -399.090798263144 351.56689366322865 17.88492340785742
    vertex -399.090798263144 356.56689366322865 12.884923407857421
  endloop
endfacet
facet normal -1.0 0.0 0.0
  outer loop
    vertex -399.090798263144 356.56689366322865 12.884923407857421
    vertex -399.090798263144 351.56689366322865 17.88492340785742
    vertex -399.090798263144 356.56689366322865 47.884923407857414
  endloop
endfacet
facet normal -0.0 -1.0 -0.0
  outer loop
    vertex -308.907794297126 319.6799370723258 51.0
    vertex -380.33598275671386 319.6799370723258 1.7163924539794625e-15
    vertex -308.907794297126 319.6799370723258 1.7163924539794625e-15
  endloop
endfacet
facet normal -0.0 -1.0 -0.0
  outer loop
    vertex -380.33598275671386 319.6799370723258 1.7163924539794625e-15
    vertex -308.907794297126 319.6799370723258 51.0
    vertex -380.33598275671386 319.6799370723258 51.0
  endloop
endfacet
endsolid FirstFloorV8
