solid FirstFloorV8
facet normal 0.0 -1.0 0.0
  outer loop
    vertex -326.62112188520547 -197.39929703624793 45.00000000000004
    vertex -367.8675387994334 -197.39929703624793 17.000000000000043
    vertex -326.62112188520547 -197.39929703624793 17.000000000000043
  endloop
endfacet
facet normal 0.0 -1.0 0.0
  outer loop
    vertex -367.8675387994334 -197.39929703624793 17.000000000000043
    vertex -326.62112188520547 -197.39929703624793 45.00000000000004
    vertex -367.8675387994334 -197.39929703624793 45.00000000000003
  endloop
endfacet
facet normal 0.0 -1.0 0.0
  outer loop
    vertex -367.8675387994334 -197.39929703624793 45.00000000000003
    vertex -326.62112188520547 -197.39929703624793 45.00000000000004
    vertex -371.5311626915724 -197.39929703624793 45.00000000000003
  endloop
endfacet
facet normal 0.0 -1.0 0.0
  outer loop
    vertex -283.0671338137263 -197.39929703624793 4.511946372076636e-14
    vertex -308.4445789756216 -197.39929703624793 17.000000000000043
    vertex -426.06713381372634 -197.39929703624793 4.511946372076636e-14
  endloop
endfacet
facet normal 0.0 -1.0 0.0
  outer loop
    vertex -308.4445789756216 -197.39929703624793 17.000000000000043
    vertex -283.0671338137263 -197.39929703624793 4.511946372076636e-14
    vertex -283.0671338137263 -197.39929703624793 51.00000000000004
  endloop
endfacet
facet normal 0.0 -1.0 0.0
  outer loop
    vertex -308.4445789756216 -197.39929703624793 17.000000000000043
    vertex -283.0671338137263 -197.39929703624793 51.00000000000004
    vertex -308.4445789756216 -197.39929703624793 45.00000000000004
  endloop
endfacet
facet normal 0.0 -1.0 0.0
  outer loop
    vertex -308.4445789756216 -197.39929703624793 45.00000000000004
    vertex -283.0671338137263 -197.39929703624793 51.00000000000004
    vertex -326.62112188520547 -197.39929703624793 45.00000000000004
  endloop
endfacet
facet normal 0.0 -1.0 0.0
  outer loop
    vertex -426.06713381372634 -197.39929703624793 4.511946372076636e-14
    vertex -410.2280556359623 -197.39929703624793 17.000000000000043
    vertex -426.06713381372634 -197.39929703624793 51.00000000000004
  endloop
endfacet
facet normal 0.0 -1.0 0.0
  outer loop
    vertex -410.2280556359623 -197.39929703624793 17.000000000000043
    vertex -426.06713381372634 -197.39929703624793 4.511946372076636e-14
    vertex -308.4445789756216 -197.39929703624793 17.000000000000043
  endloop
endfacet
facet normal 0.0 -1.0 0.0
  outer loop
    vertex -410.2280556359623 -197.39929703624793 17.000000000000043
    vertex -308.4445789756216 -197.39929703624793 17.000000000000043
    vertex -326.62112188520547 -197.39929703624793 17.000000000000043
  endloop
endfacet
facet normal 0.0 -1.0 0.0
  outer loop
    vertex -410.2280556359623 -197.39929703624793 17.000000000000043
    vertex -326.62112188520547 -197.39929703624793 17.000000000000043
    vertex -367.8675387994334 -197.39929703624793 17.000000000000043
  endloop
endfacet
facet normal 0.0 -1.0 0.0
  outer loop
    vertex -426.06713381372634 -197.39929703624793 51.00000000000004
    vertex -410.2280556359623 -197.39929703624793 17.000000000000043
    vertex -410.2280556359623 -197.39929703624793 45.00000000000002
  endloop
endfacet
facet normal 0.0 -1.0 0.0
  outer loop
    vertex -426.06713381372634 -197.39929703624793 51.00000000000004
    vertex -410.2280556359623 -197.39929703624793 45.00000000000002
    vertex -371.5311626915724 -197.39929703624793 45.00000000000003
  endloop
endfacet
facet normal 0.0 -1.0 0.0
  outer loop
    vertex -426.06713381372634 -197.39929703624793 51.00000000000004
    vertex -371.5311626915724 -197.39929703624793 45.00000000000003
    vertex -326.62112188520547 -197.39929703624793 45.00000000000004
  endloop
endfacet
facet normal 0.0 -1.0 0.0
  outer loop
    vertex -426.06713381372634 -197.39929703624793 51.00000000000004
    vertex -326.62112188520547 -197.39929703624793 45.00000000000004
    vertex -283.0671338137263 -197.39929703624793 51.00000000000004
  endloop
endfacet
facet normal 0.0 0.0 1.0
  outer loop
    vertex -426.06713381372634 -197.39929703624793 51.00000000000004
    vertex -417.31231830729615 -189.04933244775583 51.00000000000004
    vertex -426.06713381372634 -89.69797742530798 51.00000000000004
  endloop
endfacet
facet normal 0.0 0.0 1.0
  outer loop
    vertex -417.31231830729615 -189.04933244775583 51.00000000000004
    vertex -426.06713381372634 -197.39929703624793 51.00000000000004
    vertex -283.0671338137263 -197.39929703624793 51.00000000000004
  endloop
endfacet
facet normal 0.0 0.0 1.0
  outer loop
    vertex -417.31231830729615 -189.04933244775583 51.00000000000004
    vertex -283.0671338137263 -197.39929703624793 51.00000000000004
    vertex -345.88412984770827 -189.04933244775583 51.00000000000004
  endloop
endfacet
facet normal 0.0 0.0 1.0
  outer loop
    vertex -345.88412984770827 -189.04933244775583 51.00000000000004
    vertex -283.0671338137263 -197.39929703624793 51.00000000000004
    vertex -343.88412984770827 -189.04933244775583 51.00000000000004
  endloop
endfacet
facet normal 0.0 0.0 1.0
  outer loop
    vertex -345.88412984770827 -189.04933244775583 51.00000000000004
    vertex -343.88412984770827 -189.04933244775583 51.00000000000004
    vertex -345.88412984770827 -126.53560224689528 51.00000000000004
  endloop
endfacet
facet normal 0.0 0.0 1.0
  outer loop
    vertex -345.88412984770827 -126.53560224689528 51.00000000000004
    vertex -343.88412984770827 -189.04933244775583 51.00000000000004
    vertex -345.88412984770827 -124.53560224689528 51.00000000000004
  endloop
endfacet
facet normal 0.0 0.0 1.0
  outer loop
    vertex -345.88412984770827 -124.53560224689528 51.00000000000004
    vertex -343.88412984770827 -189.04933244775583 51.00000000000004
    vertex -345.88412984770827 -89.69797742530798 51.00000000000004
  endloop
endfacet
facet normal 0.0 0.0 1.0
  outer loop
    vertex -343.88412984770827 -189.04933244775583 51.00000000000004
    vertex -283.0671338137263 -197.39929703624793 51.00000000000004
    vertex -290.3123183072962 -189.04933244775583 51.00000000000004
  endloop
endfacet
facet normal 0.0 0.0 1.0
  outer loop
    vertex -290.3123183072962 -189.04933244775583 51.00000000000004
    vertex -283.0671338137263 -197.39929703624793 51.00000000000004
    vertex -290.3123183072962 -148.7008633217153 51.00000000000004
  endloop
endfacet
facet normal 0.0 0.0 1.0
  outer loop
    vertex -290.3123183072962 -148.7008633217153 51.00000000000004
    vertex -283.0671338137263 -197.39929703624793 51.00000000000004
    vertex -290.3123183072962 -146.53997769140366 51.00000000000004
  endloop
endfacet
facet normal 0.0 0.0 1.0
  outer loop
    vertex -290.3123183072962 -146.53997769140366 51.00000000000004
    vertex -283.0671338137263 -197.39929703624793 51.00000000000004
    vertex -290.3123183072962 -89.69797742530798 51.00000000000004
  endloop
endfacet
facet normal 0.0 0.0 1.0
  outer loop
    vertex -290.3123183072962 -89.69797742530798 51.00000000000004
    vertex -283.0671338137263 -197.39929703624793 51.00000000000004
    vertex -283.0671338137263 -89.69797742530798 51.00000000000004
  endloop
endfacet
facet normal 0.0 0.0 1.0
  outer loop
    vertex -290.3123183072962 -148.7008633217153 51.00000000000004
    vertex -343.88412984770827 -146.53997769140366 51.00000000000004
    vertex -343.88412984770827 -148.7008633217153 51.00000000000004
  endloop
endfacet
facet normal 0.0 0.0 1.0
  outer loop
    vertex -343.88412984770827 -146.53997769140366 51.00000000000004
    vertex -290.3123183072962 -148.7008633217153 51.00000000000004
    vertex -290.3123183072962 -146.53997769140366 51.00000000000004
  endloop
endfacet
facet normal 0.0 0.0 1.0
  outer loop
    vertex -343.88412984770827 -189.04933244775583 51.00000000000004
    vertex -343.88412984770827 -89.69797742530798 51.00000000000004
    vertex -345.88412984770827 -89.69797742530798 51.00000000000004
  endloop
endfacet
facet normal 0.0 0.0 1.0
  outer loop
    vertex -343.88412984770827 -89.69797742530798 51.00000000000004
    vertex -343.88412984770827 -189.04933244775583 51.00000000000004
    vertex -343.88412984770827 -148.7008633217153 51.00000000000004
  endloop
endfacet
facet normal 0.0 0.0 1.0
  outer loop
    vertex -343.88412984770827 -89.69797742530798 51.00000000000004
    vertex -343.88412984770827 -148.7008633217153 51.00000000000004
    vertex -343.88412984770827 -146.53997769140366 51.00000000000004
  endloop
endfacet
facet normal 0.0 0.0 1.0
  outer loop
    vertex -345.88412984770827 -126.53560224689528 51.00000000000004
    vertex -417.31231830729615 -124.53560224689528 51.00000000000004
    vertex -417.31231830729615 -126.53560224689528 51.00000000000004
  endloop
endfacet
facet normal 0.0 0.0 1.0
  outer loop
    vertex -417.31231830729615 -124.53560224689528 51.00000000000004
    vertex -345.88412984770827 -126.53560224689528 51.00000000000004
    vertex -345.88412984770827 -124.53560224689528 51.00000000000004
  endloop
endfacet
facet normal 0.0 0.0 1.0
  outer loop
    vertex -417.31231830729615 -189.04933244775583 51.00000000000004
    vertex -417.31231830729615 -89.69797742530798 51.00000000000004
    vertex -426.06713381372634 -89.69797742530798 51.00000000000004
  endloop
endfacet
facet normal 0.0 0.0 1.0
  outer loop
    vertex -417.31231830729615 -89.69797742530798 51.00000000000004
    vertex -417.31231830729615 -189.04933244775583 51.00000000000004
    vertex -417.31231830729615 -126.53560224689528 51.00000000000004
  endloop
endfacet
facet normal 0.0 0.0 1.0
  outer loop
    vertex -417.31231830729615 -89.69797742530798 51.00000000000004
    vertex -417.31231830729615 -126.53560224689528 51.00000000000004
    vertex -417.31231830729615 -124.53560224689528 51.00000000000004
  endloop
endfacet
facet normal 0.0 0.0 -1.0
  outer loop
    vertex -426.06713381372634 -89.69797742530798 43.000000000000036
    vertex -436.0671338137263 -123.91288161459183 43.000000000000036
    vertex -436.0671338137263 -89.69797742530798 43.000000000000036
  endloop
endfacet
facet normal 0.0 0.0 -1.0
  outer loop
    vertex -436.0671338137263 -123.91288161459183 43.000000000000036
    vertex -426.06713381372634 -89.69797742530798 43.000000000000036
    vertex -426.06713381372634 -94.76259167519312 43.000000000000036
  endloop
endfacet
facet normal 0.0 0.0 -1.0
  outer loop
    vertex -436.0671338137263 -123.91288161459183 43.000000000000036
    vertex -426.06713381372634 -94.76259167519312 43.000000000000036
    vertex -417.31231830729615 -123.91288161459183 43.000000000000036
  endloop
endfacet
facet normal 0.0 0.0 -1.0
  outer loop
    vertex -417.31231830729615 -123.91288161459183 43.000000000000036
    vertex -426.06713381372634 -94.76259167519312 43.000000000000036
    vertex -417.31231830729615 -94.76259167519312 43.000000000000036
  endloop
endfacet
facet normal 1.0 0.0 0.0
  outer loop
    vertex -417.31231830729615 -126.53560224689528 4.511946372076636e-14
    vertex -417.31231830729615 -189.04933244775583 51.00000000000004
    vertex -417.31231830729615 -189.04933244775583 4.511946372076636e-14
  endloop
endfacet
facet normal 1.0 0.0 0.0
  outer loop
    vertex -417.31231830729615 -189.04933244775583 51.00000000000004
    vertex -417.31231830729615 -126.53560224689528 4.511946372076636e-14
    vertex -417.31231830729615 -126.53560224689528 51.00000000000004
  endloop
endfacet
facet normal 0.0 0.0 1.0
  outer loop
    vertex -426.06713381372634 -89.69797742530798 17.884923407857464
    vertex -436.0671338137263 -89.69797742530798 17.884923407857464
    vertex -426.06713381372634 -94.76259167519312 17.884923407857464
  endloop
endfacet
facet normal 0.0 0.0 1.0
  outer loop
    vertex -417.31231830729615 -123.91288161459183 17.884923407857464
    vertex -436.0671338137263 -89.69797742530798 17.884923407857464
    vertex -436.0671338137263 -123.91288161459183 17.884923407857464
  endloop
endfacet
facet normal 0.0 0.0 1.0
  outer loop
    vertex -436.0671338137263 -89.69797742530798 17.884923407857464
    vertex -417.31231830729615 -123.91288161459183 17.884923407857464
    vertex -426.06713381372634 -94.76259167519312 17.884923407857464
  endloop
endfacet
facet normal 0.0 0.0 1.0
  outer loop
    vertex -426.06713381372634 -94.76259167519312 17.884923407857464
    vertex -417.31231830729615 -123.91288161459183 17.884923407857464
    vertex -417.31231830729615 -94.76259167519312 17.884923407857464
  endloop
endfacet
facet normal -0.0 -1.0 -0.0
  outer loop
    vertex -345.88412984770827 -126.53560224689528 51.00000000000004
    vertex -417.31231830729615 -126.53560224689528 4.511946372076636e-14
    vertex -345.88412984770827 -126.53560224689528 4.511946372076636e-14
  endloop
endfacet
facet normal -0.0 -1.0 -0.0
  outer loop
    vertex -417.31231830729615 -126.53560224689528 4.511946372076636e-14
    vertex -345.88412984770827 -126.53560224689528 51.00000000000004
    vertex -417.31231830729615 -126.53560224689528 51.00000000000004
  endloop
endfacet
facet normal -1.0 0.0 0.0
  outer loop
    vertex -426.06713381372634 -197.39929703624793 51.00000000000004
    vertex -426.06713381372634 -128.91288161459184 48.000000000000036
    vertex -426.06713381372634 -197.39929703624793 4.511946372076636e-14
  endloop
endfacet
facet normal -1.0 0.0 0.0
  outer loop
    vertex -426.06713381372634 -128.91288161459184 48.000000000000036
    vertex -426.06713381372634 -197.39929703624793 51.00000000000004
    vertex -426.06713381372634 -89.69797742530798 51.00000000000004
  endloop
endfacet
facet normal -1.0 0.0 0.0
  outer loop
    vertex -426.06713381372634 -128.91288161459184 48.000000000000036
    vertex -426.06713381372634 -89.69797742530798 51.00000000000004
    vertex -426.06713381372634 -89.69797742530798 47.957061804960546
  endloop
endfacet
facet normal -1.0 0.0 0.0
  outer loop
    vertex -426.06713381372634 -197.39929703624793 4.511946372076636e-14
    vertex -426.06713381372634 -128.91288161459184 12.884923407857467
    vertex -426.06713381372634 -89.69797742530798 4.34030712667869e-14
  endloop
endfacet
facet normal -1.0 0.0 0.0
  outer loop
    vertex -426.06713381372634 -128.91288161459184 12.884923407857467
    vertex -426.06713381372634 -197.39929703624793 4.511946372076636e-14
    vertex -426.06713381372634 -128.91288161459184 48.000000000000036
  endloop
endfacet
facet normal -1.0 0.0 0.0
  outer loop
    vertex -426.06713381372634 -89.69797742530798 4.34030712667869e-14
    vertex -426.06713381372634 -128.91288161459184 12.884923407857467
    vertex -426.06713381372634 -89.69797742530798 12.884923407857467
  endloop
endfacet
facet normal 1.0 0.0 0.0
  outer loop
    vertex -283.0671338137263 -97.02776021227584 4.511946372076636e-14
    vertex -283.0671338137263 -197.39929703624793 51.00000000000004
    vertex -283.0671338137263 -197.39929703624793 4.511946372076636e-14
  endloop
endfacet
facet normal 1.0 0.0 0.0
  outer loop
    vertex -283.0671338137263 -197.39929703624793 51.00000000000004
    vertex -283.0671338137263 -97.02776021227584 4.511946372076636e-14
    vertex -283.0671338137263 -97.02776021227584 36.00000000000005
  endloop
endfacet
facet normal 1.0 0.0 0.0
  outer loop
    vertex -283.0671338137263 -197.39929703624793 51.00000000000004
    vertex -283.0671338137263 -97.02776021227584 36.00000000000005
    vertex -283.0671338137263 -89.69797742530798 51.00000000000004
  endloop
endfacet
facet normal 1.0 0.0 0.0
  outer loop
    vertex -283.0671338137263 -89.69797742530798 51.00000000000004
    vertex -283.0671338137263 -97.02776021227584 36.00000000000005
    vertex -283.0671338137263 -89.69797742530798 36.00000000000005
  endloop
endfacet
facet normal 1.0 0.0 0.0
  outer loop
    vertex -341.56016797050125 -146.53997769140366 4.511946372076636e-14
    vertex -341.56016797050125 -148.7008633217153 41.00000000000004
    vertex -341.56016797050125 -148.7008633217153 4.511946372076636e-14
  endloop
endfacet
facet normal 1.0 0.0 0.0
  outer loop
    vertex -341.56016797050125 -148.7008633217153 41.00000000000004
    vertex -341.56016797050125 -146.53997769140366 4.511946372076636e-14
    vertex -341.56016797050125 -146.53997769140366 41.00000000000004
  endloop
endfacet
facet normal 0.0 -1.0 0.0
  outer loop
    vertex -343.88412984770827 -106.5629749658786 41.00000000000004
    vertex -345.88412984770827 -106.5629749658786 4.511946372076636e-14
    vertex -343.88412984770827 -106.5629749658786 4.511946372076636e-14
  endloop
endfacet
facet normal 0.0 -1.0 0.0
  outer loop
    vertex -345.88412984770827 -106.5629749658786 4.511946372076636e-14
    vertex -343.88412984770827 -106.5629749658786 41.00000000000004
    vertex -345.88412984770827 -106.5629749658786 41.00000000000004
  endloop
endfacet
facet normal 0.0 1.0 0.0
  outer loop
    vertex -436.0671338137263 -123.91288161459183 43.000000000000036
    vertex -417.31231830729615 -123.91288161459183 17.884923407857464
    vertex -436.0671338137263 -123.91288161459183 17.884923407857464
  endloop
endfacet
facet normal 0.0 1.0 0.0
  outer loop
    vertex -417.31231830729615 -123.91288161459183 17.884923407857464
    vertex -436.0671338137263 -123.91288161459183 43.000000000000036
    vertex -417.31231830729615 -123.91288161459183 43.000000000000036
  endloop
endfacet
facet normal 0.0 0.0 1.0
  outer loop
    vertex -367.8675387994334 -197.39929703624793 17.000000000000043
    vertex -410.2280556359623 -189.04933244775583 17.000000000000043
    vertex -410.2280556359623 -197.39929703624793 17.000000000000043
  endloop
endfacet
facet normal 0.0 0.0 1.0
  outer loop
    vertex -410.2280556359623 -189.04933244775583 17.000000000000043
    vertex -367.8675387994334 -197.39929703624793 17.000000000000043
    vertex -367.8675387994334 -189.04933244775583 17.000000000000043
  endloop
endfacet
facet normal 0.0 -1.0 0.0
  outer loop
    vertex -417.31231830729615 -94.76259167519312 43.000000000000036
    vertex -426.06713381372634 -94.76259167519312 17.884923407857464
    vertex -417.31231830729615 -94.76259167519312 17.884923407857464
  endloop
endfacet
facet normal 0.0 -1.0 0.0
  outer loop
    vertex -426.06713381372634 -94.76259167519312 17.884923407857464
    vertex -417.31231830729615 -94.76259167519312 43.000000000000036
    vertex -426.06713381372634 -94.76259167519312 43.000000000000036
  endloop
endfacet
facet normal 2.8260925587409874e-17 3.458227777631268e-17 -1.0
  outer loop
    vertex -343.88412984770827 -121.5629749658786 4.511946372076636e-14
    vertex -345.88412984770827 -124.53560224689528 4.511946372076636e-14
    vertex -345.88412984770827 -121.5629749658786 4.511946372076636e-14
  endloop
endfacet
facet normal 2.8260925587409874e-17 3.458227777631268e-17 -1.0
  outer loop
    vertex -345.88412984770827 -124.53560224689528 4.511946372076636e-14
    vertex -343.88412984770827 -121.5629749658786 4.511946372076636e-14
    vertex -345.88412984770827 -126.53560224689528 4.511946372076636e-14
  endloop
endfacet
facet normal 2.8260925587409874e-17 3.458227777631268e-17 -1.0
  outer loop
    vertex -345.88412984770827 -126.53560224689528 4.511946372076636e-14
    vertex -343.88412984770827 -121.5629749658786 4.511946372076636e-14
    vertex -345.88412984770827 -129.43180243317462 4.511946372076636e-14
  endloop
endfacet
facet normal 2.8260925587409874e-17 3.458227777631268e-17 -1.0
  outer loop
    vertex -345.88412984770827 -129.43180243317462 4.511946372076636e-14
    vertex -343.88412984770827 -121.5629749658786 4.511946372076636e-14
    vertex -343.88412984770827 -129.43180243317462 4.511946372076636e-14
  endloop
endfacet
facet normal 2.8260925587409874e-17 3.458227777631268e-17 -1.0
  outer loop
    vertex -345.88412984770827 -124.53560224689528 4.511946372076636e-14
    vertex -417.31231830729615 -126.53560224689528 4.511946372076636e-14
    vertex -417.31231830729615 -124.53560224689528 4.511946372076636e-14
  endloop
endfacet
facet normal 2.8260925587409874e-17 3.458227777631268e-17 -1.0
  outer loop
    vertex -417.31231830729615 -126.53560224689528 4.511946372076636e-14
    vertex -345.88412984770827 -124.53560224689528 4.511946372076636e-14
    vertex -345.88412984770827 -126.53560224689528 4.511946372076636e-14
  endloop
endfacet
facet normal 2.8260925587409874e-17 3.458227777631268e-17 -1.0
  outer loop
    vertex -343.88412984770827 -144.4318024331746 4.511946372076636e-14
    vertex -345.88412984770827 -189.04933244775583 4.511946372076636e-14
    vertex -345.88412984770827 -144.4318024331746 4.511946372076636e-14
  endloop
endfacet
facet normal 2.8260925587409874e-17 3.458227777631268e-17 -1.0
  outer loop
    vertex -341.56016797050125 -146.53997769140366 4.511946372076636e-14
    vertex -343.88412984770827 -148.7008633217153 4.511946372076636e-14
    vertex -343.88412984770827 -146.53997769140366 4.511946372076636e-14
  endloop
endfacet
facet normal 2.8260925587409874e-17 3.458227777631268e-17 -1.0
  outer loop
    vertex -343.88412984770827 -148.7008633217153 4.511946372076636e-14
    vertex -341.56016797050125 -146.53997769140366 4.511946372076636e-14
    vertex -341.56016797050125 -148.7008633217153 4.511946372076636e-14
  endloop
endfacet
facet normal 2.8260925587409874e-17 3.458227777631268e-17 -1.0
  outer loop
    vertex -283.0671338137263 -97.02776021227584 4.511946372076636e-14
    vertex -290.3123183072962 -146.53997769140366 4.511946372076636e-14
    vertex -290.3123183072962 -97.02776021227584 4.511946372076636e-14
  endloop
endfacet
facet normal 2.8260925587409874e-17 3.458227777631268e-17 -1.0
  outer loop
    vertex -290.3123183072962 -146.53997769140366 4.511946372076636e-14
    vertex -283.0671338137263 -97.02776021227584 4.511946372076636e-14
    vertex -290.3123183072962 -148.7008633217153 4.511946372076636e-14
  endloop
endfacet
facet normal 2.8260925587409874e-17 3.458227777631268e-17 -1.0
  outer loop
    vertex -290.3123183072962 -148.7008633217153 4.511946372076636e-14
    vertex -283.0671338137263 -97.02776021227584 4.511946372076636e-14
    vertex -290.3123183072962 -189.04933244775583 4.511946372076636e-14
  endloop
endfacet
facet normal 2.8260925587409874e-17 3.458227777631268e-17 -1.0
  outer loop
    vertex -417.31231830729615 -89.69797742530798 4.353479401468895e-14
    vertex -426.06713381372634 -197.39929703624793 4.511946372076636e-14
    vertex -426.06713381372634 -89.69797742530798 4.34030712667869e-14
  endloop
endfacet
facet normal 2.8260925587409874e-17 3.458227777631268e-17 -1.0
  outer loop
    vertex -426.06713381372634 -197.39929703624793 4.511946372076636e-14
    vertex -417.31231830729615 -89.69797742530798 4.353479401468895e-14
    vertex -417.31231830729615 -189.04933244775583 4.511946372076636e-14
  endloop
endfacet
facet normal 2.8260925587409874e-17 3.458227777631268e-17 -1.0
  outer loop
    vertex -426.06713381372634 -197.39929703624793 4.511946372076636e-14
    vertex -417.31231830729615 -189.04933244775583 4.511946372076636e-14
    vertex -283.0671338137263 -197.39929703624793 4.511946372076636e-14
  endloop
endfacet
facet normal 2.8260925587409874e-17 3.458227777631268e-17 -1.0
  outer loop
    vertex -417.31231830729615 -189.04933244775583 4.511946372076636e-14
    vertex -417.31231830729615 -89.69797742530798 4.353479401468895e-14
    vertex -417.31231830729615 -124.53560224689528 4.511946372076636e-14
  endloop
endfacet
facet normal 2.8260925587409874e-17 3.458227777631268e-17 -1.0
  outer loop
    vertex -417.31231830729615 -189.04933244775583 4.511946372076636e-14
    vertex -417.31231830729615 -124.53560224689528 4.511946372076636e-14
    vertex -417.31231830729615 -126.53560224689528 4.511946372076636e-14
  endloop
endfacet
facet normal 2.8260925587409874e-17 3.458227777631268e-17 -1.0
  outer loop
    vertex -283.0671338137263 -197.39929703624793 4.511946372076636e-14
    vertex -417.31231830729615 -189.04933244775583 4.511946372076636e-14
    vertex -345.88412984770827 -189.04933244775583 4.511946372076636e-14
  endloop
endfacet
facet normal 2.8260925587409874e-17 3.458227777631268e-17 -1.0
  outer loop
    vertex -283.0671338137263 -197.39929703624793 4.511946372076636e-14
    vertex -345.88412984770827 -189.04933244775583 4.511946372076636e-14
    vertex -343.88412984770827 -189.04933244775583 4.511946372076636e-14
  endloop
endfacet
facet normal 2.8260925587409874e-17 3.458227777631268e-17 -1.0
  outer loop
    vertex -343.88412984770827 -189.04933244775583 4.511946372076636e-14
    vertex -345.88412984770827 -189.04933244775583 4.511946372076636e-14
    vertex -343.88412984770827 -144.4318024331746 4.511946372076636e-14
  endloop
endfacet
facet normal 2.8260925587409874e-17 3.458227777631268e-17 -1.0
  outer loop
    vertex -343.88412984770827 -189.04933244775583 4.511946372076636e-14
    vertex -343.88412984770827 -144.4318024331746 4.511946372076636e-14
    vertex -343.88412984770827 -146.53997769140366 4.511946372076636e-14
  endloop
endfacet
facet normal 2.8260925587409874e-17 3.458227777631268e-17 -1.0
  outer loop
    vertex -343.88412984770827 -189.04933244775583 4.511946372076636e-14
    vertex -343.88412984770827 -146.53997769140366 4.511946372076636e-14
    vertex -343.88412984770827 -148.7008633217153 4.511946372076636e-14
  endloop
endfacet
facet normal 2.8260925587409874e-17 3.458227777631268e-17 -1.0
  outer loop
    vertex -283.0671338137263 -197.39929703624793 4.511946372076636e-14
    vertex -343.88412984770827 -189.04933244775583 4.511946372076636e-14
    vertex -290.3123183072962 -189.04933244775583 4.511946372076636e-14
  endloop
endfacet
facet normal 2.8260925587409874e-17 3.458227777631268e-17 -1.0
  outer loop
    vertex -283.0671338137263 -197.39929703624793 4.511946372076636e-14
    vertex -290.3123183072962 -189.04933244775583 4.511946372076636e-14
    vertex -283.0671338137263 -97.02776021227584 4.511946372076636e-14
  endloop
endfacet
facet normal 2.8260925587409874e-17 3.458227777631268e-17 -1.0
  outer loop
    vertex -290.3123183072962 -146.53997769140366 4.511946372076636e-14
    vertex -326.56016797050125 -148.7008633217153 4.511946372076636e-14
    vertex -326.56016797050125 -146.53997769140366 4.511946372076636e-14
  endloop
endfacet
facet normal 2.8260925587409874e-17 3.458227777631268e-17 -1.0
  outer loop
    vertex -326.56016797050125 -148.7008633217153 4.511946372076636e-14
    vertex -290.3123183072962 -146.53997769140366 4.511946372076636e-14
    vertex -290.3123183072962 -148.7008633217153 4.511946372076636e-14
  endloop
endfacet
facet normal -1.0 0.0 0.0
  outer loop
    vertex -436.0671338137263 -128.91288161459184 48.000000000000036
    vertex -436.0671338137263 -123.91288161459183 43.000000000000036
    vertex -436.0671338137263 -128.91288161459184 12.884923407857467
  endloop
endfacet
facet normal -1.0 0.0 0.0
  outer loop
    vertex -436.0671338137263 -123.91288161459183 43.000000000000036
    vertex -436.0671338137263 -128.91288161459184 48.000000000000036
    vertex -436.0671338137263 -89.69797742530798 47.957061804960546
  endloop
endfacet
facet normal -1.0 0.0 0.0
  outer loop
    vertex -436.0671338137263 -123.91288161459183 43.000000000000036
    vertex -436.0671338137263 -89.69797742530798 47.957061804960546
    vertex -436.0671338137263 -89.69797742530798 43.000000000000036
  endloop
endfacet
facet normal -1.0 0.0 0.0
  outer loop
    vertex -436.0671338137263 -128.91288161459184 12.884923407857467
    vertex -436.0671338137263 -123.91288161459183 17.884923407857464
    vertex -436.0671338137263 -89.69797742530798 12.884923407857467
  endloop
endfacet
facet normal -1.0 0.0 0.0
  outer loop
    vertex -436.0671338137263 -123.91288161459183 17.884923407857464
    vertex -436.0671338137263 -128.91288161459184 12.884923407857467
    vertex -436.0671338137263 -123.91288161459183 43.000000000000036
  endloop
endfacet
facet normal -1.0 0.0 0.0
  outer loop
    vertex -436.0671338137263 -89.69797742530798 12.884923407857467
    vertex -436.0671338137263 -123.91288161459183 17.884923407857464
    vertex -436.0671338137263 -89.69797742530798 17.884923407857464
  endloop
endfacet
facet normal 0.0 1.0 0.0
  outer loop
    vertex -343.88412984770827 -189.04933244775583 4.511946372076636e-14
    vertex -326.62112188520547 -189.04933244775583 17.000000000000043
    vertex -290.3123183072962 -189.04933244775583 4.511946372076636e-14
  endloop
endfacet
facet normal 0.0 1.0 0.0
  outer loop
    vertex -326.62112188520547 -189.04933244775583 17.000000000000043
    vertex -343.88412984770827 -189.04933244775583 4.511946372076636e-14
    vertex -343.88412984770827 -189.04933244775583 51.00000000000004
  endloop
endfacet
facet normal 0.0 1.0 0.0
  outer loop
    vertex -326.62112188520547 -189.04933244775583 17.000000000000043
    vertex -343.88412984770827 -189.04933244775583 51.00000000000004
    vertex -326.62112188520547 -189.04933244775583 45.00000000000004
  endloop
endfacet
facet normal 0.0 1.0 0.0
  outer loop
    vertex -326.62112188520547 -189.04933244775583 45.00000000000004
    vertex -343.88412984770827 -189.04933244775583 51.00000000000004
    vertex -308.4445789756216 -189.04933244775583 45.00000000000004
  endloop
endfacet
facet normal 0.0 1.0 0.0
  outer loop
    vertex -290.3123183072962 -189.04933244775583 4.511946372076636e-14
    vertex -308.4445789756216 -189.04933244775583 17.000000000000043
    vertex -290.3123183072962 -189.04933244775583 51.00000000000004
  endloop
endfacet
facet normal 0.0 1.0 0.0
  outer loop
    vertex -308.4445789756216 -189.04933244775583 17.000000000000043
    vertex -290.3123183072962 -189.04933244775583 4.511946372076636e-14
    vertex -326.62112188520547 -189.04933244775583 17.000000000000043
  endloop
endfacet
facet normal 0.0 1.0 0.0
  outer loop
    vertex -290.3123183072962 -189.04933244775583 51.00000000000004
    vertex -308.4445789756216 -189.04933244775583 17.000000000000043
    vertex -308.4445789756216 -189.04933244775583 45.00000000000004
  endloop
endfacet
facet normal 0.0 1.0 0.0
  outer loop
    vertex -290.3123183072962 -189.04933244775583 51.00000000000004
    vertex -308.4445789756216 -189.04933244775583 45.00000000000004
    vertex -343.88412984770827 -189.04933244775583 51.00000000000004
  endloop
endfacet
facet normal 0.0 0.0 -1.0
  outer loop
    vertex -283.0671338137263 -89.69797742530798 36.00000000000005
    vertex -290.3123183072962 -97.02776021227584 36.00000000000005
    vertex -290.3123183072962 -89.69797742530798 36.00000000000005
  endloop
endfacet
facet normal 0.0 0.0 -1.0
  outer loop
    vertex -290.3123183072962 -97.02776021227584 36.00000000000005
    vertex -283.0671338137263 -89.69797742530798 36.00000000000005
    vertex -283.0671338137263 -97.02776021227584 36.00000000000005
  endloop
endfacet
facet normal -0.0 1.0 -0.0
  outer loop
    vertex -290.3123183072962 -89.69797742530798 51.00000000000004
    vertex -283.0671338137263 -89.69797742530798 36.00000000000005
    vertex -290.3123183072962 -89.69797742530798 36.00000000000005
  endloop
endfacet
facet normal -0.0 1.0 -0.0
  outer loop
    vertex -283.0671338137263 -89.69797742530798 36.00000000000005
    vertex -290.3123183072962 -89.69797742530798 51.00000000000004
    vertex -283.0671338137263 -89.69797742530798 51.00000000000004
  endloop
endfacet
facet normal 0.0 0.0 1.0
  outer loop
    vertex -308.4445789756216 -197.39929703624793 17.000000000000043
    vertex -326.62112188520547 -189.04933244775583 17.000000000000043
    vertex -326.62112188520547 -197.39929703624793 17.000000000000043
  endloop
endfacet
facet normal 0.0 0.0 1.0
  outer loop
    vertex -326.62112188520547 -189.04933244775583 17.000000000000043
    vertex -308.4445789756216 -197.39929703624793 17.000000000000043
    vertex -308.4445789756216 -189.04933244775583 17.000000000000043
  endloop
endfacet
facet normal -1.0 0.0 0.0
  outer loop
    vertex -308.4445789756216 -189.04933244775583 45.00000000000004
    vertex -308.4445789756216 -197.39929703624793 17.000000000000043
    vertex -308.4445789756216 -197.39929703624793 45.00000000000004
  endloop
endfacet
facet normal -1.0 0.0 0.0
  outer loop
    vertex -308.4445789756216 -197.39929703624793 17.000000000000043
    vertex -308.4445789756216 -189.04933244775583 45.00000000000004
    vertex -308.4445789756216 -189.04933244775583 17.000000000000043
  endloop
endfacet
facet normal -1.0 0.0 0.0
  outer loop
    vertex -367.8675387994334 -189.04933244775583 45.00000000000003
    vertex -367.8675387994334 -197.39929703624793 17.000000000000043
    vertex -367.8675387994334 -197.39929703624793 45.00000000000003
  endloop
endfacet
facet normal -1.0 0.0 0.0
  outer loop
    vertex -367.8675387994334 -197.39929703624793 17.000000000000043
    vertex -367.8675387994334 -189.04933244775583 45.00000000000003
    vertex -367.8675387994334 -189.04933244775583 17.000000000000043
  endloop
endfacet
facet normal -1.0 0.0 0.0
  outer loop
    vertex -345.88412984770827 -124.53560224689528 51.00000000000004
    vertex -345.88412984770827 -121.5629749658786 41.00000000000004
    vertex -345.88412984770827 -124.53560224689528 4.511946372076636e-14
  endloop
endfacet
facet normal -1.0 0.0 0.0
  outer loop
    vertex -345.88412984770827 -121.5629749658786 41.00000000000004
    vertex -345.88412984770827 -124.53560224689528 51.00000000000004
    vertex -345.88412984770827 -89.69797742530798 51.00000000000004
  endloop
endfacet
facet normal -1.0 0.0 0.0
  outer loop
    vertex -345.88412984770827 -121.5629749658786 41.00000000000004
    vertex -345.88412984770827 -89.69797742530798 51.00000000000004
    vertex -345.88412984770827 -106.5629749658786 41.00000000000004
  endloop
endfacet
facet normal -1.0 0.0 0.0
  outer loop
    vertex -345.88412984770827 -106.5629749658786 41.00000000000004
    vertex -345.88412984770827 -89.69797742530798 51.00000000000004
    vertex -345.88412984770827 -106.5629749658786 4.511946372076636e-14
  endloop
endfacet
facet normal -1.0 0.0 0.0
  outer loop
    vertex -345.88412984770827 -106.5629749658786 4.511946372076636e-14
    vertex -345.88412984770827 -89.69797742530798 51.00000000000004
    vertex -345.88412984770827 -89.69797742530798 4.460948453839585e-14
  endloop
endfacet
facet normal -1.0 0.0 0.0
  outer loop
    vertex -345.88412984770827 -121.5629749658786 4.511946372076636e-14
    vertex -345.88412984770827 -124.53560224689528 4.511946372076636e-14
    vertex -345.88412984770827 -121.5629749658786 41.00000000000004
  endloop
endfacet
facet normal -0.0 1.0 -0.0
  outer loop
    vertex -436.0671338137263 -89.69797742530798 17.884923407857464
    vertex -426.06713381372634 -89.69797742530798 12.884923407857467
    vertex -436.0671338137263 -89.69797742530798 12.884923407857467
  endloop
endfacet
facet normal -0.0 1.0 -0.0
  outer loop
    vertex -436.0671338137263 -89.69797742530798 47.957061804960546
    vertex -426.06713381372634 -89.69797742530798 43.000000000000036
    vertex -436.0671338137263 -89.69797742530798 43.000000000000036
  endloop
endfacet
facet normal -0.0 1.0 -0.0
  outer loop
    vertex -426.06713381372634 -89.69797742530798 12.884923407857467
    vertex -417.31231830729615 -89.69797742530798 4.353479401468895e-14
    vertex -426.06713381372634 -89.69797742530798 4.34030712667869e-14
  endloop
endfacet
facet normal -0.0 1.0 -0.0
  outer loop
    vertex -417.31231830729615 -89.69797742530798 4.353479401468895e-14
    vertex -426.06713381372634 -89.69797742530798 12.884923407857467
    vertex -417.31231830729615 -89.69797742530798 51.00000000000004
  endloop
endfacet
facet normal -0.0 1.0 -0.0
  outer loop
    vertex -417.31231830729615 -89.69797742530798 51.00000000000004
    vertex -426.06713381372634 -89.69797742530798 12.884923407857467
    vertex -426.06713381372634 -89.69797742530798 17.884923407857464
  endloop
endfacet
facet normal -0.0 1.0 -0.0
  outer loop
    vertex -426.06713381372634 -89.69797742530798 17.884923407857464
    vertex -426.06713381372634 -89.69797742530798 12.884923407857467
    vertex -436.0671338137263 -89.69797742530798 17.884923407857464
  endloop
endfacet
facet normal -0.0 1.0 -0.0
  outer loop
    vertex -417.31231830729615 -89.69797742530798 51.00000000000004
    vertex -426.06713381372634 -89.69797742530798 17.884923407857464
    vertex -426.06713381372634 -89.69797742530798 43.000000000000036
  endloop
endfacet
facet normal -0.0 1.0 -0.0
  outer loop
    vertex -417.31231830729615 -89.69797742530798 51.00000000000004
    vertex -426.06713381372634 -89.69797742530798 43.000000000000036
    vertex -426.06713381372634 -89.69797742530798 47.957061804960546
  endloop
endfacet
facet normal -0.0 1.0 -0.0
  outer loop
    vertex -426.06713381372634 -89.69797742530798 47.957061804960546
    vertex -426.06713381372634 -89.69797742530798 43.000000000000036
    vertex -436.0671338137263 -89.69797742530798 47.957061804960546
  endloop
endfacet
facet normal -0.0 1.0 -0.0
  outer loop
    vertex -417.31231830729615 -89.69797742530798 51.00000000000004
    vertex -426.06713381372634 -89.69797742530798 47.957061804960546
    vertex -426.06713381372634 -89.69797742530798 51.00000000000004
  endloop
endfacet
facet normal 1.0 0.0 0.0
  outer loop
    vertex -343.88412984770827 -121.5629749658786 4.511946372076636e-14
    vertex -343.88412984770827 -129.43180243317462 41.00000000000004
    vertex -343.88412984770827 -129.43180243317462 4.511946372076636e-14
  endloop
endfacet
facet normal 1.0 0.0 0.0
  outer loop
    vertex -343.88412984770827 -89.69797742530798 4.4639576034397176e-14
    vertex -343.88412984770827 -106.5629749658786 41.00000000000004
    vertex -343.88412984770827 -106.5629749658786 4.511946372076636e-14
  endloop
endfacet
facet normal 1.0 0.0 0.0
  outer loop
    vertex -343.88412984770827 -144.4318024331746 4.511946372076636e-14
    vertex -343.88412984770827 -146.53997769140366 51.00000000000004
    vertex -343.88412984770827 -146.53997769140366 4.511946372076636e-14
  endloop
endfacet
facet normal 1.0 0.0 0.0
  outer loop
    vertex -343.88412984770827 -146.53997769140366 51.00000000000004
    vertex -343.88412984770827 -144.4318024331746 4.511946372076636e-14
    vertex -343.88412984770827 -144.4318024331746 41.00000000000004
  endloop
endfacet
facet normal 1.0 0.0 0.0
  outer loop
    vertex -343.88412984770827 -146.53997769140366 51.00000000000004
    vertex -343.88412984770827 -144.4318024331746 41.00000000000004
    vertex -343.88412984770827 -89.69797742530798 51.00000000000004
  endloop
endfacet
facet normal 1.0 0.0 0.0
  outer loop
    vertex -343.88412984770827 -89.69797742530798 51.00000000000004
    vertex -343.88412984770827 -144.4318024331746 41.00000000000004
    vertex -343.88412984770827 -129.43180243317462 41.00000000000004
  endloop
endfacet
facet normal 1.0 0.0 0.0
  outer loop
    vertex -343.88412984770827 -89.69797742530798 51.00000000000004
    vertex -343.88412984770827 -129.43180243317462 41.00000000000004
    vertex -343.88412984770827 -121.5629749658786 41.00000000000004
  endloop
endfacet
facet normal 1.0 0.0 0.0
  outer loop
    vertex -343.88412984770827 -121.5629749658786 41.00000000000004
    vertex -343.88412984770827 -129.43180243317462 41.00000000000004
    vertex -343.88412984770827 -121.5629749658786 4.511946372076636e-14
  endloop
endfacet
facet normal 1.0 0.0 0.0
  outer loop
    vertex -343.88412984770827 -89.69797742530798 51.00000000000004
    vertex -343.88412984770827 -121.5629749658786 41.00000000000004
    vertex -343.88412984770827 -106.5629749658786 41.00000000000004
  endloop
endfacet
facet normal 1.0 0.0 0.0
  outer loop
    vertex -343.88412984770827 -89.69797742530798 51.00000000000004
    vertex -343.88412984770827 -106.5629749658786 41.00000000000004
    vertex -343.88412984770827 -89.69797742530798 4.4639576034397176e-14
  endloop
endfacet
facet normal 0.0 1.0 0.0
  outer loop
    vertex -290.3123183072962 -97.02776021227584 36.00000000000005
    vertex -283.0671338137263 -97.02776021227584 4.511946372076636e-14
    vertex -290.3123183072962 -97.02776021227584 4.511946372076636e-14
  endloop
endfacet
facet normal 0.0 1.0 0.0
  outer loop
    vertex -283.0671338137263 -97.02776021227584 4.511946372076636e-14
    vertex -290.3123183072962 -97.02776021227584 36.00000000000005
    vertex -283.0671338137263 -97.02776021227584 36.00000000000005
  endloop
endfacet
facet normal 1.457464032887799e-16 3.743227738531185e-32 -1.0
  outer loop
    vertex -371.5311626915724 -189.04933244775583 45.00000000000003
    vertex -410.2280556359623 -197.39929703624793 45.00000000000002
    vertex -410.2280556359623 -189.04933244775583 45.00000000000002
  endloop
endfacet
facet normal 1.457464032887799e-16 3.743227738531185e-32 -1.0
  outer loop
    vertex -410.2280556359623 -197.39929703624793 45.00000000000002
    vertex -371.5311626915724 -189.04933244775583 45.00000000000003
    vertex -371.5311626915724 -197.39929703624793 45.00000000000003
  endloop
endfacet
facet normal 1.0 0.0 0.0
  outer loop
    vertex -410.2280556359623 -189.04933244775583 17.000000000000043
    vertex -410.2280556359623 -197.39929703624793 45.00000000000002
    vertex -410.2280556359623 -197.39929703624793 17.000000000000043
  endloop
endfacet
facet normal 1.0 0.0 0.0
  outer loop
    vertex -410.2280556359623 -197.39929703624793 45.00000000000002
    vertex -410.2280556359623 -189.04933244775583 17.000000000000043
    vertex -410.2280556359623 -189.04933244775583 45.00000000000002
  endloop
endfacet
facet normal -1.0 0.0 0.0
  outer loop
    vertex -426.06713381372634 -89.69797742530798 43.000000000000036
    vertex -426.06713381372634 -94.76259167519312 17.884923407857464
    vertex -426.06713381372634 -94.76259167519312 43.000000000000036
  endloop
endfacet
facet normal -1.0 0.0 0.0
  outer loop
    vertex -426.06713381372634 -94.76259167519312 17.884923407857464
    vertex -426.06713381372634 -89.69797742530798 43.000000000000036
    vertex -426.06713381372634 -89.69797742530798 17.884923407857464
  endloop
endfacet
facet normal 0.0 -1.0 0.0
  outer loop
    vertex -426.06713381372634 -128.91288161459184 48.000000000000036
    vertex -436.0671338137263 -128.91288161459184 12.884923407857467
    vertex -426.06713381372634 -128.91288161459184 12.884923407857467
  endloop
endfacet
facet normal 0.0 -1.0 0.0
  outer loop
    vertex -436.0671338137263 -128.91288161459184 12.884923407857467
    vertex -426.06713381372634 -128.91288161459184 48.000000000000036
    vertex -436.0671338137263 -128.91288161459184 48.000000000000036
  endloop
endfacet
facet normal 0.0 0.0 -1.0
  outer loop
    vertex -426.06713381372634 -89.69797742530798 12.884923407857467
    vertex -436.0671338137263 -128.91288161459184 12.884923407857467
    vertex -436.0671338137263 -89.69797742530798 12.884923407857467
  endloop
endfacet
facet normal 0.0 0.0 -1.0
  outer loop
    vertex -436.0671338137263 -128.91288161459184 12.884923407857467
    vertex -426.06713381372634 -89.69797742530798 12.884923407857467
    vertex -426.06713381372634 -128.91288161459184 12.884923407857467
  endloop
endfacet
facet normal -1.0 0.0 0.0
  outer loop
    vertex -326.56016797050125 -146.53997769140366 41.00000000000004
    vertex -326.56016797050125 -148.7008633217153 4.511946372076636e-14
    vertex -326.56016797050125 -148.7008633217153 41.00000000000004
  endloop
endfacet
facet normal -1.0 0.0 0.0
  outer loop
    vertex -326.56016797050125 -148.7008633217153 4.511946372076636e-14
    vertex -326.56016797050125 -146.53997769140366 41.00000000000004
    vertex -326.56016797050125 -146.53997769140366 4.511946372076636e-14
  endloop
endfacet
facet normal -1.0 0.0 0.0
  outer loop
    vertex -290.3123183072962 -148.7008633217153 51.00000000000004
    vertex -290.3123183072962 -189.04933244775583 4.511946372076636e-14
    vertex -290.3123183072962 -189.04933244775583 51.00000000000004
  endloop
endfacet
facet normal -1.0 0.0 0.0
  outer loop
    vertex -290.3123183072962 -189.04933244775583 4.511946372076636e-14
    vertex -290.3123183072962 -148.7008633217153 51.00000000000004
    vertex -290.3123183072962 -148.7008633217153 4.511946372076636e-14
  endloop
endfacet
facet normal 1.0 0.0 0.0
  outer loop
    vertex -343.88412984770827 -148.7008633217153 4.511946372076636e-14
    vertex -343.88412984770827 -189.04933244775583 51.00000000000004
    vertex -343.88412984770827 -189.04933244775583 4.511946372076636e-14
  endloop
endfacet
facet normal 1.0 0.0 0.0
  outer loop
    vertex -343.88412984770827 -189.04933244775583 51.00000000000004
    vertex -343.88412984770827 -148.7008633217153 4.511946372076636e-14
    vertex -343.88412984770827 -148.7008633217153 51.00000000000004
  endloop
endfacet
facet normal 0.0 -1.0 0.0
  outer loop
    vertex -343.88412984770827 -129.43180243317462 41.00000000000004
    vertex -345.88412984770827 -129.43180243317462 4.511946372076636e-14
    vertex -343.88412984770827 -129.43180243317462 4.511946372076636e-14
  endloop
endfacet
facet normal 0.0 -1.0 0.0
  outer loop
    vertex -345.88412984770827 -129.43180243317462 4.511946372076636e-14
    vertex -343.88412984770827 -129.43180243317462 41.00000000000004
    vertex -345.88412984770827 -129.43180243317462 41.00000000000004
  endloop
endfacet
facet normal -1.0 0.0 0.0
  outer loop
    vertex -290.3123183072962 -89.69797742530798 51.00000000000004
    vertex -290.3123183072962 -146.53997769140366 4.511946372076636e-14
    vertex -290.3123183072962 -146.53997769140366 51.00000000000004
  endloop
endfacet
facet normal -1.0 0.0 0.0
  outer loop
    vertex -290.3123183072962 -146.53997769140366 4.511946372076636e-14
    vertex -290.3123183072962 -89.69797742530798 51.00000000000004
    vertex -290.3123183072962 -97.02776021227584 36.00000000000005
  endloop
endfacet
facet normal -1.0 0.0 0.0
  outer loop
    vertex -290.3123183072962 -97.02776021227584 36.00000000000005
    vertex -290.3123183072962 -89.69797742530798 51.00000000000004
    vertex -290.3123183072962 -89.69797742530798 36.00000000000005
  endloop
endfacet
facet normal -1.0 0.0 0.0
  outer loop
    vertex -290.3123183072962 -97.02776021227584 4.511946372076636e-14
    vertex -290.3123183072962 -146.53997769140366 4.511946372076636e-14
    vertex -290.3123183072962 -97.02776021227584 36.00000000000005
  endloop
endfacet
facet normal 1.0 0.0 0.0
  outer loop
    vertex -326.62112188520547 -189.04933244775583 17.000000000000043
    vertex -326.62112188520547 -197.39929703624793 45.00000000000004
    vertex -326.62112188520547 -197.39929703624793 17.000000000000043
  endloop
endfacet
facet normal 1.0 0.0 0.0
  outer loop
    vertex -326.62112188520547 -197.39929703624793 45.00000000000004
    vertex -326.62112188520547 -189.04933244775583 17.000000000000043
    vertex -326.62112188520547 -189.04933244775583 45.00000000000004
  endloop
endfacet
facet normal 0.0 1.0 0.0
  outer loop
    vertex -343.88412984770827 -146.53997769140366 51.00000000000004
    vertex -341.56016797050125 -146.53997769140366 4.511946372076636e-14
    vertex -343.88412984770827 -146.53997769140366 4.511946372076636e-14
  endloop
endfacet
facet normal 0.0 1.0 0.0
  outer loop
    vertex -341.56016797050125 -146.53997769140366 4.511946372076636e-14
    vertex -343.88412984770827 -146.53997769140366 51.00000000000004
    vertex -341.56016797050125 -146.53997769140366 41.00000000000004
  endloop
endfacet
facet normal 0.0 1.0 0.0
  outer loop
    vertex -341.56016797050125 -146.53997769140366 41.00000000000004
    vertex -343.88412984770827 -146.53997769140366 51.00000000000004
    vertex -326.56016797050125 -146.53997769140366 41.00000000000004
  endloop
endfacet
facet normal 0.0 1.0 0.0
  outer loop
    vertex -326.56016797050125 -146.53997769140366 41.00000000000004
    vertex -290.3123183072962 -146.53997769140366 4.511946372076636e-14
    vertex -326.56016797050125 -146.53997769140366 4.511946372076636e-14
  endloop
endfacet
facet normal 0.0 1.0 0.0
  outer loop
    vertex -290.3123183072962 -146.53997769140366 4.511946372076636e-14
    vertex -326.56016797050125 -146.53997769140366 41.00000000000004
    vertex -290.3123183072962 -146.53997769140366 51.00000000000004
  endloop
endfacet
facet normal 0.0 1.0 0.0
  outer loop
    vertex -290.3123183072962 -146.53997769140366 51.00000000000004
    vertex -326.56016797050125 -146.53997769140366 41.00000000000004
    vertex -343.88412984770827 -146.53997769140366 51.00000000000004
  endloop
endfacet
facet normal 1.0 0.0 0.0
  outer loop
    vertex -417.31231830729615 -124.53560224689528 4.511946372076636e-14
    vertex -417.31231830729615 -123.91288161459183 17.884923407857464
    vertex -417.31231830729615 -124.53560224689528 51.00000000000004
  endloop
endfacet
facet normal 1.0 0.0 0.0
  outer loop
    vertex -417.31231830729615 -123.91288161459183 17.884923407857464
    vertex -417.31231830729615 -124.53560224689528 4.511946372076636e-14
    vertex -417.31231830729615 -89.69797742530798 4.353479401468895e-14
  endloop
endfacet
facet normal 1.0 0.0 0.0
  outer loop
    vertex -417.31231830729615 -123.91288161459183 17.884923407857464
    vertex -417.31231830729615 -89.69797742530798 4.353479401468895e-14
    vertex -417.31231830729615 -94.76259167519312 17.884923407857464
  endloop
endfacet
facet normal 1.0 0.0 0.0
  outer loop
    vertex -417.31231830729615 -94.76259167519312 17.884923407857464
    vertex -417.31231830729615 -89.69797742530798 4.353479401468895e-14
    vertex -417.31231830729615 -94.76259167519312 43.000000000000036
  endloop
endfacet
facet normal 1.0 0.0 0.0
  outer loop
    vertex -417.31231830729615 -124.53560224689528 51.00000000000004
    vertex -417.31231830729615 -123.91288161459183 43.000000000000036
    vertex -417.31231830729615 -89.69797742530798 51.00000000000004
  endloop
endfacet
facet normal 1.0 0.0 0.0
  outer loop
    vertex -417.31231830729615 -123.91288161459183 43.000000000000036
    vertex -417.31231830729615 -124.53560224689528 51.00000000000004
    vertex -417.31231830729615 -123.91288161459183 17.884923407857464
  endloop
endfacet
facet normal 1.0 0.0 0.0
  outer loop
    vertex -417.31231830729615 -89.69797742530798 51.00000000000004
    vertex -417.31231830729615 -123.91288161459183 43.000000000000036
    vertex -417.31231830729615 -94.76259167519312 43.000000000000036
  endloop
endfacet
facet normal 1.0 0.0 0.0
  outer loop
    vertex -417.31231830729615 -89.69797742530798 51.00000000000004
    vertex -417.31231830729615 -94.76259167519312 43.000000000000036
    vertex -417.31231830729615 -89.69797742530798 4.353479401468895e-14
  endloop
endfacet
facet normal 7.522874000332006e-18 -2.934678366713247e-17 -1.0
  outer loop
    vertex -343.88412984770827 -89.69797742530798 4.4639576034397176e-14
    vertex -345.88412984770827 -106.5629749658786 4.511946372076636e-14
    vertex -345.88412984770827 -89.69797742530798 4.460948453839585e-14
  endloop
endfacet
facet normal 7.522874000332006e-18 -2.934678366713247e-17 -1.0
  outer loop
    vertex -345.88412984770827 -106.5629749658786 4.511946372076636e-14
    vertex -343.88412984770827 -89.69797742530798 4.4639576034397176e-14
    vertex -343.88412984770827 -106.5629749658786 4.511946372076636e-14
  endloop
endfacet
facet normal 0.0 0.0010949451538328104 0.9999994005473755
  outer loop
    vertex -426.06713381372634 -128.91288161459184 48.000000000000036
    vertex -436.0671338137263 -89.69797742530798 47.957061804960546
    vertex -436.0671338137263 -128.91288161459184 48.000000000000036
  endloop
endfacet
facet normal 0.0 0.0010949451538328104 0.9999994005473755
  outer loop
    vertex -436.0671338137263 -89.69797742530798 47.957061804960546
    vertex -426.06713381372634 -128.91288161459184 48.000000000000036
    vertex -426.06713381372634 -89.69797742530798 47.957061804960546
  endloop
endfacet
facet normal 0.0 0.0 -1.0
  outer loop
    vertex -367.8675387994334 -189.04933244775583 45.00000000000003
    vertex -371.5311626915724 -197.39929703624793 45.00000000000003
    vertex -371.5311626915724 -189.04933244775583 45.00000000000003
  endloop
endfacet
facet normal 0.0 0.0 -1.0
  outer loop
    vertex -371.5311626915724 -197.39929703624793 45.00000000000003
    vertex -367.8675387994334 -189.04933244775583 45.00000000000003
    vertex -367.8675387994334 -197.39929703624793 45.00000000000003
  endloop
endfacet
facet normal 0.0 1.0 0.0
  outer loop
    vertex -417.31231830729615 -189.04933244775583 4.511946372076636e-14
    vertex -410.2280556359623 -189.04933244775583 17.000000000000043
    vertex -345.88412984770827 -189.04933244775583 4.511946372076636e-14
  endloop
endfacet
facet normal 0.0 1.0 0.0
  outer loop
    vertex -410.2280556359623 -189.04933244775583 17.000000000000043
    vertex -417.31231830729615 -189.04933244775583 4.511946372076636e-14
    vertex -417.31231830729615 -189.04933244775583 51.00000000000004
  endloop
endfacet
facet normal 0.0 1.0 0.0
  outer loop
    vertex -410.2280556359623 -189.04933244775583 17.000000000000043
    vertex -417.31231830729615 -189.04933244775583 51.00000000000004
    vertex -410.2280556359623 -189.04933244775583 45.00000000000002
  endloop
endfacet
facet normal 0.0 1.0 0.0
  outer loop
    vertex -410.2280556359623 -189.04933244775583 45.00000000000002
    vertex -417.31231830729615 -189.04933244775583 51.00000000000004
    vertex -371.5311626915724 -189.04933244775583 45.00000000000003
  endloop
endfacet
facet normal 0.0 1.0 0.0
  outer loop
    vertex -371.5311626915724 -189.04933244775583 45.00000000000003
    vertex -417.31231830729615 -189.04933244775583 51.00000000000004
    vertex -367.8675387994334 -189.04933244775583 45.00000000000003
  endloop
endfacet
facet normal 0.0 1.0 0.0
  outer loop
    vertex -345.88412984770827 -189.04933244775583 4.511946372076636e-14
    vertex -367.8675387994334 -189.04933244775583 17.000000000000043
    vertex -345.88412984770827 -189.04933244775583 51.00000000000004
  endloop
endfacet
facet normal 0.0 1.0 0.0
  outer loop
    vertex -367.8675387994334 -189.04933244775583 17.000000000000043
    vertex -345.88412984770827 -189.04933244775583 4.511946372076636e-14
    vertex -410.2280556359623 -189.04933244775583 17.000000000000043
  endloop
endfacet
facet normal 0.0 1.0 0.0
  outer loop
    vertex -345.88412984770827 -189.04933244775583 51.00000000000004
    vertex -367.8675387994334 -189.04933244775583 17.000000000000043
    vertex -367.8675387994334 -189.04933244775583 45.00000000000003
  endloop
endfacet
facet normal 0.0 1.0 0.0
  outer loop
    vertex -345.88412984770827 -189.04933244775583 51.00000000000004
    vertex -367.8675387994334 -189.04933244775583 45.00000000000003
    vertex -417.31231830729615 -189.04933244775583 51.00000000000004
  endloop
endfacet
facet normal 0.0 0.0 -1.0
  outer loop
    vertex -343.88412984770827 -129.43180243317462 41.00000000000004
    vertex -345.88412984770827 -144.4318024331746 41.00000000000004
    vertex -345.88412984770827 -129.43180243317462 41.00000000000004
  endloop
endfacet
facet normal 0.0 0.0 -1.0
  outer loop
    vertex -345.88412984770827 -144.4318024331746 41.00000000000004
    vertex -343.88412984770827 -129.43180243317462 41.00000000000004
    vertex -343.88412984770827 -144.4318024331746 41.00000000000004
  endloop
endfacet
facet normal 0.0 0.0 -1.0
  outer loop
    vertex -343.88412984770827 -106.5629749658786 41.00000000000004
    vertex -345.88412984770827 -121.5629749658786 41.00000000000004
    vertex -345.88412984770827 -106.5629749658786 41.00000000000004
  endloop
endfacet
facet normal 0.0 0.0 -1.0
  outer loop
    vertex -345.88412984770827 -121.5629749658786 41.00000000000004
    vertex -343.88412984770827 -106.5629749658786 41.00000000000004
    vertex -343.88412984770827 -121.5629749658786 41.00000000000004
  endloop
endfacet
facet normal 0.0 0.0 -1.0
  outer loop
    vertex -308.4445789756216 -189.04933244775583 45.00000000000004
    vertex -326.62112188520547 -197.39929703624793 45.00000000000004
    vertex -326.62112188520547 -189.04933244775583 45.00000000000004
  endloop
endfacet
facet normal 0.0 0.0 -1.0
  outer loop
    vertex -326.62112188520547 -197.39929703624793 45.00000000000004
    vertex -308.4445789756216 -189.04933244775583 45.00000000000004
    vertex -308.4445789756216 -197.39929703624793 45.00000000000004
  endloop
endfacet
facet normal 0.0 -1.0 0.0
  outer loop
    vertex -290.3123183072962 -148.7008633217153 51.00000000000004
    vertex -326.56016797050125 -148.7008633217153 4.511946372076636e-14
    vertex -290.3123183072962 -148.7008633217153 4.511946372076636e-14
  endloop
endfacet
facet normal 0.0 -1.0 0.0
  outer loop
    vertex -326.56016797050125 -148.7008633217153 4.511946372076636e-14
    vertex -290.3123183072962 -148.7008633217153 51.00000000000004
    vertex -326.56016797050125 -148.7008633217153 41.00000000000004
  endloop
endfacet
facet normal 0.0 -1.0 0.0
  outer loop
    vertex -326.56016797050125 -148.7008633217153 41.00000000000004
    vertex -290.3123183072962 -148.7008633217153 51.00000000000004
    vertex -341.56016797050125 -148.7008633217153 41.00000000000004
  endloop
endfacet
facet normal 0.0 -1.0 0.0
  outer loop
    vertex -341.56016797050125 -148.7008633217153 41.00000000000004
    vertex -343.88412984770827 -148.7008633217153 4.511946372076636e-14
    vertex -341.56016797050125 -148.7008633217153 4.511946372076636e-14
  endloop
endfacet
facet normal 0.0 -1.0 0.0
  outer loop
    vertex -343.88412984770827 -148.7008633217153 4.511946372076636e-14
    vertex -341.56016797050125 -148.7008633217153 41.00000000000004
    vertex -343.88412984770827 -148.7008633217153 51.00000000000004
  endloop
endfacet
facet normal 0.0 -1.0 0.0
  outer loop
    vertex -343.88412984770827 -148.7008633217153 51.00000000000004
    vertex -341.56016797050125 -148.7008633217153 41.00000000000004
    vertex -290.3123183072962 -148.7008633217153 51.00000000000004
  endloop
endfacet
facet normal -0.0 -0.0 -1.0
  outer loop
    vertex -326.56016797050125 -146.53997769140366 41.00000000000004
    vertex -341.56016797050125 -148.7008633217153 41.00000000000004
    vertex -341.56016797050125 -146.53997769140366 41.00000000000004
  endloop
endfacet
facet normal -0.0 -0.0 -1.0
  outer loop
    vertex -341.56016797050125 -148.7008633217153 41.00000000000004
    vertex -326.56016797050125 -146.53997769140366 41.00000000000004
    vertex -326.56016797050125 -148.7008633217153 41.00000000000004
  endloop
endfacet
facet normal -0.0 1.0 -0.0
  outer loop
    vertex -345.88412984770827 -89.69797742530798 51.00000000000004
    vertex -343.88412984770827 -89.69797742530798 4.4639576034397176e-14
    vertex -345.88412984770827 -89.69797742530798 4.460948453839585e-14
  endloop
endfacet
facet normal -0.0 1.0 -0.0
  outer loop
    vertex -343.88412984770827 -89.69797742530798 4.4639576034397176e-14
    vertex -345.88412984770827 -89.69797742530798 51.00000000000004
    vertex -343.88412984770827 -89.69797742530798 51.00000000000004
  endloop
endfacet
facet normal -1.0 0.0 0.0
  outer loop
    vertex -345.88412984770827 -189.04933244775583 51.00000000000004
    vertex -345.88412984770827 -144.4318024331746 41.00000000000004
    vertex -345.88412984770827 -189.04933244775583 4.511946372076636e-14
  endloop
endfacet
facet normal -1.0 0.0 0.0
  outer loop
    vertex -345.88412984770827 -144.4318024331746 41.00000000000004
    vertex -345.88412984770827 -189.04933244775583 51.00000000000004
    vertex -345.88412984770827 -126.53560224689528 51.00000000000004
  endloop
endfacet
facet normal -1.0 0.0 0.0
  outer loop
    vertex -345.88412984770827 -144.4318024331746 41.00000000000004
    vertex -345.88412984770827 -126.53560224689528 51.00000000000004
    vertex -345.88412984770827 -129.43180243317462 41.00000000000004
  endloop
endfacet
facet normal -1.0 0.0 0.0
  outer loop
    vertex -345.88412984770827 -129.43180243317462 41.00000000000004
    vertex -345.88412984770827 -126.53560224689528 51.00000000000004
    vertex -345.88412984770827 -129.43180243317462 4.511946372076636e-14
  endloop
endfacet
facet normal -1.0 0.0 0.0
  outer loop
    vertex -345.88412984770827 -129.43180243317462 4.511946372076636e-14
    vertex -345.88412984770827 -126.53560224689528 51.00000000000004
    vertex -345.88412984770827 -126.53560224689528 4.511946372076636e-14
  endloop
endfacet
facet normal -1.0 0.0 0.0
  outer loop
    vertex -345.88412984770827 -144.4318024331746 4.511946372076636e-14
    vertex -345.88412984770827 -189.04933244775583 4.511946372076636e-14
    vertex -345.88412984770827 -144.4318024331746 41.00000000000004
  endloop
endfacet
facet normal 0.0 1.0 2.751186812241851e-16
  outer loop
    vertex -345.88412984770827 -144.4318024331746 41.00000000000004
    vertex -343.88412984770827 -144.4318024331746 4.511946372076636e-14
    vertex -345.88412984770827 -144.4318024331746 4.511946372076636e-14
  endloop
endfacet
facet normal 0.0 1.0 2.751186812241851e-16
  outer loop
    vertex -343.88412984770827 -144.4318024331746 4.511946372076636e-14
    vertex -345.88412984770827 -144.4318024331746 41.00000000000004
    vertex -343.88412984770827 -144.4318024331746 41.00000000000004
  endloop
endfacet
facet normal 0.0 1.0 0.0
  outer loop
    vertex -417.31231830729615 -124.53560224689528 51.00000000000004
    vertex -345.88412984770827 -124.53560224689528 4.511946372076636e-14
    vertex -417.31231830729615 -124.53560224689528 4.511946372076636e-14
  endloop
endfacet
facet normal 0.0 1.0 0.0
  outer loop
    vertex -345.88412984770827 -124.53560224689528 4.511946372076636e-14
    vertex -417.31231830729615 -124.53560224689528 51.00000000000004
    vertex -345.88412984770827 -124.53560224689528 51.00000000000004
  endloop
endfacet
facet normal 0.0 1.0 0.0
  outer loop
    vertex -345.88412984770827 -121.5629749658786 41.00000000000004
    vertex -343.88412984770827 -121.5629749658786 4.511946372076636e-14
    vertex -345.88412984770827 -121.5629749658786 4.511946372076636e-14
  endloop
endfacet
facet normal 0.0 1.0 0.0
  outer loop
    vertex -343.88412984770827 -121.5629749658786 4.511946372076636e-14
    vertex -345.88412984770827 -121.5629749658786 41.00000000000004
    vertex -343.88412984770827 -121.5629749658786 41.00000000000004
  endloop
endfacet
endsolid FirstFloorV8
