solid GroundFloorMainV8
facet normal -0.9920216447022646 0.12606766612503864 0.0
  outer loop
    vertex -763.1811906565084 689.8176513328153 703.4179524012388
    vertex -760.1673488292885 713.5334574408284 699.4179524012388
    vertex -763.1811906565084 689.8176513328153 649.4179524012388
  endloop
endfacet
facet normal -0.9920216447022646 0.12606766612503864 0.0
  outer loop
    vertex -760.1673488292885 713.5334574408284 699.4179524012388
    vertex -763.1811906565084 689.8176513328153 703.4179524012388
    vertex -744.3853589605117 837.7213323140751 703.4179524012388
  endloop
endfacet
facet normal -0.9920216447022646 0.12606766612503864 0.0
  outer loop
    vertex -763.1811906565084 689.8176513328153 649.4179524012388
    vertex -760.1673488292885 713.5334574408284 699.4179524012388
    vertex -760.1673488292885 713.5334574408283 679.2015184124115
  endloop
endfacet
facet normal -0.9920216447022646 0.12606766612503864 0.0
  outer loop
    vertex -760.1673488292885 713.5334574408284 699.4179524012388
    vertex -744.3853589605117 837.7213323140751 703.4179524012388
    vertex -757.3174942487159 735.9588541748159 699.4179524012388
  endloop
endfacet
facet normal -0.9920216447022646 0.12606766612503864 0.0
  outer loop
    vertex -757.3174942487159 735.9588541748159 699.4179524012388
    vertex -744.3853589605117 837.7213323140751 703.4179524012388
    vertex -754.3192232900476 759.5521337135289 699.4179524012388
  endloop
endfacet
facet normal -0.9920216447022646 0.12606766612503864 0.0
  outer loop
    vertex -757.3174942487159 735.9588541748159 699.4179524012388
    vertex -754.3192232900476 759.5521337135289 699.4179524012388
    vertex -757.3174942487159 735.9588541748159 679.2015184124115
  endloop
endfacet
facet normal -0.9920216447022646 0.12606766612503864 0.0
  outer loop
    vertex -754.3192232900476 759.5521337135289 699.4179524012388
    vertex -744.3853589605117 837.7213323140751 703.4179524012388
    vertex -749.8968913637608 794.3512945592856 699.4179524012388
  endloop
endfacet
facet normal -0.9920216447022646 0.12606766612503864 0.0
  outer loop
    vertex -749.8968913637608 794.3512945592856 699.4179524012388
    vertex -744.3853589605117 837.7213323140751 703.4179524012388
    vertex -749.8968913637608 794.3512945592856 679.2015184124115
  endloop
endfacet
facet normal -0.9920216447022646 0.12606766612503864 0.0
  outer loop
    vertex -760.1673488292885 713.5334574408283 679.2015184124115
    vertex -744.3853589605117 837.7213323140751 649.4179524012388
    vertex -763.1811906565084 689.8176513328153 649.4179524012388
  endloop
endfacet
facet normal -0.9920216447022646 0.12606766612503864 0.0
  outer loop
    vertex -744.3853589605117 837.7213323140751 649.4179524012388
    vertex -760.1673488292885 713.5334574408283 679.2015184124115
    vertex -757.3174942487159 735.9588541748159 679.2015184124115
  endloop
endfacet
facet normal -0.9920216447022646 0.12606766612503864 0.0
  outer loop
    vertex -744.3853589605117 837.7213323140751 649.4179524012388
    vertex -757.3174942487159 735.9588541748159 679.2015184124115
    vertex -754.3192232900476 759.5521337135289 679.2015184124115
  endloop
endfacet
facet normal -0.9920216447022646 0.12606766612503864 0.0
  outer loop
    vertex -754.3192232900476 759.5521337135289 679.2015184124115
    vertex -757.3174942487159 735.9588541748159 679.2015184124115
    vertex -754.3192232900476 759.5521337135289 699.4179524012388
  endloop
endfacet
facet normal -0.9920216447022646 0.12606766612503864 0.0
  outer loop
    vertex -744.3853589605117 837.7213323140751 649.4179524012388
    vertex -754.3192232900476 759.5521337135289 679.2015184124115
    vertex -749.8968913637608 794.3512945592856 679.2015184124115
  endloop
endfacet
facet normal -0.9920216447022646 0.12606766612503864 0.0
  outer loop
    vertex -744.3853589605117 837.7213323140751 649.4179524012388
    vertex -749.8968913637608 794.3512945592856 679.2015184124115
    vertex -744.3853589605117 837.7213323140751 703.4179524012388
  endloop
endfacet
facet normal 0.0 0.0 -1.0
  outer loop
    vertex -630.141322547107 837.7213323140751 700.4672609939794
    vertex -654.4587543915947 830.0158167540803 700.4672609939794
    vertex -654.4587543915947 837.7213323140751 700.4672609939794
  endloop
endfacet
facet normal 0.0 0.0 -1.0
  outer loop
    vertex -654.4587543915947 830.0158167540803 700.4672609939794
    vertex -630.141322547107 837.7213323140751 700.4672609939794
    vertex -630.141322547107 830.0158167540803 700.4672609939794
  endloop
endfacet
facet normal 0.0 -1.0 0.0
  outer loop
    vertex -618.6552234528633 761.526809972773 700.417952401239
    vertex -648.802215286691 761.526809972773 649.4179524012388
    vertex -618.6552234528633 761.526809972773 649.4179524012388
  endloop
endfacet
facet normal 0.0 -1.0 0.0
  outer loop
    vertex -648.802215286691 761.526809972773 649.4179524012388
    vertex -618.6552234528633 761.526809972773 700.417952401239
    vertex -648.802215286691 761.526809972773 703.4179524012388
  endloop
endfacet
facet normal 0.0 -1.0 0.0
  outer loop
    vertex -648.802215286691 761.526809972773 703.4179524012388
    vertex -618.6552234528633 761.526809972773 700.417952401239
    vertex -618.6552234528633 761.526809972773 703.4179524012388
  endloop
endfacet
facet normal 0.0 0.0 -1.0
  outer loop
    vertex -648.802215286691 717.0741298225028 685.3179524012388
    vertex -650.4214860807671 702.1741298225028 685.3179524012388
    vertex -650.4214860807671 717.0741298225028 685.3179524012388
  endloop
endfacet
facet normal 0.0 0.0 -1.0
  outer loop
    vertex -650.4214860807671 702.1741298225028 685.3179524012388
    vertex -648.802215286691 717.0741298225028 685.3179524012388
    vertex -648.802215286691 702.1741298225028 685.3179524012388
  endloop
endfacet
facet normal 0.0 -1.0 0.0
  outer loop
    vertex -682.5122625817716 697.0031072414309 703.4179524012388
    vertex -753.8632842099818 697.0031072414309 649.4179524012388
    vertex -682.5122625817716 697.0031072414309 649.4179524012388
  endloop
endfacet
facet normal 0.0 -1.0 0.0
  outer loop
    vertex -753.8632842099818 697.0031072414309 649.4179524012388
    vertex -682.5122625817716 697.0031072414309 703.4179524012388
    vertex -753.8632842099818 697.0031072414309 703.4179524012388
  endloop
endfacet
facet normal 0.0 0.0 -1.0
  outer loop
    vertex -650.4214860807671 702.1741298225028 649.4179524012388
    vertex -648.802215286691 689.8176513328153 649.4179524012388
    vertex -650.4214860807673 689.8176513328153 649.4179524012388
  endloop
endfacet
facet normal 0.0 0.0 -1.0
  outer loop
    vertex -648.802215286691 689.8176513328153 649.4179524012388
    vertex -650.4214860807671 702.1741298225028 649.4179524012388
    vertex -648.802215286691 702.1741298225028 649.4179524012388
  endloop
endfacet
facet normal 0.0 -1.0 0.0
  outer loop
    vertex -648.802215286691 717.0741298225028 685.3179524012388
    vertex -650.4214860807671 717.0741298225028 649.4179524012388
    vertex -648.802215286691 717.0741298225028 649.4179524012388
  endloop
endfacet
facet normal 0.0 -1.0 0.0
  outer loop
    vertex -650.4214860807671 717.0741298225028 649.4179524012388
    vertex -648.802215286691 717.0741298225028 685.3179524012388
    vertex -650.4214860807671 717.0741298225028 685.3179524012388
  endloop
endfacet
facet normal 0.0 0.0 -1.0
  outer loop
    vertex -663.3650795454546 837.7213323140751 700.4672609939794
    vertex -729.1745916364799 830.0158167540809 700.4672609939794
    vertex -729.1745916364799 837.7213323140751 700.4672609939794
  endloop
endfacet
facet normal 0.0 0.0 -1.0
  outer loop
    vertex -729.1745916364799 830.0158167540809 700.4672609939794
    vertex -663.3650795454546 837.7213323140751 700.4672609939794
    vertex -663.3650795454546 830.0158167540809 700.4672609939794
  endloop
endfacet
facet normal -1.0 0.0 0.0
  outer loop
    vertex -663.3650795454546 837.7213323140751 700.4672609939794
    vertex -663.3650795454546 830.0158167540809 649.4179524012388
    vertex -663.3650795454546 830.0158167540809 700.4672609939794
  endloop
endfacet
facet normal -1.0 0.0 0.0
  outer loop
    vertex -663.3650795454546 830.0158167540809 649.4179524012388
    vertex -663.3650795454546 837.7213323140751 700.4672609939794
    vertex -663.3650795454546 837.7213323140751 649.4179524012388
  endloop
endfacet
facet normal 8.759985402198458e-11 -6.808835039887916e-11 -1.0
  outer loop
    vertex -618.6922908217165 700.6405584215034 649.417952401239
    vertex -610.2854722964723 689.8176513328153 649.4179524027122
    vertex -618.6988797753621 689.8176513328153 649.4179524012388
  endloop
endfacet
facet normal 8.759985402198458e-11 -6.808835039887916e-11 -1.0
  outer loop
    vertex -610.2854722964723 689.8176513328153 649.4179524027122
    vertex -618.6922908217165 700.6405584215034 649.417952401239
    vertex -610.2853589605116 700.6354403063907 649.4179524012388
  endloop
endfacet
facet normal 0.1242049037384653 0.9922565907502549 -2.766363418613748e-18
  outer loop
    vertex -754.3192232900476 759.5521337135289 699.4179524012388
    vertex -746.1615798452666 758.531007395763 679.2015184124115
    vertex -754.3192232900476 759.5521337135289 679.2015184124115
  endloop
endfacet
facet normal 0.1242049037384653 0.9922565907502549 -2.766363418613748e-18
  outer loop
    vertex -746.1615798452666 758.531007395763 679.2015184124115
    vertex -754.3192232900476 759.5521337135289 699.4179524012388
    vertex -746.1615798452666 758.531007395763 699.4179524012388
  endloop
endfacet
facet normal 0.0 1.0 0.0
  outer loop
    vertex -753.5879010169932 699.203107241431 703.4179524012388
    vertex -680.4060967289746 699.203107241431 649.4179524012388
    vertex -753.5879010169932 699.203107241431 649.4179524012388
  endloop
endfacet
facet normal 0.0 1.0 0.0
  outer loop
    vertex -680.4060967289746 699.203107241431 649.4179524012388
    vertex -753.5879010169932 699.203107241431 703.4179524012388
    vertex -680.4060967289746 699.203107241431 703.4179524012388
  endloop
endfacet
facet normal 1.0 0.0 0.0
  outer loop
    vertex -654.4587543915947 837.7213323140751 657.4179524012388
    vertex -654.4587543915947 830.0158167540803 700.4672609939794
    vertex -654.4587543915947 830.0158167540803 657.4179524012388
  endloop
endfacet
facet normal 1.0 0.0 0.0
  outer loop
    vertex -654.4587543915947 830.0158167540803 700.4672609939794
    vertex -654.4587543915947 837.7213323140751 657.4179524012388
    vertex -654.4587543915947 837.7213323140751 700.4672609939794
  endloop
endfacet
facet normal -1.0 0.0 0.0
  outer loop
    vertex -682.5122625817716 697.0031072414309 703.4179524012388
    vertex -682.5122625817716 689.8176513328153 649.4179524012388
    vertex -682.5122625817716 689.8176513328153 703.4179524012388
  endloop
endfacet
facet normal -1.0 0.0 0.0
  outer loop
    vertex -682.5122625817716 689.8176513328153 649.4179524012388
    vertex -682.5122625817716 697.0031072414309 703.4179524012388
    vertex -682.5122625817716 697.0031072414309 649.4179524012388
  endloop
endfacet
facet normal 2.733393874463064e-15 -3.44756849995655e-16 -1.0
  outer loop
    vertex -749.8968913637608 794.3512945592856 699.4179524012388
    vertex -746.1615798452666 758.531007395763 699.4179524012388
    vertex -754.3192232900476 759.5521337135289 699.4179524012388
  endloop
endfacet
facet normal 2.733393874463064e-15 -3.44756849995655e-16 -1.0
  outer loop
    vertex -746.1615798452666 758.531007395763 699.4179524012388
    vertex -749.8968913637608 794.3512945592856 699.4179524012388
    vertex -741.8045995031496 793.3383485723909 699.4179524012388
  endloop
endfacet
facet normal 0.9922565907502551 -0.12420490373846288 -1.8555631467986518e-16
  outer loop
    vertex -753.5879010169932 699.203107241431 649.4179524012388
    vertex -751.9232839501185 712.5015133909968 679.2179524012389
    vertex -753.5879010169932 699.203107241431 703.4179524012388
  endloop
endfacet
facet normal 0.9922565907502551 -0.12420490373846288 -1.8555631467986518e-16
  outer loop
    vertex -751.9232839501185 712.5015133909968 679.2179524012389
    vertex -753.5879010169932 699.203107241431 649.4179524012388
    vertex -737.2135275492382 830.0158167540807 649.4179524012388
  endloop
endfacet
facet normal 0.9922565907502551 -0.12420490373846288 -1.8555631467986518e-16
  outer loop
    vertex -751.9232839501185 712.5015133909968 679.2179524012389
    vertex -737.2135275492382 830.0158167540807 649.4179524012388
    vertex -749.1155434655927 734.9321817223657 679.2179524012389
  endloop
endfacet
facet normal 0.9922565907502551 -0.12420490373846288 -1.8555631467986518e-16
  outer loop
    vertex -749.1155434655927 734.9321817223657 679.2179524012389
    vertex -737.2135275492382 830.0158167540807 649.4179524012388
    vertex -746.1615798452666 758.531007395763 679.2015184124115
  endloop
endfacet
facet normal 0.9922565907502551 -0.12420490373846288 -1.8555631467986518e-16
  outer loop
    vertex -749.1155434655927 734.9321817223657 679.2179524012389
    vertex -746.1615798452666 758.531007395763 679.2015184124115
    vertex -749.1155434655927 734.9321817223657 699.4179524012388
  endloop
endfacet
facet normal 0.9922565907502551 -0.12420490373846288 -1.8555631467986518e-16
  outer loop
    vertex -746.1615798452666 758.531007395763 679.2015184124115
    vertex -737.2135275492382 830.0158167540807 649.4179524012388
    vertex -741.8045995031496 793.3383485723909 679.2015184124115
  endloop
endfacet
facet normal 0.9922565907502551 -0.12420490373846288 -1.8555631467986518e-16
  outer loop
    vertex -741.8045995031496 793.3383485723909 679.2015184124115
    vertex -737.2135275492382 830.0158167540807 649.4179524012388
    vertex -741.8045995031496 793.3383485723909 699.4179524012388
  endloop
endfacet
facet normal 0.9922565907502551 -0.12420490373846288 -1.8555631467986518e-16
  outer loop
    vertex -753.5879010169932 699.203107241431 703.4179524012388
    vertex -751.9232839501185 712.5015133909968 699.4179524012388
    vertex -737.2135275492382 830.0158167540807 703.4179524012388
  endloop
endfacet
facet normal 0.9922565907502551 -0.12420490373846288 -1.8555631467986518e-16
  outer loop
    vertex -751.9232839501185 712.5015133909968 699.4179524012388
    vertex -753.5879010169932 699.203107241431 703.4179524012388
    vertex -751.9232839501185 712.5015133909968 679.2179524012389
  endloop
endfacet
facet normal 0.9922565907502551 -0.12420490373846288 -1.8555631467986518e-16
  outer loop
    vertex -737.2135275492382 830.0158167540807 703.4179524012388
    vertex -751.9232839501185 712.5015133909968 699.4179524012388
    vertex -749.1155434655927 734.9321817223657 699.4179524012388
  endloop
endfacet
facet normal 0.9922565907502551 -0.12420490373846288 -1.8555631467986518e-16
  outer loop
    vertex -737.2135275492382 830.0158167540807 703.4179524012388
    vertex -749.1155434655927 734.9321817223657 699.4179524012388
    vertex -746.1615798452666 758.531007395763 699.4179524012388
  endloop
endfacet
facet normal 0.9922565907502551 -0.12420490373846288 -1.8555631467986518e-16
  outer loop
    vertex -746.1615798452666 758.531007395763 699.4179524012388
    vertex -749.1155434655927 734.9321817223657 699.4179524012388
    vertex -746.1615798452666 758.531007395763 679.2015184124115
  endloop
endfacet
facet normal 0.9922565907502551 -0.12420490373846288 -1.8555631467986518e-16
  outer loop
    vertex -737.2135275492382 830.0158167540807 703.4179524012388
    vertex -746.1615798452666 758.531007395763 699.4179524012388
    vertex -741.8045995031496 793.3383485723909 699.4179524012388
  endloop
endfacet
facet normal 0.9922565907502551 -0.12420490373846288 -1.8555631467986518e-16
  outer loop
    vertex -737.2135275492382 830.0158167540807 703.4179524012388
    vertex -741.8045995031496 793.3383485723909 699.4179524012388
    vertex -737.2135275492382 830.0158167540807 649.4179524012388
  endloop
endfacet
facet normal -1.2888115844268045e-16 -2.1944654544946945e-16 -1.0
  outer loop
    vertex -610.2853589605116 837.7213323140751 649.4179524012388
    vertex -663.3650795454546 830.0158167540809 649.4179524012388
    vertex -663.3650795454546 837.7213323140751 649.4179524012388
  endloop
endfacet
facet normal -1.2888115844268045e-16 -2.1944654544946945e-16 -1.0
  outer loop
    vertex -663.3650795454546 830.0158167540809 649.4179524012388
    vertex -610.2853589605116 837.7213323140751 649.4179524012388
    vertex -618.6135275492381 830.0158167540807 649.4179524012388
  endloop
endfacet
facet normal -1.2888115844268045e-16 -2.1944654544946945e-16 -1.0
  outer loop
    vertex -618.6552234528633 761.526809972773 649.4179524012388
    vertex -610.2853589605116 718.6549839825108 649.4179524012388
    vertex -618.6813205811872 718.6600954189738 649.417952401239
  endloop
endfacet
facet normal -1.2888115844268045e-16 -2.1944654544946945e-16 -1.0
  outer loop
    vertex -610.2853589605116 718.6549839825108 649.4179524012388
    vertex -618.6552234528633 761.526809972773 649.4179524012388
    vertex -618.6538610772877 763.7646257273213 649.4179524012388
  endloop
endfacet
facet normal -1.2888115844268045e-16 -2.1944654544946945e-16 -1.0
  outer loop
    vertex -610.2853589605116 718.6549839825108 649.4179524012388
    vertex -618.6538610772877 763.7646257273213 649.4179524012388
    vertex -618.6135275492381 830.0158167540807 649.4179524012388
  endloop
endfacet
facet normal -1.2888115844268045e-16 -2.1944654544946945e-16 -1.0
  outer loop
    vertex -610.2853589605116 718.6549839825108 649.4179524012388
    vertex -618.6135275492381 830.0158167540807 649.4179524012388
    vertex -610.2853589605116 837.7213323140751 649.4179524012388
  endloop
endfacet
facet normal 1.0 -1.9229524402254083e-14 3.342182497834545e-15
  outer loop
    vertex -680.4060967289746 699.203107241431 649.4179524012388
    vertex -680.4060967289751 689.8176513328153 703.4179532761534
    vertex -680.4060967289746 689.8176513328153 649.4179524012388
  endloop
endfacet
facet normal 1.0 -1.9229524402254083e-14 3.342182497834545e-15
  outer loop
    vertex -680.4060967289751 689.8176513328153 703.4179532761534
    vertex -680.4060967289746 699.203107241431 649.4179524012388
    vertex -680.4060967289746 699.203107241431 703.4179524012388
  endloop
endfacet
facet normal -0.12420490373845916 -0.9922565907502555 1.9419525897888057e-19
  outer loop
    vertex -749.1155434655927 734.9321817223657 679.2179524012389
    vertex -757.3174942487159 735.9588541748159 699.4179524012388
    vertex -757.3174942487159 735.9588541748159 679.2015184124115
  endloop
endfacet
facet normal -0.12420490373845916 -0.9922565907502555 1.9419525897888057e-19
  outer loop
    vertex -757.3174942487159 735.9588541748159 699.4179524012388
    vertex -749.1155434655927 734.9321817223657 679.2179524012389
    vertex -749.1155434655927 734.9321817223657 699.4179524012388
  endloop
endfacet
facet normal -0.9999998146831424 0.0006087969129406902 0.0
  outer loop
    vertex -618.6538610772877 763.7646257273213 700.417952401239
    vertex -618.6552234528633 761.526809972773 649.4179524012388
    vertex -618.6552234528633 761.526809972773 700.417952401239
  endloop
endfacet
facet normal -0.9999998146831424 0.0006087969129406902 0.0
  outer loop
    vertex -618.6552234528633 761.526809972773 649.4179524012388
    vertex -618.6538610772877 763.7646257273213 700.417952401239
    vertex -618.6538610772877 763.7646257273213 649.4179524012388
  endloop
endfacet
facet normal 0.9922565907502537 -0.12420490373847388 -6.290533300811417e-19
  outer loop
    vertex -753.8632842099818 697.0031072414309 649.4179524012388
    vertex -754.7627177514328 689.8176513328153 703.4179492805633
    vertex -754.7627177514328 689.8176513328153 649.4179524012388
  endloop
endfacet
facet normal 0.9922565907502537 -0.12420490373847388 -6.290533300811417e-19
  outer loop
    vertex -754.7627177514328 689.8176513328153 703.4179492805633
    vertex -753.8632842099818 697.0031072414309 649.4179524012388
    vertex -753.8632842099818 697.0031072414309 703.4179524012388
  endloop
endfacet
facet normal -0.000608796912238429 -0.9999998135558447 4.748258458537115e-05
  outer loop
    vertex -610.2798310055662 736.815246798567 699.6301662231779
    vertex -618.6702654432268 736.8190835427779 672.8555688930162
    vertex -610.2853589605116 736.8139788366501 672.8555688930162
  endloop
endfacet
facet normal -0.000608796912238429 -0.9999998135558447 4.748258458537115e-05
  outer loop
    vertex -618.6702654432268 736.8190835427779 672.8555688930162
    vertex -610.2798310055662 736.815246798567 699.6301662231779
    vertex -618.6757926262417 736.82035823503 699.6301662231779
  endloop
endfacet
facet normal -9.997691690043326e-17 -1.0 -8.185529662763524e-16
  outer loop
    vertex -618.6135275492381 830.0158167540807 649.4179524012388
    vertex -630.141322547107 830.0158167540803 657.4179524012388
    vertex -663.3650795454546 830.0158167540809 649.4179524012388
  endloop
endfacet
facet normal -9.997691690043326e-17 -1.0 -8.185529662763524e-16
  outer loop
    vertex -630.141322547107 830.0158167540803 657.4179524012388
    vertex -618.6135275492381 830.0158167540807 649.4179524012388
    vertex -618.6135275492381 830.0158167540807 703.4179524012388
  endloop
endfacet
facet normal -9.997691690043326e-17 -1.0 -8.185529662763524e-16
  outer loop
    vertex -630.141322547107 830.0158167540803 657.4179524012388
    vertex -618.6135275492381 830.0158167540807 703.4179524012388
    vertex -630.141322547107 830.0158167540803 700.4672609939794
  endloop
endfacet
facet normal -9.997691690043326e-17 -1.0 -8.185529662763524e-16
  outer loop
    vertex -630.141322547107 830.0158167540803 700.4672609939794
    vertex -618.6135275492381 830.0158167540807 703.4179524012388
    vertex -654.4587543915947 830.0158167540803 700.4672609939794
  endloop
endfacet
facet normal -9.997691690043326e-17 -1.0 -8.185529662763524e-16
  outer loop
    vertex -654.4587543915947 830.0158167540803 700.4672609939794
    vertex -618.6135275492381 830.0158167540807 703.4179524012388
    vertex -663.3650795454546 830.0158167540809 700.4672609939794
  endloop
endfacet
facet normal -9.997691690043326e-17 -1.0 -8.185529662763524e-16
  outer loop
    vertex -663.3650795454546 830.0158167540809 700.4672609939794
    vertex -618.6135275492381 830.0158167540807 703.4179524012388
    vertex -729.1745916364799 830.0158167540809 700.4672609939794
  endloop
endfacet
facet normal -9.997691690043326e-17 -1.0 -8.185529662763524e-16
  outer loop
    vertex -729.1745916364799 830.0158167540809 700.4672609939794
    vertex -737.2135275492382 830.0158167540807 649.4179524012388
    vertex -729.1745916364799 830.0158167540809 649.4179524012388
  endloop
endfacet
facet normal -9.997691690043326e-17 -1.0 -8.185529662763524e-16
  outer loop
    vertex -737.2135275492382 830.0158167540807 649.4179524012388
    vertex -729.1745916364799 830.0158167540809 700.4672609939794
    vertex -737.2135275492382 830.0158167540807 703.4179524012388
  endloop
endfacet
facet normal -9.997691690043326e-17 -1.0 -8.185529662763524e-16
  outer loop
    vertex -737.2135275492382 830.0158167540807 703.4179524012388
    vertex -729.1745916364799 830.0158167540809 700.4672609939794
    vertex -618.6135275492381 830.0158167540807 703.4179524012388
  endloop
endfacet
facet normal -9.997691690043326e-17 -1.0 -8.185529662763524e-16
  outer loop
    vertex -663.3650795454546 830.0158167540809 649.4179524012388
    vertex -654.4587543915947 830.0158167540803 657.4179524012388
    vertex -663.3650795454546 830.0158167540809 700.4672609939794
  endloop
endfacet
facet normal -9.997691690043326e-17 -1.0 -8.185529662763524e-16
  outer loop
    vertex -654.4587543915947 830.0158167540803 657.4179524012388
    vertex -663.3650795454546 830.0158167540809 649.4179524012388
    vertex -630.141322547107 830.0158167540803 657.4179524012388
  endloop
endfacet
facet normal -9.997691690043326e-17 -1.0 -8.185529662763524e-16
  outer loop
    vertex -663.3650795454546 830.0158167540809 700.4672609939794
    vertex -654.4587543915947 830.0158167540803 657.4179524012388
    vertex -654.4587543915947 830.0158167540803 700.4672609939794
  endloop
endfacet
facet normal -1.0 0.0 0.0
  outer loop
    vertex -630.141322547107 837.7213323140751 700.4672609939794
    vertex -630.141322547107 830.0158167540803 657.4179524012388
    vertex -630.141322547107 830.0158167540803 700.4672609939794
  endloop
endfacet
facet normal -1.0 0.0 0.0
  outer loop
    vertex -630.141322547107 830.0158167540803 657.4179524012388
    vertex -630.141322547107 837.7213323140751 700.4672609939794
    vertex -630.141322547107 837.7213323140751 657.4179524012388
  endloop
endfacet
facet normal 0.0 0.0 -1.0
  outer loop
    vertex -744.3853589605117 837.7213323140751 649.4179524012388
    vertex -754.7627177514328 689.8176513328153 649.4179524012388
    vertex -763.1811906565084 689.8176513328153 649.4179524012388
  endloop
endfacet
facet normal 0.0 0.0 -1.0
  outer loop
    vertex -754.7627177514328 689.8176513328153 649.4179524012388
    vertex -744.3853589605117 837.7213323140751 649.4179524012388
    vertex -753.8632842099818 697.0031072414309 649.4179524012388
  endloop
endfacet
facet normal 0.0 0.0 -1.0
  outer loop
    vertex -753.8632842099818 697.0031072414309 649.4179524012388
    vertex -744.3853589605117 837.7213323140751 649.4179524012388
    vertex -753.5879010169932 699.203107241431 649.4179524012388
  endloop
endfacet
facet normal 0.0 0.0 -1.0
  outer loop
    vertex -753.5879010169932 699.203107241431 649.4179524012388
    vertex -744.3853589605117 837.7213323140751 649.4179524012388
    vertex -737.2135275492382 830.0158167540807 649.4179524012388
  endloop
endfacet
facet normal 0.0 0.0 -1.0
  outer loop
    vertex -737.2135275492382 830.0158167540807 649.4179524012388
    vertex -744.3853589605117 837.7213323140751 649.4179524012388
    vertex -729.1745916364799 837.7213323140751 649.4179524012388
  endloop
endfacet
facet normal 0.0 0.0 -1.0
  outer loop
    vertex -737.2135275492382 830.0158167540807 649.4179524012388
    vertex -729.1745916364799 837.7213323140751 649.4179524012388
    vertex -729.1745916364799 830.0158167540809 649.4179524012388
  endloop
endfacet
facet normal 0.0 0.0 -1.0
  outer loop
    vertex -753.5879010169932 699.203107241431 649.4179524012388
    vertex -682.5122625817716 697.0031072414309 649.4179524012388
    vertex -753.8632842099818 697.0031072414309 649.4179524012388
  endloop
endfacet
facet normal 0.0 0.0 -1.0
  outer loop
    vertex -682.5122625817716 697.0031072414309 649.4179524012388
    vertex -753.5879010169932 699.203107241431 649.4179524012388
    vertex -680.4060967289746 699.203107241431 649.4179524012388
  endloop
endfacet
facet normal 0.0 0.0 -1.0
  outer loop
    vertex -682.5122625817716 697.0031072414309 649.4179524012388
    vertex -680.4060967289746 699.203107241431 649.4179524012388
    vertex -682.5122625817716 689.8176513328153 649.4179524012388
  endloop
endfacet
facet normal 0.0 0.0 -1.0
  outer loop
    vertex -682.5122625817716 689.8176513328153 649.4179524012388
    vertex -680.4060967289746 699.203107241431 649.4179524012388
    vertex -680.4060967289746 689.8176513328153 649.4179524012388
  endloop
endfacet
facet normal 1.0 0.0 0.0
  outer loop
    vertex -729.1745916364799 837.7213323140751 649.4179524012388
    vertex -729.1745916364799 830.0158167540809 700.4672609939794
    vertex -729.1745916364799 830.0158167540809 649.4179524012388
  endloop
endfacet
facet normal 1.0 0.0 0.0
  outer loop
    vertex -729.1745916364799 830.0158167540809 700.4672609939794
    vertex -729.1745916364799 837.7213323140751 649.4179524012388
    vertex -729.1745916364799 837.7213323140751 700.4672609939794
  endloop
endfacet
facet normal 0.0 1.0 0.0
  outer loop
    vertex -650.4214860807673 763.7646257273213 703.4179524012388
    vertex -618.6538610772877 763.7646257273213 649.4179524012388
    vertex -650.4214860807673 763.7646257273213 649.4179524012388
  endloop
endfacet
facet normal 0.0 1.0 0.0
  outer loop
    vertex -618.6538610772877 763.7646257273213 649.4179524012388
    vertex -650.4214860807673 763.7646257273213 703.4179524012388
    vertex -618.6538610772877 763.7646257273213 700.417952401239
  endloop
endfacet
facet normal 0.0 1.0 0.0
  outer loop
    vertex -618.6538610772877 763.7646257273213 700.417952401239
    vertex -650.4214860807673 763.7646257273213 703.4179524012388
    vertex -618.6538610772877 763.7646257273213 703.4179524012388
  endloop
endfacet
facet normal -0.9999998146831424 0.0006087969129297928 0.0
  outer loop
    vertex -618.6135275492381 830.0158167540807 703.4179524012388
    vertex -618.6538610772877 763.7646257273213 700.417952401239
    vertex -618.6538610772877 763.7646257273213 703.4179524012388
  endloop
endfacet
facet normal -0.9999998146831424 0.0006087969129297928 0.0
  outer loop
    vertex -618.6538610772877 763.7646257273213 700.417952401239
    vertex -618.6135275492381 830.0158167540807 703.4179524012388
    vertex -618.6538610772877 763.7646257273213 649.4179524012388
  endloop
endfacet
facet normal -0.9999998146831424 0.0006087969129297928 0.0
  outer loop
    vertex -618.6538610772877 763.7646257273213 649.4179524012388
    vertex -618.6135275492381 830.0158167540807 703.4179524012388
    vertex -618.6135275492381 830.0158167540807 649.4179524012388
  endloop
endfacet
facet normal 0.0006087969129251445 0.9999998146831423 -3.1232766246060884e-21
  outer loop
    vertex -618.6922908217165 700.6405584215034 649.417952401239
    vertex -610.2853589605116 700.6354403063907 699.6179524012389
    vertex -610.2853589605116 700.6354403063907 649.4179524012388
  endloop
endfacet
facet normal 0.0006087969129251445 0.9999998146831423 -3.1232766246060884e-21
  outer loop
    vertex -610.2853589605116 700.6354403063907 699.6179524012389
    vertex -618.6922908217165 700.6405584215034 649.417952401239
    vertex -618.6922908217165 700.6405584215034 699.6179524012389
  endloop
endfacet
facet normal -0.9999998123081529 0.0006120627583217243 -2.761953740859715e-05
  outer loop
    vertex -618.7003611831226 689.8176513328153 703.4179523498635
    vertex -618.6922908217165 700.6405584215034 699.6179524012389
    vertex -618.6988797753621 689.8176513328153 649.4179524012388
  endloop
endfacet
facet normal -0.9999998123081529 0.0006120627583217243 -2.761953740859715e-05
  outer loop
    vertex -618.6922908217165 700.6405584215034 699.6179524012389
    vertex -618.7003611831226 689.8176513328153 703.4179523498635
    vertex -618.6552234528633 761.526809972773 703.4179524012388
  endloop
endfacet
facet normal -0.9999998123081529 0.0006120627583217243 -2.761953740859715e-05
  outer loop
    vertex -618.6922908217165 700.6405584215034 699.6179524012389
    vertex -618.6552234528633 761.526809972773 703.4179524012388
    vertex -618.6757926262417 736.82035823503 699.6301662231779
  endloop
endfacet
facet normal -0.9999998123081529 0.0006120627583217243 -2.761953740859715e-05
  outer loop
    vertex -618.6702654432268 736.8190835427779 672.8555688930162
    vertex -618.6813205811872 718.6600954189738 649.417952401239
    vertex -618.6813205811872 718.6600954189738 672.8555688930162
  endloop
endfacet
facet normal -0.9999998123081529 0.0006120627583217243 -2.761953740859715e-05
  outer loop
    vertex -618.6813205811872 718.6600954189738 649.417952401239
    vertex -618.6702654432268 736.8190835427779 672.8555688930162
    vertex -618.6552234528633 761.526809972773 649.4179524012388
  endloop
endfacet
facet normal -0.9999998123081529 0.0006120627583217243 -2.761953740859715e-05
  outer loop
    vertex -618.6552234528633 761.526809972773 649.4179524012388
    vertex -618.6702654432268 736.8190835427779 672.8555688930162
    vertex -618.6757926262417 736.82035823503 699.6301662231779
  endloop
endfacet
facet normal -0.9999998123081529 0.0006120627583217243 -2.761953740859715e-05
  outer loop
    vertex -618.6552234528633 761.526809972773 649.4179524012388
    vertex -618.6757926262417 736.82035823503 699.6301662231779
    vertex -618.6552234528633 761.526809972773 703.4179524012388
  endloop
endfacet
facet normal -0.9999998123081529 0.0006120627583217243 -2.761953740859715e-05
  outer loop
    vertex -618.6552234528633 761.526809972773 649.4179524012388
    vertex -618.6552234528633 761.526809972773 703.4179524012388
    vertex -618.6552234528633 761.526809972773 700.417952401239
  endloop
endfacet
facet normal -0.9999998123081529 0.0006120627583217243 -2.761953740859715e-05
  outer loop
    vertex -618.6922908217165 700.6405584215034 649.417952401239
    vertex -618.6988797753621 689.8176513328153 649.4179524012388
    vertex -618.6922908217165 700.6405584215034 699.6179524012389
  endloop
endfacet
facet normal 1.0 -0.0 -0.0
  outer loop
    vertex -648.802215286691 761.526809972773 649.4179524012388
    vertex -648.802215286691 717.0741298225028 685.3179524012388
    vertex -648.802215286691 717.0741298225028 649.4179524012388
  endloop
endfacet
facet normal 1.0 -0.0 -0.0
  outer loop
    vertex -648.802215286691 702.1741298225028 649.4179524012388
    vertex -648.802215286691 689.8176513328153 703.4179524012388
    vertex -648.802215286691 689.8176513328153 649.4179524012388
  endloop
endfacet
facet normal 1.0 -0.0 -0.0
  outer loop
    vertex -648.802215286691 689.8176513328153 703.4179524012388
    vertex -648.802215286691 702.1741298225028 649.4179524012388
    vertex -648.802215286691 702.1741298225028 685.3179524012388
  endloop
endfacet
facet normal 1.0 -0.0 -0.0
  outer loop
    vertex -648.802215286691 689.8176513328153 703.4179524012388
    vertex -648.802215286691 702.1741298225028 685.3179524012388
    vertex -648.802215286691 761.526809972773 703.4179524012388
  endloop
endfacet
facet normal 1.0 -0.0 -0.0
  outer loop
    vertex -648.802215286691 761.526809972773 703.4179524012388
    vertex -648.802215286691 702.1741298225028 685.3179524012388
    vertex -648.802215286691 717.0741298225028 685.3179524012388
  endloop
endfacet
facet normal 1.0 -0.0 -0.0
  outer loop
    vertex -648.802215286691 761.526809972773 703.4179524012388
    vertex -648.802215286691 717.0741298225028 685.3179524012388
    vertex -648.802215286691 761.526809972773 649.4179524012388
  endloop
endfacet
facet normal -0.0006087969129262462 -0.9999998146831423 -1.5778499389883835e-21
  outer loop
    vertex -610.2853589605116 718.6549839825108 672.8555688930162
    vertex -618.6813205811872 718.6600954189738 649.417952401239
    vertex -610.2853589605116 718.6549839825108 649.4179524012388
  endloop
endfacet
facet normal -0.0006087969129262462 -0.9999998146831423 -1.5778499389883835e-21
  outer loop
    vertex -618.6813205811872 718.6600954189738 649.417952401239
    vertex -610.2853589605116 718.6549839825108 672.8555688930162
    vertex -618.6813205811872 718.6600954189738 672.8555688930162
  endloop
endfacet
facet normal 0.12420490373845662 0.992256590750256 -3.938442738063966e-15
  outer loop
    vertex -760.1673488292885 713.5334574408284 699.4179524012388
    vertex -751.9232839501185 712.5015133909968 679.2179524012389
    vertex -760.1673488292885 713.5334574408283 679.2015184124115
  endloop
endfacet
facet normal 0.12420490373845662 0.992256590750256 -3.938442738063966e-15
  outer loop
    vertex -751.9232839501185 712.5015133909968 679.2179524012389
    vertex -760.1673488292885 713.5334574408284 699.4179524012388
    vertex -751.9232839501185 712.5015133909968 699.4179524012388
  endloop
endfacet
facet normal 0.0 0.0 1.0
  outer loop
    vertex -610.2853589605116 718.6549839825108 672.8555688930162
    vertex -618.6702654432268 736.8190835427779 672.8555688930162
    vertex -618.6813205811872 718.6600954189738 672.8555688930162
  endloop
endfacet
facet normal 0.0 0.0 1.0
  outer loop
    vertex -618.6702654432268 736.8190835427779 672.8555688930162
    vertex -610.2853589605116 718.6549839825108 672.8555688930162
    vertex -610.2853589605116 736.8139788366501 672.8555688930162
  endloop
endfacet
facet normal 0.0 1.0 0.0
  outer loop
    vertex -744.3853589605117 837.7213323140751 703.4179524012388
    vertex -729.1745916364799 837.7213323140751 649.4179524012388
    vertex -744.3853589605117 837.7213323140751 649.4179524012388
  endloop
endfacet
facet normal 0.0 1.0 0.0
  outer loop
    vertex -729.1745916364799 837.7213323140751 649.4179524012388
    vertex -744.3853589605117 837.7213323140751 703.4179524012388
    vertex -729.1745916364799 837.7213323140751 700.4672609939794
  endloop
endfacet
facet normal 0.0 1.0 0.0
  outer loop
    vertex -729.1745916364799 837.7213323140751 700.4672609939794
    vertex -744.3853589605117 837.7213323140751 703.4179524012388
    vertex -663.3650795454546 837.7213323140751 700.4672609939794
  endloop
endfacet
facet normal 0.0 1.0 0.0
  outer loop
    vertex -663.3650795454546 837.7213323140751 700.4672609939794
    vertex -744.3853589605117 837.7213323140751 703.4179524012388
    vertex -654.4587543915947 837.7213323140751 700.4672609939794
  endloop
endfacet
facet normal 0.0 1.0 0.0
  outer loop
    vertex -654.4587543915947 837.7213323140751 700.4672609939794
    vertex -744.3853589605117 837.7213323140751 703.4179524012388
    vertex -630.141322547107 837.7213323140751 700.4672609939794
  endloop
endfacet
facet normal 0.0 1.0 0.0
  outer loop
    vertex -610.2853589605116 837.7213323140751 649.4179524012388
    vertex -630.141322547107 837.7213323140751 657.4179524012388
    vertex -610.2853589605116 837.7213323140751 703.4179524012388
  endloop
endfacet
facet normal 0.0 1.0 0.0
  outer loop
    vertex -630.141322547107 837.7213323140751 657.4179524012388
    vertex -610.2853589605116 837.7213323140751 649.4179524012388
    vertex -654.4587543915947 837.7213323140751 657.4179524012388
  endloop
endfacet
facet normal 0.0 1.0 0.0
  outer loop
    vertex -610.2853589605116 837.7213323140751 703.4179524012388
    vertex -630.141322547107 837.7213323140751 657.4179524012388
    vertex -630.141322547107 837.7213323140751 700.4672609939794
  endloop
endfacet
facet normal 0.0 1.0 0.0
  outer loop
    vertex -610.2853589605116 837.7213323140751 703.4179524012388
    vertex -630.141322547107 837.7213323140751 700.4672609939794
    vertex -744.3853589605117 837.7213323140751 703.4179524012388
  endloop
endfacet
facet normal 0.0 1.0 0.0
  outer loop
    vertex -663.3650795454546 837.7213323140751 649.4179524012388
    vertex -654.4587543915947 837.7213323140751 657.4179524012388
    vertex -610.2853589605116 837.7213323140751 649.4179524012388
  endloop
endfacet
facet normal 0.0 1.0 0.0
  outer loop
    vertex -654.4587543915947 837.7213323140751 657.4179524012388
    vertex -663.3650795454546 837.7213323140751 649.4179524012388
    vertex -663.3650795454546 837.7213323140751 700.4672609939794
  endloop
endfacet
facet normal 0.0 1.0 0.0
  outer loop
    vertex -654.4587543915947 837.7213323140751 657.4179524012388
    vertex -663.3650795454546 837.7213323140751 700.4672609939794
    vertex -654.4587543915947 837.7213323140751 700.4672609939794
  endloop
endfacet
facet normal -0.12420490373842225 -0.9922565907502603 6.2470017275445864e-15
  outer loop
    vertex -741.8045995031496 793.3383485723909 699.4179524012388
    vertex -749.8968913637608 794.3512945592856 679.2015184124115
    vertex -741.8045995031496 793.3383485723909 679.2015184124115
  endloop
endfacet
facet normal -0.12420490373842225 -0.9922565907502603 6.2470017275445864e-15
  outer loop
    vertex -749.8968913637608 794.3512945592856 679.2015184124115
    vertex -741.8045995031496 793.3383485723909 699.4179524012388
    vertex -749.8968913637608 794.3512945592856 699.4179524012388
  endloop
endfacet
facet normal 0.0 0.0 1.0
  outer loop
    vertex -630.141322547107 830.0158167540803 657.4179524012388
    vertex -654.4587543915947 837.7213323140751 657.4179524012388
    vertex -654.4587543915947 830.0158167540803 657.4179524012388
  endloop
endfacet
facet normal 0.0 0.0 1.0
  outer loop
    vertex -654.4587543915947 837.7213323140751 657.4179524012388
    vertex -630.141322547107 830.0158167540803 657.4179524012388
    vertex -630.141322547107 837.7213323140751 657.4179524012388
  endloop
endfacet
facet normal -1.0 -9.531294622196448e-16 -6.799615125647925e-16
  outer loop
    vertex -650.4214860807673 689.8176513328153 703.4179524012388
    vertex -650.4214860807671 702.1741298225028 685.3179524012388
    vertex -650.4214860807673 689.8176513328153 649.4179524012388
  endloop
endfacet
facet normal -1.0 -9.531294622196448e-16 -6.799615125647925e-16
  outer loop
    vertex -650.4214860807671 702.1741298225028 685.3179524012388
    vertex -650.4214860807673 689.8176513328153 703.4179524012388
    vertex -650.4214860807673 763.7646257273213 703.4179524012388
  endloop
endfacet
facet normal -1.0 -9.531294622196448e-16 -6.799615125647925e-16
  outer loop
    vertex -650.4214860807671 702.1741298225028 685.3179524012388
    vertex -650.4214860807673 763.7646257273213 703.4179524012388
    vertex -650.4214860807671 717.0741298225028 685.3179524012388
  endloop
endfacet
facet normal -1.0 -9.531294622196448e-16 -6.799615125647925e-16
  outer loop
    vertex -650.4214860807671 717.0741298225028 685.3179524012388
    vertex -650.4214860807673 763.7646257273213 703.4179524012388
    vertex -650.4214860807671 717.0741298225028 649.4179524012388
  endloop
endfacet
facet normal -1.0 -9.531294622196448e-16 -6.799615125647925e-16
  outer loop
    vertex -650.4214860807671 717.0741298225028 649.4179524012388
    vertex -650.4214860807673 763.7646257273213 703.4179524012388
    vertex -650.4214860807673 763.7646257273213 649.4179524012388
  endloop
endfacet
facet normal -1.0 -9.531294622196448e-16 -6.799615125647925e-16
  outer loop
    vertex -650.4214860807671 702.1741298225028 649.4179524012388
    vertex -650.4214860807673 689.8176513328153 649.4179524012388
    vertex -650.4214860807671 702.1741298225028 685.3179524012388
  endloop
endfacet
facet normal 2.055217557820269e-07 0.0003375866620408982 -0.9999999430176002
  outer loop
    vertex -618.6757926262417 736.82035823503 699.6301662231779
    vertex -610.2853589605116 700.6354403063907 699.6179524012389
    vertex -618.6922908217165 700.6405584215034 699.6179524012389
  endloop
endfacet
facet normal 2.055217557820269e-07 0.0003375866620408982 -0.9999999430176002
  outer loop
    vertex -610.2853589605116 700.6354403063907 699.6179524012389
    vertex -618.6757926262417 736.82035823503 699.6301662231779
    vertex -610.2798310055662 736.815246798567 699.6301662231779
  endloop
endfacet
facet normal 0.0 0.0 -1.0
  outer loop
    vertex -650.4214860807673 763.7646257273213 649.4179524012388
    vertex -648.802215286691 761.526809972773 649.4179524012388
    vertex -650.4214860807671 717.0741298225028 649.4179524012388
  endloop
endfacet
facet normal 0.0 0.0 -1.0
  outer loop
    vertex -648.802215286691 761.526809972773 649.4179524012388
    vertex -650.4214860807673 763.7646257273213 649.4179524012388
    vertex -618.6538610772877 763.7646257273213 649.4179524012388
  endloop
endfacet
facet normal 0.0 0.0 -1.0
  outer loop
    vertex -648.802215286691 761.526809972773 649.4179524012388
    vertex -618.6538610772877 763.7646257273213 649.4179524012388
    vertex -618.6552234528633 761.526809972773 649.4179524012388
  endloop
endfacet
facet normal 0.0 0.0 -1.0
  outer loop
    vertex -648.802215286691 717.0741298225028 649.4179524012388
    vertex -650.4214860807671 717.0741298225028 649.4179524012388
    vertex -648.802215286691 761.526809972773 649.4179524012388
  endloop
endfacet
facet normal -3.8549150232838205e-09 -1.008607236206874e-09 1.0
  outer loop
    vertex -680.4060967289751 689.8176513328153 703.4179532761534
    vertex -682.5122625817716 697.0031072414309 703.4179524012388
    vertex -682.5122625817716 689.8176513328153 703.4179524012388
  endloop
endfacet
facet normal -3.8549150232838205e-09 -1.008607236206874e-09 1.0
  outer loop
    vertex -682.5122625817716 697.0031072414309 703.4179524012388
    vertex -753.5879010169932 699.203107241431 703.4179524012388
    vertex -753.8632842099818 697.0031072414309 703.4179524012388
  endloop
endfacet
facet normal -3.8549150232838205e-09 -1.008607236206874e-09 1.0
  outer loop
    vertex -753.5879010169932 699.203107241431 703.4179524012388
    vertex -682.5122625817716 697.0031072414309 703.4179524012388
    vertex -680.4060967289746 699.203107241431 703.4179524012388
  endloop
endfacet
facet normal -3.8549150232838205e-09 -1.008607236206874e-09 1.0
  outer loop
    vertex -680.4060967289746 699.203107241431 703.4179524012388
    vertex -682.5122625817716 697.0031072414309 703.4179524012388
    vertex -680.4060967289751 689.8176513328153 703.4179532761534
  endloop
endfacet
facet normal -3.8549150232838205e-09 -1.008607236206874e-09 1.0
  outer loop
    vertex -610.2847703330391 689.8176513328153 703.4179523935871
    vertex -618.6552234528633 761.526809972773 703.4179524012388
    vertex -618.7003611831226 689.8176513328153 703.4179523498635
  endloop
endfacet
facet normal -3.8549150232838205e-09 -1.008607236206874e-09 1.0
  outer loop
    vertex -618.6552234528633 761.526809972773 703.4179524012388
    vertex -610.2847703330391 689.8176513328153 703.4179523935871
    vertex -618.6538610772877 763.7646257273213 703.4179524012388
  endloop
endfacet
facet normal -3.8549150232838205e-09 -1.008607236206874e-09 1.0
  outer loop
    vertex -618.6538610772877 763.7646257273213 703.4179524012388
    vertex -610.2847703330391 689.8176513328153 703.4179523935871
    vertex -618.6135275492381 830.0158167540807 703.4179524012388
  endloop
endfacet
facet normal -3.8549150232838205e-09 -1.008607236206874e-09 1.0
  outer loop
    vertex -618.6135275492381 830.0158167540807 703.4179524012388
    vertex -610.2847703330391 689.8176513328153 703.4179523935871
    vertex -610.2853589605116 837.7213323140751 703.4179524012388
  endloop
endfacet
facet normal -3.8549150232838205e-09 -1.008607236206874e-09 1.0
  outer loop
    vertex -754.7627177514328 689.8176513328153 703.4179492805633
    vertex -744.3853589605117 837.7213323140751 703.4179524012388
    vertex -763.1811906565084 689.8176513328153 703.4179524012388
  endloop
endfacet
facet normal -3.8549150232838205e-09 -1.008607236206874e-09 1.0
  outer loop
    vertex -744.3853589605117 837.7213323140751 703.4179524012388
    vertex -754.7627177514328 689.8176513328153 703.4179492805633
    vertex -753.8632842099818 697.0031072414309 703.4179524012388
  endloop
endfacet
facet normal -3.8549150232838205e-09 -1.008607236206874e-09 1.0
  outer loop
    vertex -744.3853589605117 837.7213323140751 703.4179524012388
    vertex -753.8632842099818 697.0031072414309 703.4179524012388
    vertex -753.5879010169932 699.203107241431 703.4179524012388
  endloop
endfacet
facet normal -3.8549150232838205e-09 -1.008607236206874e-09 1.0
  outer loop
    vertex -744.3853589605117 837.7213323140751 703.4179524012388
    vertex -753.5879010169932 699.203107241431 703.4179524012388
    vertex -737.2135275492382 830.0158167540807 703.4179524012388
  endloop
endfacet
facet normal -3.8549150232838205e-09 -1.008607236206874e-09 1.0
  outer loop
    vertex -744.3853589605117 837.7213323140751 703.4179524012388
    vertex -737.2135275492382 830.0158167540807 703.4179524012388
    vertex -610.2853589605116 837.7213323140751 703.4179524012388
  endloop
endfacet
facet normal -3.8549150232838205e-09 -1.008607236206874e-09 1.0
  outer loop
    vertex -610.2853589605116 837.7213323140751 703.4179524012388
    vertex -737.2135275492382 830.0158167540807 703.4179524012388
    vertex -618.6135275492381 830.0158167540807 703.4179524012388
  endloop
endfacet
facet normal -3.8549150232838205e-09 -1.008607236206874e-09 1.0
  outer loop
    vertex -648.802215286691 689.8176513328153 703.4179524012388
    vertex -650.4214860807673 763.7646257273213 703.4179524012388
    vertex -650.4214860807673 689.8176513328153 703.4179524012388
  endloop
endfacet
facet normal -3.8549150232838205e-09 -1.008607236206874e-09 1.0
  outer loop
    vertex -650.4214860807673 763.7646257273213 703.4179524012388
    vertex -648.802215286691 689.8176513328153 703.4179524012388
    vertex -648.802215286691 761.526809972773 703.4179524012388
  endloop
endfacet
facet normal -3.8549150232838205e-09 -1.008607236206874e-09 1.0
  outer loop
    vertex -650.4214860807673 763.7646257273213 703.4179524012388
    vertex -648.802215286691 761.526809972773 703.4179524012388
    vertex -618.6538610772877 763.7646257273213 703.4179524012388
  endloop
endfacet
facet normal -3.8549150232838205e-09 -1.008607236206874e-09 1.0
  outer loop
    vertex -618.6538610772877 763.7646257273213 703.4179524012388
    vertex -648.802215286691 761.526809972773 703.4179524012388
    vertex -618.6552234528633 761.526809972773 703.4179524012388
  endloop
endfacet
facet normal 1.350415251428142e-15 -1.7032485241809978e-16 -1.0
  outer loop
    vertex -757.3174942487159 735.9588541748159 699.4179524012388
    vertex -751.9232839501185 712.5015133909968 699.4179524012388
    vertex -760.1673488292885 713.5334574408284 699.4179524012388
  endloop
endfacet
facet normal 1.350415251428142e-15 -1.7032485241809978e-16 -1.0
  outer loop
    vertex -751.9232839501185 712.5015133909968 699.4179524012388
    vertex -757.3174942487159 735.9588541748159 699.4179524012388
    vertex -749.1155434655927 734.9321817223657 699.4179524012388
  endloop
endfacet
facet normal -0.001967458270821049 0.00024815110704797547 0.9999980337625572
  outer loop
    vertex -751.9232839501185 712.5015133909968 679.2179524012389
    vertex -757.3174942487159 735.9588541748159 679.2015184124115
    vertex -760.1673488292885 713.5334574408283 679.2015184124115
  endloop
endfacet
facet normal -0.001967458270821049 0.00024815110704797547 0.9999980337625572
  outer loop
    vertex -757.3174942487159 735.9588541748159 679.2015184124115
    vertex -751.9232839501185 712.5015133909968 679.2179524012389
    vertex -749.1155434655927 734.9321817223657 679.2179524012389
  endloop
endfacet
facet normal -3.5303304779568867e-16 -3.649868221526256e-17 1.0
  outer loop
    vertex -746.1615798452666 758.531007395763 679.2015184124115
    vertex -749.8968913637608 794.3512945592856 679.2015184124115
    vertex -754.3192232900476 759.5521337135289 679.2015184124115
  endloop
endfacet
facet normal -3.5303304779568867e-16 -3.649868221526256e-17 1.0
  outer loop
    vertex -749.8968913637608 794.3512945592856 679.2015184124115
    vertex -746.1615798452666 758.531007395763 679.2015184124115
    vertex -741.8045995031496 793.3383485723909 679.2015184124115
  endloop
endfacet
facet normal 0.9999999995840068 1.48722753868847e-06 -2.8805810531043415e-05
  outer loop
    vertex -610.2853589605116 837.7213323140751 649.4179524012388
    vertex -610.2853589605116 718.6549839825108 672.8555688930162
    vertex -610.2853589605116 718.6549839825108 649.4179524012388
  endloop
endfacet
facet normal 0.9999999995840068 1.48722753868847e-06 -2.8805810531043415e-05
  outer loop
    vertex -610.2853589605116 718.6549839825108 672.8555688930162
    vertex -610.2853589605116 837.7213323140751 649.4179524012388
    vertex -610.2853589605116 736.8139788366501 672.8555688930162
  endloop
endfacet
facet normal 0.9999999995840068 1.48722753868847e-06 -2.8805810531043415e-05
  outer loop
    vertex -610.2853589605116 736.8139788366501 672.8555688930162
    vertex -610.2853589605116 837.7213323140751 649.4179524012388
    vertex -610.2798310055662 736.815246798567 699.6301662231779
  endloop
endfacet
facet normal 0.9999999995840068 1.48722753868847e-06 -2.8805810531043415e-05
  outer loop
    vertex -610.2853589605116 700.6354403063907 649.4179524012388
    vertex -610.2847703330391 689.8176513328153 703.4179523935871
    vertex -610.2854722964723 689.8176513328153 649.4179524027122
  endloop
endfacet
facet normal 0.9999999995840068 1.48722753868847e-06 -2.8805810531043415e-05
  outer loop
    vertex -610.2847703330391 689.8176513328153 703.4179523935871
    vertex -610.2853589605116 700.6354403063907 649.4179524012388
    vertex -610.2853589605116 700.6354403063907 699.6179524012389
  endloop
endfacet
facet normal 0.9999999995840068 1.48722753868847e-06 -2.8805810531043415e-05
  outer loop
    vertex -610.2847703330391 689.8176513328153 703.4179523935871
    vertex -610.2853589605116 700.6354403063907 699.6179524012389
    vertex -610.2853589605116 837.7213323140751 703.4179524012388
  endloop
endfacet
facet normal 0.9999999995840068 1.48722753868847e-06 -2.8805810531043415e-05
  outer loop
    vertex -610.2853589605116 837.7213323140751 703.4179524012388
    vertex -610.2853589605116 700.6354403063907 699.6179524012389
    vertex -610.2798310055662 736.815246798567 699.6301662231779
  endloop
endfacet
facet normal 0.9999999995840068 1.48722753868847e-06 -2.8805810531043415e-05
  outer loop
    vertex -610.2853589605116 837.7213323140751 703.4179524012388
    vertex -610.2798310055662 736.815246798567 699.6301662231779
    vertex -610.2853589605116 837.7213323140751 649.4179524012388
  endloop
endfacet
facet normal 0.0 1.0 0.0
  outer loop
    vertex -650.4214860807671 702.1741298225028 685.3179524012388
    vertex -648.802215286691 702.1741298225028 649.4179524012388
    vertex -650.4214860807671 702.1741298225028 649.4179524012388
  endloop
endfacet
facet normal 0.0 1.0 0.0
  outer loop
    vertex -648.802215286691 702.1741298225028 649.4179524012388
    vertex -650.4214860807671 702.1741298225028 685.3179524012388
    vertex -648.802215286691 702.1741298225028 685.3179524012388
  endloop
endfacet
facet normal 0.0 -1.0 0.0
  outer loop
    vertex -680.4060967289751 689.8176513328153 703.4179532761534
    vertex -682.5122625817716 689.8176513328153 649.4179524012388
    vertex -680.4060967289746 689.8176513328153 649.4179524012388
  endloop
endfacet
facet normal 0.0 -1.0 0.0
  outer loop
    vertex -682.5122625817716 689.8176513328153 649.4179524012388
    vertex -680.4060967289751 689.8176513328153 703.4179532761534
    vertex -682.5122625817716 689.8176513328153 703.4179524012388
  endloop
endfacet
facet normal 0.0 -1.0 0.0
  outer loop
    vertex -754.7627177514328 689.8176513328153 703.4179492805633
    vertex -763.1811906565084 689.8176513328153 649.4179524012388
    vertex -754.7627177514328 689.8176513328153 649.4179524012388
  endloop
endfacet
facet normal 0.0 -1.0 0.0
  outer loop
    vertex -763.1811906565084 689.8176513328153 649.4179524012388
    vertex -754.7627177514328 689.8176513328153 703.4179492805633
    vertex -763.1811906565084 689.8176513328153 703.4179524012388
  endloop
endfacet
facet normal 0.0 -1.0 0.0
  outer loop
    vertex -610.2854722964723 689.8176513328153 649.4179524027122
    vertex -618.7003611831226 689.8176513328153 703.4179523498635
    vertex -618.6988797753621 689.8176513328153 649.4179524012388
  endloop
endfacet
facet normal 0.0 -1.0 0.0
  outer loop
    vertex -618.7003611831226 689.8176513328153 703.4179523498635
    vertex -610.2854722964723 689.8176513328153 649.4179524027122
    vertex -610.2847703330391 689.8176513328153 703.4179523935871
  endloop
endfacet
facet normal 0.0 -1.0 0.0
  outer loop
    vertex -648.802215286691 689.8176513328153 703.4179524012388
    vertex -650.4214860807673 689.8176513328153 649.4179524012388
    vertex -648.802215286691 689.8176513328153 649.4179524012388
  endloop
endfacet
facet normal 0.0 -1.0 0.0
  outer loop
    vertex -650.4214860807673 689.8176513328153 649.4179524012388
    vertex -648.802215286691 689.8176513328153 703.4179524012388
    vertex -650.4214860807673 689.8176513328153 703.4179524012388
  endloop
endfacet
endsolid GroundFloorMainV8
