solid GroundFloorMainV8
facet normal 0.000608796915558686 0.9999998146829266 -6.542552557005193e-07
  outer loop
    vertex -1960.9117878626064 418.60520742809916 209.74069223806285
    vertex -1952.4780062898324 418.600060078135 190.04073157713495
    vertex -1960.91171039737 418.6051944921082 190.0406922382195
  endloop
endfacet
facet normal 0.000608796915558686 0.9999998146829266 -6.542552557005193e-07
  outer loop
    vertex -1952.4780062898324 418.600060078135 190.04073157713495
    vertex -1960.9117878626064 418.60520742809916 209.74069223806285
    vertex -1952.4780837550686 418.60007301412605 209.7407315769783
  endloop
endfacet
facet normal 0.0 0.0 -1.0
  outer loop
    vertex -1990.9949711457366 432.0050212157913 199.64069223800016
    vertex -1992.6142419398132 417.20502121579136 199.64069223800016
    vertex -1992.6142419398132 432.0050212157913 199.64069223800016
  endloop
endfacet
facet normal 0.0 0.0 -1.0
  outer loop
    vertex -1992.6142419398132 417.20502121579136 199.64069223800016
    vertex -1990.9949711457366 432.0050212157913 199.64069223800016
    vertex -1990.9949711457366 417.20502121579136 199.64069223800016
  endloop
endfacet
facet normal -0.12420490373846367 -0.9922565907502551 1.1387517734524365e-18
  outer loop
    vertex -2110.78899004453 341.2438203896076 213.64069223800016
    vertex -2119.283137234178 342.3070682872435 193.42425824917285
    vertex -2110.78899004453 341.2438203896076 193.42425824917285
  endloop
endfacet
facet normal -0.12420490373846367 -0.9922565907502551 1.1387517734524365e-18
  outer loop
    vertex -2119.283137234178 342.3070682872435 193.42425824917285
    vertex -2110.78899004453 341.2438203896076 213.64069223800016
    vertex -2119.283137234178 342.3070682872435 211.7908024095276
  endloop
endfacet
facet normal -0.12420490373846367 -0.9922565907502551 1.1387517734524365e-18
  outer loop
    vertex -2119.283137234178 342.3070682872435 211.7908024095276
    vertex -2110.78899004453 341.2438203896076 213.64069223800016
    vertex -2119.283137234178 342.3070682872435 213.64069223800016
  endloop
endfacet
facet normal -0.028494918971347552 0.9995939373529715 0.0
  outer loop
    vertex -2008.678114819557 334.84664019054384 217.64069223800013
    vertex -1978.5622882469183 335.705136831905 214.64069223800016
    vertex -2008.678114819557 334.84664019054384 214.64069223800016
  endloop
endfacet
facet normal -0.028494918971347552 0.9995939373529715 0.0
  outer loop
    vertex -1978.5622882469183 335.705136831905 214.64069223800016
    vertex -2008.678114819557 334.84664019054384 217.64069223800013
    vertex -1978.5622882469183 335.705136831905 217.64069223800013
  endloop
endfacet
facet normal 0.9999999999999991 3.684834567455932e-08 2.6273253070976323e-08
  outer loop
    vertex -2083.4254236735037 323.81736870555 177.64069223800018
    vertex -2083.4254242830293 315.5466401905439 212.44069215609161
    vertex -2083.4254236735037 315.5466401905439 177.64069223800018
  endloop
endfacet
facet normal 0.9999999999999991 3.684834567455932e-08 2.6273253070976323e-08
  outer loop
    vertex -2083.4254242830293 315.5466401905439 212.44069215609161
    vertex -2083.4254236735037 323.81736870555 177.64069223800018
    vertex -2083.4254248925545 323.816207932358 212.44069215609161
  endloop
endfacet
facet normal -0.0006087969150081965 -0.9999998146829271 6.542552557026754e-07
  outer loop
    vertex -1952.478006289753 428.0371312825036 190.04071920603675
    vertex -1960.906042603855 428.0422751347748 209.74069223806285
    vertex -1960.905965138618 428.0422621987838 190.0406922382195
  endloop
endfacet
facet normal -0.0006087969150081965 -0.9999998146829271 6.542552557026754e-07
  outer loop
    vertex -1960.906042603855 428.0422751347748 209.74069223806285
    vertex -1952.478006289753 428.0371312825036 190.04071920603675
    vertex -1952.4780837549895 428.03714421849463 209.74071920588008
  endloop
endfacet
facet normal 0.12420490373847114 0.9922565907502542 2.21447196189572e-15
  outer loop
    vertex -2115.3696216591807 373.10237271864224 213.64069223800016
    vertex -2106.9333069540144 372.0463639547495 193.42425824917285
    vertex -2115.3696216591807 373.10237271864224 193.42425824917285
  endloop
endfacet
facet normal 0.12420490373847114 0.9922565907502542 2.21447196189572e-15
  outer loop
    vertex -2106.9333069540144 372.0463639547495 193.42425824917285
    vertex -2115.3696216591807 373.10237271864224 213.64069223800016
    vertex -2106.9333069540144 372.0463639547494 213.64069223800016
  endloop
endfacet
facet normal 0.0 0.0 -1.0
  outer loop
    vertex -2106.488101093146 442.9907184792167 213.64069223800016
    vertex -2103.781561319429 397.2252440484906 213.64069223800016
    vertex -2112.1706020977135 398.2753353374152 213.64069223800016
  endloop
endfacet
facet normal 0.0 0.0 -1.0
  outer loop
    vertex -2103.781561319429 397.2252440484906 213.64069223800016
    vertex -2106.488101093146 442.9907184792167 213.64069223800016
    vertex -2098.1830342111866 441.95113855379105 213.64069223800016
  endloop
endfacet
facet normal 0.0 0.0 1.0
  outer loop
    vertex -2106.9333069540144 372.0463639547494 213.64069223800016
    vertex -2113.657370226539 386.5760137763635 213.64069223800016
    vertex -2115.3696216591807 373.10237271864224 213.64069223800016
  endloop
endfacet
facet normal 0.0 0.0 1.0
  outer loop
    vertex -2113.657370226539 386.5760137763635 213.64069223800016
    vertex -2106.9333069540144 372.0463639547494 213.64069223800016
    vertex -2105.246358539211 385.5231722969455 213.64069223800016
  endloop
endfacet
facet normal 0.0 0.0 -1.0
  outer loop
    vertex -2013.0050184408171 388.01590464292167 199.74069223800015
    vertex -2016.0781148195574 372.6159046429217 199.74069223800015
    vertex -2016.0781148195574 388.01590464292167 199.74069223800015
  endloop
endfacet
facet normal 0.0 0.0 -1.0
  outer loop
    vertex -2016.0781148195574 372.6159046429217 199.74069223800015
    vertex -2013.0050184408171 388.01590464292167 199.74069223800015
    vertex -2013.0050184408171 372.6159046429217 199.74069223800015
  endloop
endfacet
facet normal 0.0 0.0 -1.0
  outer loop
    vertex -2119.283137234178 342.3070682872435 213.64069223800016
    vertex -2112.4785214870312 327.7463765798818 213.64069223800016
    vertex -2120.998010438084 328.81279661168657 213.64069223800016
  endloop
endfacet
facet normal 0.0 0.0 -1.0
  outer loop
    vertex -2112.4785214870312 327.7463765798818 213.64069223800016
    vertex -2119.283137234178 342.3070682872435 213.64069223800016
    vertex -2110.78899004453 341.2438203896076 213.64069223800016
  endloop
endfacet
facet normal 0.0 1.0 0.0
  outer loop
    vertex -2024.7050184408174 395.32266990966303 199.64069223800016
    vertex -2022.5988525880205 395.32266990966303 163.64069223800016
    vertex -2024.7050184408174 395.32266990966303 163.64069223800016
  endloop
endfacet
facet normal 0.0 1.0 0.0
  outer loop
    vertex -2022.5988525880205 395.32266990966303 163.64069223800016
    vertex -2024.7050184408174 395.32266990966303 199.64069223800016
    vertex -2022.5988525880205 395.32266990966303 199.64069223800016
  endloop
endfacet
facet normal 0.0 1.0 0.0
  outer loop
    vertex -1990.9949711457366 449.0791021018789 217.64069223800013
    vertex -1960.8932665140646 449.0791021018789 163.64069223800016
    vertex -1990.9949711457366 449.0791021018789 163.64069223800016
  endloop
endfacet
facet normal 0.0 1.0 0.0
  outer loop
    vertex -1960.8932665140646 449.0791021018789 163.64069223800016
    vertex -1990.9949711457366 449.0791021018789 217.64069223800013
    vertex -1960.8932665140646 449.0791021018789 217.64069223800013
  endloop
endfacet
facet normal 0.12420490373846378 0.9922565907502551 -8.248527813489548e-19
  outer loop
    vertex -2112.1706020977135 398.2753353374152 213.64069223800016
    vertex -2103.781561319429 397.2252440484906 193.42425824917285
    vertex -2112.1706020977135 398.2753353374152 193.42425824917285
  endloop
endfacet
facet normal 0.12420490373846378 0.9922565907502551 -8.248527813489548e-19
  outer loop
    vertex -2103.781561319429 397.2252440484906 193.42425824917285
    vertex -2112.1706020977135 398.2753353374152 213.64069223800016
    vertex -2103.781561319429 397.2252440484906 213.64069223800016
  endloop
endfacet
facet normal -0.12420490373847383 -0.9922565907502537 0.0
  outer loop
    vertex -2105.246358539211 385.5231722969455 213.64069223800016
    vertex -2113.657370226539 386.5760137763635 193.42425824917285
    vertex -2105.246358539211 385.5231722969455 193.42425824917285
  endloop
endfacet
facet normal -0.12420490373847383 -0.9922565907502537 0.0
  outer loop
    vertex -2113.657370226539 386.5760137763635 193.42425824917285
    vertex -2105.246358539211 385.5231722969455 213.64069223800016
    vertex -2113.657370226539 386.5760137763635 213.64069223800016
  endloop
endfacet
facet normal 0.020842194320545168 0.9997827778752267 0.0
  outer loop
    vertex -2022.5988525880202 393.0434141606282 217.64069223800013
    vertex -2013.0050184408171 392.84341416062813 163.64069223800016
    vertex -2022.5988525880202 393.0434141606282 163.64069223800016
  endloop
endfacet
facet normal 0.020842194320545168 0.9997827778752267 0.0
  outer loop
    vertex -2013.0050184408171 392.84341416062813 163.64069223800016
    vertex -2022.5988525880202 393.0434141606282 217.64069223800013
    vertex -2013.0050184408171 392.84341416062813 217.64069223800013
  endloop
endfacet
facet normal -0.1242049037384602 -0.9922565907502555 1.9661827036093517e-15
  outer loop
    vertex -2098.1830342111866 441.95113855379105 213.64069223800016
    vertex -2106.488101093146 442.9907184792166 193.42425824917285
    vertex -2098.1830342111866 441.95113855379105 193.42425824917285
  endloop
endfacet
facet normal -0.1242049037384602 -0.9922565907502555 1.9661827036093517e-15
  outer loop
    vertex -2106.488101093146 442.9907184792166 193.42425824917285
    vertex -2098.1830342111866 441.95113855379105 213.64069223800016
    vertex -2106.488101093146 442.9907184792167 213.64069223800016
  endloop
endfacet
facet normal -1.0 0.0 0.0
  outer loop
    vertex -1992.6142419398132 414.62521211688346 217.64069223800013
    vertex -1992.6142419398132 417.20502121579136 199.64069223800016
    vertex -1992.6142419398132 414.62521211688346 163.64069223800016
  endloop
endfacet
facet normal -1.0 0.0 0.0
  outer loop
    vertex -1992.6142419398132 417.20502121579136 199.64069223800016
    vertex -1992.6142419398132 414.62521211688346 217.64069223800013
    vertex -1992.6142419398132 451.75795825201266 217.64069223800013
  endloop
endfacet
facet normal -1.0 0.0 0.0
  outer loop
    vertex -1992.6142419398132 417.20502121579136 199.64069223800016
    vertex -1992.6142419398132 451.75795825201266 217.64069223800013
    vertex -1992.6142419398132 432.0050212157913 199.64069223800016
  endloop
endfacet
facet normal -1.0 0.0 0.0
  outer loop
    vertex -1992.6142419398132 432.0050212157913 199.64069223800016
    vertex -1992.6142419398132 451.75795825201266 217.64069223800013
    vertex -1992.6142419398132 432.0050212157913 163.64069223800016
  endloop
endfacet
facet normal -1.0 0.0 0.0
  outer loop
    vertex -1992.6142419398132 432.0050212157913 163.64069223800016
    vertex -1992.6142419398132 451.75795825201266 217.64069223800013
    vertex -1992.6142419398132 451.75795825201266 163.64069223800016
  endloop
endfacet
facet normal -1.0 0.0 0.0
  outer loop
    vertex -1992.6142419398132 417.20502121579136 163.64069223800016
    vertex -1992.6142419398132 414.62521211688346 163.64069223800016
    vertex -1992.6142419398132 417.20502121579136 199.64069223800016
  endloop
endfacet
facet normal 0.0 0.0 -1.0
  outer loop
    vertex -2038.4279683255454 323.770112129898 212.44069215609161
    vertex -2083.4254242830293 315.5466401905439 212.44069215609161
    vertex -2083.4254248925545 323.816207932358 212.44069215609161
  endloop
endfacet
facet normal 0.0 0.0 -1.0
  outer loop
    vertex -2083.4254242830293 315.5466401905439 212.44069215609161
    vertex -2038.4279683255454 323.770112129898 212.44069215609161
    vertex -2038.4279683255454 315.5466401905439 212.44069215609161
  endloop
endfacet
facet normal 0.9999999999911355 -2.146220858160888e-06 -3.62250977167674e-06
  outer loop
    vertex -1952.4781148195573 315.5466401905439 163.64069223800016
    vertex -1952.4782131334866 340.75388422615976 174.34069223600528
    vertex -1952.4781148195573 315.5466401905439 217.64069223800013
  endloop
endfacet
facet normal 0.9999999999911355 -2.146220858160888e-06 -3.62250977167674e-06
  outer loop
    vertex -1952.4782131334866 340.75388422615976 174.34069223600528
    vertex -1952.4781148195573 315.5466401905439 163.64069223800016
    vertex -1952.478228155518 451.75795825201266 163.64069223947342
  endloop
endfacet
facet normal 0.9999999999911355 -2.146220858160888e-06 -3.62250977167674e-06
  outer loop
    vertex -1952.4782131334866 340.75388422615976 174.34069223600528
    vertex -1952.478228155518 451.75795825201266 163.64069223947342
    vertex -1952.477961360275 351.05846877893094 174.34069223600528
  endloop
endfacet
facet normal 0.9999999999911355 -2.146220858160888e-06 -3.62250977167674e-06
  outer loop
    vertex -1952.477961360275 351.05846877893094 174.34069223600528
    vertex -1952.478228155518 451.75795825201266 163.64069223947342
    vertex -1952.4779613579517 351.0584687808438 213.84069224364663
  endloop
endfacet
facet normal 0.9999999999911355 -2.146220858160888e-06 -3.62250977167674e-06
  outer loop
    vertex -1952.4779613579517 351.0584687808438 213.84069224364663
    vertex -1952.478228155518 451.75795825201266 163.64069223947342
    vertex -1952.4780062898324 418.600060078135 190.04073157713495
  endloop
endfacet
facet normal 0.9999999999911355 -2.146220858160888e-06 -3.62250977167674e-06
  outer loop
    vertex -1952.4780062898324 418.600060078135 190.04073157713495
    vertex -1952.478228155518 451.75795825201266 163.64069223947342
    vertex -1952.478006289753 428.0371312825036 190.04071920603675
  endloop
endfacet
facet normal 0.9999999999911355 -2.146220858160888e-06 -3.62250977167674e-06
  outer loop
    vertex -1952.478006289753 428.0371312825036 190.04071920603675
    vertex -1952.478228155518 451.75795825201266 163.64069223947342
    vertex -1952.4780837549895 428.03714421849463 209.74071920588008
  endloop
endfacet
facet normal 0.9999999999911355 -2.146220858160888e-06 -3.62250977167674e-06
  outer loop
    vertex -1952.4781148195573 315.5466401905439 217.64069223800013
    vertex -1952.4782131311633 340.75388422807254 213.84069224364663
    vertex -1952.4775261920847 451.75795825201266 217.64069223034838
  endloop
endfacet
facet normal 0.9999999999911355 -2.146220858160888e-06 -3.62250977167674e-06
  outer loop
    vertex -1952.4782131311633 340.75388422807254 213.84069224364663
    vertex -1952.4781148195573 315.5466401905439 217.64069223800013
    vertex -1952.4782131334866 340.75388422615976 174.34069223600528
  endloop
endfacet
facet normal 0.9999999999911355 -2.146220858160888e-06 -3.62250977167674e-06
  outer loop
    vertex -1952.4775261920847 451.75795825201266 217.64069223034838
    vertex -1952.4782131311633 340.75388422807254 213.84069224364663
    vertex -1952.4779613579517 351.0584687808438 213.84069224364663
  endloop
endfacet
facet normal 0.9999999999911355 -2.146220858160888e-06 -3.62250977167674e-06
  outer loop
    vertex -1952.4775261920847 451.75795825201266 217.64069223034838
    vertex -1952.4779613579517 351.0584687808438 213.84069224364663
    vertex -1952.4780837550686 418.60007301412605 209.7407315769783
  endloop
endfacet
facet normal 0.9999999999911355 -2.146220858160888e-06 -3.62250977167674e-06
  outer loop
    vertex -1952.4780837550686 418.60007301412605 209.7407315769783
    vertex -1952.4779613579517 351.0584687808438 213.84069224364663
    vertex -1952.4780062898324 418.600060078135 190.04073157713495
  endloop
endfacet
facet normal 0.9999999999911355 -2.146220858160888e-06 -3.62250977167674e-06
  outer loop
    vertex -1952.4775261920847 451.75795825201266 217.64069223034838
    vertex -1952.4780837550686 418.60007301412605 209.7407315769783
    vertex -1952.4780837549895 428.03714421849463 209.74071920588008
  endloop
endfacet
facet normal 0.9999999999911355 -2.146220858160888e-06 -3.62250977167674e-06
  outer loop
    vertex -1952.4775261920847 451.75795825201266 217.64069223034838
    vertex -1952.4780837549895 428.03714421849463 209.74071920588008
    vertex -1952.478228155518 451.75795825201266 163.64069223947342
  endloop
endfacet
facet normal -1.0 0.0 0.0
  outer loop
    vertex -2038.4279683255454 323.770112129898 212.44069215609161
    vertex -2038.4279683255454 315.5466401905439 177.64069223800018
    vertex -2038.4279683255454 315.5466401905439 212.44069215609161
  endloop
endfacet
facet normal -1.0 0.0 0.0
  outer loop
    vertex -2038.4279683255454 315.5466401905439 177.64069223800018
    vertex -2038.4279683255454 323.770112129898 212.44069215609161
    vertex -2038.4279683255454 323.770112129898 177.64069223800018
  endloop
endfacet
facet normal -0.9999998101027568 0.0006162677077028823 -2.9262530071273465e-06
  outer loop
    vertex -1960.9622882469187 335.705136831905 217.64069223800013
    vertex -1960.9592114413979 340.7590474346192 213.8406922446441
    vertex -1960.9622882469187 335.705136831905 163.64069223800016
  endloop
endfacet
facet normal -0.9999998101027568 0.0006162677077028823 -2.9262530071273465e-06
  outer loop
    vertex -1960.9592114413979 340.7590474346192 213.8406922446441
    vertex -1960.9622882469187 335.705136831905 217.64069223800013
    vertex -1960.914241939813 414.62521211688346 217.64069223800013
  endloop
endfacet
facet normal -0.9999998101027568 0.0006162677077028823 -2.9262530071273465e-06
  outer loop
    vertex -1960.9622882469187 335.705136831905 163.64069223800016
    vertex -1960.9592114413979 340.7590474346192 213.8406922446441
    vertex -1960.9592114437212 340.7590474327064 174.3406922370027
  endloop
endfacet
facet normal -0.9999998101027568 0.0006162677077028823 -2.9262530071273465e-06
  outer loop
    vertex -1960.9592114413979 340.7590474346192 213.8406922446441
    vertex -1960.914241939813 414.62521211688346 217.64069223800013
    vertex -1960.9592114413979 351.0584687808438 213.84069224364663
  endloop
endfacet
facet normal -0.9999998101027568 0.0006162677077028823 -2.9262530071273465e-06
  outer loop
    vertex -1960.9592114437212 340.7590474327064 174.3406922370027
    vertex -1960.914241939813 414.62521211688346 163.64069223800016
    vertex -1960.9622882469187 335.705136831905 163.64069223800016
  endloop
endfacet
facet normal -0.9999998101027568 0.0006162677077028823 -2.9262530071273465e-06
  outer loop
    vertex -1960.914241939813 414.62521211688346 163.64069223800016
    vertex -1960.9592114437212 340.7590474327064 174.3406922370027
    vertex -1960.9592114437212 351.05846877893094 174.34069223600528
  endloop
endfacet
facet normal -0.9999998101027568 0.0006162677077028823 -2.9262530071273465e-06
  outer loop
    vertex -1960.914241939813 414.62521211688346 163.64069223800016
    vertex -1960.9592114437212 351.05846877893094 174.34069223600528
    vertex -1960.9592114413979 351.0584687808438 213.84069224364663
  endloop
endfacet
facet normal -0.9999998101027568 0.0006162677077028823 -2.9262530071273465e-06
  outer loop
    vertex -1960.914241939813 414.62521211688346 163.64069223800016
    vertex -1960.9592114413979 351.0584687808438 213.84069224364663
    vertex -1960.914241939813 414.62521211688346 217.64069223800013
  endloop
endfacet
facet normal 0.0 -1.0 0.0
  outer loop
    vertex -1952.4781148195573 315.5466401905439 217.64069223800013
    vertex -1960.7781148195572 315.5466401905439 163.64069223800016
    vertex -1952.4781148195573 315.5466401905439 163.64069223800016
  endloop
endfacet
facet normal 0.0 -1.0 0.0
  outer loop
    vertex -1960.7781148195572 315.5466401905439 163.64069223800016
    vertex -1952.4781148195573 315.5466401905439 217.64069223800013
    vertex -1960.7781148195572 315.5466401905439 217.64069223800013
  endloop
endfacet
facet normal 1.0 0.0 0.0
  outer loop
    vertex -2008.678114819557 334.84664019054384 163.64069223800016
    vertex -2008.678114819557 315.5466401905439 217.64069223800013
    vertex -2008.678114819557 315.5466401905439 163.64069223800016
  endloop
endfacet
facet normal 1.0 0.0 0.0
  outer loop
    vertex -2008.678114819557 315.5466401905439 217.64069223800013
    vertex -2008.678114819557 334.84664019054384 163.64069223800016
    vertex -2008.678114819557 327.94664019054386 214.64069223800016
  endloop
endfacet
facet normal 1.0 0.0 0.0
  outer loop
    vertex -2008.678114819557 327.94664019054386 214.64069223800016
    vertex -2008.678114819557 334.84664019054384 163.64069223800016
    vertex -2008.678114819557 334.84664019054384 214.64069223800016
  endloop
endfacet
facet normal 1.0 0.0 0.0
  outer loop
    vertex -2008.678114819557 327.94664019054386 217.64069223800013
    vertex -2008.678114819557 315.5466401905439 217.64069223800013
    vertex -2008.678114819557 327.94664019054386 214.64069223800016
  endloop
endfacet
facet normal -0.0007455745034818142 0.9999997220592913 -4.7553821138584996e-21
  outer loop
    vertex -2013.0050184408171 334.8434141606282 217.64069223800013
    vertex -2008.678114819557 334.84664019054384 163.64069223800016
    vertex -2013.0050184408171 334.8434141606282 163.64069223800016
  endloop
endfacet
facet normal -0.0007455745034818142 0.9999997220592913 -4.7553821138584996e-21
  outer loop
    vertex -2008.678114819557 334.84664019054384 163.64069223800016
    vertex -2013.0050184408171 334.8434141606282 217.64069223800013
    vertex -2008.678114819557 334.84664019054384 214.64069223800016
  endloop
endfacet
facet normal -0.0007455745034818142 0.9999997220592913 -4.7553821138584996e-21
  outer loop
    vertex -2008.678114819557 334.84664019054384 214.64069223800016
    vertex -2013.0050184408171 334.8434141606282 217.64069223800013
    vertex -2008.678114819557 334.84664019054384 217.64069223800013
  endloop
endfacet
facet normal 1.0 0.0 0.0
  outer loop
    vertex -2013.0050184408171 392.84341416062813 163.64069223800016
    vertex -2013.0050184408171 388.01590464292167 199.74069223800015
    vertex -2013.0050184408171 388.01590464292167 163.64069223800016
  endloop
endfacet
facet normal 1.0 0.0 0.0
  outer loop
    vertex -2013.0050184408171 372.6159046429217 163.64069223800016
    vertex -2013.0050184408171 334.8434141606282 217.64069223800013
    vertex -2013.0050184408171 334.8434141606282 163.64069223800016
  endloop
endfacet
facet normal 1.0 0.0 0.0
  outer loop
    vertex -2013.0050184408171 334.8434141606282 217.64069223800013
    vertex -2013.0050184408171 372.6159046429217 163.64069223800016
    vertex -2013.0050184408171 372.6159046429217 199.74069223800015
  endloop
endfacet
facet normal 1.0 0.0 0.0
  outer loop
    vertex -2013.0050184408171 334.8434141606282 217.64069223800013
    vertex -2013.0050184408171 372.6159046429217 199.74069223800015
    vertex -2013.0050184408171 392.84341416062813 217.64069223800013
  endloop
endfacet
facet normal 1.0 0.0 0.0
  outer loop
    vertex -2013.0050184408171 392.84341416062813 217.64069223800013
    vertex -2013.0050184408171 372.6159046429217 199.74069223800015
    vertex -2013.0050184408171 388.01590464292167 199.74069223800015
  endloop
endfacet
facet normal 1.0 0.0 0.0
  outer loop
    vertex -2013.0050184408171 392.84341416062813 217.64069223800013
    vertex -2013.0050184408171 388.01590464292167 199.74069223800015
    vertex -2013.0050184408171 392.84341416062813 163.64069223800016
  endloop
endfacet
facet normal 0.0 1.0 0.0
  outer loop
    vertex -1978.5622882469183 335.705136831905 214.64069223800016
    vertex -1960.9622882469187 335.705136831905 163.64069223800016
    vertex -1978.5622882469183 335.705136831905 163.64069223800016
  endloop
endfacet
facet normal 0.0 1.0 0.0
  outer loop
    vertex -1960.9622882469187 335.705136831905 163.64069223800016
    vertex -1978.5622882469183 335.705136831905 214.64069223800016
    vertex -1960.9622882469187 335.705136831905 217.64069223800013
  endloop
endfacet
facet normal 0.0 1.0 0.0
  outer loop
    vertex -1960.9622882469187 335.705136831905 217.64069223800013
    vertex -1978.5622882469183 335.705136831905 214.64069223800016
    vertex -1978.5622882469183 335.705136831905 217.64069223800013
  endloop
endfacet
facet normal 0.0 0.0 1.0
  outer loop
    vertex -2103.781561319429 397.2252440484906 193.42425824917285
    vertex -2106.488101093146 442.9907184792166 193.42425824917285
    vertex -2112.1706020977135 398.2753353374152 193.42425824917285
  endloop
endfacet
facet normal 0.0 0.0 1.0
  outer loop
    vertex -2106.488101093146 442.9907184792166 193.42425824917285
    vertex -2103.781561319429 397.2252440484906 193.42425824917285
    vertex -2098.1830342111866 441.95113855379105 193.42425824917285
  endloop
endfacet
facet normal 1.0 0.0 0.0
  outer loop
    vertex -1990.9949711457366 451.75795825201266 163.64069223800016
    vertex -1990.9949711457366 449.0791021018789 217.64069223800013
    vertex -1990.9949711457366 449.0791021018789 163.64069223800016
  endloop
endfacet
facet normal 1.0 0.0 0.0
  outer loop
    vertex -1990.9949711457366 449.0791021018789 217.64069223800013
    vertex -1990.9949711457366 451.75795825201266 163.64069223800016
    vertex -1990.9949711457366 451.75795825201266 217.64069223800013
  endloop
endfacet
facet normal -5.881832668640241e-11 -4.839792589799739e-11 -1.0
  outer loop
    vertex -1952.4779613579517 351.0584687808438 213.84069224364663
    vertex -1960.9592114413979 340.7590474346192 213.8406922446441
    vertex -1960.9592114413979 351.0584687808438 213.84069224364663
  endloop
endfacet
facet normal -5.881832668640241e-11 -4.839792589799739e-11 -1.0
  outer loop
    vertex -1960.9592114413979 340.7590474346192 213.8406922446441
    vertex -1952.4779613579517 351.0584687808438 213.84069224364663
    vertex -1952.4782131311633 340.75388422807254 213.84069224364663
  endloop
endfacet
facet normal 0.0 -1.0 0.0
  outer loop
    vertex -1990.9949711457366 432.0050212157913 199.64069223800016
    vertex -1992.6142419398132 432.0050212157913 163.64069223800016
    vertex -1990.9949711457366 432.0050212157913 163.64069223800016
  endloop
endfacet
facet normal 0.0 -1.0 0.0
  outer loop
    vertex -1992.6142419398132 432.0050212157913 163.64069223800016
    vertex -1990.9949711457366 432.0050212157913 199.64069223800016
    vertex -1992.6142419398132 432.0050212157913 199.64069223800016
  endloop
endfacet
facet normal 0.0 -1.0 0.0
  outer loop
    vertex -1960.914241939813 414.62521211688346 217.64069223800013
    vertex -1992.6142419398132 414.62521211688346 163.64069223800016
    vertex -1960.914241939813 414.62521211688346 163.64069223800016
  endloop
endfacet
facet normal 0.0 -1.0 0.0
  outer loop
    vertex -1992.6142419398132 414.62521211688346 163.64069223800016
    vertex -1960.914241939813 414.62521211688346 217.64069223800013
    vertex -1992.6142419398132 414.62521211688346 217.64069223800013
  endloop
endfacet
facet normal -1.0 0.0 0.0
  outer loop
    vertex -1978.5622882469183 335.705136831905 214.64069223800016
    vertex -1978.5622882469183 327.94664019054386 163.64069223800016
    vertex -1978.5622882469183 327.94664019054386 214.64069223800016
  endloop
endfacet
facet normal -1.0 0.0 0.0
  outer loop
    vertex -1978.5622882469183 327.94664019054386 163.64069223800016
    vertex -1978.5622882469183 335.705136831905 214.64069223800016
    vertex -1978.5622882469183 335.705136831905 163.64069223800016
  endloop
endfacet
facet normal 0.0 0.0 -1.0
  outer loop
    vertex -2022.5988525880202 451.75795825201266 163.64069223800016
    vertex -2024.7050184408174 410.82266990966303 163.64069223800016
    vertex -2024.7050184408174 451.75795825201266 163.64069223800016
  endloop
endfacet
facet normal 0.0 0.0 -1.0
  outer loop
    vertex -2024.7050184408174 410.82266990966303 163.64069223800016
    vertex -2022.5988525880202 451.75795825201266 163.64069223800016
    vertex -2022.5988525880205 410.82266990966303 163.64069223800016
  endloop
endfacet
facet normal 0.0 0.0 -1.0
  outer loop
    vertex -1978.5622882469183 335.705136831905 214.64069223800016
    vertex -2008.678114819557 327.94664019054386 214.64069223800016
    vertex -2008.678114819557 334.84664019054384 214.64069223800016
  endloop
endfacet
facet normal 0.0 0.0 -1.0
  outer loop
    vertex -2008.678114819557 327.94664019054386 214.64069223800016
    vertex -1978.5622882469183 335.705136831905 214.64069223800016
    vertex -1978.5622882469183 327.94664019054386 214.64069223800016
  endloop
endfacet
facet normal 0.0 0.0 1.0
  outer loop
    vertex -2106.9333069540144 372.0463639547495 193.42425824917285
    vertex -2113.657370226539 386.5760137763635 193.42425824917285
    vertex -2115.3696216591807 373.10237271864224 193.42425824917285
  endloop
endfacet
facet normal 0.0 0.0 1.0
  outer loop
    vertex -2113.657370226539 386.5760137763635 193.42425824917285
    vertex -2106.9333069540144 372.0463639547495 193.42425824917285
    vertex -2105.246358539211 385.5231722969455 193.42425824917285
  endloop
endfacet
facet normal 0.0 -1.0 0.0
  outer loop
    vertex -1960.7781148195572 327.94664019054386 217.64069223800013
    vertex -1978.5622882469183 327.94664019054386 163.64069223800016
    vertex -1960.7781148195572 327.94664019054386 163.64069223800016
  endloop
endfacet
facet normal 0.0 -1.0 0.0
  outer loop
    vertex -1978.5622882469183 327.94664019054386 163.64069223800016
    vertex -1960.7781148195572 327.94664019054386 217.64069223800013
    vertex -1978.5622882469183 327.94664019054386 214.64069223800016
  endloop
endfacet
facet normal 0.0 -1.0 0.0
  outer loop
    vertex -1978.5622882469183 327.94664019054386 214.64069223800016
    vertex -1960.7781148195572 327.94664019054386 217.64069223800013
    vertex -2008.678114819557 327.94664019054386 214.64069223800016
  endloop
endfacet
facet normal 0.0 -1.0 0.0
  outer loop
    vertex -2008.678114819557 327.94664019054386 214.64069223800016
    vertex -1960.7781148195572 327.94664019054386 217.64069223800013
    vertex -2008.678114819557 327.94664019054386 217.64069223800013
  endloop
endfacet
facet normal -1.0 0.0 0.0
  outer loop
    vertex -1960.7781148195572 327.94664019054386 217.64069223800013
    vertex -1960.7781148195572 315.5466401905439 163.64069223800016
    vertex -1960.7781148195572 315.5466401905439 217.64069223800013
  endloop
endfacet
facet normal -1.0 0.0 0.0
  outer loop
    vertex -1960.7781148195572 315.5466401905439 163.64069223800016
    vertex -1960.7781148195572 327.94664019054386 217.64069223800013
    vertex -1960.7781148195572 327.94664019054386 163.64069223800016
  endloop
endfacet
facet normal 0.12420490373846524 0.9922565907502549 0.0
  outer loop
    vertex -2120.998010438084 328.81279661168657 213.64069223800016
    vertex -2112.4785214870312 327.7463765798818 193.42425824917285
    vertex -2120.998010438084 328.81279661168657 193.42425824917285
  endloop
endfacet
facet normal 0.12420490373846524 0.9922565907502549 0.0
  outer loop
    vertex -2112.4785214870312 327.7463765798818 193.42425824917285
    vertex -2120.998010438084 328.81279661168657 213.64069223800016
    vertex -2112.4785214870312 327.7463765798818 213.64069223800016
  endloop
endfacet
facet normal 8.895124933222097e-12 2.220039842305924e-12 -1.0
  outer loop
    vertex -1990.9949711457366 417.20502121579136 163.64069223800016
    vertex -1992.6142419398132 414.62521211688346 163.64069223800016
    vertex -1992.6142419398132 417.20502121579136 163.64069223800016
  endloop
endfacet
facet normal 8.895124933222097e-12 2.220039842305924e-12 -1.0
  outer loop
    vertex -1992.6142419398132 414.62521211688346 163.64069223800016
    vertex -1990.9949711457366 417.20502121579136 163.64069223800016
    vertex -1990.9949711457366 416.8252121168835 163.64069223800016
  endloop
endfacet
facet normal 8.895124933222097e-12 2.220039842305924e-12 -1.0
  outer loop
    vertex -1992.6142419398132 414.62521211688346 163.64069223800016
    vertex -1990.9949711457366 416.8252121168835 163.64069223800016
    vertex -1960.914241939813 414.62521211688346 163.64069223800016
  endloop
endfacet
facet normal 8.895124933222097e-12 2.220039842305924e-12 -1.0
  outer loop
    vertex -1960.914241939813 414.62521211688346 163.64069223800016
    vertex -1990.9949711457366 416.8252121168835 163.64069223800016
    vertex -1960.9129025863563 416.8252121168835 163.64069223800016
  endloop
endfacet
facet normal 8.895124933222097e-12 2.220039842305924e-12 -1.0
  outer loop
    vertex -1960.8932665140646 449.0791021018789 163.64069223800016
    vertex -1990.9949711457366 446.2791021018789 163.64069223800016
    vertex -1990.9949711457366 449.0791021018789 163.64069223800016
  endloop
endfacet
facet normal 8.895124933222097e-12 2.220039842305924e-12 -1.0
  outer loop
    vertex -1990.9949711457366 446.2791021018789 163.64069223800016
    vertex -1960.8932665140646 449.0791021018789 163.64069223800016
    vertex -1960.8949711457367 446.2791021018789 163.64069223800016
  endloop
endfacet
facet normal 8.895124933222097e-12 2.220039842305924e-12 -1.0
  outer loop
    vertex -1960.9622882469187 335.705136831905 163.64069223800016
    vertex -1978.5622882469183 327.94664019054386 163.64069223800016
    vertex -1978.5622882469183 335.705136831905 163.64069223800016
  endloop
endfacet
facet normal 8.895124933222097e-12 2.220039842305924e-12 -1.0
  outer loop
    vertex -1978.5622882469183 327.94664019054386 163.64069223800016
    vertex -1960.9622882469187 335.705136831905 163.64069223800016
    vertex -1960.7781148195572 327.94664019054386 163.64069223800016
  endloop
endfacet
facet normal 8.895124933222097e-12 2.220039842305924e-12 -1.0
  outer loop
    vertex -1960.7781148195572 327.94664019054386 163.64069223800016
    vertex -1960.9622882469187 335.705136831905 163.64069223800016
    vertex -1960.914241939813 414.62521211688346 163.64069223800016
  endloop
endfacet
facet normal 8.895124933222097e-12 2.220039842305924e-12 -1.0
  outer loop
    vertex -1960.7781148195572 327.94664019054386 163.64069223800016
    vertex -1960.914241939813 414.62521211688346 163.64069223800016
    vertex -1960.9129025863563 416.8252121168835 163.64069223800016
  endloop
endfacet
facet normal 8.895124933222097e-12 2.220039842305924e-12 -1.0
  outer loop
    vertex -1960.7781148195572 327.94664019054386 163.64069223800016
    vertex -1960.9129025863563 416.8252121168835 163.64069223800016
    vertex -1960.8949711457367 446.2791021018789 163.64069223800016
  endloop
endfacet
facet normal 8.895124933222097e-12 2.220039842305924e-12 -1.0
  outer loop
    vertex -1960.7781148195572 327.94664019054386 163.64069223800016
    vertex -1960.8949711457367 446.2791021018789 163.64069223800016
    vertex -1960.8932665140646 449.0791021018789 163.64069223800016
  endloop
endfacet
facet normal 8.895124933222097e-12 2.220039842305924e-12 -1.0
  outer loop
    vertex -1960.7781148195572 327.94664019054386 163.64069223800016
    vertex -1960.8932665140646 449.0791021018789 163.64069223800016
    vertex -1960.8916356344077 451.75795825201266 163.64069223800016
  endloop
endfacet
facet normal 8.895124933222097e-12 2.220039842305924e-12 -1.0
  outer loop
    vertex -1960.7781148195572 327.94664019054386 163.64069223800016
    vertex -1960.8916356344077 451.75795825201266 163.64069223800016
    vertex -1952.478228155518 451.75795825201266 163.64069223947342
  endloop
endfacet
facet normal 8.895124933222097e-12 2.220039842305924e-12 -1.0
  outer loop
    vertex -1960.7781148195572 327.94664019054386 163.64069223800016
    vertex -1952.478228155518 451.75795825201266 163.64069223947342
    vertex -1960.7781148195572 315.5466401905439 163.64069223800016
  endloop
endfacet
facet normal 8.895124933222097e-12 2.220039842305924e-12 -1.0
  outer loop
    vertex -1960.7781148195572 315.5466401905439 163.64069223800016
    vertex -1952.478228155518 451.75795825201266 163.64069223947342
    vertex -1952.4781148195573 315.5466401905439 163.64069223800016
  endloop
endfacet
facet normal 8.895124933222097e-12 2.220039842305924e-12 -1.0
  outer loop
    vertex -1990.9949711457366 451.75795825201266 163.64069223800016
    vertex -1992.6142419398132 432.0050212157913 163.64069223800016
    vertex -1992.6142419398132 451.75795825201266 163.64069223800016
  endloop
endfacet
facet normal 8.895124933222097e-12 2.220039842305924e-12 -1.0
  outer loop
    vertex -1992.6142419398132 432.0050212157913 163.64069223800016
    vertex -1990.9949711457366 451.75795825201266 163.64069223800016
    vertex -1990.9949711457366 432.0050212157913 163.64069223800016
  endloop
endfacet
facet normal 8.895124933222097e-12 2.220039842305924e-12 -1.0
  outer loop
    vertex -1990.9949711457366 432.0050212157913 163.64069223800016
    vertex -1990.9949711457366 451.75795825201266 163.64069223800016
    vertex -1990.9949711457366 449.0791021018789 163.64069223800016
  endloop
endfacet
facet normal 8.895124933222097e-12 2.220039842305924e-12 -1.0
  outer loop
    vertex -1990.9949711457366 432.0050212157913 163.64069223800016
    vertex -1990.9949711457366 449.0791021018789 163.64069223800016
    vertex -1990.9949711457366 446.2791021018789 163.64069223800016
  endloop
endfacet
facet normal 0.0 -1.0 0.0
  outer loop
    vertex -2022.5988525880205 410.82266990966303 199.64069223800016
    vertex -2024.7050184408174 410.82266990966303 163.64069223800016
    vertex -2022.5988525880205 410.82266990966303 163.64069223800016
  endloop
endfacet
facet normal 0.0 -1.0 0.0
  outer loop
    vertex -2024.7050184408174 410.82266990966303 163.64069223800016
    vertex -2022.5988525880205 410.82266990966303 199.64069223800016
    vertex -2024.7050184408174 410.82266990966303 199.64069223800016
  endloop
endfacet
facet normal -0.9999999446952927 0.0003322969494987041 -1.3716737763662311e-05
  outer loop
    vertex -1960.8931170421681 451.75795825201266 217.64069218662476
    vertex -1960.8932665140646 449.0791021018789 163.64069223800016
    vertex -1960.8932665140646 449.0791021018789 217.64069223800013
  endloop
endfacet
facet normal -0.9999999446952927 0.0003322969494987041 -1.3716737763662311e-05
  outer loop
    vertex -1960.8932665140646 449.0791021018789 163.64069223800016
    vertex -1960.8931170421681 451.75795825201266 217.64069218662476
    vertex -1960.8916356344077 451.75795825201266 163.64069223800016
  endloop
endfacet
facet normal -3.9322455714586595e-06 6.566492920504045e-07 0.9999999999920532
  outer loop
    vertex -1952.4780062898324 418.600060078135 190.04073157713495
    vertex -1960.905965138618 428.0422621987838 190.0406922382195
    vertex -1960.91171039737 418.6051944921082 190.0406922382195
  endloop
endfacet
facet normal -3.9322455714586595e-06 6.566492920504045e-07 0.9999999999920532
  outer loop
    vertex -1960.905965138618 428.0422621987838 190.0406922382195
    vertex -1952.4780062898324 418.600060078135 190.04073157713495
    vertex -1952.478006289753 428.0371312825036 190.04071920603675
  endloop
endfacet
facet normal 0.0 0.0 -1.0
  outer loop
    vertex -2105.373946515554 451.75795825201266 163.64069223800016
    vertex -2112.966448398417 323.848392852559 163.64069223800016
    vertex -2122.683894397768 315.5466401905439 163.64069223800016
  endloop
endfacet
facet normal 0.0 0.0 -1.0
  outer loop
    vertex -2112.966448398417 323.848392852559 163.64069223800016
    vertex -2105.373946515554 451.75795825201266 163.64069223800016
    vertex -2104.592515236024 390.74664019054387 163.64069223800016
  endloop
endfacet
facet normal 0.0 0.0 -1.0
  outer loop
    vertex -2104.592515236024 390.74664019054387 163.64069223800016
    vertex -2105.373946515554 451.75795825201266 163.64069223800016
    vertex -2096.9554736104783 451.75795825201266 163.64069223800016
  endloop
endfacet
facet normal 0.0 0.0 -1.0
  outer loop
    vertex -2104.592515236024 390.74664019054387 163.64069223800016
    vertex -2096.9554736104783 451.75795825201266 163.64069223800016
    vertex -2104.3050184408175 393.0434141606282 163.64069223800016
  endloop
endfacet
facet normal 0.0 0.0 -1.0
  outer loop
    vertex -2022.5988525880205 395.32266990966303 163.64069223800016
    vertex -2024.7050184408174 393.0434141606282 163.64069223800016
    vertex -2024.7050184408174 395.32266990966303 163.64069223800016
  endloop
endfacet
facet normal 0.0 0.0 -1.0
  outer loop
    vertex -2104.3050184408175 393.0434141606282 163.64069223800016
    vertex -2021.549573133611 390.74664019054387 163.64069223800016
    vertex -2104.592515236024 390.74664019054387 163.64069223800016
  endloop
endfacet
facet normal 0.0 0.0 -1.0
  outer loop
    vertex -2021.549573133611 390.74664019054387 163.64069223800016
    vertex -2104.3050184408175 393.0434141606282 163.64069223800016
    vertex -2024.7050184408174 393.0434141606282 163.64069223800016
  endloop
endfacet
facet normal 0.0 0.0 -1.0
  outer loop
    vertex -2021.549573133611 390.74664019054387 163.64069223800016
    vertex -2024.7050184408174 393.0434141606282 163.64069223800016
    vertex -2022.5988525880202 393.0434141606282 163.64069223800016
  endloop
endfacet
facet normal 0.0 0.0 -1.0
  outer loop
    vertex -2022.5988525880202 393.0434141606282 163.64069223800016
    vertex -2024.7050184408174 393.0434141606282 163.64069223800016
    vertex -2022.5988525880205 395.32266990966303 163.64069223800016
  endloop
endfacet
facet normal 0.0 0.0 -1.0
  outer loop
    vertex -2013.0050184408171 372.6159046429217 163.64069223800016
    vertex -2016.0781148195574 323.74664019054387 163.64069223800016
    vertex -2016.0781148195574 372.6159046429217 163.64069223800016
  endloop
endfacet
facet normal 0.0 0.0 -1.0
  outer loop
    vertex -2112.966448398417 323.848392852559 163.64069223800016
    vertex -2008.678114819557 315.5466401905439 163.64069223800016
    vertex -2122.683894397768 315.5466401905439 163.64069223800016
  endloop
endfacet
facet normal 0.0 0.0 -1.0
  outer loop
    vertex -2008.678114819557 315.5466401905439 163.64069223800016
    vertex -2112.966448398417 323.848392852559 163.64069223800016
    vertex -2016.0781148195574 323.74664019054387 163.64069223800016
  endloop
endfacet
facet normal 0.0 0.0 -1.0
  outer loop
    vertex -2008.678114819557 315.5466401905439 163.64069223800016
    vertex -2016.0781148195574 323.74664019054387 163.64069223800016
    vertex -2013.0050184408171 334.8434141606282 163.64069223800016
  endloop
endfacet
facet normal 0.0 0.0 -1.0
  outer loop
    vertex -2013.0050184408171 334.8434141606282 163.64069223800016
    vertex -2016.0781148195574 323.74664019054387 163.64069223800016
    vertex -2013.0050184408171 372.6159046429217 163.64069223800016
  endloop
endfacet
facet normal 0.0 0.0 -1.0
  outer loop
    vertex -2008.678114819557 315.5466401905439 163.64069223800016
    vertex -2013.0050184408171 334.8434141606282 163.64069223800016
    vertex -2008.678114819557 334.84664019054384 163.64069223800016
  endloop
endfacet
facet normal 0.0 1.0 0.0
  outer loop
    vertex -2016.0781148195574 372.6159046429217 199.74069223800015
    vertex -2013.0050184408171 372.6159046429217 163.64069223800016
    vertex -2016.0781148195574 372.6159046429217 163.64069223800016
  endloop
endfacet
facet normal 0.0 1.0 0.0
  outer loop
    vertex -2013.0050184408171 372.6159046429217 163.64069223800016
    vertex -2016.0781148195574 372.6159046429217 199.74069223800015
    vertex -2013.0050184408171 372.6159046429217 199.74069223800015
  endloop
endfacet
facet normal 0.0 -1.0 0.0
  outer loop
    vertex -2016.0781148195574 390.74664019054387 217.64069223800013
    vertex -2021.549573133611 390.74664019054387 163.64069223800016
    vertex -2016.0781148195574 390.74664019054387 163.64069223800016
  endloop
endfacet
facet normal 0.0 -1.0 0.0
  outer loop
    vertex -2021.549573133611 390.74664019054387 163.64069223800016
    vertex -2016.0781148195574 390.74664019054387 217.64069223800013
    vertex -2104.592515236024 390.74664019054387 163.64069223800016
  endloop
endfacet
facet normal 0.0 -1.0 0.0
  outer loop
    vertex -2104.592515236024 390.74664019054387 163.64069223800016
    vertex -2016.0781148195574 390.74664019054387 217.64069223800013
    vertex -2104.592515236024 390.74664019054387 217.64069223800013
  endloop
endfacet
facet normal 0.0010483605580378483 0.99999945046207 3.962142155992554e-06
  outer loop
    vertex -2112.966448398417 323.848392852559 163.64069223800016
    vertex -2083.4254236735037 323.81736870555 177.64069223800018
    vertex -2016.0781148195574 323.74664019054387 163.64069223800016
  endloop
endfacet
facet normal 0.0010483605580378483 0.99999945046207 3.962142155992554e-06
  outer loop
    vertex -2083.4254236735037 323.81736870555 177.64069223800018
    vertex -2112.966448398417 323.848392852559 163.64069223800016
    vertex -2112.966448398417 323.848392852559 213.64069223800016
  endloop
endfacet
facet normal 0.0010483605580378483 0.99999945046207 3.962142155992554e-06
  outer loop
    vertex -2083.4254236735037 323.81736870555 177.64069223800018
    vertex -2112.966448398417 323.848392852559 213.64069223800016
    vertex -2083.4254248925545 323.816207932358 212.44069215609161
  endloop
endfacet
facet normal 0.0010483605580378483 0.99999945046207 3.962142155992554e-06
  outer loop
    vertex -2083.4254248925545 323.816207932358 212.44069215609161
    vertex -2112.966448398417 323.848392852559 213.64069223800016
    vertex -2038.4279683255454 323.770112129898 212.44069215609161
  endloop
endfacet
facet normal 0.0010483605580378483 0.99999945046207 3.962142155992554e-06
  outer loop
    vertex -2016.0781148195574 323.74664019054387 163.64069223800016
    vertex -2038.4279683255454 323.770112129898 177.64069223800018
    vertex -2016.0781148195574 323.74664019054387 217.64069223800013
  endloop
endfacet
facet normal 0.0010483605580378483 0.99999945046207 3.962142155992554e-06
  outer loop
    vertex -2038.4279683255454 323.770112129898 177.64069223800018
    vertex -2016.0781148195574 323.74664019054387 163.64069223800016
    vertex -2083.4254236735037 323.81736870555 177.64069223800018
  endloop
endfacet
facet normal 0.0010483605580378483 0.99999945046207 3.962142155992554e-06
  outer loop
    vertex -2016.0781148195574 323.74664019054387 217.64069223800013
    vertex -2038.4279683255454 323.770112129898 177.64069223800018
    vertex -2038.4279683255454 323.770112129898 212.44069215609161
  endloop
endfacet
facet normal 0.0010483605580378483 0.99999945046207 3.962142155992554e-06
  outer loop
    vertex -2016.0781148195574 323.74664019054387 217.64069223800013
    vertex -2038.4279683255454 323.770112129898 212.44069215609161
    vertex -2112.966448398417 323.848392852559 213.64069223800016
  endloop
endfacet
facet normal 0.0010483605580378483 0.99999945046207 3.962142155992554e-06
  outer loop
    vertex -2016.0781148195574 323.74664019054387 217.64069223800013
    vertex -2112.966448398417 323.848392852559 213.64069223800016
    vertex -2112.966448398417 323.848392852559 217.64069223800013
  endloop
endfacet
facet normal 1.0 1.4663585878754231e-15 1.7401351332513137e-15
  outer loop
    vertex -2022.5988525880202 451.75795825201266 163.64069223800016
    vertex -2022.5988525880205 410.82266990966303 199.64069223800016
    vertex -2022.5988525880205 410.82266990966303 163.64069223800016
  endloop
endfacet
facet normal 1.0 1.4663585878754231e-15 1.7401351332513137e-15
  outer loop
    vertex -2022.5988525880205 395.32266990966303 163.64069223800016
    vertex -2022.5988525880202 393.0434141606282 217.64069223800013
    vertex -2022.5988525880202 393.0434141606282 163.64069223800016
  endloop
endfacet
facet normal 1.0 1.4663585878754231e-15 1.7401351332513137e-15
  outer loop
    vertex -2022.5988525880202 393.0434141606282 217.64069223800013
    vertex -2022.5988525880205 395.32266990966303 163.64069223800016
    vertex -2022.5988525880205 395.32266990966303 199.64069223800016
  endloop
endfacet
facet normal 1.0 1.4663585878754231e-15 1.7401351332513137e-15
  outer loop
    vertex -2022.5988525880202 393.0434141606282 217.64069223800013
    vertex -2022.5988525880205 395.32266990966303 199.64069223800016
    vertex -2022.598852588021 451.75795825201266 217.64069311291473
  endloop
endfacet
facet normal 1.0 1.4663585878754231e-15 1.7401351332513137e-15
  outer loop
    vertex -2022.598852588021 451.75795825201266 217.64069311291473
    vertex -2022.5988525880205 395.32266990966303 199.64069223800016
    vertex -2022.5988525880205 410.82266990966303 199.64069223800016
  endloop
endfacet
facet normal 1.0 1.4663585878754231e-15 1.7401351332513137e-15
  outer loop
    vertex -2022.598852588021 451.75795825201266 217.64069311291473
    vertex -2022.5988525880205 410.82266990966303 199.64069223800016
    vertex -2022.5988525880202 451.75795825201266 163.64069223800016
  endloop
endfacet
facet normal 0.9922565907502553 -0.12420490373846146 6.5522814566436715e-18
  outer loop
    vertex -2104.3050184408175 393.0434141606282 163.64069223800016
    vertex -2103.781561319429 397.2252440484906 193.42425824917285
    vertex -2104.3050184408175 393.0434141606282 217.64069223800013
  endloop
endfacet
facet normal 0.9922565907502553 -0.12420490373846146 6.5522814566436715e-18
  outer loop
    vertex -2103.781561319429 397.2252440484906 193.42425824917285
    vertex -2104.3050184408175 393.0434141606282 163.64069223800016
    vertex -2096.9554736104783 451.75795825201266 163.64069223800016
  endloop
endfacet
facet normal 0.9922565907502553 -0.12420490373846146 6.5522814566436715e-18
  outer loop
    vertex -2103.781561319429 397.2252440484906 193.42425824917285
    vertex -2096.9554736104783 451.75795825201266 163.64069223800016
    vertex -2098.1830342111866 441.95113855379105 193.42425824917285
  endloop
endfacet
facet normal 0.9922565907502553 -0.12420490373846146 6.5522814566436715e-18
  outer loop
    vertex -2098.1830342111866 441.95113855379105 193.42425824917285
    vertex -2096.9554736104783 451.75795825201266 163.64069223800016
    vertex -2098.1830342111866 441.95113855379105 213.64069223800016
  endloop
endfacet
facet normal 0.9922565907502553 -0.12420490373846146 6.5522814566436715e-18
  outer loop
    vertex -2104.3050184408175 393.0434141606282 217.64069223800013
    vertex -2103.781561319429 397.2252440484906 213.64069223800016
    vertex -2096.9554736104783 451.75795825201266 217.6406891173246
  endloop
endfacet
facet normal 0.9922565907502553 -0.12420490373846146 6.5522814566436715e-18
  outer loop
    vertex -2103.781561319429 397.2252440484906 213.64069223800016
    vertex -2104.3050184408175 393.0434141606282 217.64069223800013
    vertex -2103.781561319429 397.2252440484906 193.42425824917285
  endloop
endfacet
facet normal 0.9922565907502553 -0.12420490373846146 6.5522814566436715e-18
  outer loop
    vertex -2096.9554736104783 451.75795825201266 217.6406891173246
    vertex -2103.781561319429 397.2252440484906 213.64069223800016
    vertex -2098.1830342111866 441.95113855379105 213.64069223800016
  endloop
endfacet
facet normal 0.9922565907502553 -0.12420490373846146 6.5522814566436715e-18
  outer loop
    vertex -2096.9554736104783 451.75795825201266 217.6406891173246
    vertex -2098.1830342111866 441.95113855379105 213.64069223800016
    vertex -2096.9554736104783 451.75795825201266 163.64069223800016
  endloop
endfacet
facet normal 0.0 1.0 0.0
  outer loop
    vertex -2104.3050184408175 393.0434141606282 217.64069223800013
    vertex -2024.7050184408174 393.0434141606282 163.64069223800016
    vertex -2104.3050184408175 393.0434141606282 163.64069223800016
  endloop
endfacet
facet normal 0.0 1.0 0.0
  outer loop
    vertex -2024.7050184408174 393.0434141606282 163.64069223800016
    vertex -2104.3050184408175 393.0434141606282 217.64069223800013
    vertex -2024.7050184408174 393.0434141606282 217.64069223800013
  endloop
endfacet
facet normal 1.0 0.0 0.0
  outer loop
    vertex -1990.9949711457366 446.2791021018789 163.64069223800016
    vertex -1990.9949711457366 432.0050212157913 199.64069223800016
    vertex -1990.9949711457366 432.0050212157913 163.64069223800016
  endloop
endfacet
facet normal 1.0 0.0 0.0
  outer loop
    vertex -1990.9949711457366 417.20502121579136 163.64069223800016
    vertex -1990.9949711457366 416.8252121168835 217.64069223800013
    vertex -1990.9949711457366 416.8252121168835 163.64069223800016
  endloop
endfacet
facet normal 1.0 0.0 0.0
  outer loop
    vertex -1990.9949711457366 416.8252121168835 217.64069223800013
    vertex -1990.9949711457366 417.20502121579136 163.64069223800016
    vertex -1990.9949711457366 417.20502121579136 199.64069223800016
  endloop
endfacet
facet normal 1.0 0.0 0.0
  outer loop
    vertex -1990.9949711457366 416.8252121168835 217.64069223800013
    vertex -1990.9949711457366 417.20502121579136 199.64069223800016
    vertex -1990.9949711457366 446.2791021018789 217.64069223800013
  endloop
endfacet
facet normal 1.0 0.0 0.0
  outer loop
    vertex -1990.9949711457366 446.2791021018789 217.64069223800013
    vertex -1990.9949711457366 417.20502121579136 199.64069223800016
    vertex -1990.9949711457366 432.0050212157913 199.64069223800016
  endloop
endfacet
facet normal 1.0 0.0 0.0
  outer loop
    vertex -1990.9949711457366 446.2791021018789 217.64069223800013
    vertex -1990.9949711457366 432.0050212157913 199.64069223800016
    vertex -1990.9949711457366 446.2791021018789 163.64069223800016
  endloop
endfacet
facet normal 0.0 -1.0 0.0
  outer loop
    vertex -1960.8949711457367 446.2791021018789 217.64069223800013
    vertex -1990.9949711457366 446.2791021018789 163.64069223800016
    vertex -1960.8949711457367 446.2791021018789 163.64069223800016
  endloop
endfacet
facet normal 0.0 -1.0 0.0
  outer loop
    vertex -1990.9949711457366 446.2791021018789 163.64069223800016
    vertex -1960.8949711457367 446.2791021018789 217.64069223800013
    vertex -1990.9949711457366 446.2791021018789 217.64069223800013
  endloop
endfacet
facet normal -0.9999998152415891 0.0006078787499020535 -4.619407323638343e-07
  outer loop
    vertex -1960.9129025863563 416.8252121168835 217.64069223800013
    vertex -1960.9117878626064 418.60520742809916 209.74069223806285
    vertex -1960.9129025863563 416.8252121168835 163.64069223800016
  endloop
endfacet
facet normal -0.9999998152415891 0.0006078787499020535 -4.619407323638343e-07
  outer loop
    vertex -1960.9117878626064 418.60520742809916 209.74069223806285
    vertex -1960.9129025863563 416.8252121168835 217.64069223800013
    vertex -1960.8949711457367 446.2791021018789 217.64069223800013
  endloop
endfacet
facet normal -0.9999998152415891 0.0006078787499020535 -4.619407323638343e-07
  outer loop
    vertex -1960.9129025863563 416.8252121168835 163.64069223800016
    vertex -1960.9117878626064 418.60520742809916 209.74069223806285
    vertex -1960.91171039737 418.6051944921082 190.0406922382195
  endloop
endfacet
facet normal -0.9999998152415891 0.0006078787499020535 -4.619407323638343e-07
  outer loop
    vertex -1960.9117878626064 418.60520742809916 209.74069223806285
    vertex -1960.8949711457367 446.2791021018789 217.64069223800013
    vertex -1960.906042603855 428.0422751347748 209.74069223806285
  endloop
endfacet
facet normal -0.9999998152415891 0.0006078787499020535 -4.619407323638343e-07
  outer loop
    vertex -1960.91171039737 418.6051944921082 190.0406922382195
    vertex -1960.8949711457367 446.2791021018789 163.64069223800016
    vertex -1960.9129025863563 416.8252121168835 163.64069223800016
  endloop
endfacet
facet normal -0.9999998152415891 0.0006078787499020535 -4.619407323638343e-07
  outer loop
    vertex -1960.8949711457367 446.2791021018789 163.64069223800016
    vertex -1960.91171039737 418.6051944921082 190.0406922382195
    vertex -1960.905965138618 428.0422621987838 190.0406922382195
  endloop
endfacet
facet normal -0.9999998152415891 0.0006078787499020535 -4.619407323638343e-07
  outer loop
    vertex -1960.8949711457367 446.2791021018789 163.64069223800016
    vertex -1960.905965138618 428.0422621987838 190.0406922382195
    vertex -1960.906042603855 428.0422751347748 209.74069223806285
  endloop
endfacet
facet normal -0.9999998152415891 0.0006078787499020535 -4.619407323638343e-07
  outer loop
    vertex -1960.8949711457367 446.2791021018789 163.64069223800016
    vertex -1960.906042603855 428.0422751347748 209.74069223806285
    vertex -1960.8949711457367 446.2791021018789 217.64069223800013
  endloop
endfacet
facet normal 0.0 1.0 0.0
  outer loop
    vertex -1990.9949711457366 416.8252121168835 217.64069223800013
    vertex -1960.9129025863563 416.8252121168835 163.64069223800016
    vertex -1990.9949711457366 416.8252121168835 163.64069223800016
  endloop
endfacet
facet normal 0.0 1.0 0.0
  outer loop
    vertex -1960.9129025863563 416.8252121168835 163.64069223800016
    vertex -1990.9949711457366 416.8252121168835 217.64069223800013
    vertex -1960.9129025863563 416.8252121168835 217.64069223800013
  endloop
endfacet
facet normal 0.0006087969129261959 0.9999998146831423 -4.845086115246995e-11
  outer loop
    vertex -1960.9592114437212 340.7590474327064 174.3406922370027
    vertex -1952.4782131311633 340.75388422807254 213.84069224364663
    vertex -1952.4782131334866 340.75388422615976 174.34069223600528
  endloop
endfacet
facet normal 0.0006087969129261959 0.9999998146831423 -4.845086115246995e-11
  outer loop
    vertex -1952.4782131311633 340.75388422807254 213.84069224364663
    vertex -1960.9592114437212 340.7590474327064 174.3406922370027
    vertex -1960.9592114413979 340.7590474346192 213.8406922446441
  endloop
endfacet
facet normal 5.88176615313985e-11 4.839737858350539e-11 1.0
  outer loop
    vertex -1952.4782131334866 340.75388422615976 174.34069223600528
    vertex -1960.9592114437212 351.05846877893094 174.34069223600528
    vertex -1960.9592114437212 340.7590474327064 174.3406922370027
  endloop
endfacet
facet normal 5.88176615313985e-11 4.839737858350539e-11 1.0
  outer loop
    vertex -1960.9592114437212 351.05846877893094 174.34069223600528
    vertex -1952.4782131334866 340.75388422615976 174.34069223600528
    vertex -1952.477961360275 351.05846877893094 174.34069223600528
  endloop
endfacet
facet normal 1.0152775070366436e-26 -1.0 4.8415068829812096e-11
  outer loop
    vertex -1952.4779613579517 351.0584687808438 213.84069224364663
    vertex -1960.9592114437212 351.05846877893094 174.34069223600528
    vertex -1952.477961360275 351.05846877893094 174.34069223600528
  endloop
endfacet
facet normal 1.0152775070366436e-26 -1.0 4.8415068829812096e-11
  outer loop
    vertex -1960.9592114437212 351.05846877893094 174.34069223600528
    vertex -1952.4779613579517 351.0584687808438 213.84069224364663
    vertex -1960.9592114413979 351.0584687808438 213.84069224364663
  endloop
endfacet
facet normal -3.784977437918693e-09 1.2273335150671294e-09 1.0
  outer loop
    vertex -2016.0781148195574 390.74664019054387 217.64069223800013
    vertex -2104.3050184408175 393.0434141606282 217.64069223800013
    vertex -2104.592515236024 390.74664019054387 217.64069223800013
  endloop
endfacet
facet normal -3.784977437918693e-09 1.2273335150671294e-09 1.0
  outer loop
    vertex -2104.3050184408175 393.0434141606282 217.64069223800013
    vertex -2016.0781148195574 390.74664019054387 217.64069223800013
    vertex -2024.7050184408174 393.0434141606282 217.64069223800013
  endloop
endfacet
facet normal -3.784977437918693e-09 1.2273335150671294e-09 1.0
  outer loop
    vertex -2024.7050184408174 393.0434141606282 217.64069223800013
    vertex -2016.0781148195574 390.74664019054387 217.64069223800013
    vertex -2022.5988525880202 393.0434141606282 217.64069223800013
  endloop
endfacet
facet normal -3.784977437918693e-09 1.2273335150671294e-09 1.0
  outer loop
    vertex -2024.7050184408174 393.0434141606282 217.64069223800013
    vertex -2022.5988525880202 393.0434141606282 217.64069223800013
    vertex -2024.7050184408174 451.75795825201266 217.64069223800013
  endloop
endfacet
facet normal -3.784977437918693e-09 1.2273335150671294e-09 1.0
  outer loop
    vertex -2024.7050184408174 451.75795825201266 217.64069223800013
    vertex -2022.5988525880202 393.0434141606282 217.64069223800013
    vertex -2022.598852588021 451.75795825201266 217.64069311291473
  endloop
endfacet
facet normal -3.784977437918693e-09 1.2273335150671294e-09 1.0
  outer loop
    vertex -2022.5988525880202 393.0434141606282 217.64069223800013
    vertex -2016.0781148195574 390.74664019054387 217.64069223800013
    vertex -2013.0050184408171 392.84341416062813 217.64069223800013
  endloop
endfacet
facet normal -3.784977437918693e-09 1.2273335150671294e-09 1.0
  outer loop
    vertex -2013.0050184408171 392.84341416062813 217.64069223800013
    vertex -2016.0781148195574 390.74664019054387 217.64069223800013
    vertex -2013.0050184408171 334.8434141606282 217.64069223800013
  endloop
endfacet
facet normal -3.784977437918693e-09 1.2273335150671294e-09 1.0
  outer loop
    vertex -2112.966448398417 323.848392852559 217.64069223800013
    vertex -2105.373946515554 451.75795825201266 217.64069223800013
    vertex -2122.683894397768 315.5466401905439 217.64069223800013
  endloop
endfacet
facet normal -3.784977437918693e-09 1.2273335150671294e-09 1.0
  outer loop
    vertex -2105.373946515554 451.75795825201266 217.64069223800013
    vertex -2112.966448398417 323.848392852559 217.64069223800013
    vertex -2104.592515236024 390.74664019054387 217.64069223800013
  endloop
endfacet
facet normal -3.784977437918693e-09 1.2273335150671294e-09 1.0
  outer loop
    vertex -2105.373946515554 451.75795825201266 217.64069223800013
    vertex -2104.592515236024 390.74664019054387 217.64069223800013
    vertex -2096.9554736104783 451.75795825201266 217.6406891173246
  endloop
endfacet
facet normal -3.784977437918693e-09 1.2273335150671294e-09 1.0
  outer loop
    vertex -2096.9554736104783 451.75795825201266 217.6406891173246
    vertex -2104.592515236024 390.74664019054387 217.64069223800013
    vertex -2104.3050184408175 393.0434141606282 217.64069223800013
  endloop
endfacet
facet normal -3.784977437918693e-09 1.2273335150671294e-09 1.0
  outer loop
    vertex -1952.4781148195573 315.5466401905439 217.64069223800013
    vertex -1960.7781148195572 327.94664019054386 217.64069223800013
    vertex -1960.7781148195572 315.5466401905439 217.64069223800013
  endloop
endfacet
facet normal -3.784977437918693e-09 1.2273335150671294e-09 1.0
  outer loop
    vertex -2008.678114819557 315.5466401905439 217.64069223800013
    vertex -2112.966448398417 323.848392852559 217.64069223800013
    vertex -2122.683894397768 315.5466401905439 217.64069223800013
  endloop
endfacet
facet normal -3.784977437918693e-09 1.2273335150671294e-09 1.0
  outer loop
    vertex -2112.966448398417 323.848392852559 217.64069223800013
    vertex -2008.678114819557 315.5466401905439 217.64069223800013
    vertex -2016.0781148195574 323.74664019054387 217.64069223800013
  endloop
endfacet
facet normal -3.784977437918693e-09 1.2273335150671294e-09 1.0
  outer loop
    vertex -2016.0781148195574 323.74664019054387 217.64069223800013
    vertex -2008.678114819557 315.5466401905439 217.64069223800013
    vertex -2013.0050184408171 334.8434141606282 217.64069223800013
  endloop
endfacet
facet normal -3.784977437918693e-09 1.2273335150671294e-09 1.0
  outer loop
    vertex -2016.0781148195574 323.74664019054387 217.64069223800013
    vertex -2013.0050184408171 334.8434141606282 217.64069223800013
    vertex -2016.0781148195574 390.74664019054387 217.64069223800013
  endloop
endfacet
facet normal -3.784977437918693e-09 1.2273335150671294e-09 1.0
  outer loop
    vertex -2013.0050184408171 334.8434141606282 217.64069223800013
    vertex -2008.678114819557 315.5466401905439 217.64069223800013
    vertex -2008.678114819557 334.84664019054384 217.64069223800013
  endloop
endfacet
facet normal -3.784977437918693e-09 1.2273335150671294e-09 1.0
  outer loop
    vertex -2008.678114819557 334.84664019054384 217.64069223800013
    vertex -2008.678114819557 315.5466401905439 217.64069223800013
    vertex -2008.678114819557 327.94664019054386 217.64069223800013
  endloop
endfacet
facet normal -3.784977437918693e-09 1.2273335150671294e-09 1.0
  outer loop
    vertex -2008.678114819557 334.84664019054384 217.64069223800013
    vertex -2008.678114819557 327.94664019054386 217.64069223800013
    vertex -1960.7781148195572 327.94664019054386 217.64069223800013
  endloop
endfacet
facet normal -3.784977437918693e-09 1.2273335150671294e-09 1.0
  outer loop
    vertex -2008.678114819557 334.84664019054384 217.64069223800013
    vertex -1960.7781148195572 327.94664019054386 217.64069223800013
    vertex -1978.5622882469183 335.705136831905 217.64069223800013
  endloop
endfacet
facet normal -3.784977437918693e-09 1.2273335150671294e-09 1.0
  outer loop
    vertex -1978.5622882469183 335.705136831905 217.64069223800013
    vertex -1960.7781148195572 327.94664019054386 217.64069223800013
    vertex -1960.9622882469187 335.705136831905 217.64069223800013
  endloop
endfacet
facet normal -3.784977437918693e-09 1.2273335150671294e-09 1.0
  outer loop
    vertex -1960.9622882469187 335.705136831905 217.64069223800013
    vertex -1960.7781148195572 327.94664019054386 217.64069223800013
    vertex -1960.914241939813 414.62521211688346 217.64069223800013
  endloop
endfacet
facet normal -3.784977437918693e-09 1.2273335150671294e-09 1.0
  outer loop
    vertex -1960.914241939813 414.62521211688346 217.64069223800013
    vertex -1960.7781148195572 327.94664019054386 217.64069223800013
    vertex -1960.9129025863563 416.8252121168835 217.64069223800013
  endloop
endfacet
facet normal -3.784977437918693e-09 1.2273335150671294e-09 1.0
  outer loop
    vertex -1960.9129025863563 416.8252121168835 217.64069223800013
    vertex -1960.7781148195572 327.94664019054386 217.64069223800013
    vertex -1960.8949711457367 446.2791021018789 217.64069223800013
  endloop
endfacet
facet normal -3.784977437918693e-09 1.2273335150671294e-09 1.0
  outer loop
    vertex -1960.8949711457367 446.2791021018789 217.64069223800013
    vertex -1960.7781148195572 327.94664019054386 217.64069223800013
    vertex -1960.8932665140646 449.0791021018789 217.64069223800013
  endloop
endfacet
facet normal -3.784977437918693e-09 1.2273335150671294e-09 1.0
  outer loop
    vertex -1960.8932665140646 449.0791021018789 217.64069223800013
    vertex -1960.7781148195572 327.94664019054386 217.64069223800013
    vertex -1960.8931170421681 451.75795825201266 217.64069218662476
  endloop
endfacet
facet normal -3.784977437918693e-09 1.2273335150671294e-09 1.0
  outer loop
    vertex -1960.8931170421681 451.75795825201266 217.64069218662476
    vertex -1960.7781148195572 327.94664019054386 217.64069223800013
    vertex -1952.4775261920847 451.75795825201266 217.64069223034838
  endloop
endfacet
facet normal -3.784977437918693e-09 1.2273335150671294e-09 1.0
  outer loop
    vertex -1952.4775261920847 451.75795825201266 217.64069223034838
    vertex -1960.7781148195572 327.94664019054386 217.64069223800013
    vertex -1952.4781148195573 315.5466401905439 217.64069223800013
  endloop
endfacet
facet normal -3.784977437918693e-09 1.2273335150671294e-09 1.0
  outer loop
    vertex -1960.8949711457367 446.2791021018789 217.64069223800013
    vertex -1990.9949711457366 449.0791021018789 217.64069223800013
    vertex -1990.9949711457366 446.2791021018789 217.64069223800013
  endloop
endfacet
facet normal -3.784977437918693e-09 1.2273335150671294e-09 1.0
  outer loop
    vertex -1990.9949711457366 449.0791021018789 217.64069223800013
    vertex -1960.8949711457367 446.2791021018789 217.64069223800013
    vertex -1960.8932665140646 449.0791021018789 217.64069223800013
  endloop
endfacet
facet normal -3.784977437918693e-09 1.2273335150671294e-09 1.0
  outer loop
    vertex -1992.6142419398132 414.62521211688346 217.64069223800013
    vertex -1990.9949711457366 416.8252121168835 217.64069223800013
    vertex -1992.6142419398132 451.75795825201266 217.64069223800013
  endloop
endfacet
facet normal -3.784977437918693e-09 1.2273335150671294e-09 1.0
  outer loop
    vertex -1990.9949711457366 416.8252121168835 217.64069223800013
    vertex -1992.6142419398132 414.62521211688346 217.64069223800013
    vertex -1960.914241939813 414.62521211688346 217.64069223800013
  endloop
endfacet
facet normal -3.784977437918693e-09 1.2273335150671294e-09 1.0
  outer loop
    vertex -1990.9949711457366 416.8252121168835 217.64069223800013
    vertex -1960.914241939813 414.62521211688346 217.64069223800013
    vertex -1960.9129025863563 416.8252121168835 217.64069223800013
  endloop
endfacet
facet normal -3.784977437918693e-09 1.2273335150671294e-09 1.0
  outer loop
    vertex -1990.9949711457366 416.8252121168835 217.64069223800013
    vertex -1990.9949711457366 451.75795825201266 217.64069223800013
    vertex -1992.6142419398132 451.75795825201266 217.64069223800013
  endloop
endfacet
facet normal -3.784977437918693e-09 1.2273335150671294e-09 1.0
  outer loop
    vertex -1990.9949711457366 451.75795825201266 217.64069223800013
    vertex -1990.9949711457366 416.8252121168835 217.64069223800013
    vertex -1990.9949711457366 446.2791021018789 217.64069223800013
  endloop
endfacet
facet normal -3.784977437918693e-09 1.2273335150671294e-09 1.0
  outer loop
    vertex -1990.9949711457366 451.75795825201266 217.64069223800013
    vertex -1990.9949711457366 446.2791021018789 217.64069223800013
    vertex -1990.9949711457366 449.0791021018789 217.64069223800013
  endloop
endfacet
facet normal -1.0 0.0 0.0
  outer loop
    vertex -2016.0781148195574 390.74664019054387 217.64069223800013
    vertex -2016.0781148195574 323.74664019054387 163.64069223800016
    vertex -2016.0781148195574 323.74664019054387 217.64069223800013
  endloop
endfacet
facet normal -1.0 0.0 0.0
  outer loop
    vertex -2016.0781148195574 323.74664019054387 163.64069223800016
    vertex -2016.0781148195574 390.74664019054387 217.64069223800013
    vertex -2016.0781148195574 372.6159046429217 199.74069223800015
  endloop
endfacet
facet normal -1.0 0.0 0.0
  outer loop
    vertex -2016.0781148195574 372.6159046429217 199.74069223800015
    vertex -2016.0781148195574 390.74664019054387 217.64069223800013
    vertex -2016.0781148195574 388.01590464292167 199.74069223800015
  endloop
endfacet
facet normal -1.0 0.0 0.0
  outer loop
    vertex -2016.0781148195574 388.01590464292167 199.74069223800015
    vertex -2016.0781148195574 390.74664019054387 217.64069223800013
    vertex -2016.0781148195574 388.01590464292167 163.64069223800016
  endloop
endfacet
facet normal -1.0 0.0 0.0
  outer loop
    vertex -2016.0781148195574 388.01590464292167 163.64069223800016
    vertex -2016.0781148195574 390.74664019054387 217.64069223800013
    vertex -2016.0781148195574 390.74664019054387 163.64069223800016
  endloop
endfacet
facet normal -1.0 0.0 0.0
  outer loop
    vertex -2016.0781148195574 372.6159046429217 163.64069223800016
    vertex -2016.0781148195574 323.74664019054387 163.64069223800016
    vertex -2016.0781148195574 372.6159046429217 199.74069223800015
  endloop
endfacet
facet normal -1.0 0.0 0.0
  outer loop
    vertex -2024.7050184408174 393.0434141606282 217.64069223800013
    vertex -2024.7050184408174 395.32266990966303 199.64069223800016
    vertex -2024.7050184408174 393.0434141606282 163.64069223800016
  endloop
endfacet
facet normal -1.0 0.0 0.0
  outer loop
    vertex -2024.7050184408174 395.32266990966303 199.64069223800016
    vertex -2024.7050184408174 393.0434141606282 217.64069223800013
    vertex -2024.7050184408174 451.75795825201266 217.64069223800013
  endloop
endfacet
facet normal -1.0 0.0 0.0
  outer loop
    vertex -2024.7050184408174 395.32266990966303 199.64069223800016
    vertex -2024.7050184408174 451.75795825201266 217.64069223800013
    vertex -2024.7050184408174 410.82266990966303 199.64069223800016
  endloop
endfacet
facet normal -1.0 0.0 0.0
  outer loop
    vertex -2024.7050184408174 410.82266990966303 199.64069223800016
    vertex -2024.7050184408174 451.75795825201266 217.64069223800013
    vertex -2024.7050184408174 410.82266990966303 163.64069223800016
  endloop
endfacet
facet normal -1.0 0.0 0.0
  outer loop
    vertex -2024.7050184408174 410.82266990966303 163.64069223800016
    vertex -2024.7050184408174 451.75795825201266 217.64069223800013
    vertex -2024.7050184408174 451.75795825201266 163.64069223800016
  endloop
endfacet
facet normal -1.0 0.0 0.0
  outer loop
    vertex -2024.7050184408174 395.32266990966303 163.64069223800016
    vertex -2024.7050184408174 393.0434141606282 163.64069223800016
    vertex -2024.7050184408174 395.32266990966303 199.64069223800016
  endloop
endfacet
facet normal 3.93224557145866e-06 -6.566492920504044e-07 -0.9999999999920532
  outer loop
    vertex -1960.906042603855 428.0422751347748 209.74069223806285
    vertex -1952.4780837550686 418.60007301412605 209.7407315769783
    vertex -1960.9117878626064 418.60520742809916 209.74069223806285
  endloop
endfacet
facet normal 3.93224557145866e-06 -6.566492920504044e-07 -0.9999999999920532
  outer loop
    vertex -1952.4780837550686 418.60007301412605 209.7407315769783
    vertex -1960.906042603855 428.0422751347748 209.74069223806285
    vertex -1952.4780837549895 428.03714421849463 209.74071920588008
  endloop
endfacet
facet normal -0.0 1.0 -0.0
  outer loop
    vertex -2024.7050184408174 451.75795825201266 217.64069223800013
    vertex -2022.5988525880202 451.75795825201266 163.64069223800016
    vertex -2024.7050184408174 451.75795825201266 163.64069223800016
  endloop
endfacet
facet normal -0.0 1.0 -0.0
  outer loop
    vertex -2022.5988525880202 451.75795825201266 163.64069223800016
    vertex -2024.7050184408174 451.75795825201266 217.64069223800013
    vertex -2022.598852588021 451.75795825201266 217.64069311291473
  endloop
endfacet
facet normal 0.0 0.0 1.0
  outer loop
    vertex -2038.4279683255454 315.5466401905439 177.64069223800018
    vertex -2083.4254236735037 323.81736870555 177.64069223800018
    vertex -2083.4254236735037 315.5466401905439 177.64069223800018
  endloop
endfacet
facet normal 0.0 0.0 1.0
  outer loop
    vertex -2083.4254236735037 323.81736870555 177.64069223800018
    vertex -2038.4279683255454 315.5466401905439 177.64069223800018
    vertex -2038.4279683255454 323.770112129898 177.64069223800018
  endloop
endfacet
facet normal 0.0 0.0 -1.0
  outer loop
    vertex -2022.5988525880205 410.82266990966303 199.64069223800016
    vertex -2024.7050184408174 395.32266990966303 199.64069223800016
    vertex -2024.7050184408174 410.82266990966303 199.64069223800016
  endloop
endfacet
facet normal 0.0 0.0 -1.0
  outer loop
    vertex -2024.7050184408174 395.32266990966303 199.64069223800016
    vertex -2022.5988525880205 410.82266990966303 199.64069223800016
    vertex -2022.5988525880205 395.32266990966303 199.64069223800016
  endloop
endfacet
facet normal 0.9922565907502549 -0.12420490373846461 -1.6216578888987544e-16
  outer loop
    vertex -2112.966448398417 323.848392852559 163.64069223800016
    vertex -2112.4785214870312 327.7463765798818 193.42425824917285
    vertex -2112.966448398417 323.848392852559 213.64069223800016
  endloop
endfacet
facet normal 0.9922565907502549 -0.12420490373846461 -1.6216578888987544e-16
  outer loop
    vertex -2112.4785214870312 327.7463765798818 193.42425824917285
    vertex -2112.966448398417 323.848392852559 163.64069223800016
    vertex -2104.592515236024 390.74664019054387 163.64069223800016
  endloop
endfacet
facet normal 0.9922565907502549 -0.12420490373846461 -1.6216578888987544e-16
  outer loop
    vertex -2112.4785214870312 327.7463765798818 193.42425824917285
    vertex -2104.592515236024 390.74664019054387 163.64069223800016
    vertex -2110.78899004453 341.2438203896076 193.42425824917285
  endloop
endfacet
facet normal 0.9922565907502549 -0.12420490373846461 -1.6216578888987544e-16
  outer loop
    vertex -2110.78899004453 341.2438203896076 193.42425824917285
    vertex -2104.592515236024 390.74664019054387 163.64069223800016
    vertex -2110.78899004453 341.2438203896076 213.64069223800016
  endloop
endfacet
facet normal 0.9922565907502549 -0.12420490373846461 -1.6216578888987544e-16
  outer loop
    vertex -2110.78899004453 341.2438203896076 213.64069223800016
    vertex -2104.592515236024 390.74664019054387 163.64069223800016
    vertex -2106.9333069540144 372.0463639547495 193.42425824917285
  endloop
endfacet
facet normal 0.9922565907502549 -0.12420490373846461 -1.6216578888987544e-16
  outer loop
    vertex -2110.78899004453 341.2438203896076 213.64069223800016
    vertex -2106.9333069540144 372.0463639547495 193.42425824917285
    vertex -2106.9333069540144 372.0463639547494 213.64069223800016
  endloop
endfacet
facet normal 0.9922565907502549 -0.12420490373846461 -1.6216578888987544e-16
  outer loop
    vertex -2106.9333069540144 372.0463639547495 193.42425824917285
    vertex -2104.592515236024 390.74664019054387 163.64069223800016
    vertex -2105.246358539211 385.5231722969455 193.42425824917285
  endloop
endfacet
facet normal 0.9922565907502549 -0.12420490373846461 -1.6216578888987544e-16
  outer loop
    vertex -2105.246358539211 385.5231722969455 193.42425824917285
    vertex -2104.592515236024 390.74664019054387 163.64069223800016
    vertex -2105.246358539211 385.5231722969455 213.64069223800016
  endloop
endfacet
facet normal 0.9922565907502549 -0.12420490373846461 -1.6216578888987544e-16
  outer loop
    vertex -2112.4785214870312 327.7463765798818 213.64069223800016
    vertex -2112.966448398417 323.848392852559 217.64069223800013
    vertex -2112.966448398417 323.848392852559 213.64069223800016
  endloop
endfacet
facet normal 0.9922565907502549 -0.12420490373846461 -1.6216578888987544e-16
  outer loop
    vertex -2112.966448398417 323.848392852559 217.64069223800013
    vertex -2112.4785214870312 327.7463765798818 213.64069223800016
    vertex -2104.592515236024 390.74664019054387 217.64069223800013
  endloop
endfacet
facet normal 0.9922565907502549 -0.12420490373846461 -1.6216578888987544e-16
  outer loop
    vertex -2104.592515236024 390.74664019054387 217.64069223800013
    vertex -2112.4785214870312 327.7463765798818 213.64069223800016
    vertex -2110.78899004453 341.2438203896076 213.64069223800016
  endloop
endfacet
facet normal 0.9922565907502549 -0.12420490373846461 -1.6216578888987544e-16
  outer loop
    vertex -2104.592515236024 390.74664019054387 217.64069223800013
    vertex -2110.78899004453 341.2438203896076 213.64069223800016
    vertex -2106.9333069540144 372.0463639547494 213.64069223800016
  endloop
endfacet
facet normal 0.9922565907502549 -0.12420490373846461 -1.6216578888987544e-16
  outer loop
    vertex -2104.592515236024 390.74664019054387 217.64069223800013
    vertex -2106.9333069540144 372.0463639547494 213.64069223800016
    vertex -2105.246358539211 385.5231722969455 213.64069223800016
  endloop
endfacet
facet normal 0.9922565907502549 -0.12420490373846461 -1.6216578888987544e-16
  outer loop
    vertex -2104.592515236024 390.74664019054387 217.64069223800013
    vertex -2105.246358539211 385.5231722969455 213.64069223800016
    vertex -2104.592515236024 390.74664019054387 163.64069223800016
  endloop
endfacet
facet normal 0.9922565907502549 -0.12420490373846461 -1.6216578888987544e-16
  outer loop
    vertex -2112.4785214870312 327.7463765798818 213.64069223800016
    vertex -2112.966448398417 323.848392852559 213.64069223800016
    vertex -2112.4785214870312 327.7463765798818 193.42425824917285
  endloop
endfacet
facet normal 0.0 -1.0 0.0
  outer loop
    vertex -2013.0050184408171 388.01590464292167 199.74069223800015
    vertex -2016.0781148195574 388.01590464292167 163.64069223800016
    vertex -2013.0050184408171 388.01590464292167 163.64069223800016
  endloop
endfacet
facet normal 0.0 -1.0 0.0
  outer loop
    vertex -2016.0781148195574 388.01590464292167 163.64069223800016
    vertex -2013.0050184408171 388.01590464292167 199.74069223800015
    vertex -2016.0781148195574 388.01590464292167 199.74069223800015
  endloop
endfacet
facet normal 0.0 0.0 1.0
  outer loop
    vertex -2112.4785214870312 327.7463765798818 193.42425824917285
    vertex -2119.283137234178 342.3070682872435 193.42425824917285
    vertex -2120.998010438084 328.81279661168657 193.42425824917285
  endloop
endfacet
facet normal 0.0 0.0 1.0
  outer loop
    vertex -2119.283137234178 342.3070682872435 193.42425824917285
    vertex -2112.4785214870312 327.7463765798818 193.42425824917285
    vertex -2110.78899004453 341.2438203896076 193.42425824917285
  endloop
endfacet
facet normal 0.0 -1.0 0.0
  outer loop
    vertex -2008.678114819557 315.5466401905439 163.64069223800016
    vertex -2038.4279683255454 315.5466401905439 177.64069223800018
    vertex -2122.683894397768 315.5466401905439 163.64069223800016
  endloop
endfacet
facet normal 0.0 -1.0 0.0
  outer loop
    vertex -2038.4279683255454 315.5466401905439 177.64069223800018
    vertex -2008.678114819557 315.5466401905439 163.64069223800016
    vertex -2008.678114819557 315.5466401905439 217.64069223800013
  endloop
endfacet
facet normal 0.0 -1.0 0.0
  outer loop
    vertex -2038.4279683255454 315.5466401905439 177.64069223800018
    vertex -2008.678114819557 315.5466401905439 217.64069223800013
    vertex -2038.4279683255454 315.5466401905439 212.44069215609161
  endloop
endfacet
facet normal 0.0 -1.0 0.0
  outer loop
    vertex -2038.4279683255454 315.5466401905439 212.44069215609161
    vertex -2008.678114819557 315.5466401905439 217.64069223800013
    vertex -2083.4254242830293 315.5466401905439 212.44069215609161
  endloop
endfacet
facet normal 0.0 -1.0 0.0
  outer loop
    vertex -2122.683894397768 315.5466401905439 163.64069223800016
    vertex -2083.4254236735037 315.5466401905439 177.64069223800018
    vertex -2122.683894397768 315.5466401905439 217.64069223800013
  endloop
endfacet
facet normal 0.0 -1.0 0.0
  outer loop
    vertex -2083.4254236735037 315.5466401905439 177.64069223800018
    vertex -2122.683894397768 315.5466401905439 163.64069223800016
    vertex -2038.4279683255454 315.5466401905439 177.64069223800018
  endloop
endfacet
facet normal 0.0 -1.0 0.0
  outer loop
    vertex -2122.683894397768 315.5466401905439 217.64069223800013
    vertex -2083.4254236735037 315.5466401905439 177.64069223800018
    vertex -2083.4254242830293 315.5466401905439 212.44069215609161
  endloop
endfacet
facet normal 0.0 -1.0 0.0
  outer loop
    vertex -2122.683894397768 315.5466401905439 217.64069223800013
    vertex -2083.4254242830293 315.5466401905439 212.44069215609161
    vertex -2008.678114819557 315.5466401905439 217.64069223800013
  endloop
endfacet
facet normal 0.0 1.0 0.0
  outer loop
    vertex -1992.6142419398132 417.20502121579136 199.64069223800016
    vertex -1990.9949711457366 417.20502121579136 163.64069223800016
    vertex -1992.6142419398132 417.20502121579136 163.64069223800016
  endloop
endfacet
facet normal 0.0 1.0 0.0
  outer loop
    vertex -1990.9949711457366 417.20502121579136 163.64069223800016
    vertex -1992.6142419398132 417.20502121579136 199.64069223800016
    vertex -1990.9949711457366 417.20502121579136 199.64069223800016
  endloop
endfacet
facet normal 0.0 0.0 -1.0
  outer loop
    vertex -2013.0050184408171 392.84341416062813 163.64069223800016
    vertex -2021.549573133611 390.74664019054387 163.64069223800016
    vertex -2022.5988525880202 393.0434141606282 163.64069223800016
  endloop
endfacet
facet normal 0.0 0.0 -1.0
  outer loop
    vertex -2021.549573133611 390.74664019054387 163.64069223800016
    vertex -2013.0050184408171 392.84341416062813 163.64069223800016
    vertex -2016.0781148195574 390.74664019054387 163.64069223800016
  endloop
endfacet
facet normal 0.0 0.0 -1.0
  outer loop
    vertex -2016.0781148195574 390.74664019054387 163.64069223800016
    vertex -2013.0050184408171 392.84341416062813 163.64069223800016
    vertex -2016.0781148195574 388.01590464292167 163.64069223800016
  endloop
endfacet
facet normal 0.0 0.0 -1.0
  outer loop
    vertex -2016.0781148195574 388.01590464292167 163.64069223800016
    vertex -2013.0050184408171 392.84341416062813 163.64069223800016
    vertex -2013.0050184408171 388.01590464292167 163.64069223800016
  endloop
endfacet
facet normal -0.9920216447022646 0.126067666125037 -5.208564325231945e-16
  outer loop
    vertex -2122.683894397768 315.5466401905439 217.64069223800013
    vertex -2120.998010438084 328.81279661168657 213.64069223800016
    vertex -2122.683894397768 315.5466401905439 163.64069223800016
  endloop
endfacet
facet normal -0.9920216447022646 0.126067666125037 -5.208564325231945e-16
  outer loop
    vertex -2120.998010438084 328.81279661168657 213.64069223800016
    vertex -2122.683894397768 315.5466401905439 217.64069223800013
    vertex -2105.373946515554 451.75795825201266 217.64069223800013
  endloop
endfacet
facet normal -0.9920216447022646 0.126067666125037 -5.208564325231945e-16
  outer loop
    vertex -2120.998010438084 328.81279661168657 213.64069223800016
    vertex -2105.373946515554 451.75795825201266 217.64069223800013
    vertex -2119.283137234178 342.3070682872435 213.64069223800016
  endloop
endfacet
facet normal -0.9920216447022646 0.126067666125037 -5.208564325231945e-16
  outer loop
    vertex -2119.283137234178 342.3070682872435 213.64069223800016
    vertex -2105.373946515554 451.75795825201266 217.64069223800013
    vertex -2115.3696216591807 373.10237271864224 213.64069223800016
  endloop
endfacet
facet normal -0.9920216447022646 0.126067666125037 -5.208564325231945e-16
  outer loop
    vertex -2119.283137234178 342.3070682872435 213.64069223800016
    vertex -2115.3696216591807 373.10237271864224 213.64069223800016
    vertex -2119.283137234178 342.3070682872435 211.7908024095276
  endloop
endfacet
facet normal -0.9920216447022646 0.126067666125037 -5.208564325231945e-16
  outer loop
    vertex -2119.283137234178 342.3070682872435 211.7908024095276
    vertex -2115.3696216591807 373.10237271864224 213.64069223800016
    vertex -2119.283137234178 342.3070682872435 193.42425824917285
  endloop
endfacet
facet normal -0.9920216447022646 0.126067666125037 -5.208564325231945e-16
  outer loop
    vertex -2115.3696216591807 373.10237271864224 213.64069223800016
    vertex -2105.373946515554 451.75795825201266 217.64069223800013
    vertex -2113.657370226539 386.5760137763635 213.64069223800016
  endloop
endfacet
facet normal -0.9920216447022646 0.126067666125037 -5.208564325231945e-16
  outer loop
    vertex -2113.657370226539 386.5760137763635 213.64069223800016
    vertex -2105.373946515554 451.75795825201266 217.64069223800013
    vertex -2112.1706020977135 398.2753353374152 213.64069223800016
  endloop
endfacet
facet normal -0.9920216447022646 0.126067666125037 -5.208564325231945e-16
  outer loop
    vertex -2113.657370226539 386.5760137763635 213.64069223800016
    vertex -2112.1706020977135 398.2753353374152 213.64069223800016
    vertex -2113.657370226539 386.5760137763635 193.42425824917285
  endloop
endfacet
facet normal -0.9920216447022646 0.126067666125037 -5.208564325231945e-16
  outer loop
    vertex -2112.1706020977135 398.2753353374152 213.64069223800016
    vertex -2105.373946515554 451.75795825201266 217.64069223800013
    vertex -2106.488101093146 442.9907184792167 213.64069223800016
  endloop
endfacet
facet normal -0.9920216447022646 0.126067666125037 -5.208564325231945e-16
  outer loop
    vertex -2122.683894397768 315.5466401905439 163.64069223800016
    vertex -2120.998010438084 328.81279661168657 193.42425824917285
    vertex -2105.373946515554 451.75795825201266 163.64069223800016
  endloop
endfacet
facet normal -0.9920216447022646 0.126067666125037 -5.208564325231945e-16
  outer loop
    vertex -2120.998010438084 328.81279661168657 193.42425824917285
    vertex -2122.683894397768 315.5466401905439 163.64069223800016
    vertex -2120.998010438084 328.81279661168657 213.64069223800016
  endloop
endfacet
facet normal -0.9920216447022646 0.126067666125037 -5.208564325231945e-16
  outer loop
    vertex -2105.373946515554 451.75795825201266 163.64069223800016
    vertex -2120.998010438084 328.81279661168657 193.42425824917285
    vertex -2119.283137234178 342.3070682872435 193.42425824917285
  endloop
endfacet
facet normal -0.9920216447022646 0.126067666125037 -5.208564325231945e-16
  outer loop
    vertex -2105.373946515554 451.75795825201266 163.64069223800016
    vertex -2119.283137234178 342.3070682872435 193.42425824917285
    vertex -2115.3696216591807 373.10237271864224 193.42425824917285
  endloop
endfacet
facet normal -0.9920216447022646 0.126067666125037 -5.208564325231945e-16
  outer loop
    vertex -2115.3696216591807 373.10237271864224 193.42425824917285
    vertex -2119.283137234178 342.3070682872435 193.42425824917285
    vertex -2115.3696216591807 373.10237271864224 213.64069223800016
  endloop
endfacet
facet normal -0.9920216447022646 0.126067666125037 -5.208564325231945e-16
  outer loop
    vertex -2105.373946515554 451.75795825201266 163.64069223800016
    vertex -2115.3696216591807 373.10237271864224 193.42425824917285
    vertex -2113.657370226539 386.5760137763635 193.42425824917285
  endloop
endfacet
facet normal -0.9920216447022646 0.126067666125037 -5.208564325231945e-16
  outer loop
    vertex -2105.373946515554 451.75795825201266 163.64069223800016
    vertex -2113.657370226539 386.5760137763635 193.42425824917285
    vertex -2112.1706020977135 398.2753353374152 193.42425824917285
  endloop
endfacet
facet normal -0.9920216447022646 0.126067666125037 -5.208564325231945e-16
  outer loop
    vertex -2112.1706020977135 398.2753353374152 193.42425824917285
    vertex -2113.657370226539 386.5760137763635 193.42425824917285
    vertex -2112.1706020977135 398.2753353374152 213.64069223800016
  endloop
endfacet
facet normal -0.9920216447022646 0.126067666125037 -5.208564325231945e-16
  outer loop
    vertex -2105.373946515554 451.75795825201266 163.64069223800016
    vertex -2112.1706020977135 398.2753353374152 193.42425824917285
    vertex -2106.488101093146 442.9907184792166 193.42425824917285
  endloop
endfacet
facet normal -0.9920216447022646 0.126067666125037 -5.208564325231945e-16
  outer loop
    vertex -2105.373946515554 451.75795825201266 163.64069223800016
    vertex -2106.488101093146 442.9907184792166 193.42425824917285
    vertex -2106.488101093146 442.9907184792167 213.64069223800016
  endloop
endfacet
facet normal -0.9920216447022646 0.126067666125037 -5.208564325231945e-16
  outer loop
    vertex -2105.373946515554 451.75795825201266 163.64069223800016
    vertex -2106.488101093146 442.9907184792167 213.64069223800016
    vertex -2105.373946515554 451.75795825201266 217.64069223800013
  endloop
endfacet
facet normal -0.0 1.0 -0.0
  outer loop
    vertex -1960.8931170421681 451.75795825201266 217.64069218662476
    vertex -1952.478228155518 451.75795825201266 163.64069223947342
    vertex -1960.8916356344077 451.75795825201266 163.64069223800016
  endloop
endfacet
facet normal -0.0 1.0 -0.0
  outer loop
    vertex -1952.478228155518 451.75795825201266 163.64069223947342
    vertex -1960.8931170421681 451.75795825201266 217.64069218662476
    vertex -1952.4775261920847 451.75795825201266 217.64069223034838
  endloop
endfacet
facet normal -0.0 1.0 -0.0
  outer loop
    vertex -2105.373946515554 451.75795825201266 217.64069223800013
    vertex -2096.9554736104783 451.75795825201266 163.64069223800016
    vertex -2105.373946515554 451.75795825201266 163.64069223800016
  endloop
endfacet
facet normal -0.0 1.0 -0.0
  outer loop
    vertex -2096.9554736104783 451.75795825201266 163.64069223800016
    vertex -2105.373946515554 451.75795825201266 217.64069223800013
    vertex -2096.9554736104783 451.75795825201266 217.6406891173246
  endloop
endfacet
facet normal -0.0 1.0 -0.0
  outer loop
    vertex -1992.6142419398132 451.75795825201266 217.64069223800013
    vertex -1990.9949711457366 451.75795825201266 163.64069223800016
    vertex -1992.6142419398132 451.75795825201266 163.64069223800016
  endloop
endfacet
facet normal -0.0 1.0 -0.0
  outer loop
    vertex -1990.9949711457366 451.75795825201266 163.64069223800016
    vertex -1992.6142419398132 451.75795825201266 217.64069223800013
    vertex -1990.9949711457366 451.75795825201266 217.64069223800013
  endloop
endfacet
endsolid GroundFloorMainV8
