solid GroundFloorMainV8
facet normal 0.0 1.0 0.0
  outer loop
    vertex -604.9706895282895 1015.6114878518123 -122.26988850513003
    vertex -586.8706895282895 1015.6114878518123 -125.66988850513005
    vertex -604.9706895282895 1015.6114878518123 -125.66988850513005
  endloop
endfacet
facet normal 0.0 1.0 0.0
  outer loop
    vertex -586.8706895282895 1015.6114878518123 -125.66988850513005
    vertex -604.9706895282895 1015.6114878518123 -122.26988850513003
    vertex -586.8706895282895 1015.6114878518123 -122.26988850513003
  endloop
endfacet
facet normal -1.4215268142755385e-44 -2.2876224386761283e-15 -1.0
  outer loop
    vertex -586.8706895282895 1000.8079987429138 -135.86988850512998
    vertex -604.9706895282895 995.8771737346053 -135.86988850512998
    vertex -604.9706895282895 1000.8079987429138 -135.86988850512998
  endloop
endfacet
facet normal -1.4215268142755385e-44 -2.2876224386761283e-15 -1.0
  outer loop
    vertex -604.9706895282895 995.8771737346053 -135.86988850512998
    vertex -586.8706895282895 1000.8079987429138 -135.86988850512998
    vertex -586.8706895282895 995.8771737346053 -135.86988850512998
  endloop
endfacet
facet normal -1.805924043723118e-31 -1.0 5.795676188650092e-16
  outer loop
    vertex -586.8706895282895 1010.7458494159205 -125.66988850513002
    vertex -604.9706895282895 1010.7458494159205 -129.06988850513002
    vertex -586.8706895282895 1010.7458494159205 -129.06988850513002
  endloop
endfacet
facet normal -1.805924043723118e-31 -1.0 5.795676188650092e-16
  outer loop
    vertex -604.9706895282895 1010.7458494159205 -129.06988850513002
    vertex -586.8706895282895 1010.7458494159205 -125.66988850513002
    vertex -604.9706895282895 1010.7458494159205 -125.66988850513005
  endloop
endfacet
facet normal 0.0 1.0 -1.1438112193380642e-15
  outer loop
    vertex -604.9706895282895 995.8771737346053 -135.86988850512998
    vertex -586.8706895282895 995.8771737346053 -139.26988850512998
    vertex -604.9706895282895 995.8771737346053 -139.26988850512998
  endloop
endfacet
facet normal 0.0 1.0 -1.1438112193380642e-15
  outer loop
    vertex -586.8706895282895 995.8771737346053 -139.26988850512998
    vertex -604.9706895282895 995.8771737346053 -135.86988850512998
    vertex -586.8706895282895 995.8771737346053 -135.86988850512998
  endloop
endfacet
facet normal -1.5579925317944195e-16 5.79567618865012e-16 1.0
  outer loop
    vertex -586.8706895282895 1010.7458494159205 -125.66988850513002
    vertex -604.9706895282895 1015.6114878518123 -125.66988850513005
    vertex -604.9706895282895 1010.7458494159205 -125.66988850513005
  endloop
endfacet
facet normal -1.5579925317944195e-16 5.79567618865012e-16 1.0
  outer loop
    vertex -604.9706895282895 1015.6114878518123 -125.66988850513005
    vertex -586.8706895282895 1010.7458494159205 -125.66988850513002
    vertex -586.8706895282895 1015.6114878518123 -125.66988850513005
  endloop
endfacet
facet normal 0.0 1.0 -5.788229876663379e-16
  outer loop
    vertex -604.9706895282895 975.8499711688949 -149.46988850512997
    vertex -586.8706895282895 975.8499711688949 -152.86988850512998
    vertex -604.9706895282895 975.8499711688949 -152.86988850512998
  endloop
endfacet
facet normal 0.0 1.0 -5.788229876663379e-16
  outer loop
    vertex -586.8706895282895 975.8499711688949 -152.86988850512998
    vertex -604.9706895282895 975.8499711688949 -149.46988850512997
    vertex -586.8706895282895 975.8499711688949 -149.46988850512997
  endloop
endfacet
facet normal 0.0 0.0 -1.0
  outer loop
    vertex -586.8706895282895 975.8499711688949 -152.86988850512998
    vertex -604.9706895282895 971.0427925527513 -152.86988850512998
    vertex -604.9706895282895 975.8499711688949 -152.86988850512998
  endloop
endfacet
facet normal 0.0 0.0 -1.0
  outer loop
    vertex -604.9706895282895 971.0427925527513 -152.86988850512998
    vertex -586.8706895282895 975.8499711688949 -152.86988850512998
    vertex -586.8706895282895 971.0427925527513 -152.86988850512998
  endloop
endfacet
facet normal 0.0 1.0 0.0
  outer loop
    vertex -604.9706895282895 990.7483350426961 -139.26988850512998
    vertex -586.8706895282895 990.7483350426961 -142.66988850512996
    vertex -604.9706895282895 990.7483350426961 -142.66988850512996
  endloop
endfacet
facet normal 0.0 1.0 0.0
  outer loop
    vertex -586.8706895282895 990.7483350426961 -142.66988850512996
    vertex -604.9706895282895 990.7483350426961 -139.26988850512998
    vertex -586.8706895282895 990.7483350426961 -139.26988850512998
  endloop
endfacet
facet normal 0.0 0.0 -1.0
  outer loop
    vertex -586.8706895282895 995.8771737346053 -139.26988850512998
    vertex -604.9706895282895 990.7483350426961 -139.26988850512998
    vertex -604.9706895282895 995.8771737346053 -139.26988850512998
  endloop
endfacet
facet normal 0.0 0.0 -1.0
  outer loop
    vertex -604.9706895282895 990.7483350426961 -139.26988850512998
    vertex -586.8706895282895 995.8771737346053 -139.26988850512998
    vertex -586.8706895282895 990.7483350426961 -139.26988850512998
  endloop
endfacet
facet normal -0.0 -1.0 -0.0
  outer loop
    vertex -586.8706895282895 955.3414672390816 -163.06988850512997
    vertex -604.9706895282895 955.3414672390816 -166.46988850512997
    vertex -586.8706895282895 955.3414672390816 -166.46988850512997
  endloop
endfacet
facet normal -0.0 -1.0 -0.0
  outer loop
    vertex -604.9706895282895 955.3414672390816 -166.46988850512997
    vertex -586.8706895282895 955.3414672390816 -163.06988850512997
    vertex -604.9706895282895 955.3414672390816 -163.06988850512997
  endloop
endfacet
facet normal 0.0 0.0 1.0
  outer loop
    vertex -586.8706895282895 955.3414672390816 -163.06988850512997
    vertex -604.9706895282895 961.1414672390815 -163.06988850512997
    vertex -604.9706895282895 955.3414672390816 -163.06988850512997
  endloop
endfacet
facet normal 0.0 0.0 1.0
  outer loop
    vertex -604.9706895282895 961.1414672390815 -163.06988850512997
    vertex -586.8706895282895 955.3414672390816 -163.06988850512997
    vertex -586.8706895282895 961.1414672390815 -163.06988850512997
  endloop
endfacet
facet normal 0.0 1.0 0.0
  outer loop
    vertex -604.9706895282895 965.9365208812538 -156.26988850512996
    vertex -586.8706895282895 965.9365208812538 -159.66988850512996
    vertex -604.9706895282895 965.9365208812538 -159.66988850512996
  endloop
endfacet
facet normal 0.0 1.0 0.0
  outer loop
    vertex -586.8706895282895 965.9365208812538 -159.66988850512996
    vertex -604.9706895282895 965.9365208812538 -156.26988850512996
    vertex -586.8706895282895 965.9365208812538 -156.26988850512996
  endloop
endfacet
facet normal 0.0 0.0 -1.0
  outer loop
    vertex -586.8706895282895 971.0427925527513 -156.26988850512996
    vertex -604.9706895282895 965.9365208812538 -156.26988850512996
    vertex -604.9706895282895 971.0427925527513 -156.26988850512996
  endloop
endfacet
facet normal 0.0 0.0 -1.0
  outer loop
    vertex -604.9706895282895 965.9365208812538 -156.26988850512996
    vertex -586.8706895282895 971.0427925527513 -156.26988850512996
    vertex -586.8706895282895 965.9365208812538 -156.26988850512996
  endloop
endfacet
facet normal 0.0 1.0 0.0
  outer loop
    vertex -604.9706895282895 971.0427925527513 -152.86988850512998
    vertex -586.8706895282895 971.0427925527513 -156.26988850512996
    vertex -604.9706895282895 971.0427925527513 -156.26988850512996
  endloop
endfacet
facet normal 0.0 1.0 0.0
  outer loop
    vertex -586.8706895282895 971.0427925527513 -156.26988850512996
    vertex -604.9706895282895 971.0427925527513 -152.86988850512998
    vertex -586.8706895282895 971.0427925527513 -152.86988850512998
  endloop
endfacet
facet normal 0.0 1.0 0.0
  outer loop
    vertex -604.9706895282895 961.1414672390815 -159.66988850512996
    vertex -586.8706895282895 961.1414672390815 -163.06988850512997
    vertex -604.9706895282895 961.1414672390815 -163.06988850512997
  endloop
endfacet
facet normal 0.0 1.0 0.0
  outer loop
    vertex -586.8706895282895 961.1414672390815 -163.06988850512997
    vertex -604.9706895282895 961.1414672390815 -159.66988850512996
    vertex -586.8706895282895 961.1414672390815 -159.66988850512996
  endloop
endfacet
facet normal 0.0 0.0 -1.0
  outer loop
    vertex -586.8706895282895 965.9365208812538 -159.66988850512996
    vertex -604.9706895282895 961.1414672390815 -159.66988850512996
    vertex -604.9706895282895 965.9365208812538 -159.66988850512996
  endloop
endfacet
facet normal 0.0 0.0 -1.0
  outer loop
    vertex -604.9706895282895 961.1414672390815 -159.66988850512996
    vertex -586.8706895282895 965.9365208812538 -159.66988850512996
    vertex -586.8706895282895 961.1414672390815 -159.66988850512996
  endloop
endfacet
facet normal -7.597086295588904e-32 -5.559638182947942e-15 -1.0
  outer loop
    vertex -586.8706895282895 1005.8802109800287 -132.46988850513
    vertex -604.9706895282895 1000.8079987429138 -132.46988850512997
    vertex -604.9706895282895 1005.8802109800287 -132.46988850513
  endloop
endfacet
facet normal -7.597086295588904e-32 -5.559638182947942e-15 -1.0
  outer loop
    vertex -604.9706895282895 1000.8079987429138 -132.46988850512997
    vertex -586.8706895282895 1005.8802109800287 -132.46988850513
    vertex -586.8706895282895 1000.8079987429138 -132.46988850512997
  endloop
endfacet
facet normal 0.0 1.0 -4.447710546358334e-15
  outer loop
    vertex -604.9706895282895 1000.8079987429138 -132.46988850512997
    vertex -586.8706895282895 1000.8079987429138 -135.86988850512998
    vertex -604.9706895282895 1000.8079987429138 -135.86988850512998
  endloop
endfacet
facet normal 0.0 1.0 -4.447710546358334e-15
  outer loop
    vertex -586.8706895282895 1000.8079987429138 -135.86988850512998
    vertex -604.9706895282895 1000.8079987429138 -132.46988850512997
    vertex -586.8706895282895 1000.8079987429138 -132.46988850512997
  endloop
endfacet
facet normal 0.0 0.0 -1.0
  outer loop
    vertex -586.8706895282895 990.7483350426961 -142.66988850512996
    vertex -604.9706895282895 985.5221405393542 -142.66988850512996
    vertex -604.9706895282895 990.7483350426961 -142.66988850512996
  endloop
endfacet
facet normal 0.0 0.0 -1.0
  outer loop
    vertex -604.9706895282895 985.5221405393542 -142.66988850512996
    vertex -586.8706895282895 990.7483350426961 -142.66988850512996
    vertex -586.8706895282895 985.5221405393542 -142.66988850512996
  endloop
endfacet
facet normal 0.0 1.0 0.0
  outer loop
    vertex -604.9706895282895 980.7218690420551 -146.06988850512997
    vertex -586.8706895282895 980.7218690420551 -149.46988850512997
    vertex -604.9706895282895 980.7218690420551 -149.46988850512997
  endloop
endfacet
facet normal 0.0 1.0 0.0
  outer loop
    vertex -586.8706895282895 980.7218690420551 -149.46988850512997
    vertex -604.9706895282895 980.7218690420551 -146.06988850512997
    vertex -586.8706895282895 980.7218690420551 -146.06988850512997
  endloop
endfacet
facet normal -7.909450295990485e-33 -5.788229876663378e-16 -1.0
  outer loop
    vertex -586.8706895282895 980.7218690420551 -149.46988850512997
    vertex -604.9706895282895 975.8499711688949 -149.46988850512997
    vertex -604.9706895282895 980.7218690420551 -149.46988850512997
  endloop
endfacet
facet normal -7.909450295990485e-33 -5.788229876663378e-16 -1.0
  outer loop
    vertex -604.9706895282895 975.8499711688949 -149.46988850512997
    vertex -586.8706895282895 980.7218690420551 -149.46988850512997
    vertex -586.8706895282895 975.8499711688949 -149.46988850512997
  endloop
endfacet
facet normal 1.5579925317944195e-16 -4.056973332055084e-15 -1.0
  outer loop
    vertex -586.8706895282895 1010.7458494159205 -129.06988850513002
    vertex -604.9706895282895 1005.8802109800287 -129.06988850513002
    vertex -604.9706895282895 1010.7458494159205 -129.06988850513002
  endloop
endfacet
facet normal 1.5579925317944195e-16 -4.056973332055084e-15 -1.0
  outer loop
    vertex -604.9706895282895 1005.8802109800287 -129.06988850513002
    vertex -586.8706895282895 1010.7458494159205 -129.06988850513002
    vertex -586.8706895282895 1005.8802109800287 -129.06988850513002
  endloop
endfacet
facet normal 0.0 1.0 -2.8978380943250606e-15
  outer loop
    vertex -604.9706895282895 1005.8802109800287 -129.06988850513002
    vertex -586.8706895282895 1005.8802109800287 -132.46988850513
    vertex -604.9706895282895 1005.8802109800287 -132.46988850513
  endloop
endfacet
facet normal 0.0 1.0 -2.8978380943250606e-15
  outer loop
    vertex -586.8706895282895 1005.8802109800287 -132.46988850513
    vertex -604.9706895282895 1005.8802109800287 -129.06988850513002
    vertex -586.8706895282895 1005.8802109800287 -129.06988850513002
  endloop
endfacet
facet normal 0.0 0.0 -1.0
  outer loop
    vertex -586.8706895282895 985.5221405393542 -146.06988850512997
    vertex -604.9706895282895 980.7218690420551 -146.06988850512997
    vertex -604.9706895282895 985.5221405393542 -146.06988850512997
  endloop
endfacet
facet normal 0.0 0.0 -1.0
  outer loop
    vertex -604.9706895282895 980.7218690420551 -146.06988850512997
    vertex -586.8706895282895 985.5221405393542 -146.06988850512997
    vertex -586.8706895282895 980.7218690420551 -146.06988850512997
  endloop
endfacet
facet normal 0.0 1.0 0.0
  outer loop
    vertex -604.9706895282895 985.5221405393542 -142.66988850512996
    vertex -586.8706895282895 985.5221405393542 -146.06988850512997
    vertex -604.9706895282895 985.5221405393542 -146.06988850512997
  endloop
endfacet
facet normal 0.0 1.0 0.0
  outer loop
    vertex -586.8706895282895 985.5221405393542 -146.06988850512997
    vertex -604.9706895282895 985.5221405393542 -142.66988850512996
    vertex -586.8706895282895 985.5221405393542 -142.66988850512996
  endloop
endfacet
facet normal 1.0 0.0 0.0
  outer loop
    vertex -604.9706895282895 961.1414672390815 -166.46988850512997
    vertex -604.9706895282895 955.3414672390816 -163.06988850512997
    vertex -604.9706895282895 955.3414672390816 -166.46988850512997
  endloop
endfacet
facet normal 1.0 0.0 0.0
  outer loop
    vertex -604.9706895282895 955.3414672390816 -163.06988850512997
    vertex -604.9706895282895 961.1414672390815 -166.46988850512997
    vertex -604.9706895282895 961.1414672390815 -163.06988850512997
  endloop
endfacet
facet normal 1.0 0.0 0.0
  outer loop
    vertex -604.9706895282895 961.1414672390815 -163.06988850512997
    vertex -604.9706895282895 961.1414672390815 -166.46988850512997
    vertex -604.9706895282895 1010.7458494159205 -166.46988850512997
  endloop
endfacet
facet normal 1.0 0.0 0.0
  outer loop
    vertex -604.9706895282895 961.1414672390815 -163.06988850512997
    vertex -604.9706895282895 1010.7458494159205 -166.46988850512997
    vertex -604.9706895282895 961.1414672390815 -159.66988850512996
  endloop
endfacet
facet normal 1.0 0.0 0.0
  outer loop
    vertex -604.9706895282895 961.1414672390815 -159.66988850512996
    vertex -604.9706895282895 1010.7458494159205 -166.46988850512997
    vertex -604.9706895282895 965.9365208812538 -159.66988850512996
  endloop
endfacet
facet normal 1.0 0.0 0.0
  outer loop
    vertex -604.9706895282895 965.9365208812538 -159.66988850512996
    vertex -604.9706895282895 1010.7458494159205 -166.46988850512997
    vertex -604.9706895282895 965.9365208812538 -156.26988850512996
  endloop
endfacet
facet normal 1.0 0.0 0.0
  outer loop
    vertex -604.9706895282895 965.9365208812538 -156.26988850512996
    vertex -604.9706895282895 1010.7458494159205 -166.46988850512997
    vertex -604.9706895282895 971.0427925527513 -156.26988850512996
  endloop
endfacet
facet normal 1.0 0.0 0.0
  outer loop
    vertex -604.9706895282895 971.0427925527513 -156.26988850512996
    vertex -604.9706895282895 1010.7458494159205 -166.46988850512997
    vertex -604.9706895282895 971.0427925527513 -152.86988850512998
  endloop
endfacet
facet normal 1.0 0.0 0.0
  outer loop
    vertex -604.9706895282895 971.0427925527513 -152.86988850512998
    vertex -604.9706895282895 1010.7458494159205 -166.46988850512997
    vertex -604.9706895282895 975.8499711688949 -152.86988850512998
  endloop
endfacet
facet normal 1.0 0.0 0.0
  outer loop
    vertex -604.9706895282895 975.8499711688949 -152.86988850512998
    vertex -604.9706895282895 1010.7458494159205 -166.46988850512997
    vertex -604.9706895282895 975.8499711688949 -149.46988850512997
  endloop
endfacet
facet normal 1.0 0.0 0.0
  outer loop
    vertex -604.9706895282895 975.8499711688949 -149.46988850512997
    vertex -604.9706895282895 1010.7458494159205 -166.46988850512997
    vertex -604.9706895282895 980.7218690420551 -149.46988850512997
  endloop
endfacet
facet normal 1.0 0.0 0.0
  outer loop
    vertex -604.9706895282895 980.7218690420551 -149.46988850512997
    vertex -604.9706895282895 1010.7458494159205 -166.46988850512997
    vertex -604.9706895282895 980.7218690420551 -146.06988850512997
  endloop
endfacet
facet normal 1.0 0.0 0.0
  outer loop
    vertex -604.9706895282895 980.7218690420551 -146.06988850512997
    vertex -604.9706895282895 1010.7458494159205 -166.46988850512997
    vertex -604.9706895282895 985.5221405393542 -146.06988850512997
  endloop
endfacet
facet normal 1.0 0.0 0.0
  outer loop
    vertex -604.9706895282895 985.5221405393542 -146.06988850512997
    vertex -604.9706895282895 1010.7458494159205 -166.46988850512997
    vertex -604.9706895282895 985.5221405393542 -142.66988850512996
  endloop
endfacet
facet normal 1.0 0.0 0.0
  outer loop
    vertex -604.9706895282895 985.5221405393542 -142.66988850512996
    vertex -604.9706895282895 1010.7458494159205 -166.46988850512997
    vertex -604.9706895282895 990.7483350426961 -142.66988850512996
  endloop
endfacet
facet normal 1.0 0.0 0.0
  outer loop
    vertex -604.9706895282895 990.7483350426961 -142.66988850512996
    vertex -604.9706895282895 1010.7458494159205 -166.46988850512997
    vertex -604.9706895282895 990.7483350426961 -139.26988850512998
  endloop
endfacet
facet normal 1.0 0.0 0.0
  outer loop
    vertex -604.9706895282895 990.7483350426961 -139.26988850512998
    vertex -604.9706895282895 1010.7458494159205 -166.46988850512997
    vertex -604.9706895282895 995.8771737346053 -139.26988850512998
  endloop
endfacet
facet normal 1.0 0.0 0.0
  outer loop
    vertex -604.9706895282895 995.8771737346053 -139.26988850512998
    vertex -604.9706895282895 1010.7458494159205 -166.46988850512997
    vertex -604.9706895282895 995.8771737346053 -135.86988850512998
  endloop
endfacet
facet normal 1.0 0.0 0.0
  outer loop
    vertex -604.9706895282895 995.8771737346053 -135.86988850512998
    vertex -604.9706895282895 1010.7458494159205 -166.46988850512997
    vertex -604.9706895282895 1000.8079987429138 -135.86988850512998
  endloop
endfacet
facet normal 1.0 0.0 0.0
  outer loop
    vertex -604.9706895282895 1000.8079987429138 -135.86988850512998
    vertex -604.9706895282895 1010.7458494159205 -166.46988850512997
    vertex -604.9706895282895 1000.8079987429138 -132.46988850512997
  endloop
endfacet
facet normal 1.0 0.0 0.0
  outer loop
    vertex -604.9706895282895 1000.8079987429138 -132.46988850512997
    vertex -604.9706895282895 1010.7458494159205 -166.46988850512997
    vertex -604.9706895282895 1005.8802109800287 -132.46988850513
  endloop
endfacet
facet normal 1.0 0.0 0.0
  outer loop
    vertex -604.9706895282895 1005.8802109800287 -132.46988850513
    vertex -604.9706895282895 1010.7458494159205 -166.46988850512997
    vertex -604.9706895282895 1005.8802109800287 -129.06988850513002
  endloop
endfacet
facet normal 1.0 0.0 0.0
  outer loop
    vertex -604.9706895282895 1005.8802109800287 -129.06988850513002
    vertex -604.9706895282895 1010.7458494159205 -166.46988850512997
    vertex -604.9706895282895 1010.7458494159205 -129.06988850513002
  endloop
endfacet
facet normal 1.0 0.0 0.0
  outer loop
    vertex -604.9706895282895 1010.7458494159205 -129.06988850513002
    vertex -604.9706895282895 1010.7458494159205 -166.46988850512997
    vertex -604.9706895282895 1015.6114878518123 -166.46988850512997
  endloop
endfacet
facet normal 1.0 0.0 0.0
  outer loop
    vertex -604.9706895282895 1010.7458494159205 -129.06988850513002
    vertex -604.9706895282895 1015.6114878518123 -166.46988850512997
    vertex -604.9706895282895 1010.7458494159205 -125.66988850513005
  endloop
endfacet
facet normal 1.0 0.0 0.0
  outer loop
    vertex -604.9706895282895 1010.7458494159205 -125.66988850513005
    vertex -604.9706895282895 1015.6114878518123 -166.46988850512997
    vertex -604.9706895282895 1015.6114878518123 -125.66988850513005
  endloop
endfacet
facet normal 0.0 0.0 1.0
  outer loop
    vertex -586.8706895282895 955.3414672390816 -166.46988850512997
    vertex -604.9706895282895 961.1414672390815 -166.46988850512997
    vertex -604.9706895282895 955.3414672390816 -166.46988850512997
  endloop
endfacet
facet normal 0.0 0.0 1.0
  outer loop
    vertex -604.9706895282895 961.1414672390815 -166.46988850512997
    vertex -586.8706895282895 955.3414672390816 -166.46988850512997
    vertex -604.9706895282895 1010.7458494159205 -166.46988850512997
  endloop
endfacet
facet normal 0.0 0.0 1.0
  outer loop
    vertex -604.9706895282895 1010.7458494159205 -166.46988850512997
    vertex -586.8706895282895 955.3414672390816 -166.46988850512997
    vertex -604.9706895282895 1015.6114878518123 -166.46988850512997
  endloop
endfacet
facet normal 0.0 0.0 1.0
  outer loop
    vertex -604.9706895282895 1015.6114878518123 -166.46988850512997
    vertex -586.8706895282895 955.3414672390816 -166.46988850512997
    vertex -586.8706895282895 1015.6114878518123 -166.46988850512997
  endloop
endfacet
facet normal 1.0 0.0 0.0
  outer loop
    vertex -586.8706895282895 1015.6114878518123 -166.46988850512997
    vertex -586.8706895282895 955.3414672390816 -163.06988850512997
    vertex -586.8706895282895 955.3414672390816 -166.46988850512997
  endloop
endfacet
facet normal 1.0 0.0 0.0
  outer loop
    vertex -586.8706895282895 955.3414672390816 -163.06988850512997
    vertex -586.8706895282895 1015.6114878518123 -166.46988850512997
    vertex -586.8706895282895 961.1414672390815 -163.06988850512997
  endloop
endfacet
facet normal 1.0 0.0 0.0
  outer loop
    vertex -586.8706895282895 961.1414672390815 -163.06988850512997
    vertex -586.8706895282895 1015.6114878518123 -166.46988850512997
    vertex -586.8706895282895 961.1414672390815 -159.66988850512996
  endloop
endfacet
facet normal 1.0 0.0 0.0
  outer loop
    vertex -586.8706895282895 961.1414672390815 -159.66988850512996
    vertex -586.8706895282895 1015.6114878518123 -166.46988850512997
    vertex -586.8706895282895 965.9365208812538 -159.66988850512996
  endloop
endfacet
facet normal 1.0 0.0 0.0
  outer loop
    vertex -586.8706895282895 965.9365208812538 -159.66988850512996
    vertex -586.8706895282895 1015.6114878518123 -166.46988850512997
    vertex -586.8706895282895 965.9365208812538 -156.26988850512996
  endloop
endfacet
facet normal 1.0 0.0 0.0
  outer loop
    vertex -586.8706895282895 965.9365208812538 -156.26988850512996
    vertex -586.8706895282895 1015.6114878518123 -166.46988850512997
    vertex -586.8706895282895 971.0427925527513 -156.26988850512996
  endloop
endfacet
facet normal 1.0 0.0 0.0
  outer loop
    vertex -586.8706895282895 971.0427925527513 -156.26988850512996
    vertex -586.8706895282895 1015.6114878518123 -166.46988850512997
    vertex -586.8706895282895 971.0427925527513 -152.86988850512998
  endloop
endfacet
facet normal 1.0 0.0 0.0
  outer loop
    vertex -586.8706895282895 971.0427925527513 -152.86988850512998
    vertex -586.8706895282895 1015.6114878518123 -166.46988850512997
    vertex -586.8706895282895 975.8499711688949 -152.86988850512998
  endloop
endfacet
facet normal 1.0 0.0 0.0
  outer loop
    vertex -586.8706895282895 975.8499711688949 -152.86988850512998
    vertex -586.8706895282895 1015.6114878518123 -166.46988850512997
    vertex -586.8706895282895 975.8499711688949 -149.46988850512997
  endloop
endfacet
facet normal 1.0 0.0 0.0
  outer loop
    vertex -586.8706895282895 975.8499711688949 -149.46988850512997
    vertex -586.8706895282895 1015.6114878518123 -166.46988850512997
    vertex -586.8706895282895 980.7218690420551 -149.46988850512997
  endloop
endfacet
facet normal 1.0 0.0 0.0
  outer loop
    vertex -586.8706895282895 980.7218690420551 -149.46988850512997
    vertex -586.8706895282895 1015.6114878518123 -166.46988850512997
    vertex -586.8706895282895 980.7218690420551 -146.06988850512997
  endloop
endfacet
facet normal 1.0 0.0 0.0
  outer loop
    vertex -586.8706895282895 980.7218690420551 -146.06988850512997
    vertex -586.8706895282895 1015.6114878518123 -166.46988850512997
    vertex -586.8706895282895 985.5221405393542 -146.06988850512997
  endloop
endfacet
facet normal 1.0 0.0 0.0
  outer loop
    vertex -586.8706895282895 985.5221405393542 -146.06988850512997
    vertex -586.8706895282895 1015.6114878518123 -166.46988850512997
    vertex -586.8706895282895 985.5221405393542 -142.66988850512996
  endloop
endfacet
facet normal 1.0 0.0 0.0
  outer loop
    vertex -586.8706895282895 985.5221405393542 -142.66988850512996
    vertex -586.8706895282895 1015.6114878518123 -166.46988850512997
    vertex -586.8706895282895 990.7483350426961 -142.66988850512996
  endloop
endfacet
facet normal 1.0 0.0 0.0
  outer loop
    vertex -586.8706895282895 990.7483350426961 -142.66988850512996
    vertex -586.8706895282895 1015.6114878518123 -166.46988850512997
    vertex -586.8706895282895 990.7483350426961 -139.26988850512998
  endloop
endfacet
facet normal 1.0 0.0 0.0
  outer loop
    vertex -586.8706895282895 990.7483350426961 -139.26988850512998
    vertex -586.8706895282895 1015.6114878518123 -166.46988850512997
    vertex -586.8706895282895 995.8771737346053 -139.26988850512998
  endloop
endfacet
facet normal 1.0 0.0 0.0
  outer loop
    vertex -586.8706895282895 995.8771737346053 -139.26988850512998
    vertex -586.8706895282895 1015.6114878518123 -166.46988850512997
    vertex -586.8706895282895 995.8771737346053 -135.86988850512998
  endloop
endfacet
facet normal 1.0 0.0 0.0
  outer loop
    vertex -586.8706895282895 995.8771737346053 -135.86988850512998
    vertex -586.8706895282895 1015.6114878518123 -166.46988850512997
    vertex -586.8706895282895 1000.8079987429138 -135.86988850512998
  endloop
endfacet
facet normal 1.0 0.0 0.0
  outer loop
    vertex -586.8706895282895 1000.8079987429138 -135.86988850512998
    vertex -586.8706895282895 1015.6114878518123 -166.46988850512997
    vertex -586.8706895282895 1000.8079987429138 -132.46988850512997
  endloop
endfacet
facet normal 1.0 0.0 0.0
  outer loop
    vertex -586.8706895282895 1000.8079987429138 -132.46988850512997
    vertex -586.8706895282895 1015.6114878518123 -166.46988850512997
    vertex -586.8706895282895 1005.8802109800287 -132.46988850513
  endloop
endfacet
facet normal 1.0 0.0 0.0
  outer loop
    vertex -586.8706895282895 1005.8802109800287 -132.46988850513
    vertex -586.8706895282895 1015.6114878518123 -166.46988850512997
    vertex -586.8706895282895 1005.8802109800287 -129.06988850513002
  endloop
endfacet
facet normal 1.0 0.0 0.0
  outer loop
    vertex -586.8706895282895 1005.8802109800287 -129.06988850513002
    vertex -586.8706895282895 1015.6114878518123 -166.46988850512997
    vertex -586.8706895282895 1010.7458494159205 -129.06988850513002
  endloop
endfacet
facet normal 1.0 0.0 0.0
  outer loop
    vertex -586.8706895282895 1010.7458494159205 -129.06988850513002
    vertex -586.8706895282895 1015.6114878518123 -166.46988850512997
    vertex -586.8706895282895 1010.7458494159205 -125.66988850513002
  endloop
endfacet
facet normal 1.0 0.0 0.0
  outer loop
    vertex -586.8706895282895 1010.7458494159205 -125.66988850513002
    vertex -586.8706895282895 1015.6114878518123 -166.46988850512997
    vertex -586.8706895282895 1015.6114878518123 -125.66988850513005
  endloop
endfacet
facet normal 0.0 1.0 0.0
  outer loop
    vertex -604.9706895282895 1015.6114878518123 -125.66988850513005
    vertex -586.8706895282895 1015.6114878518123 -166.46988850512997
    vertex -604.9706895282895 1015.6114878518123 -166.46988850512997
  endloop
endfacet
facet normal 0.0 1.0 0.0
  outer loop
    vertex -586.8706895282895 1015.6114878518123 -166.46988850512997
    vertex -604.9706895282895 1015.6114878518123 -125.66988850513005
    vertex -586.8706895282895 1015.6114878518123 -125.66988850513005
  endloop
endfacet
endsolid GroundFloorMainV8
