solid GroundFloorMainV8
facet normal 0.0 1.0 0.0
  outer loop
    vertex -462.91400449768923 319.68267222716935 183.20299466477778
    vertex -403.84734827596066 319.68267222716935 184.0029946647778
    vertex -403.84734827596066 319.68267222716935 183.20299466477778
  endloop
endfacet
facet normal 0.0 1.0 0.0
  outer loop
    vertex -403.84734827596066 319.68267222716935 184.0029946647778
    vertex -462.91400449768923 319.68267222716935 183.20299466477778
    vertex -462.91400449768923 319.68267222716935 184.0029946647778
  endloop
endfacet
facet normal 0.0 1.0 0.0
  outer loop
    vertex -463.5899450622972 314.2826722271693 165.8029946647778
    vertex -403.84734827596066 314.2826722271693 183.20299466477778
    vertex -403.84734827596066 314.2826722271693 165.8029946647778
  endloop
endfacet
facet normal 0.0 1.0 0.0
  outer loop
    vertex -403.84734827596066 314.2826722271693 183.20299466477778
    vertex -463.5899450622972 314.2826722271693 165.8029946647778
    vertex -463.5899450622972 314.2826722271693 183.20299466477778
  endloop
endfacet
facet normal 1.0 0.0 0.0
  outer loop
    vertex -403.84734827596066 319.68267222716935 184.0029946647778
    vertex -403.84734827596066 314.2826722271693 183.20299466477778
    vertex -403.84734827596066 319.68267222716935 183.20299466477778
  endloop
endfacet
facet normal 1.0 0.0 0.0
  outer loop
    vertex -403.84734827596066 314.2826722271693 183.20299466477778
    vertex -403.84734827596066 302.18267222716935 165.8029946647778
    vertex -403.84734827596066 314.2826722271693 165.8029946647778
  endloop
endfacet
facet normal 1.0 0.0 0.0
  outer loop
    vertex -403.84734827596066 302.18267222716935 165.8029946647778
    vertex -403.84734827596066 314.2826722271693 183.20299466477778
    vertex -403.84734827596066 302.18267222716935 184.0029946647778
  endloop
endfacet
facet normal 1.0 0.0 0.0
  outer loop
    vertex -403.84734827596066 302.18267222716935 184.0029946647778
    vertex -403.84734827596066 314.2826722271693 183.20299466477778
    vertex -403.84734827596066 319.68267222716935 184.0029946647778
  endloop
endfacet
facet normal 0.0 -1.0 0.0
  outer loop
    vertex -465.10455262373364 302.18267222716935 184.0029946647778
    vertex -403.84734827596066 302.18267222716935 165.8029946647778
    vertex -403.84734827596066 302.18267222716935 184.0029946647778
  endloop
endfacet
facet normal 0.0 -1.0 0.0
  outer loop
    vertex -403.84734827596066 302.18267222716935 165.8029946647778
    vertex -465.10455262373364 302.18267222716935 184.0029946647778
    vertex -465.10455262373364 302.18267222716935 165.8029946647778
  endloop
endfacet
facet normal 0.0 0.0 -1.0
  outer loop
    vertex -462.91400449768923 319.68267222716935 183.20299466477778
    vertex -403.84734827596066 314.2826722271693 183.20299466477778
    vertex -463.5899450622972 314.2826722271693 183.20299466477778
  endloop
endfacet
facet normal 0.0 0.0 -1.0
  outer loop
    vertex -403.84734827596066 314.2826722271693 183.20299466477778
    vertex -462.91400449768923 319.68267222716935 183.20299466477778
    vertex -403.84734827596066 319.68267222716935 183.20299466477778
  endloop
endfacet
facet normal 6.094530033706262e-33 3.464821214703324e-16 1.0
  outer loop
    vertex -403.84734827596066 319.68267222716935 184.0029946647778
    vertex -465.10455262373364 302.18267222716935 184.0029946647778
    vertex -403.84734827596066 302.18267222716935 184.0029946647778
  endloop
endfacet
facet normal 6.094530033706262e-33 3.464821214703324e-16 1.0
  outer loop
    vertex -465.10455262373364 302.18267222716935 184.0029946647778
    vertex -403.84734827596066 319.68267222716935 184.0029946647778
    vertex -463.5899450622972 314.2826722271693 184.0029946647778
  endloop
endfacet
facet normal 6.094530033706262e-33 3.464821214703324e-16 1.0
  outer loop
    vertex -463.5899450622972 314.2826722271693 184.0029946647778
    vertex -403.84734827596066 319.68267222716935 184.0029946647778
    vertex -462.91400449768923 319.68267222716935 184.0029946647778
  endloop
endfacet
facet normal -0.9922565907502546 0.12420490373846772 -3.1245159491002034e-16
  outer loop
    vertex -465.10455262373364 302.18267222716935 184.0029946647778
    vertex -463.5899450622972 314.2826722271693 165.8029946647778
    vertex -465.10455262373364 302.18267222716935 165.8029946647778
  endloop
endfacet
facet normal -0.9922565907502546 0.12420490373846772 -3.1245159491002034e-16
  outer loop
    vertex -463.5899450622972 314.2826722271693 165.8029946647778
    vertex -465.10455262373364 302.18267222716935 184.0029946647778
    vertex -463.5899450622972 314.2826722271693 183.20299466477778
  endloop
endfacet
facet normal -0.9922565907502546 0.12420490373846772 -3.1245159491002034e-16
  outer loop
    vertex -463.5899450622972 314.2826722271693 183.20299466477778
    vertex -465.10455262373364 302.18267222716935 184.0029946647778
    vertex -462.91400449768923 319.68267222716935 183.20299466477778
  endloop
endfacet
facet normal -0.9922565907502546 0.12420490373846772 -3.1245159491002034e-16
  outer loop
    vertex -462.91400449768923 319.68267222716935 183.20299466477778
    vertex -465.10455262373364 302.18267222716935 184.0029946647778
    vertex -462.91400449768923 319.68267222716935 184.0029946647778
  endloop
endfacet
facet normal -0.9922565907502546 0.12420490373846772 -3.1245159491002034e-16
  outer loop
    vertex -462.91400449768923 319.68267222716935 184.0029946647778
    vertex -465.10455262373364 302.18267222716935 184.0029946647778
    vertex -463.5899450622972 314.2826722271693 184.0029946647778
  endloop
endfacet
facet normal 0.0 0.0 -1.0
  outer loop
    vertex -463.5899450622972 314.2826722271693 165.8029946647778
    vertex -403.84734827596066 302.18267222716935 165.8029946647778
    vertex -465.10455262373364 302.18267222716935 165.8029946647778
  endloop
endfacet
facet normal 0.0 0.0 -1.0
  outer loop
    vertex -403.84734827596066 302.18267222716935 165.8029946647778
    vertex -463.5899450622972 314.2826722271693 165.8029946647778
    vertex -403.84734827596066 314.2826722271693 165.8029946647778
  endloop
endfacet
endsolid GroundFloorMainV8
