solid GroundFloorMainV8
facet normal 0.0 1.0 0.0
  outer loop
    vertex -656.5238429543826 338.6826722271694 -206.31123643414455
    vertex -610.5238429543826 338.6826722271694 -218.7112364341446
    vertex -656.5238429543826 338.6826722271694 -218.7112364341446
  endloop
endfacet
facet normal 0.0 1.0 0.0
  outer loop
    vertex -610.5238429543826 338.6826722271694 -218.7112364341446
    vertex -656.5238429543826 338.6826722271694 -206.31123643414455
    vertex -610.5238429543826 338.6826722271694 -206.31123643414455
  endloop
endfacet
facet normal 3.3306690738754696e-16 0.0 1.0
  outer loop
    vertex -610.5238429543826 302.1826722271694 -206.31123643414455
    vertex -656.5238429543826 338.6826722271694 -206.31123643414455
    vertex -656.5238429543826 302.1826722271694 -206.31123643414455
  endloop
endfacet
facet normal 3.3306690738754696e-16 0.0 1.0
  outer loop
    vertex -656.5238429543826 338.6826722271694 -206.31123643414455
    vertex -610.5238429543826 302.1826722271694 -206.31123643414455
    vertex -610.5238429543826 338.6826722271694 -206.31123643414455
  endloop
endfacet
facet normal 0.0 -1.0 0.0
  outer loop
    vertex -610.5238429543826 302.1826722271694 -206.31123643414455
    vertex -656.5238429543826 302.1826722271694 -218.7112364341446
    vertex -610.5238429543826 302.1826722271694 -218.7112364341446
  endloop
endfacet
facet normal 0.0 -1.0 0.0
  outer loop
    vertex -656.5238429543826 302.1826722271694 -218.7112364341446
    vertex -610.5238429543826 302.1826722271694 -206.31123643414455
    vertex -656.5238429543826 302.1826722271694 -206.31123643414455
  endloop
endfacet
facet normal 1.0 0.0 -3.3306690738754696e-16
  outer loop
    vertex -610.5238429543826 338.6826722271694 -218.7112364341446
    vertex -610.5238429543826 302.1826722271694 -206.31123643414455
    vertex -610.5238429543826 302.1826722271694 -218.7112364341446
  endloop
endfacet
facet normal 1.0 0.0 -3.3306690738754696e-16
  outer loop
    vertex -610.5238429543826 302.1826722271694 -206.31123643414455
    vertex -610.5238429543826 338.6826722271694 -218.7112364341446
    vertex -610.5238429543826 338.6826722271694 -206.31123643414455
  endloop
endfacet
facet normal -1.0 0.0 0.0
  outer loop
    vertex -656.5238429543826 338.6826722271694 -206.31123643414455
    vertex -656.5238429543826 302.1826722271694 -218.7112364341446
    vertex -656.5238429543826 302.1826722271694 -206.31123643414455
  endloop
endfacet
facet normal -1.0 0.0 0.0
  outer loop
    vertex -656.5238429543826 302.1826722271694 -218.7112364341446
    vertex -656.5238429543826 338.6826722271694 -206.31123643414455
    vertex -656.5238429543826 338.6826722271694 -218.7112364341446
  endloop
endfacet
facet normal 0.0 0.0 -1.0
  outer loop
    vertex -610.5238429543826 338.6826722271694 -218.7112364341446
    vertex -656.5238429543826 302.1826722271694 -218.7112364341446
    vertex -656.5238429543826 338.6826722271694 -218.7112364341446
  endloop
endfacet
facet normal 0.0 0.0 -1.0
  outer loop
    vertex -656.5238429543826 302.1826722271694 -218.7112364341446
    vertex -610.5238429543826 338.6826722271694 -218.7112364341446
    vertex -610.5238429543826 302.1826722271694 -218.7112364341446
  endloop
endfacet
endsolid GroundFloorMainV8
