solid GroundFloorMainV8
facet normal -1.0 0.0 0.0
  outer loop
    vertex -1321.5761357478166 644.0362722891597 76.34190100641572
    vertex -1321.5761357478166 632.0362722891597 66.34190100641572
    vertex -1321.5761357478166 632.0362722891597 76.34190100641572
  endloop
endfacet
facet normal -1.0 0.0 0.0
  outer loop
    vertex -1321.5761357478166 632.0362722891597 66.34190100641572
    vertex -1321.5761357478166 644.0362722891597 76.34190100641572
    vertex -1321.5761357478166 632.0362722891597 30.341901006415696
  endloop
endfacet
facet normal -1.0 0.0 0.0
  outer loop
    vertex -1321.5761357478166 632.0362722891597 30.341901006415696
    vertex -1321.5761357478166 644.0362722891597 76.34190100641572
    vertex -1321.5761357478166 644.0362722891597 30.341901006415704
  endloop
endfacet
facet normal 0.0 4.440892098500626e-16 -1.0
  outer loop
    vertex -1297.5761357478166 632.0362722891597 30.341901006415696
    vertex -1285.5761357478166 644.0362722891597 30.341901006415704
    vertex -1285.5761357478166 632.0362722891597 30.341901006415696
  endloop
endfacet
facet normal 0.0 4.440892098500626e-16 -1.0
  outer loop
    vertex -1285.5761357478166 644.0362722891597 30.341901006415704
    vertex -1297.5761357478166 632.0362722891597 30.341901006415696
    vertex -1297.5761357478166 644.0362722891597 30.341901006415704
  endloop
endfacet
facet normal 0.0 1.0 0.0
  outer loop
    vertex -1309.5761357478166 644.0362722891597 30.341901006415704
    vertex -1321.5761357478166 644.0362722891597 76.34190100641572
    vertex -1309.5761357478166 644.0362722891597 76.34190100641572
  endloop
endfacet
facet normal 0.0 1.0 0.0
  outer loop
    vertex -1321.5761357478166 644.0362722891597 76.34190100641572
    vertex -1309.5761357478166 644.0362722891597 30.341901006415704
    vertex -1321.5761357478166 644.0362722891597 30.341901006415704
  endloop
endfacet
facet normal 0.0 4.440892098500626e-16 -1.0
  outer loop
    vertex -1273.5761357478166 632.0362722891597 30.341901006415696
    vertex -1261.5761357478168 644.0362722891597 30.341901006415704
    vertex -1261.5761357478168 632.0362722891597 30.341901006415696
  endloop
endfacet
facet normal 0.0 4.440892098500626e-16 -1.0
  outer loop
    vertex -1261.5761357478168 644.0362722891597 30.341901006415704
    vertex -1273.5761357478166 632.0362722891597 30.341901006415696
    vertex -1273.5761357478166 644.0362722891597 30.341901006415704
  endloop
endfacet
facet normal 0.0 4.440892098500626e-16 -1.0
  outer loop
    vertex -1261.5761357478168 632.0362722891597 30.341901006415696
    vertex -1249.5761357478166 644.0362722891597 30.341901006415704
    vertex -1249.5761357478166 632.0362722891597 30.341901006415696
  endloop
endfacet
facet normal 0.0 4.440892098500626e-16 -1.0
  outer loop
    vertex -1249.5761357478166 644.0362722891597 30.341901006415704
    vertex -1261.5761357478168 632.0362722891597 30.341901006415696
    vertex -1261.5761357478168 644.0362722891597 30.341901006415704
  endloop
endfacet
facet normal 1.0 0.0 0.0
  outer loop
    vertex -1249.5761357478166 644.0362722891597 30.341901006415704
    vertex -1249.5761357478166 632.0362722891597 44.34190100641567
    vertex -1249.5761357478166 632.0362722891597 30.341901006415696
  endloop
endfacet
facet normal 1.0 0.0 0.0
  outer loop
    vertex -1249.5761357478166 632.0362722891597 44.34190100641567
    vertex -1249.5761357478166 644.0362722891597 30.341901006415704
    vertex -1249.5761357478166 632.0362722891597 48.541901006415664
  endloop
endfacet
facet normal 1.0 0.0 0.0
  outer loop
    vertex -1249.5761357478166 632.0362722891597 48.541901006415664
    vertex -1249.5761357478166 644.0362722891597 30.341901006415704
    vertex -1249.5761357478166 644.0362722891597 48.54190100641567
  endloop
endfacet
facet normal 0.0 4.440892098500626e-16 -1.0
  outer loop
    vertex -1285.5761357478166 632.0362722891597 30.341901006415696
    vertex -1273.5761357478166 644.0362722891597 30.341901006415704
    vertex -1273.5761357478166 632.0362722891597 30.341901006415696
  endloop
endfacet
facet normal 0.0 4.440892098500626e-16 -1.0
  outer loop
    vertex -1273.5761357478166 644.0362722891597 30.341901006415704
    vertex -1285.5761357478166 632.0362722891597 30.341901006415696
    vertex -1285.5761357478166 644.0362722891597 30.341901006415704
  endloop
endfacet
facet normal 0.0 4.440892098500626e-16 -1.0
  outer loop
    vertex -1309.5761357478166 632.0362722891597 30.341901006415696
    vertex -1297.5761357478166 644.0362722891597 30.341901006415704
    vertex -1297.5761357478166 632.0362722891597 30.341901006415696
  endloop
endfacet
facet normal 0.0 4.440892098500626e-16 -1.0
  outer loop
    vertex -1297.5761357478166 644.0362722891597 30.341901006415704
    vertex -1309.5761357478166 632.0362722891597 30.341901006415696
    vertex -1309.5761357478166 644.0362722891597 30.341901006415704
  endloop
endfacet
facet normal 0.0 1.0 0.0
  outer loop
    vertex -1285.5761357478166 644.0362722891597 30.341901006415704
    vertex -1297.5761357478166 644.0362722891597 48.54190100641567
    vertex -1285.5761357478166 644.0362722891597 48.54190100641567
  endloop
endfacet
facet normal 0.0 1.0 0.0
  outer loop
    vertex -1297.5761357478166 644.0362722891597 48.54190100641567
    vertex -1285.5761357478166 644.0362722891597 30.341901006415704
    vertex -1297.5761357478166 644.0362722891597 30.341901006415704
  endloop
endfacet
facet normal 0.0 1.0 0.0
  outer loop
    vertex -1261.5761357478168 644.0362722891597 30.341901006415704
    vertex -1273.5761357478166 644.0362722891597 48.54190100641567
    vertex -1261.5761357478168 644.0362722891597 48.54190100641567
  endloop
endfacet
facet normal 0.0 1.0 0.0
  outer loop
    vertex -1273.5761357478166 644.0362722891597 48.54190100641567
    vertex -1261.5761357478168 644.0362722891597 30.341901006415704
    vertex -1273.5761357478166 644.0362722891597 30.341901006415704
  endloop
endfacet
facet normal 0.0 1.0 0.0
  outer loop
    vertex -1297.5761357478166 644.0362722891597 48.54190100641567
    vertex -1309.5761357478166 644.0362722891597 76.34190100641572
    vertex -1297.5761357478166 644.0362722891597 76.34190100641572
  endloop
endfacet
facet normal 0.0 1.0 0.0
  outer loop
    vertex -1309.5761357478166 644.0362722891597 76.34190100641572
    vertex -1297.5761357478166 644.0362722891597 48.54190100641567
    vertex -1309.5761357478166 644.0362722891597 30.341901006415704
  endloop
endfacet
facet normal 0.0 1.0 0.0
  outer loop
    vertex -1309.5761357478166 644.0362722891597 30.341901006415704
    vertex -1297.5761357478166 644.0362722891597 48.54190100641567
    vertex -1297.5761357478166 644.0362722891597 30.341901006415704
  endloop
endfacet
facet normal 0.0 4.440892098500626e-16 -1.0
  outer loop
    vertex -1321.5761357478166 632.0362722891597 30.341901006415696
    vertex -1309.5761357478166 644.0362722891597 30.341901006415704
    vertex -1309.5761357478166 632.0362722891597 30.341901006415696
  endloop
endfacet
facet normal 0.0 4.440892098500626e-16 -1.0
  outer loop
    vertex -1309.5761357478166 644.0362722891597 30.341901006415704
    vertex -1321.5761357478166 632.0362722891597 30.341901006415696
    vertex -1321.5761357478166 644.0362722891597 30.341901006415704
  endloop
endfacet
facet normal 0.0 1.0 0.0
  outer loop
    vertex -1273.5761357478166 644.0362722891597 48.54190100641567
    vertex -1285.5761357478166 644.0362722891597 30.341901006415704
    vertex -1285.5761357478166 644.0362722891597 48.54190100641567
  endloop
endfacet
facet normal 0.0 1.0 0.0
  outer loop
    vertex -1285.5761357478166 644.0362722891597 30.341901006415704
    vertex -1273.5761357478166 644.0362722891597 48.54190100641567
    vertex -1273.5761357478166 644.0362722891597 30.341901006415704
  endloop
endfacet
facet normal 0.0 1.0 0.0
  outer loop
    vertex -1249.5761357478166 644.0362722891597 30.341901006415704
    vertex -1261.5761357478168 644.0362722891597 48.54190100641567
    vertex -1249.5761357478166 644.0362722891597 48.54190100641567
  endloop
endfacet
facet normal 0.0 1.0 0.0
  outer loop
    vertex -1261.5761357478168 644.0362722891597 48.54190100641567
    vertex -1249.5761357478166 644.0362722891597 30.341901006415704
    vertex -1261.5761357478168 644.0362722891597 30.341901006415704
  endloop
endfacet
facet normal 0.0 0.0 1.0
  outer loop
    vertex -1321.5761357478166 644.0362722891597 76.34190100641572
    vertex -1309.5761357478166 632.0362722891597 76.34190100641572
    vertex -1309.5761357478166 644.0362722891597 76.34190100641572
  endloop
endfacet
facet normal 0.0 0.0 1.0
  outer loop
    vertex -1309.5761357478166 632.0362722891597 76.34190100641572
    vertex -1321.5761357478166 644.0362722891597 76.34190100641572
    vertex -1321.5761357478166 632.0362722891597 76.34190100641572
  endloop
endfacet
facet normal -0.0 -1.0 0.0
  outer loop
    vertex -1321.5761357478166 632.0362722891597 66.34190100641572
    vertex -1309.5761357478166 632.0362722891597 76.34190100641572
    vertex -1321.5761357478166 632.0362722891597 76.34190100641572
  endloop
endfacet
facet normal -0.0 -1.0 0.0
  outer loop
    vertex -1309.5761357478166 632.0362722891597 76.34190100641572
    vertex -1321.5761357478166 632.0362722891597 66.34190100641572
    vertex -1309.5761357478166 632.0362722891597 66.34190100641572
  endloop
endfacet
facet normal 0.0 0.0 1.0
  outer loop
    vertex -1309.5761357478166 644.0362722891597 76.34190100641572
    vertex -1297.5761357478166 638.0362722891597 76.34190100641572
    vertex -1297.5761357478166 644.0362722891597 76.34190100641572
  endloop
endfacet
facet normal 0.0 0.0 1.0
  outer loop
    vertex -1297.5761357478166 638.0362722891597 76.34190100641572
    vertex -1309.5761357478166 644.0362722891597 76.34190100641572
    vertex -1297.5761357478166 632.0362722891597 76.34190100641572
  endloop
endfacet
facet normal 0.0 0.0 1.0
  outer loop
    vertex -1297.5761357478166 632.0362722891597 76.34190100641572
    vertex -1309.5761357478166 644.0362722891597 76.34190100641572
    vertex -1309.5761357478166 632.0362722891597 76.34190100641572
  endloop
endfacet
facet normal -0.0 -1.0 0.0
  outer loop
    vertex -1309.5761357478166 632.0362722891597 66.34190100641572
    vertex -1297.5761357478166 632.0362722891597 76.34190100641572
    vertex -1309.5761357478166 632.0362722891597 76.34190100641572
  endloop
endfacet
facet normal -0.0 -1.0 0.0
  outer loop
    vertex -1297.5761357478166 632.0362722891597 76.34190100641572
    vertex -1309.5761357478166 632.0362722891597 66.34190100641572
    vertex -1297.5761357478166 632.0362722891597 76.1868068734853
  endloop
endfacet
facet normal 1.0 0.0 0.0
  outer loop
    vertex -1297.5761357478166 644.0362722891597 48.54190100641567
    vertex -1297.5761357478166 632.0362722891597 64.94190100641572
    vertex -1297.5761357478166 632.0362722891597 48.54190100641567
  endloop
endfacet
facet normal 1.0 0.0 0.0
  outer loop
    vertex -1297.5761357478166 632.0362722891597 64.94190100641572
    vertex -1297.5761357478166 644.0362722891597 48.54190100641567
    vertex -1297.5761357478166 638.0362722891597 64.94190100641572
  endloop
endfacet
facet normal 1.0 0.0 0.0
  outer loop
    vertex -1297.5761357478166 638.0362722891597 64.94190100641572
    vertex -1297.5761357478166 644.0362722891597 48.54190100641567
    vertex -1297.5761357478166 638.0362722891597 66.18680687348532
  endloop
endfacet
facet normal 1.0 0.0 0.0
  outer loop
    vertex -1297.5761357478166 638.0362722891597 66.18680687348532
    vertex -1297.5761357478166 644.0362722891597 48.54190100641567
    vertex -1297.5761357478166 638.0362722891597 76.1868068734853
  endloop
endfacet
facet normal 1.0 0.0 0.0
  outer loop
    vertex -1297.5761357478166 638.0362722891597 76.1868068734853
    vertex -1297.5761357478166 644.0362722891597 48.54190100641567
    vertex -1297.5761357478166 638.0362722891597 76.34190100641572
  endloop
endfacet
facet normal 1.0 0.0 0.0
  outer loop
    vertex -1297.5761357478166 638.0362722891597 76.34190100641572
    vertex -1297.5761357478166 644.0362722891597 48.54190100641567
    vertex -1297.5761357478166 644.0362722891597 76.34190100641572
  endloop
endfacet
facet normal 1.0 0.0 0.0
  outer loop
    vertex -1297.5761357478166 638.0362722891597 76.1868068734853
    vertex -1297.5761357478166 632.0362722891597 76.34190100641572
    vertex -1297.5761357478166 632.0362722891597 76.1868068734853
  endloop
endfacet
facet normal 1.0 0.0 0.0
  outer loop
    vertex -1297.5761357478166 632.0362722891597 76.34190100641572
    vertex -1297.5761357478166 638.0362722891597 76.1868068734853
    vertex -1297.5761357478166 638.0362722891597 76.34190100641572
  endloop
endfacet
facet normal 1.0631096119441026e-43 -4.699944137579837e-16 1.0
  outer loop
    vertex -1297.5761357478166 644.0362722891597 48.54190100641567
    vertex -1285.5761357478166 632.0362722891597 48.54190100641567
    vertex -1285.5761357478166 644.0362722891597 48.54190100641567
  endloop
endfacet
facet normal 1.0631096119441026e-43 -4.699944137579837e-16 1.0
  outer loop
    vertex -1285.5761357478166 632.0362722891597 48.54190100641567
    vertex -1297.5761357478166 644.0362722891597 48.54190100641567
    vertex -1297.5761357478166 632.0362722891597 48.54190100641567
  endloop
endfacet
facet normal -0.0 -1.0 0.0
  outer loop
    vertex -1297.5761357478166 632.0362722891597 44.34190100641567
    vertex -1285.5761357478166 632.0362722891597 48.54190100641567
    vertex -1297.5761357478166 632.0362722891597 48.54190100641567
  endloop
endfacet
facet normal -0.0 -1.0 0.0
  outer loop
    vertex -1285.5761357478166 632.0362722891597 48.54190100641567
    vertex -1297.5761357478166 632.0362722891597 44.34190100641567
    vertex -1285.5761357478166 632.0362722891597 44.34190100641567
  endloop
endfacet
facet normal 4.699944137579837e-16 -4.699944137579837e-16 1.0
  outer loop
    vertex -1285.5761357478166 644.0362722891597 48.54190100641567
    vertex -1273.5761357478166 632.0362722891597 48.541901006415664
    vertex -1273.5761357478166 644.0362722891597 48.54190100641567
  endloop
endfacet
facet normal 4.699944137579837e-16 -4.699944137579837e-16 1.0
  outer loop
    vertex -1273.5761357478166 632.0362722891597 48.541901006415664
    vertex -1285.5761357478166 644.0362722891597 48.54190100641567
    vertex -1285.5761357478166 632.0362722891597 48.54190100641567
  endloop
endfacet
facet normal -0.0 -1.0 0.0
  outer loop
    vertex -1285.5761357478166 632.0362722891597 44.34190100641567
    vertex -1273.5761357478166 632.0362722891597 48.541901006415664
    vertex -1285.5761357478166 632.0362722891597 48.54190100641567
  endloop
endfacet
facet normal -0.0 -1.0 0.0
  outer loop
    vertex -1273.5761357478166 632.0362722891597 48.541901006415664
    vertex -1285.5761357478166 632.0362722891597 44.34190100641567
    vertex -1273.5761357478166 632.0362722891597 44.34190100641567
  endloop
endfacet
facet normal 1.0631096119441026e-43 -4.699944137579837e-16 1.0
  outer loop
    vertex -1273.5761357478166 644.0362722891597 48.54190100641567
    vertex -1261.5761357478168 632.0362722891597 48.541901006415664
    vertex -1261.5761357478168 644.0362722891597 48.54190100641567
  endloop
endfacet
facet normal 1.0631096119441026e-43 -4.699944137579837e-16 1.0
  outer loop
    vertex -1261.5761357478168 632.0362722891597 48.541901006415664
    vertex -1273.5761357478166 644.0362722891597 48.54190100641567
    vertex -1273.5761357478166 632.0362722891597 48.541901006415664
  endloop
endfacet
facet normal -0.0 -1.0 0.0
  outer loop
    vertex -1273.5761357478166 632.0362722891597 44.34190100641567
    vertex -1261.5761357478168 632.0362722891597 48.541901006415664
    vertex -1273.5761357478166 632.0362722891597 48.541901006415664
  endloop
endfacet
facet normal -0.0 -1.0 0.0
  outer loop
    vertex -1261.5761357478168 632.0362722891597 48.541901006415664
    vertex -1273.5761357478166 632.0362722891597 44.34190100641567
    vertex -1261.5761357478168 632.0362722891597 44.34190100641567
  endloop
endfacet
facet normal -0.0 -4.699944137579838e-16 1.0
  outer loop
    vertex -1261.5761357478168 644.0362722891597 48.54190100641567
    vertex -1249.5761357478166 632.0362722891597 48.541901006415664
    vertex -1249.5761357478166 644.0362722891597 48.54190100641567
  endloop
endfacet
facet normal -0.0 -4.699944137579838e-16 1.0
  outer loop
    vertex -1249.5761357478166 632.0362722891597 48.541901006415664
    vertex -1261.5761357478168 644.0362722891597 48.54190100641567
    vertex -1261.5761357478168 632.0362722891597 48.541901006415664
  endloop
endfacet
facet normal -0.0 -1.0 0.0
  outer loop
    vertex -1261.5761357478168 632.0362722891597 44.34190100641567
    vertex -1249.5761357478166 632.0362722891597 48.541901006415664
    vertex -1261.5761357478168 632.0362722891597 48.541901006415664
  endloop
endfacet
facet normal -0.0 -1.0 0.0
  outer loop
    vertex -1249.5761357478166 632.0362722891597 48.541901006415664
    vertex -1261.5761357478168 632.0362722891597 44.34190100641567
    vertex -1249.5761357478166 632.0362722891597 44.34190100641567
  endloop
endfacet
facet normal 1.0 0.0 0.0
  outer loop
    vertex -1297.5761357478166 638.0362722891597 66.18680687348532
    vertex -1297.5761357478166 632.0362722891597 76.1868068734853
    vertex -1297.5761357478166 632.0362722891597 66.18680687348532
  endloop
endfacet
facet normal 1.0 0.0 0.0
  outer loop
    vertex -1297.5761357478166 632.0362722891597 76.1868068734853
    vertex -1297.5761357478166 638.0362722891597 66.18680687348532
    vertex -1297.5761357478166 638.0362722891597 76.1868068734853
  endloop
endfacet
facet normal 4.648228313269838e-31 -1.0 1.7749370367472766e-30
  outer loop
    vertex -1321.5761357478166 632.0362722891597 30.341901006415696
    vertex -1309.5761357478166 632.0362722891597 66.34190100641572
    vertex -1321.5761357478166 632.0362722891597 66.34190100641572
  endloop
endfacet
facet normal 4.648228313269838e-31 -1.0 1.7749370367472766e-30
  outer loop
    vertex -1309.5761357478166 632.0362722891597 66.34190100641572
    vertex -1321.5761357478166 632.0362722891597 30.341901006415696
    vertex -1297.5761357478166 632.0362722891597 66.18680687348532
  endloop
endfacet
facet normal 4.648228313269838e-31 -1.0 1.7749370367472766e-30
  outer loop
    vertex -1297.5761357478166 632.0362722891597 66.18680687348532
    vertex -1321.5761357478166 632.0362722891597 30.341901006415696
    vertex -1297.5761357478166 632.0362722891597 64.94190100641572
  endloop
endfacet
facet normal 4.648228313269838e-31 -1.0 1.7749370367472766e-30
  outer loop
    vertex -1297.5761357478166 632.0362722891597 64.94190100641572
    vertex -1321.5761357478166 632.0362722891597 30.341901006415696
    vertex -1297.5761357478166 632.0362722891597 48.54190100641567
  endloop
endfacet
facet normal 4.648228313269838e-31 -1.0 1.7749370367472766e-30
  outer loop
    vertex -1297.5761357478166 632.0362722891597 48.54190100641567
    vertex -1321.5761357478166 632.0362722891597 30.341901006415696
    vertex -1297.5761357478166 632.0362722891597 44.34190100641567
  endloop
endfacet
facet normal 4.648228313269838e-31 -1.0 1.7749370367472766e-30
  outer loop
    vertex -1297.5761357478166 632.0362722891597 44.34190100641567
    vertex -1321.5761357478166 632.0362722891597 30.341901006415696
    vertex -1285.5761357478166 632.0362722891597 44.34190100641567
  endloop
endfacet
facet normal 4.648228313269838e-31 -1.0 1.7749370367472766e-30
  outer loop
    vertex -1285.5761357478166 632.0362722891597 44.34190100641567
    vertex -1321.5761357478166 632.0362722891597 30.341901006415696
    vertex -1273.5761357478166 632.0362722891597 44.34190100641567
  endloop
endfacet
facet normal 4.648228313269838e-31 -1.0 1.7749370367472766e-30
  outer loop
    vertex -1273.5761357478166 632.0362722891597 44.34190100641567
    vertex -1321.5761357478166 632.0362722891597 30.341901006415696
    vertex -1261.5761357478168 632.0362722891597 44.34190100641567
  endloop
endfacet
facet normal 4.648228313269838e-31 -1.0 1.7749370367472766e-30
  outer loop
    vertex -1261.5761357478168 632.0362722891597 44.34190100641567
    vertex -1321.5761357478166 632.0362722891597 30.341901006415696
    vertex -1249.5761357478166 632.0362722891597 44.34190100641567
  endloop
endfacet
facet normal 4.648228313269838e-31 -1.0 1.7749370367472766e-30
  outer loop
    vertex -1249.5761357478166 632.0362722891597 44.34190100641567
    vertex -1321.5761357478166 632.0362722891597 30.341901006415696
    vertex -1249.5761357478166 632.0362722891597 30.341901006415696
  endloop
endfacet
facet normal 4.648228313269838e-31 -1.0 1.7749370367472766e-30
  outer loop
    vertex -1249.5761357478166 632.0362722891597 30.341901006415696
    vertex -1321.5761357478166 632.0362722891597 30.341901006415696
    vertex -1309.5761357478166 632.0362722891597 30.341901006415696
  endloop
endfacet
facet normal 4.648228313269838e-31 -1.0 1.7749370367472766e-30
  outer loop
    vertex -1249.5761357478166 632.0362722891597 30.341901006415696
    vertex -1309.5761357478166 632.0362722891597 30.341901006415696
    vertex -1297.5761357478166 632.0362722891597 30.341901006415696
  endloop
endfacet
facet normal 4.648228313269838e-31 -1.0 1.7749370367472766e-30
  outer loop
    vertex -1249.5761357478166 632.0362722891597 30.341901006415696
    vertex -1297.5761357478166 632.0362722891597 30.341901006415696
    vertex -1285.5761357478166 632.0362722891597 30.341901006415696
  endloop
endfacet
facet normal 4.648228313269838e-31 -1.0 1.7749370367472766e-30
  outer loop
    vertex -1249.5761357478166 632.0362722891597 30.341901006415696
    vertex -1285.5761357478166 632.0362722891597 30.341901006415696
    vertex -1273.5761357478166 632.0362722891597 30.341901006415696
  endloop
endfacet
facet normal 4.648228313269838e-31 -1.0 1.7749370367472766e-30
  outer loop
    vertex -1249.5761357478166 632.0362722891597 30.341901006415696
    vertex -1273.5761357478166 632.0362722891597 30.341901006415696
    vertex -1261.5761357478168 632.0362722891597 30.341901006415696
  endloop
endfacet
facet normal 4.648228313269838e-31 -1.0 1.7749370367472766e-30
  outer loop
    vertex -1297.5761357478166 632.0362722891597 66.18680687348532
    vertex -1297.5761357478166 632.0362722891597 76.1868068734853
    vertex -1309.5761357478166 632.0362722891597 66.34190100641572
  endloop
endfacet
facet normal 0.0 1.0 0.0
  outer loop
    vertex -1285.5761357478166 638.0362722891597 64.94190100641572
    vertex -1297.5761357478166 638.0362722891597 76.34190100641572
    vertex -1285.5761357478166 638.0362722891597 76.34190100641572
  endloop
endfacet
facet normal 0.0 1.0 0.0
  outer loop
    vertex -1297.5761357478166 638.0362722891597 76.34190100641572
    vertex -1285.5761357478166 638.0362722891597 64.94190100641572
    vertex -1297.5761357478166 638.0362722891597 76.1868068734853
  endloop
endfacet
facet normal 0.0 1.0 0.0
  outer loop
    vertex -1297.5761357478166 638.0362722891597 76.1868068734853
    vertex -1285.5761357478166 638.0362722891597 64.94190100641572
    vertex -1297.5761357478166 638.0362722891597 66.18680687348532
  endloop
endfacet
facet normal 0.0 1.0 0.0
  outer loop
    vertex -1297.5761357478166 638.0362722891597 66.18680687348532
    vertex -1285.5761357478166 638.0362722891597 64.94190100641572
    vertex -1297.5761357478166 638.0362722891597 64.94190100641572
  endloop
endfacet
facet normal 1.0 0.0 0.0
  outer loop
    vertex -1297.5761357478166 638.0362722891597 64.94190100641572
    vertex -1297.5761357478166 632.0362722891597 66.18680687348532
    vertex -1297.5761357478166 632.0362722891597 64.94190100641572
  endloop
endfacet
facet normal 1.0 0.0 0.0
  outer loop
    vertex -1297.5761357478166 632.0362722891597 66.18680687348532
    vertex -1297.5761357478166 638.0362722891597 64.94190100641572
    vertex -1297.5761357478166 638.0362722891597 66.18680687348532
  endloop
endfacet
facet normal 0.0 0.0 1.0
  outer loop
    vertex -1297.5761357478166 638.0362722891597 64.94190100641572
    vertex -1285.5761357478166 632.0362722891597 64.94190100641572
    vertex -1285.5761357478166 638.0362722891597 64.94190100641572
  endloop
endfacet
facet normal 0.0 0.0 1.0
  outer loop
    vertex -1285.5761357478166 632.0362722891597 64.94190100641572
    vertex -1297.5761357478166 638.0362722891597 64.94190100641572
    vertex -1297.5761357478166 632.0362722891597 64.94190100641572
  endloop
endfacet
facet normal 0.0 0.0 1.0
  outer loop
    vertex -1297.5761357478166 638.0362722891597 76.34190100641572
    vertex -1285.5761357478166 632.0362722891597 76.34190100641572
    vertex -1285.5761357478166 638.0362722891597 76.34190100641572
  endloop
endfacet
facet normal 0.0 0.0 1.0
  outer loop
    vertex -1285.5761357478166 632.0362722891597 76.34190100641572
    vertex -1297.5761357478166 638.0362722891597 76.34190100641572
    vertex -1297.5761357478166 632.0362722891597 76.34190100641572
  endloop
endfacet
facet normal -0.0 -1.0 0.0
  outer loop
    vertex -1261.5761357478168 632.0362722891597 64.94190100641572
    vertex -1249.5761357478168 632.0362722891597 76.34190100641572
    vertex -1261.5761357478168 632.0362722891597 76.34190100641572
  endloop
endfacet
facet normal -0.0 -1.0 0.0
  outer loop
    vertex -1249.5761357478168 632.0362722891597 76.34190100641572
    vertex -1261.5761357478168 632.0362722891597 64.94190100641572
    vertex -1249.5761357478168 632.0362722891597 64.94190100641572
  endloop
endfacet
facet normal 0.0 1.0 0.0
  outer loop
    vertex -1273.5761357478166 638.0362722891597 64.94190100641572
    vertex -1285.5761357478166 638.0362722891597 76.34190100641572
    vertex -1273.5761357478166 638.0362722891597 76.34190100641572
  endloop
endfacet
facet normal 0.0 1.0 0.0
  outer loop
    vertex -1285.5761357478166 638.0362722891597 76.34190100641572
    vertex -1273.5761357478166 638.0362722891597 64.94190100641572
    vertex -1285.5761357478166 638.0362722891597 64.94190100641572
  endloop
endfacet
facet normal 0.0 0.0 1.0
  outer loop
    vertex -1285.5761357478166 638.0362722891597 76.34190100641572
    vertex -1273.5761357478166 632.0362722891597 76.34190100641572
    vertex -1273.5761357478166 638.0362722891597 76.34190100641572
  endloop
endfacet
facet normal 0.0 0.0 1.0
  outer loop
    vertex -1273.5761357478166 632.0362722891597 76.34190100641572
    vertex -1285.5761357478166 638.0362722891597 76.34190100641572
    vertex -1285.5761357478166 632.0362722891597 76.34190100641572
  endloop
endfacet
facet normal 0.0 0.0 1.0
  outer loop
    vertex -1285.5761357478166 638.0362722891597 64.94190100641572
    vertex -1273.5761357478166 632.0362722891597 64.94190100641572
    vertex -1273.5761357478166 638.0362722891597 64.94190100641572
  endloop
endfacet
facet normal 0.0 0.0 1.0
  outer loop
    vertex -1273.5761357478166 632.0362722891597 64.94190100641572
    vertex -1285.5761357478166 638.0362722891597 64.94190100641572
    vertex -1285.5761357478166 632.0362722891597 64.94190100641572
  endloop
endfacet
facet normal 0.0 1.0 0.0
  outer loop
    vertex -1261.5761357478168 638.0362722891597 64.94190100641572
    vertex -1273.5761357478166 638.0362722891597 76.34190100641572
    vertex -1261.5761357478168 638.0362722891597 76.34190100641572
  endloop
endfacet
facet normal 0.0 1.0 0.0
  outer loop
    vertex -1273.5761357478166 638.0362722891597 76.34190100641572
    vertex -1261.5761357478168 638.0362722891597 64.94190100641572
    vertex -1273.5761357478166 638.0362722891597 64.94190100641572
  endloop
endfacet
facet normal 0.0 0.0 1.0
  outer loop
    vertex -1273.5761357478166 638.0362722891597 64.94190100641572
    vertex -1261.5761357478168 632.0362722891597 64.94190100641572
    vertex -1261.5761357478168 638.0362722891597 64.94190100641572
  endloop
endfacet
facet normal 0.0 0.0 1.0
  outer loop
    vertex -1261.5761357478168 632.0362722891597 64.94190100641572
    vertex -1273.5761357478166 638.0362722891597 64.94190100641572
    vertex -1273.5761357478166 632.0362722891597 64.94190100641572
  endloop
endfacet
facet normal 0.0 0.0 1.0
  outer loop
    vertex -1273.5761357478166 638.0362722891597 76.34190100641572
    vertex -1261.5761357478168 632.0362722891597 76.34190100641572
    vertex -1261.5761357478168 638.0362722891597 76.34190100641572
  endloop
endfacet
facet normal 0.0 0.0 1.0
  outer loop
    vertex -1261.5761357478168 632.0362722891597 76.34190100641572
    vertex -1273.5761357478166 638.0362722891597 76.34190100641572
    vertex -1273.5761357478166 632.0362722891597 76.34190100641572
  endloop
endfacet
facet normal 0.0 1.0 0.0
  outer loop
    vertex -1249.5761357478168 638.0362722891597 64.94190100641572
    vertex -1261.5761357478168 638.0362722891597 76.34190100641572
    vertex -1249.5761357478168 638.0362722891597 76.34190100641572
  endloop
endfacet
facet normal 0.0 1.0 0.0
  outer loop
    vertex -1261.5761357478168 638.0362722891597 76.34190100641572
    vertex -1249.5761357478168 638.0362722891597 64.94190100641572
    vertex -1261.5761357478168 638.0362722891597 64.94190100641572
  endloop
endfacet
facet normal 0.0 0.0 -1.0
  outer loop
    vertex -1261.5761357478168 632.0362722891597 64.94190100641572
    vertex -1249.5761357478168 638.0362722891597 64.94190100641572
    vertex -1249.5761357478168 632.0362722891597 64.94190100641572
  endloop
endfacet
facet normal 0.0 0.0 -1.0
  outer loop
    vertex -1249.5761357478168 638.0362722891597 64.94190100641572
    vertex -1261.5761357478168 632.0362722891597 64.94190100641572
    vertex -1261.5761357478168 638.0362722891597 64.94190100641572
  endloop
endfacet
facet normal 1.0 0.0 0.0
  outer loop
    vertex -1249.5761357478168 638.0362722891597 64.94190100641572
    vertex -1249.5761357478168 632.0362722891597 76.34190100641572
    vertex -1249.5761357478168 632.0362722891597 64.94190100641572
  endloop
endfacet
facet normal 1.0 0.0 0.0
  outer loop
    vertex -1249.5761357478168 632.0362722891597 76.34190100641572
    vertex -1249.5761357478168 638.0362722891597 64.94190100641572
    vertex -1249.5761357478168 638.0362722891597 76.34190100641572
  endloop
endfacet
facet normal 0.0 0.0 1.0
  outer loop
    vertex -1261.5761357478168 638.0362722891597 76.34190100641572
    vertex -1249.5761357478168 632.0362722891597 76.34190100641572
    vertex -1249.5761357478168 638.0362722891597 76.34190100641572
  endloop
endfacet
facet normal 0.0 0.0 1.0
  outer loop
    vertex -1249.5761357478168 632.0362722891597 76.34190100641572
    vertex -1261.5761357478168 638.0362722891597 76.34190100641572
    vertex -1261.5761357478168 632.0362722891597 76.34190100641572
  endloop
endfacet
endsolid GroundFloorMainV8
