solid GroundFloorMainV8
facet normal 1.0 0.0 0.0
  outer loop
    vertex -1237.5761357478164 644.0362722891597 30.341901006415707
    vertex -1237.5761357478164 632.0362722891596 48.541901006415664
    vertex -1237.5761357478164 632.0362722891596 30.341901006415704
  endloop
endfacet
facet normal 1.0 0.0 0.0
  outer loop
    vertex -1237.5761357478164 632.0362722891596 48.541901006415664
    vertex -1237.5761357478164 644.0362722891597 30.341901006415707
    vertex -1237.5761357478164 644.0362722891597 48.54190100641567
  endloop
endfacet
facet normal 4.699944137579766e-16 4.699944137579803e-16 -1.0
  outer loop
    vertex -1237.5761357478164 644.0362722891597 30.341901006415707
    vertex -1249.5761357478166 632.0362722891596 30.341901006415696
    vertex -1249.5761357478166 644.0362722891597 30.341901006415704
  endloop
endfacet
facet normal 4.699944137579766e-16 4.699944137579803e-16 -1.0
  outer loop
    vertex -1249.5761357478166 632.0362722891596 30.341901006415696
    vertex -1237.5761357478164 644.0362722891597 30.341901006415707
    vertex -1237.5761357478164 632.0362722891596 30.341901006415704
  endloop
endfacet
facet normal 1.0 0.0 0.0
  outer loop
    vertex -1237.5761357478168 638.0362722891596 64.94190100641572
    vertex -1237.5761357478168 632.0362722891596 76.34190100641572
    vertex -1237.5761357478168 632.0362722891596 64.94190100641572
  endloop
endfacet
facet normal 1.0 0.0 0.0
  outer loop
    vertex -1237.5761357478168 632.0362722891596 76.34190100641572
    vertex -1237.5761357478168 638.0362722891596 64.94190100641572
    vertex -1237.5761357478168 638.0362722891596 76.34190100641572
  endloop
endfacet
facet normal -4.6390773516089223e-32 4.699944137579803e-16 -1.0
  outer loop
    vertex -1285.5761357478166 644.0362722891597 30.341901006415704
    vertex -1297.5761357478164 632.0362722891596 30.341901006415696
    vertex -1297.5761357478164 644.0362722891597 30.341901006415704
  endloop
endfacet
facet normal -4.6390773516089223e-32 4.699944137579803e-16 -1.0
  outer loop
    vertex -1297.5761357478164 632.0362722891596 30.341901006415696
    vertex -1309.5761357478164 632.0362722891596 30.341901006415696
    vertex -1297.5761357478164 644.0362722891597 30.341901006415704
  endloop
endfacet
facet normal -9.278154703217563e-32 4.699944137579804e-16 -1.0
  outer loop
    vertex -1249.5761357478166 644.0362722891597 30.341901006415704
    vertex -1261.5761357478168 632.0362722891596 30.341901006415696
    vertex -1261.5761357478168 644.0362722891597 30.341901006415704
  endloop
endfacet
facet normal -4.6390773516087817e-32 4.699944137579804e-16 -1.0
  outer loop
    vertex -1249.5761357478166 632.0362722891596 30.341901006415696
    vertex -1261.5761357478168 632.0362722891596 30.341901006415696
    vertex -1249.5761357478166 644.0362722891597 30.341901006415704
  endloop
endfacet
facet normal -9.278154703217845e-32 4.699944137579805e-16 -1.0
  outer loop
    vertex -1273.5761357478166 632.0362722891596 30.341901006415696
    vertex -1285.5761357478166 632.0362722891596 30.341901006415696
    vertex -1273.5761357478166 644.0362722891597 30.341901006415704
  endloop
endfacet
facet normal 0.0 1.0 0.0
  outer loop
    vertex -1309.5761357478164 644.0362722891597 76.34190100641572
    vertex -1297.5761357478164 644.0362722891597 30.341901006415704
    vertex -1309.5761357478164 644.0362722891597 30.341901006415704
  endloop
endfacet
facet normal 0.0 1.0 0.0
  outer loop
    vertex -1297.5761357478164 644.0362722891597 30.341901006415704
    vertex -1309.5761357478164 644.0362722891597 76.34190100641572
    vertex -1297.5761357478164 644.0362722891597 48.54190100641567
  endloop
endfacet
facet normal 0.0 1.0 0.0
  outer loop
    vertex -1297.5761357478164 644.0362722891597 30.341901006415704
    vertex -1297.5761357478164 644.0362722891597 48.54190100641567
    vertex -1285.5761357478166 644.0362722891597 30.341901006415704
  endloop
endfacet
facet normal 0.0 1.0 0.0
  outer loop
    vertex -1285.5761357478166 644.0362722891597 30.341901006415704
    vertex -1297.5761357478164 644.0362722891597 48.54190100641567
    vertex -1273.5761357478166 644.0362722891597 30.341901006415704
  endloop
endfacet
facet normal 0.0 1.0 0.0
  outer loop
    vertex -1273.5761357478166 644.0362722891597 30.341901006415704
    vertex -1297.5761357478164 644.0362722891597 48.54190100641567
    vertex -1261.5761357478168 644.0362722891597 30.341901006415704
  endloop
endfacet
facet normal 0.0 1.0 0.0
  outer loop
    vertex -1261.5761357478168 644.0362722891597 30.341901006415704
    vertex -1297.5761357478164 644.0362722891597 48.54190100641567
    vertex -1249.5761357478166 644.0362722891597 30.341901006415704
  endloop
endfacet
facet normal 0.0 1.0 0.0
  outer loop
    vertex -1249.5761357478166 644.0362722891597 30.341901006415704
    vertex -1297.5761357478164 644.0362722891597 48.54190100641567
    vertex -1237.5761357478164 644.0362722891597 30.341901006415707
  endloop
endfacet
facet normal 0.0 1.0 0.0
  outer loop
    vertex -1297.5761357478164 644.0362722891597 48.54190100641567
    vertex -1309.5761357478164 644.0362722891597 76.34190100641572
    vertex -1297.5761357478164 644.0362722891597 76.34190100641572
  endloop
endfacet
facet normal 0.0 1.0 0.0
  outer loop
    vertex -1237.5761357478164 644.0362722891597 48.54190100641567
    vertex -1237.5761357478164 644.0362722891597 30.341901006415707
    vertex -1297.5761357478164 644.0362722891597 48.54190100641567
  endloop
endfacet
facet normal 1.0 0.0 0.0
  outer loop
    vertex -1297.5761357478164 638.0362722891596 66.18680687348532
    vertex -1297.5761357478164 632.0362722891596 66.18680687348532
    vertex -1297.5761357478164 638.0362722891596 64.9419010064157
  endloop
endfacet
facet normal 0.0 4.699944137579803e-16 -1.0
  outer loop
    vertex -1273.5761357478166 644.0362722891597 30.341901006415704
    vertex -1285.5761357478166 632.0362722891596 30.341901006415696
    vertex -1285.5761357478166 644.0362722891597 30.341901006415704
  endloop
endfacet
facet normal -1.0 0.0 0.0
  outer loop
    vertex -1309.5761357478164 644.0362722891597 76.34190100641572
    vertex -1309.5761357478164 632.0362722891596 30.341901006415696
    vertex -1309.5761357478164 632.0362722891596 76.34190100641572
  endloop
endfacet
facet normal -1.0 0.0 0.0
  outer loop
    vertex -1309.5761357478164 632.0362722891596 30.341901006415696
    vertex -1309.5761357478164 644.0362722891597 76.34190100641572
    vertex -1309.5761357478164 644.0362722891597 30.341901006415704
  endloop
endfacet
facet normal -1.678551477707091e-16 3.357102955414165e-16 1.0
  outer loop
    vertex -1237.5761357478168 632.0362722891596 64.94190100641572
    vertex -1297.5761357478164 638.0362722891596 64.9419010064157
    vertex -1297.5761357478164 632.0362722891596 64.9419010064157
  endloop
endfacet
facet normal -1.678551477707091e-16 3.357102955414165e-16 1.0
  outer loop
    vertex -1297.5761357478164 638.0362722891596 64.9419010064157
    vertex -1237.5761357478168 632.0362722891596 64.94190100641572
    vertex -1249.5761357478168 638.0362722891596 64.9419010064157
  endloop
endfacet
facet normal -1.678551477707091e-16 3.357102955414165e-16 1.0
  outer loop
    vertex -1249.5761357478168 638.0362722891596 64.9419010064157
    vertex -1237.5761357478168 632.0362722891596 64.94190100641572
    vertex -1237.5761357478168 638.0362722891596 64.94190100641572
  endloop
endfacet
facet normal 0.0 1.0 0.0
  outer loop
    vertex -1297.5761357478164 638.0362722891596 66.18680687348532
    vertex -1249.5761357478168 638.0362722891596 64.9419010064157
    vertex -1297.5761357478164 638.0362722891596 64.9419010064157
  endloop
endfacet
facet normal 0.0 1.0 0.0
  outer loop
    vertex -1249.5761357478168 638.0362722891596 64.9419010064157
    vertex -1297.5761357478164 638.0362722891596 66.18680687348532
    vertex -1237.5761357478168 638.0362722891596 64.94190100641572
  endloop
endfacet
facet normal 0.0 1.0 0.0
  outer loop
    vertex -1237.5761357478168 638.0362722891596 64.94190100641572
    vertex -1297.5761357478164 638.0362722891596 66.18680687348532
    vertex -1237.5761357478168 638.0362722891596 76.34190100641572
  endloop
endfacet
facet normal 0.0 1.0 0.0
  outer loop
    vertex -1237.5761357478168 638.0362722891596 76.34190100641572
    vertex -1297.5761357478164 638.0362722891596 66.18680687348532
    vertex -1297.5761357478164 638.0362722891596 76.34190100641572
  endloop
endfacet
facet normal 7.460228789809091e-18 -3.8793189707007897e-16 1.0
  outer loop
    vertex -1249.5761357478166 632.0362722891596 48.541901006415664
    vertex -1297.5761357478164 644.0362722891597 48.54190100641567
    vertex -1297.5761357478164 632.0362722891596 48.54190100641567
  endloop
endfacet
facet normal 7.460228789809091e-18 -3.8793189707007897e-16 1.0
  outer loop
    vertex -1297.5761357478164 644.0362722891597 48.54190100641567
    vertex -1249.5761357478166 632.0362722891596 48.541901006415664
    vertex -1237.5761357478164 644.0362722891597 48.54190100641567
  endloop
endfacet
facet normal 7.460228789809091e-18 -3.8793189707007897e-16 1.0
  outer loop
    vertex -1237.5761357478164 644.0362722891597 48.54190100641567
    vertex -1249.5761357478166 632.0362722891596 48.541901006415664
    vertex -1237.5761357478164 632.0362722891596 48.541901006415664
  endloop
endfacet
facet normal 0.0 0.0 1.0
  outer loop
    vertex -1309.5761357478164 632.0362722891596 76.34190100641572
    vertex -1297.5761357478164 638.0362722891596 76.34190100641572
    vertex -1309.5761357478164 644.0362722891597 76.34190100641572
  endloop
endfacet
facet normal 0.0 0.0 1.0
  outer loop
    vertex -1297.5761357478164 638.0362722891596 76.34190100641572
    vertex -1309.5761357478164 632.0362722891596 76.34190100641572
    vertex -1249.5761357478168 632.0362722891596 76.34190100641572
  endloop
endfacet
facet normal 0.0 0.0 1.0
  outer loop
    vertex -1297.5761357478164 638.0362722891596 76.34190100641572
    vertex -1249.5761357478168 632.0362722891596 76.34190100641572
    vertex -1237.5761357478168 638.0362722891596 76.34190100641572
  endloop
endfacet
facet normal 0.0 0.0 1.0
  outer loop
    vertex -1237.5761357478168 638.0362722891596 76.34190100641572
    vertex -1249.5761357478168 632.0362722891596 76.34190100641572
    vertex -1237.5761357478168 632.0362722891596 76.34190100641572
  endloop
endfacet
facet normal 0.0 0.0 1.0
  outer loop
    vertex -1297.5761357478164 644.0362722891597 76.34190100641572
    vertex -1309.5761357478164 644.0362722891597 76.34190100641572
    vertex -1297.5761357478164 638.0362722891596 76.34190100641572
  endloop
endfacet
facet normal 0.0 4.699944137579803e-16 -1.0
  outer loop
    vertex -1297.5761357478164 644.0362722891597 30.341901006415704
    vertex -1309.5761357478164 632.0362722891596 30.341901006415696
    vertex -1309.5761357478164 644.0362722891597 30.341901006415704
  endloop
endfacet
facet normal 0.0 -1.0 0.0
  outer loop
    vertex -1237.5761357478164 632.0362722891596 30.341901006415704
    vertex -1261.5761357478168 632.0362722891596 30.341901006415696
    vertex -1249.5761357478166 632.0362722891596 30.341901006415696
  endloop
endfacet
facet normal 0.0 -1.0 0.0
  outer loop
    vertex -1261.5761357478168 632.0362722891596 30.341901006415696
    vertex -1237.5761357478164 632.0362722891596 30.341901006415704
    vertex -1273.5761357478166 632.0362722891596 30.341901006415696
  endloop
endfacet
facet normal 0.0 -1.0 0.0
  outer loop
    vertex -1273.5761357478166 632.0362722891596 30.341901006415696
    vertex -1237.5761357478164 632.0362722891596 30.341901006415704
    vertex -1285.5761357478166 632.0362722891596 30.341901006415696
  endloop
endfacet
facet normal 0.0 -1.0 0.0
  outer loop
    vertex -1285.5761357478166 632.0362722891596 30.341901006415696
    vertex -1237.5761357478164 632.0362722891596 30.341901006415704
    vertex -1297.5761357478164 632.0362722891596 30.341901006415696
  endloop
endfacet
facet normal 0.0 -1.0 0.0
  outer loop
    vertex -1297.5761357478164 632.0362722891596 30.341901006415696
    vertex -1237.5761357478164 632.0362722891596 30.341901006415704
    vertex -1309.5761357478164 632.0362722891596 30.341901006415696
  endloop
endfacet
facet normal 0.0 -1.0 0.0
  outer loop
    vertex -1309.5761357478164 632.0362722891596 30.341901006415696
    vertex -1237.5761357478164 632.0362722891596 30.341901006415704
    vertex -1297.5761357478164 632.0362722891596 48.54190100641567
  endloop
endfacet
facet normal 0.0 -1.0 0.0
  outer loop
    vertex -1309.5761357478164 632.0362722891596 30.341901006415696
    vertex -1297.5761357478164 632.0362722891596 48.54190100641567
    vertex -1309.5761357478164 632.0362722891596 76.34190100641572
  endloop
endfacet
facet normal 0.0 -1.0 0.0
  outer loop
    vertex -1297.5761357478164 632.0362722891596 48.54190100641567
    vertex -1237.5761357478164 632.0362722891596 30.341901006415704
    vertex -1249.5761357478166 632.0362722891596 48.541901006415664
  endloop
endfacet
facet normal 0.0 -1.0 0.0
  outer loop
    vertex -1249.5761357478166 632.0362722891596 48.541901006415664
    vertex -1237.5761357478164 632.0362722891596 30.341901006415704
    vertex -1237.5761357478164 632.0362722891596 48.541901006415664
  endloop
endfacet
facet normal 0.0 -1.0 0.0
  outer loop
    vertex -1309.5761357478164 632.0362722891596 76.34190100641572
    vertex -1297.5761357478164 632.0362722891596 48.54190100641567
    vertex -1297.5761357478164 632.0362722891596 64.9419010064157
  endloop
endfacet
facet normal 0.0 -1.0 0.0
  outer loop
    vertex -1309.5761357478164 632.0362722891596 76.34190100641572
    vertex -1297.5761357478164 632.0362722891596 64.9419010064157
    vertex -1237.5761357478168 632.0362722891596 64.94190100641572
  endloop
endfacet
facet normal 0.0 -1.0 0.0
  outer loop
    vertex -1309.5761357478164 632.0362722891596 76.34190100641572
    vertex -1237.5761357478168 632.0362722891596 64.94190100641572
    vertex -1237.5761357478168 632.0362722891596 76.34190100641572
  endloop
endfacet
facet normal 0.0 -1.0 0.0
  outer loop
    vertex -1309.5761357478164 632.0362722891596 76.34190100641572
    vertex -1237.5761357478168 632.0362722891596 76.34190100641572
    vertex -1249.5761357478168 632.0362722891596 76.34190100641572
  endloop
endfacet
facet normal 0.0 4.699944137579803e-16 -1.0
  outer loop
    vertex -1261.5761357478168 632.0362722891596 30.341901006415696
    vertex -1273.5761357478166 632.0362722891596 30.341901006415696
    vertex -1261.5761357478168 644.0362722891597 30.341901006415704
  endloop
endfacet
facet normal 1.0 0.0 0.0
  outer loop
    vertex -1297.5761357478164 644.0362722891597 48.54190100641567
    vertex -1297.5761357478164 632.0362722891596 64.9419010064157
    vertex -1297.5761357478164 632.0362722891596 48.54190100641567
  endloop
endfacet
facet normal 1.0 0.0 0.0
  outer loop
    vertex -1297.5761357478164 632.0362722891596 64.9419010064157
    vertex -1297.5761357478164 644.0362722891597 48.54190100641567
    vertex -1297.5761357478164 638.0362722891596 64.9419010064157
  endloop
endfacet
facet normal 1.0 0.0 0.0
  outer loop
    vertex -1297.5761357478164 638.0362722891596 64.9419010064157
    vertex -1297.5761357478164 644.0362722891597 48.54190100641567
    vertex -1297.5761357478164 638.0362722891596 66.18680687348532
  endloop
endfacet
facet normal 1.0 0.0 0.0
  outer loop
    vertex -1297.5761357478164 638.0362722891596 66.18680687348532
    vertex -1297.5761357478164 644.0362722891597 48.54190100641567
    vertex -1297.5761357478164 638.0362722891596 76.34190100641572
  endloop
endfacet
facet normal 1.0 0.0 0.0
  outer loop
    vertex -1297.5761357478164 638.0362722891596 76.34190100641572
    vertex -1297.5761357478164 644.0362722891597 48.54190100641567
    vertex -1297.5761357478164 644.0362722891597 76.34190100641572
  endloop
endfacet
facet normal 0.0 4.699944137579803e-16 -1.0
  outer loop
    vertex -1261.5761357478168 644.0362722891597 30.341901006415704
    vertex -1273.5761357478166 632.0362722891596 30.341901006415696
    vertex -1273.5761357478166 644.0362722891597 30.341901006415704
  endloop
endfacet
facet normal -4.6390773516089223e-32 4.699944137579803e-16 -1.0
  outer loop
    vertex -1285.5761357478166 632.0362722891596 30.341901006415696
    vertex -1297.5761357478164 632.0362722891596 30.341901006415696
    vertex -1285.5761357478166 644.0362722891597 30.341901006415704
  endloop
endfacet
endsolid GroundFloorMainV8
