solid GroundFloorMainV8
facet normal 0.9922565907502551 -0.1242049037384635 -4.0492921400206796e-29
  outer loop
    vertex -1082.0592867616188 442.3808376579642 730.3668904660094
    vertex -1098.4336602293738 311.5681281453145 735.3646314089639
    vertex -1098.4336602293738 311.5681281453145 730.3668904660094
  endloop
endfacet
facet normal 0.9922565907502551 -0.1242049037384635 -4.0492921400206796e-29
  outer loop
    vertex -1098.4336602293738 311.5681281453145 735.3646314089639
    vertex -1082.0592867616188 442.3808376579642 730.3668904660094
    vertex -1082.0592867616185 442.3808376579642 735.3646314089639
  endloop
endfacet
facet normal -0.9920216447022644 0.12606766612503856 -6.200757849655994e-14
  outer loop
    vertex -1108.0269498688892 302.1826722366992 735.3646314089639
    vertex -1089.2311181728921 450.0863532179587 730.3668904660094
    vertex -1108.026949868889 302.1826722366989 730.3668904660094
  endloop
endfacet
facet normal -0.9920216447022644 0.12606766612503856 -6.200757849655994e-14
  outer loop
    vertex -1089.2311181728921 450.0863532179587 730.3668904660094
    vertex -1108.0269498688892 302.1826722366992 735.3646314089639
    vertex -1089.2311181728924 450.086353217959 735.3646314089639
  endloop
endfacet
facet normal 0.0 0.0 -1.0
  outer loop
    vertex -1089.2311181728921 450.0863532179587 730.3668904660094
    vertex -1099.6084769638132 302.1826722366989 730.3668904660094
    vertex -1108.026949868889 302.1826722366989 730.3668904660094
  endloop
endfacet
facet normal 0.0 0.0 -1.0
  outer loop
    vertex -1099.6084769638132 302.1826722366989 730.3668904660094
    vertex -1089.2311181728921 450.0863532179587 730.3668904660094
    vertex -1098.7090434223624 309.3681281453145 730.3668904660094
  endloop
endfacet
facet normal 0.0 0.0 -1.0
  outer loop
    vertex -1098.7090434223624 309.3681281453145 730.3668904660094
    vertex -1089.2311181728921 450.0863532179587 730.3668904660094
    vertex -1098.4336602293738 311.5681281453145 730.3668904660094
  endloop
endfacet
facet normal 0.0 0.0 -1.0
  outer loop
    vertex -1098.4336602293738 311.5681281453145 730.3668904660094
    vertex -1089.2311181728921 450.0863532179587 730.3668904660094
    vertex -1082.0592867616188 442.3808376579642 730.3668904660094
  endloop
endfacet
facet normal 0.0 0.0 -1.0
  outer loop
    vertex -1082.0592867616188 442.3808376579642 730.3668904660094
    vertex -1089.2311181728921 450.0863532179587 730.3668904660094
    vertex -1074.0203508488605 450.0863532179587 730.3668904660094
  endloop
endfacet
facet normal 0.0 0.0 -1.0
  outer loop
    vertex -1082.0592867616188 442.3808376579642 730.3668904660094
    vertex -1074.0203508488605 450.0863532179587 730.3668904660094
    vertex -1074.0203508488605 442.3808376579644 730.3668904660094
  endloop
endfacet
facet normal 0.0 0.0 -1.0
  outer loop
    vertex -1098.4336602293738 311.5681281453145 730.3668904660094
    vertex -1027.3580217941521 309.3681281453145 730.3668904660094
    vertex -1098.7090434223624 309.3681281453145 730.3668904660094
  endloop
endfacet
facet normal 0.0 0.0 -1.0
  outer loop
    vertex -1027.3580217941521 309.3681281453145 730.3668904660094
    vertex -1098.4336602293738 311.5681281453145 730.3668904660094
    vertex -1025.2518559413552 311.5681281453145 730.3668904660094
  endloop
endfacet
facet normal 0.0 0.0 -1.0
  outer loop
    vertex -1027.3580217941521 309.3681281453145 730.3668904660094
    vertex -1025.2518559413552 311.5681281453145 730.3668904660094
    vertex -1027.3580217941521 302.1826722366989 730.3668904660094
  endloop
endfacet
facet normal 0.0 0.0 -1.0
  outer loop
    vertex -1027.3580217941521 302.1826722366989 730.3668904660094
    vertex -1025.2518559413552 311.5681281453145 730.3668904660094
    vertex -1025.2518559413552 302.1826722366989 730.3668904660094
  endloop
endfacet
facet normal -0.9999998111752165 0.0006144116601531428 -1.21590757356711e-05
  outer loop
    vertex -963.5380500340971 313.00557932538675 735.3646314089639
    vertex -963.5446389877427 302.1826722366989 730.3668904660094
    vertex -963.5447605235927 302.1826722271694 735.3646314089639
  endloop
endfacet
facet normal -0.9999998111752165 0.0006144116601531428 -1.21590757356711e-05
  outer loop
    vertex -963.5446389877427 302.1826722366989 730.3668904660094
    vertex -963.5380500340971 313.00557932538675 735.3646314089639
    vertex -963.5380500340971 313.0055793253869 730.3668904660095
  endloop
endfacet
facet normal 1.122523284435223e-14 -1.0 -1.8055943369523245e-14
  outer loop
    vertex -1074.0203508488607 442.3808376579642 735.3646314089639
    vertex -1082.0592867616188 442.3808376579642 730.3668904660094
    vertex -1074.0203508488605 442.3808376579644 730.3668904660094
  endloop
endfacet
facet normal 1.122523284435223e-14 -1.0 -1.8055943369523245e-14
  outer loop
    vertex -1082.0592867616188 442.3808376579642 730.3668904660094
    vertex -1074.0203508488607 442.3808376579642 735.3646314089639
    vertex -1082.0592867616185 442.3808376579642 735.3646314089639
  endloop
endfacet
facet normal 8.759985402198458e-11 -6.808835039887916e-11 -1.0
  outer loop
    vertex -963.5380500340971 313.0055793253869 730.3668904660095
    vertex -955.1312315088529 302.1826722366989 730.3668904674828
    vertex -963.5446389877427 302.1826722366989 730.3668904660094
  endloop
endfacet
facet normal 8.759985402198458e-11 -6.808835039887916e-11 -1.0
  outer loop
    vertex -955.1312315088529 302.1826722366989 730.3668904674828
    vertex -963.5380500340971 313.0055793253869 730.3668904660095
    vertex -955.1311181728922 313.0004612102742 730.3668904660094
  endloop
endfacet
facet normal 0.0006087969129251445 0.9999998146831423 3.6122916216287346e-14
  outer loop
    vertex -963.5380500340971 313.0055793253869 730.3668904660095
    vertex -955.1311181728922 313.000461210274 735.3646314089639
    vertex -955.1311181728922 313.0004612102742 730.3668904660094
  endloop
endfacet
facet normal 0.0006087969129251445 0.9999998146831423 3.6122916216287346e-14
  outer loop
    vertex -955.1311181728922 313.000461210274 735.3646314089639
    vertex -963.5380500340971 313.0055793253869 730.3668904660095
    vertex -963.5380500340971 313.00557932538675 735.3646314089639
  endloop
endfacet
facet normal 5.775687357077755e-10 -1.0 -9.344623380037772e-10
  outer loop
    vertex -955.1312315088529 302.1826722366989 730.3668904674828
    vertex -963.5447605235927 302.1826722271694 735.3646314089639
    vertex -963.5446389877427 302.1826722366989 730.3668904660094
  endloop
endfacet
facet normal 5.775687357077755e-10 -1.0 -9.344623380037772e-10
  outer loop
    vertex -963.5447605235927 302.1826722271694 735.3646314089639
    vertex -955.1312315088529 302.1826722366989 730.3668904674828
    vertex -955.1310394929397 302.18267223688804 735.3646314089639
  endloop
endfacet
facet normal -1.0 1.1311157720751507e-28 -1.8055943369523087e-14
  outer loop
    vertex -1027.3580217941524 309.3681281453145 735.3646314089639
    vertex -1027.3580217941521 302.1826722366989 730.3668904660094
    vertex -1027.3580217941524 302.1826722366989 735.3646314089639
  endloop
endfacet
facet normal -1.0 1.1311157720751507e-28 -1.8055943369523087e-14
  outer loop
    vertex -1027.3580217941521 302.1826722366989 730.3668904660094
    vertex -1027.3580217941524 309.3681281453145 735.3646314089639
    vertex -1027.3580217941521 309.3681281453145 730.3668904660094
  endloop
endfacet
facet normal -4.032884823711243e-15 -1.0 -7.158687806577337e-29
  outer loop
    vertex -963.4592867616187 442.3808376579642 735.3646314089639
    vertex -1008.2108387578351 442.3808376579644 730.3668904660094
    vertex -963.4592867616187 442.3808376579642 730.3668904660094
  endloop
endfacet
facet normal -4.032884823711243e-15 -1.0 -7.158687806577337e-29
  outer loop
    vertex -1008.2108387578351 442.3808376579644 730.3668904660094
    vertex -963.4592867616187 442.3808376579642 735.3646314089639
    vertex -1008.2108387578353 442.3808376579644 735.3646314089639
  endloop
endfacet
facet normal -1.0 -3.8654088243350534e-15 -1.8055943369523248e-14
  outer loop
    vertex -995.267245293148 376.12964663120493 735.3646314089639
    vertex -995.2672452931477 329.43915072638634 730.3668904660094
    vertex -995.2672452931477 329.43915072638634 735.3646314089639
  endloop
endfacet
facet normal -1.0 -3.8654088243350534e-15 -1.8055943369523248e-14
  outer loop
    vertex -995.2672452931477 329.43915072638634 730.3668904660094
    vertex -995.267245293148 376.12964663120493 735.3646314089639
    vertex -995.2672452931479 376.12964663120493 730.3668904660094
  endloop
endfacet
facet normal -0.0006087969182474198 -0.9999998146831391 8.939290774255001e-12
  outer loop
    vertex -955.1311181728922 331.02000488639436 735.3646314089639
    vertex -963.5270797935677 331.0251163228573 730.3668904660095
    vertex -955.1311181728922 331.02000488639436 730.3668904660094
  endloop
endfacet
facet normal -0.0006087969182474198 -0.9999998146831391 8.939290774255001e-12
  outer loop
    vertex -963.5270797935677 331.0251163228573 730.3668904660095
    vertex -955.1311181728922 331.02000488639436 735.3646314089639
    vertex -963.5271071343799 331.02511633959165 735.3646314089639
  endloop
endfacet
facet normal 1.0 -6.591098179077757e-29 1.805594336952308e-14
  outer loop
    vertex -993.6479744990714 314.5391507263863 730.3668904660094
    vertex -993.6479744990714 302.1826722366989 735.3646314089639
    vertex -993.6479744990714 302.1826722366989 730.3668904660094
  endloop
endfacet
facet normal 1.0 -6.591098179077757e-29 1.805594336952308e-14
  outer loop
    vertex -993.6479744990714 302.1826722366989 735.3646314089639
    vertex -993.6479744990714 314.5391507263863 730.3668904660094
    vertex -993.6479744990714 314.5391507263863 735.3646314089639
  endloop
endfacet
facet normal -1.0719156367080048e-14 -1.0 3.6111886739046205e-14
  outer loop
    vertex -1099.6084769638132 302.182672236699 735.3646314089639
    vertex -1108.026949868889 302.1826722366989 730.3668904660094
    vertex -1099.6084769638132 302.1826722366989 730.3668904660094
  endloop
endfacet
facet normal -1.0719156367080048e-14 -1.0 3.6111886739046205e-14
  outer loop
    vertex -1108.026949868889 302.1826722366989 730.3668904660094
    vertex -1099.6084769638132 302.182672236699 735.3646314089639
    vertex -1108.0269498688892 302.1826722366992 735.3646314089639
  endloop
endfacet
facet normal 0.0 -1.0 0.0
  outer loop
    vertex -1025.2518559413554 302.1826722366989 735.3646314089639
    vertex -1027.3580217941521 302.1826722366989 730.3668904660094
    vertex -1025.2518559413552 302.1826722366989 730.3668904660094
  endloop
endfacet
facet normal 0.0 -1.0 0.0
  outer loop
    vertex -1027.3580217941521 302.1826722366989 730.3668904660094
    vertex -1025.2518559413554 302.1826722366989 735.3646314089639
    vertex -1027.3580217941524 302.1826722366989 735.3646314089639
  endloop
endfacet
facet normal 0.0 1.0 0.0
  outer loop
    vertex -995.267245293148 376.12964663120493 735.3646314089639
    vertex -963.4996202896682 376.12964663120493 730.3668904660094
    vertex -995.2672452931479 376.12964663120493 730.3668904660094
  endloop
endfacet
facet normal 0.0 1.0 0.0
  outer loop
    vertex -963.4996202896682 376.12964663120493 730.3668904660094
    vertex -995.267245293148 376.12964663120493 735.3646314089639
    vertex -963.4996202896682 376.12964663120493 735.3646314089639
  endloop
endfacet
facet normal 2.582367815348347e-16 -1.5898563095444137e-16 -1.0
  outer loop
    vertex -995.2672452931479 376.12964663120493 730.3668904660094
    vertex -993.6479744990714 373.89183087665657 730.3668904660094
    vertex -995.2672452931477 329.43915072638634 730.3668904660094
  endloop
endfacet
facet normal 2.582367815348347e-16 -1.5898563095444137e-16 -1.0
  outer loop
    vertex -993.6479744990714 373.89183087665657 730.3668904660094
    vertex -995.2672452931479 376.12964663120493 730.3668904660094
    vertex -963.4996202896682 376.12964663120493 730.3668904660094
  endloop
endfacet
facet normal 2.582367815348347e-16 -1.5898563095444137e-16 -1.0
  outer loop
    vertex -993.6479744990714 373.89183087665657 730.3668904660094
    vertex -963.4996202896682 376.12964663120493 730.3668904660094
    vertex -963.5009826652438 373.89183087665657 730.3668904660094
  endloop
endfacet
facet normal 2.582367815348347e-16 -1.5898563095444137e-16 -1.0
  outer loop
    vertex -955.1311181728922 450.0863532179587 730.3668904660094
    vertex -1008.2108387578351 442.3808376579644 730.3668904660094
    vertex -1008.2108387578351 450.0863532179587 730.3668904660094
  endloop
endfacet
facet normal 2.582367815348347e-16 -1.5898563095444137e-16 -1.0
  outer loop
    vertex -1008.2108387578351 442.3808376579644 730.3668904660094
    vertex -955.1311181728922 450.0863532179587 730.3668904660094
    vertex -963.4592867616187 442.3808376579642 730.3668904660094
  endloop
endfacet
facet normal 2.582367815348347e-16 -1.5898563095444137e-16 -1.0
  outer loop
    vertex -963.5009826652438 373.89183087665657 730.3668904660094
    vertex -955.1311181728922 331.02000488639436 730.3668904660094
    vertex -963.5270797935677 331.0251163228573 730.3668904660095
  endloop
endfacet
facet normal 2.582367815348347e-16 -1.5898563095444137e-16 -1.0
  outer loop
    vertex -955.1311181728922 331.02000488639436 730.3668904660094
    vertex -963.5009826652438 373.89183087665657 730.3668904660094
    vertex -963.4996202896682 376.12964663120493 730.3668904660094
  endloop
endfacet
facet normal 2.582367815348347e-16 -1.5898563095444137e-16 -1.0
  outer loop
    vertex -955.1311181728922 331.02000488639436 730.3668904660094
    vertex -963.4996202896682 376.12964663120493 730.3668904660094
    vertex -963.4592867616187 442.3808376579642 730.3668904660094
  endloop
endfacet
facet normal 2.582367815348347e-16 -1.5898563095444137e-16 -1.0
  outer loop
    vertex -955.1311181728922 331.02000488639436 730.3668904660094
    vertex -963.4592867616187 442.3808376579642 730.3668904660094
    vertex -955.1311181728922 450.0863532179587 730.3668904660094
  endloop
endfacet
facet normal 2.582367815348347e-16 -1.5898563095444137e-16 -1.0
  outer loop
    vertex -993.6479744990714 329.43915072638634 730.3668904660094
    vertex -995.2672452931477 329.43915072638634 730.3668904660094
    vertex -993.6479744990714 373.89183087665657 730.3668904660094
  endloop
endfacet
facet normal -0.999999814485202 0.0006091158177830173 -2.735317591222599e-06
  outer loop
    vertex -963.5271071343799 331.02511633959165 735.3646314089639
    vertex -963.5009826652438 373.89183087665657 730.3668904660094
    vertex -963.5270797935677 331.0251163228573 730.3668904660095
  endloop
endfacet
facet normal -0.999999814485202 0.0006091158177830173 -2.735317591222599e-06
  outer loop
    vertex -963.5009826652438 373.89183087665657 730.3668904660094
    vertex -963.5271071343799 331.02511633959165 735.3646314089639
    vertex -963.5009826652438 373.89183087665657 735.3646314089639
  endloop
endfacet
facet normal -1.0 0.0 -1.805594336952325e-14
  outer loop
    vertex -1008.2108387578353 450.0863532179587 735.3646314089639
    vertex -1008.2108387578351 442.3808376579644 730.3668904660094
    vertex -1008.2108387578353 442.3808376579644 735.3646314089639
  endloop
endfacet
facet normal -1.0 0.0 -1.805594336952325e-14
  outer loop
    vertex -1008.2108387578351 442.3808376579644 730.3668904660094
    vertex -1008.2108387578353 450.0863532179587 735.3646314089639
    vertex -1008.2108387578351 450.0863532179587 730.3668904660094
  endloop
endfacet
facet normal 0.9922565907502544 -0.12420490373846851 1.0082979363675554e-14
  outer loop
    vertex -1098.7090434223624 309.3681281453145 730.3668904660094
    vertex -1099.6084769638132 302.182672236699 735.3646314089639
    vertex -1099.6084769638132 302.1826722366989 730.3668904660094
  endloop
endfacet
facet normal 0.9922565907502544 -0.12420490373846851 1.0082979363675554e-14
  outer loop
    vertex -1099.6084769638132 302.182672236699 735.3646314089639
    vertex -1098.7090434223624 309.3681281453145 730.3668904660094
    vertex -1098.7090434223624 309.3681281453145 735.3646314089639
  endloop
endfacet
facet normal 0.0 -1.0 0.0
  outer loop
    vertex -993.6479744990714 302.1826722366989 735.3646314089639
    vertex -995.2672452931479 302.1826722366989 730.3668904660094
    vertex -993.6479744990714 302.1826722366989 730.3668904660094
  endloop
endfacet
facet normal 0.0 -1.0 0.0
  outer loop
    vertex -995.2672452931479 302.1826722366989 730.3668904660094
    vertex -993.6479744990714 302.1826722366989 735.3646314089639
    vertex -995.2672452931477 302.1826722366989 735.3646314089639
  endloop
endfacet
facet normal 1.0 -7.440671515854176e-44 1.8055943369523248e-14
  outer loop
    vertex -993.6479744990714 373.89183087665657 730.3668904660094
    vertex -993.6479744990714 329.43915072638634 735.3646314089639
    vertex -993.6479744990714 329.43915072638634 730.3668904660094
  endloop
endfacet
facet normal 1.0 -7.440671515854176e-44 1.8055943369523248e-14
  outer loop
    vertex -993.6479744990714 329.43915072638634 735.3646314089639
    vertex -993.6479744990714 373.89183087665657 730.3668904660094
    vertex -993.6479744990714 373.89183087665657 735.3646314089639
  endloop
endfacet
facet normal 1.0 1.1075141098675891e-32 1.8055943369522923e-14
  outer loop
    vertex -1074.0203508488605 442.3808376579644 730.3668904660094
    vertex -1074.0203508488607 450.0863532179587 735.3646314089639
    vertex -1074.0203508488607 442.3808376579642 735.3646314089639
  endloop
endfacet
facet normal 1.0 1.1075141098675891e-32 1.8055943369522923e-14
  outer loop
    vertex -1074.0203508488607 450.0863532179587 735.3646314089639
    vertex -1074.0203508488605 442.3808376579644 730.3668904660094
    vertex -1074.0203508488605 450.0863532179587 730.3668904660094
  endloop
endfacet
facet normal 0.0 1.0 0.0
  outer loop
    vertex -1008.2108387578353 450.0863532179587 735.3646314089639
    vertex -955.1311181728922 450.0863532179587 730.3668904660094
    vertex -1008.2108387578351 450.0863532179587 730.3668904660094
  endloop
endfacet
facet normal 0.0 1.0 0.0
  outer loop
    vertex -955.1311181728922 450.0863532179587 730.3668904660094
    vertex -1008.2108387578353 450.0863532179587 735.3646314089639
    vertex -955.1311181728922 450.0863532179587 735.3646314089639
  endloop
endfacet
facet normal -0.9999998146831423 0.000608796912929793 -1.8056074308897516e-14
  outer loop
    vertex -963.4592867616187 442.3808376579642 735.3646314089639
    vertex -963.4996202896682 376.12964663120493 730.3668904660094
    vertex -963.4996202896682 376.12964663120493 735.3646314089639
  endloop
endfacet
facet normal -0.9999998146831423 0.000608796912929793 -1.8056074308897516e-14
  outer loop
    vertex -963.4996202896682 376.12964663120493 730.3668904660094
    vertex -963.4592867616187 442.3808376579642 735.3646314089639
    vertex -963.4592867616187 442.3808376579642 730.3668904660094
  endloop
endfacet
facet normal 1.0 -9.61476227901682e-15 3.6111886739046496e-14
  outer loop
    vertex -1025.2518559413552 311.5681281453145 730.3668904660094
    vertex -1025.2518559413554 302.1826722366989 735.3646314089639
    vertex -1025.2518559413552 302.1826722366989 730.3668904660094
  endloop
endfacet
facet normal 1.0 -9.61476227901682e-15 3.6111886739046496e-14
  outer loop
    vertex -1025.2518559413554 302.1826722366989 735.3646314089639
    vertex -1025.2518559413552 311.5681281453145 730.3668904660094
    vertex -1025.2518559413554 311.5681281453145 735.3646314089639
  endloop
endfacet
facet normal 0.0 -1.0 0.0
  outer loop
    vertex -1027.3580217941524 309.3681281453145 735.3646314089639
    vertex -1098.7090434223624 309.3681281453145 730.3668904660094
    vertex -1027.3580217941521 309.3681281453145 730.3668904660094
  endloop
endfacet
facet normal 0.0 -1.0 0.0
  outer loop
    vertex -1098.7090434223624 309.3681281453145 730.3668904660094
    vertex -1027.3580217941524 309.3681281453145 735.3646314089639
    vertex -1098.7090434223624 309.3681281453145 735.3646314089639
  endloop
endfacet
facet normal 0.9999999998142 -1.6018064433193795e-06 -1.9210270713271167e-05
  outer loop
    vertex -955.1311181728922 313.0004612102742 730.3668904660094
    vertex -955.1310394929397 302.18267223688804 735.3646314089639
    vertex -955.1312315088529 302.1826722366989 730.3668904674828
  endloop
endfacet
facet normal 0.9999999998142 -1.6018064433193795e-06 -1.9210270713271167e-05
  outer loop
    vertex -955.1310394929397 302.18267223688804 735.3646314089639
    vertex -955.1311181728922 313.0004612102742 730.3668904660094
    vertex -955.1311181728922 313.000461210274 735.3646314089639
  endloop
endfacet
facet normal 0.0 1.0 0.0
  outer loop
    vertex -1098.4336602293738 311.5681281453145 735.3646314089639
    vertex -1025.2518559413552 311.5681281453145 730.3668904660094
    vertex -1098.4336602293738 311.5681281453145 730.3668904660094
  endloop
endfacet
facet normal 0.0 1.0 0.0
  outer loop
    vertex -1025.2518559413552 311.5681281453145 730.3668904660094
    vertex -1098.4336602293738 311.5681281453145 735.3646314089639
    vertex -1025.2518559413554 311.5681281453145 735.3646314089639
  endloop
endfacet
facet normal -1.0 7.30296479833194e-15 2.3808913389605155e-42
  outer loop
    vertex -995.2672452931477 314.5391507263863 735.3646314089639
    vertex -995.2672452931479 302.1826722366989 730.3668904660094
    vertex -995.2672452931477 302.1826722366989 735.3646314089639
  endloop
endfacet
facet normal -1.0 7.30296479833194e-15 2.3808913389605155e-42
  outer loop
    vertex -995.2672452931479 302.1826722366989 730.3668904660094
    vertex -995.2672452931477 314.5391507263863 735.3646314089639
    vertex -995.2672452931477 314.5391507263863 730.3668904660094
  endloop
endfacet
facet normal 0.0 -1.0 0.0
  outer loop
    vertex -963.5009826652438 373.89183087665657 735.3646314089639
    vertex -993.6479744990714 373.89183087665657 730.3668904660094
    vertex -963.5009826652438 373.89183087665657 730.3668904660094
  endloop
endfacet
facet normal 0.0 -1.0 0.0
  outer loop
    vertex -993.6479744990714 373.89183087665657 730.3668904660094
    vertex -963.5009826652438 373.89183087665657 735.3646314089639
    vertex -993.6479744990714 373.89183087665657 735.3646314089639
  endloop
endfacet
facet normal 0.0 0.0 -1.0
  outer loop
    vertex -995.2672452931477 314.5391507263863 730.3668904660094
    vertex -993.6479744990714 302.1826722366989 730.3668904660094
    vertex -995.2672452931479 302.1826722366989 730.3668904660094
  endloop
endfacet
facet normal 0.0 0.0 -1.0
  outer loop
    vertex -993.6479744990714 302.1826722366989 730.3668904660094
    vertex -995.2672452931477 314.5391507263863 730.3668904660094
    vertex -993.6479744990714 314.5391507263863 730.3668904660094
  endloop
endfacet
facet normal 0.0 -1.0 0.0
  outer loop
    vertex -993.6479744990714 329.43915072638634 735.3646314089639
    vertex -995.2672452931477 329.43915072638634 730.3668904660094
    vertex -993.6479744990714 329.43915072638634 730.3668904660094
  endloop
endfacet
facet normal 0.0 -1.0 0.0
  outer loop
    vertex -995.2672452931477 329.43915072638634 730.3668904660094
    vertex -993.6479744990714 329.43915072638634 735.3646314089639
    vertex -995.2672452931477 329.43915072638634 735.3646314089639
  endloop
endfacet
facet normal 1.1865138098452637e-14 1.0 -3.6111886739045417e-14
  outer loop
    vertex -1089.2311181728924 450.086353217959 735.3646314089639
    vertex -1074.0203508488605 450.0863532179587 730.3668904660094
    vertex -1089.2311181728921 450.0863532179587 730.3668904660094
  endloop
endfacet
facet normal 1.1865138098452637e-14 1.0 -3.6111886739045417e-14
  outer loop
    vertex -1074.0203508488605 450.0863532179587 730.3668904660094
    vertex -1089.2311181728924 450.086353217959 735.3646314089639
    vertex -1074.0203508488607 450.0863532179587 735.3646314089639
  endloop
endfacet
facet normal 1.0 0.0 1.8055943369523248e-14
  outer loop
    vertex -955.1311181728922 450.0863532179587 730.3668904660094
    vertex -955.1311181728922 331.02000488639436 735.3646314089639
    vertex -955.1311181728922 331.02000488639436 730.3668904660094
  endloop
endfacet
facet normal 1.0 0.0 1.8055943369523248e-14
  outer loop
    vertex -955.1311181728922 331.02000488639436 735.3646314089639
    vertex -955.1311181728922 450.0863532179587 730.3668904660094
    vertex -955.1311181728922 450.0863532179587 735.3646314089639
  endloop
endfacet
facet normal 0.0 1.0 0.0
  outer loop
    vertex -995.2672452931477 314.5391507263863 735.3646314089639
    vertex -993.6479744990714 314.5391507263863 730.3668904660094
    vertex -995.2672452931477 314.5391507263863 730.3668904660094
  endloop
endfacet
facet normal 0.0 1.0 0.0
  outer loop
    vertex -993.6479744990714 314.5391507263863 730.3668904660094
    vertex -995.2672452931477 314.5391507263863 735.3646314089639
    vertex -993.6479744990714 314.5391507263863 735.3646314089639
  endloop
endfacet
endsolid GroundFloorMainV8
